<?xml version="1.0" encoding="UTF-8" standalone="no"?>
<svg
   xmlns:dc="http://purl.org/dc/elements/1.1/"
   xmlns:cc="http://creativecommons.org/ns#"
   xmlns:rdf="http://www.w3.org/1999/02/22-rdf-syntax-ns#"
   xmlns:svg="http://www.w3.org/2000/svg"
   xmlns="http://www.w3.org/2000/svg"
   xmlns:sodipodi="http://sodipodi.sourceforge.net/DTD/sodipodi-0.dtd"
   xmlns:inkscape="http://www.inkscape.org/namespaces/inkscape"
   width="618"
   height="180"
   viewBox="0 0 618 180"
   fill="none"
   version="1.1"
   id="svg50"
   sodipodi:docname="splashlogo.svg"
   inkscape:version="1.0.1 (3bc2e813f5, 2020-09-07)">
  <metadata
     id="metadata56">
    <rdf:RDF>
      <cc:Work
         rdf:about="">
        <dc:format>image/svg+xml</dc:format>
        <dc:type
           rdf:resource="http://purl.org/dc/dcmitype/StillImage" />
        <dc:title />
      </cc:Work>
    </rdf:RDF>
  </metadata>
  <defs
     id="defs54">
    <rect
       x="491.5038"
       y="91.145419"
       width="35.350793"
       height="41.739491"
       id="rect27" />
    <rect
       x="493.20745"
       y="91.571332"
       width="126.92212"
       height="78.793937"
       id="rect21" />
  </defs>
  <sodipodi:namedview
     pagecolor="#ffffff"
     bordercolor="#666666"
     borderopacity="1"
     objecttolerance="10"
     gridtolerance="10"
     guidetolerance="10"
     inkscape:pageopacity="0"
     inkscape:pageshadow="2"
     inkscape:window-width="1920"
     inkscape:window-height="986"
     id="namedview52"
     showgrid="false"
     inkscape:zoom="1.6602135"
     inkscape:cx="316.60095"
     inkscape:cy="134.46549"
     inkscape:window-x="-11"
     inkscape:window-y="-11"
     inkscape:window-maximized="1"
     inkscape:current-layer="svg50"
     inkscape:document-rotation="0" />
  <g
     aria-label="bichromatic pads"
     transform="translate(-33.381062,143.18856)"
     id="text844"
     style="font-size:96px;line-height:1.25;font-family:SNES;-inkscape-font-specification:SNES;white-space:pre;inline-size:439.977;fill:#cccccc;fill-opacity:1">
    <g
       aria-label="Bichromatic Pads"
       id="text869"
       style="font-size:126.667px;line-height:1.25;font-family:SNES;-inkscape-font-specification:SNES;fill:#cccccc;fill-opacity:1">
      <path
         d="m 52.524706,-51.180315 h 23.317057 q 3.277995,0 5.628255,2.412109 2.288411,2.288412 2.288411,5.257162 0,0.804036 -0.185546,1.793619 l -5.195313,27.955729 q -1.113281,5.8138019 -6.865234,7.4218747 2.164713,0.8040365 3.277995,2.8450521 0.865885,1.6080729 0.865885,3.58723948 0,0.4329427 -0.06185,0.92773432 0,0.9277344 -0.06185,1.4225261 L 70.646451,29.408876 q -0.61849,3.525391 -3.339844,5.813802 -2.721354,2.288411 -6.246745,2.288411 H 36.443977 Z m 3.58724,38.964843 h 8.597005 q 1.360677,0 2.412109,-0.927735 0.989583,-0.865885 1.236979,-2.164713 l 4.391276,-22.945963 v -0.371094 q 0,-1.113281 -0.742187,-1.855469 -0.742188,-0.680338 -1.79362,-0.680338 h -8.844401 z m -7.174479,39.70703 h 8.535156 q 1.360677,0 2.412109,-0.865885 0.989583,-0.804037 1.236979,-2.102865 L 65.32744,1.2057515 V 0.89650673 q 0,-1.05143227 -0.742187,-1.79361976 -0.742188,-0.74218747 -1.79362,-0.74218747 h -8.597005 z"
         id="path873"
         style="fill:#cccccc;fill-opacity:1" />
      <path
         d="M 87.34567,37.511089 H 76.6458 L 92.788378,-51.180315 H 103.4264 Z"
         id="path875"
         style="fill:#cccccc;fill-opacity:1" />
      <path
         d="m 96.437464,27.862652 12.740886,-71.002603 q 0.61849,-3.463541 3.40169,-5.751953 2.78321,-2.288411 6.24675,-2.288411 h 15.02929 q 3.21615,0 5.50456,2.35026 2.35026,2.350261 2.35026,5.751953 0,0.865886 -0.1237,1.360677 l -3.95833,22.080078 h -10.26693 l 3.33985,-18.616536 v -0.371094 q 0,-1.113281 -0.74219,-1.855469 -0.74219,-0.680338 -1.85547,-0.680338 h -5.75195 q -1.29883,0 -2.41211,0.865885 -1.05143,0.804037 -1.29883,2.041016 l -11.31836,62.776691 v 0.309245 q 0,1.051432 0.74219,1.855469 0.74219,0.804036 1.85547,0.804036 h 5.6901 q 3.21615,0 3.77279,-3.092448 l 3.33984,-18.5546867 h 10.32878 l -4.20573,23.5644527 q -0.61849,3.463542 -3.46354,5.813802 -2.78321,2.288411 -6.3086,2.288411 h -14.7819 q -3.27799,0 -5.566404,-2.35026 -2.288412,-2.412109 -2.288412,-5.751953 z"
         id="path877"
         style="fill:#cccccc;fill-opacity:1" />
      <path
         d="m 134.59827,37.511089 16.14258,-88.691404 h 10.63802 l -6.92709,38.037108 h 11.44206 l 6.92708,-38.037108 h 10.63803 l -16.08073,88.691404 h -10.69987 l 7.42187,-40.7584624 h -11.44206 l -7.36002,40.7584624 z"
         id="path879"
         style="fill:#cccccc;fill-opacity:1" />
      <path
         d="m 174.86195,37.511089 15.89518,-88.691404 h 23.81185 q 3.21614,0 5.5664,2.35026 2.35026,2.288412 2.47396,5.628255 -0.0618,0.309245 -0.24739,1.484375 l -4.94792,27.955729 q -1.05143,5.8138019 -6.86524,7.4218747 2.16472,0.8040365 3.278,2.8450521 0.86588,1.6080729 0.86588,3.58723948 0,0.4329427 -0.0618,0.92773432 0,0.9277344 -0.0618,1.4225261 l -6.4323,35.0683583 H 197.25127 L 203.74541,1.2057515 V 0.89650673 q 0,-1.05143227 -0.74219,-1.79361976 -0.74219,-0.74218747 -1.79362,-0.74218747 h -8.597 l -6.92709,39.1503895 z m 19.66796,-49.726561 h 8.59701 q 1.36068,0 2.41211,-0.927735 0.98958,-0.865885 1.23698,-2.164713 l 4.20573,-22.945963 v -0.371094 q 0,-1.113281 -0.74219,-1.855469 -0.80404,-0.680338 -1.91732,-0.680338 h -8.53515 z"
         id="path881"
         style="fill:#cccccc;fill-opacity:1" />
      <path
         d="m 217.16663,29.408876 v -1.546224 l 12.74088,-71.002603 q 0.61849,-3.463541 3.4017,-5.751953 2.7832,-2.288411 6.24674,-2.288411 h 15.0293 q 3.21614,0 5.50455,2.35026 2.35026,2.350261 2.35026,5.751953 0,0.865886 -0.12369,1.360677 l -12.74089,71.126301 q -0.61849,3.463542 -3.46354,5.813802 -2.7832,2.288411 -6.30859,2.288411 h -14.7819 q -3.278,0 -5.56641,-2.35026 -2.28841,-2.412109 -2.28841,-5.751953 z m 10.88541,-4.886068 v 0.309245 q 0,1.051432 0.74219,1.855469 0.74219,0.804036 1.85547,0.804036 h 5.69011 q 3.21614,0 3.77278,-3.092448 l 11.31836,-62.652993 v -0.371094 q 0,-1.113281 -0.74219,-1.855469 -0.74218,-0.680338 -1.85547,-0.680338 h -5.75195 q -1.29883,0 -2.41211,0.865885 -1.05143,0.804037 -1.29883,2.041016 z"
         id="path883"
         style="fill:#cccccc;fill-opacity:1" />
      <path
         d="m 271.47,-51.180315 h 12.74089 l -0.68034,63.889973 21.39974,-63.889973 h 14.72005 l -16.08073,88.691404 h -10.69987 l 9.83399,-55.354816 -18.67839,55.354816 h -9.02995 l 0.68034,-56.035155 -9.64843,56.035155 h -10.69987 z"
         id="path885"
         style="fill:#cccccc;fill-opacity:1" />
      <path
         d="m 308.82679,37.511089 29.25456,-88.691404 h 10.63802 l -2.78321,88.691404 h -10.08138 l 0.74219,-14.596354 h -12.12239 l -4.32943,14.596354 z m 28.26497,-24.615885 1.97917,-39.274087 -11.6276,39.274087 z"
         id="path887"
         style="fill:#cccccc;fill-opacity:1" />
      <path
         d="m 352.12105,37.511089 14.34896,-78.671873 h -7.60742 l 1.79362,-10.019531 h 25.79101 l -1.91732,10.019531 h -7.36002 l -14.22526,78.671873 z"
         id="path889"
         style="fill:#cccccc;fill-opacity:1" />
      <path
         d="m 386.44723,37.511089 h -10.69987 l 16.14258,-88.691404 h 10.63802 z"
         id="path891"
         style="fill:#cccccc;fill-opacity:1" />
      <path
         d="m 395.53902,27.862652 12.74088,-71.002603 q 0.61849,-3.463541 3.4017,-5.751953 2.7832,-2.288411 6.24674,-2.288411 h 15.0293 q 3.21614,0 5.50456,2.35026 2.35026,2.350261 2.35026,5.751953 0,0.865886 -0.1237,1.360677 l -3.95834,22.080078 H 426.4635 l 3.33984,-18.616536 v -0.371094 q 0,-1.113281 -0.74219,-1.855469 -0.74218,-0.680338 -1.85546,-0.680338 h -5.75196 q -1.29883,0 -2.41211,0.865885 -1.05143,0.804037 -1.29883,2.041016 l -11.31835,62.776691 v 0.309245 q 0,1.051432 0.74218,1.855469 0.74219,0.804036 1.85547,0.804036 h 5.69011 q 3.21614,0 3.77278,-3.092448 l 3.33985,-18.5546867 h 10.32877 l -4.20573,23.5644527 q -0.61849,3.463542 -3.46354,5.813802 -2.7832,2.288411 -6.30859,2.288411 h -14.7819 q -3.278,0 -5.56641,-2.35026 -2.28841,-2.412109 -2.28841,-5.751953 z"
         id="path893"
         style="fill:#cccccc;fill-opacity:1" />
      <path
         d="m 468.33523,-51.180315 h 23.31706 q 3.27799,0 5.62825,2.412109 2.28842,2.288412 2.28842,5.257162 0,0.804036 -0.18555,1.793619 l -5.6901,31.41927 q -0.61849,3.525391 -3.33985,5.8138025 -2.72135,2.2884114 -6.24674,2.2884114 H 470.1907 L 462.95437,37.572938 H 452.2545 Z m 12.18425,38.964843 q 1.36067,0 2.41211,-0.865886 0.98958,-0.804036 1.23698,-2.102864 l 4.39127,-23.069661 v -0.371094 q 0,-1.113281 -0.74219,-1.855469 -0.74218,-0.680338 -1.79362,-0.680338 h -8.8444 l -5.38086,28.945312 z"
         id="path895"
         style="fill:#cccccc;fill-opacity:1" />
      <path
         d="m 484.04487,37.511089 29.25456,-88.691404 h 10.63802 l -2.78321,88.691404 h -10.08138 l 0.74219,-14.596354 h -12.1224 l -4.32942,14.596354 z m 28.26497,-24.615885 1.97917,-39.274087 -11.62761,39.274087 z"
         id="path897"
         style="fill:#cccccc;fill-opacity:1" />
      <path
         d="m 527.15358,37.511089 16.08073,-88.691404 h 24.05925 q 3.33984,0 5.6901,2.412109 2.22656,2.288412 2.22656,5.195313 0,0.804036 -0.18555,1.855468 l -12.80273,71.126301 q -0.61849,3.463542 -3.33984,5.813802 -2.72136,2.288411 -6.24675,2.288411 z m 21.89453,-10.019531 q 1.36068,0 2.41211,-0.865885 0.98959,-0.865886 1.23698,-2.226563 l 11.44206,-62.652993 q 0.0618,-0.185547 0.0618,-0.432943 0,-1.051432 -0.74219,-1.79362 -0.74219,-0.680338 -1.85547,-0.680338 h -9.58659 l -12.55534,68.652342 z"
         id="path899"
         style="fill:#cccccc;fill-opacity:1" />
      <path
         d="m 574.46807,5.5351785 h 10.26692 l -3.33984,18.9876295 v 0.309245 q 0,1.051432 0.74219,1.855469 0.74218,0.804036 1.79362,0.804036 h 5.6901 q 1.36068,0 2.47396,-0.865885 1.17513,-0.927734 1.42252,-2.226563 l 2.22657,-12.493489 q 0.12369,-0.556641 0.12369,-1.17513 0,-2.4739584 -2.22656,-6.4322916 -0.92773,-1.6699219 -5.25716,-9.7721353 -4.82422,-9.0917971 -5.56641,-10.5143231 -2.35026,-4.638671 -2.35026,-9.091796 0,-0.247396 0,-0.556641 0,-1.051432 0.18555,-2.164713 l 2.65951,-15.338542 q 0.61849,-3.463541 3.46354,-5.751953 2.72135,-2.288411 6.24674,-2.288411 h 14.84375 q 3.21615,0 5.56641,2.35026 2.41211,2.350261 2.41211,5.813802 0,0.804037 -0.1237,1.298828 l -3.89648,21.770833 h -10.39063 l 3.278,-18.307291 q 0.12369,-0.185547 0.12369,-0.494792 0,-0.927734 -0.80403,-1.731771 -0.80404,-0.680338 -1.85547,-0.680338 h -5.69011 q -1.36067,0 -2.4121,0.865885 -1.05144,0.804037 -1.29883,2.041016 l -1.79362,9.833984 q -0.18555,1.113281 -0.18555,2.288411 0,4.329427 2.84505,8.968099 10.57617,17.25585928 11.07097,19.5442707 1.60807,2.9687499 1.60807,6.4941405 -0.0619,1.6080728 -0.3711,3.4016928 l -3.15429,17.132161 q -0.61849,3.463542 -3.40169,5.813802 -2.78321,2.288411 -6.37045,2.288411 h -14.7819 q -3.27799,0 -5.50456,-2.35026 -2.16471,-2.35026 -2.16471,-5.751953 V 27.98635 Z"
         id="path901"
         style="fill:#cccccc;fill-opacity:1" />
    </g>
  </g>
  <g
     aria-label="Mr. Overlay Presents"
     id="text865"
     style="font-style:normal;font-variant:normal;font-weight:bold;font-stretch:normal;font-size:48px;line-height:1.25;font-family:'Franklin Gothic Medium';-inkscape-font-specification:'Franklin Gothic Medium, Bold';fill:#cccccc;fill-opacity:1"
     transform="matrix(0.84025432,0,0,0.74384907,224.88757,22.121158)">
    <path
       d="M 37.563601,81.757599 H 31.680789 V 53.749786 L 22.821414,81.757599 H 19.797976 L 10.891726,53.749786 V 81.757599 H 6.1807885 V 49.765411 h 9.0234375 l 6.703125,20.601563 6.585938,-20.601563 h 9.070312 z"
       style="fill:#cccccc;fill-opacity:1"
       id="path836" />
    <path
       d="m 49.657351,81.757599 h -5.34375 V 58.085724 h 4.828125 v 5.648437 q 1.03125,-3.304687 2.835938,-4.828125 1.804687,-1.523437 3.703125,-1.523437 0.257812,0 0.703125,0.02344 v 5.742188 q -4.078125,0 -5.414063,2.601562 -1.3125,2.601563 -1.3125,5.039063 z"
       style="fill:#cccccc;fill-opacity:1"
       id="path838" />
    <path
       d="m 65.688601,75.616974 v 6.140625 h -5.789062 v -6.140625 z"
       style="fill:#cccccc;fill-opacity:1"
       id="path840" />
    <path
       d="m 95.876101,82.249786 q -6.375,0 -9.9375,-4.78125 -3.539062,-4.78125 -3.539062,-11.8125 0,-6.984375 3.773437,-11.671875 3.773438,-4.710937 9.960938,-4.710937 6.234376,0 9.843746,4.710937 3.63282,4.6875 3.63282,11.742188 0,7.40625 -3.77344,11.976562 -3.75,4.546875 -9.960939,4.546875 z m 0.04687,-4.640625 q 3.117188,0 5.273439,-2.578125 2.15625,-2.578125 2.15625,-9.351562 0,-5.507813 -1.78125,-8.625 -1.781251,-3.140625 -5.531251,-3.140625 -7.40625,0 -7.40625,11.929687 0,5.789063 1.875,8.789063 1.898437,2.976562 5.414062,2.976562 z"
       style="fill:#cccccc;fill-opacity:1"
       id="path842" />
    <path
       d="m 132.48548,58.085724 -8.03907,23.671875 h -4.42968 l -8.22657,-23.671875 h 5.57813 l 5.53125,16.054687 5.39062,-16.054687 z"
       style="fill:#cccccc;fill-opacity:1"
       id="path844" />
    <path
       d="m 151.04798,74.210724 4.82812,0.65625 q -0.9375,3.210937 -3.65625,5.296875 -2.71875,2.085937 -6.82031,2.085937 -4.92188,0 -7.92188,-3.304687 -3,-3.304688 -3,-8.953125 0,-5.367188 3.02344,-8.882813 3.02344,-3.515625 8.20313,-3.515625 5.0625,0 7.82812,3.46875 2.76563,3.46875 2.76563,8.90625 l -0.0234,0.609375 h -16.24219 q 0,2.414063 0.44531,3.867188 0.46875,1.453125 1.82813,2.53125 1.35937,1.078125 3.39844,1.078125 3.96093,0 5.34375,-3.84375 z m -0.32813,-7.078125 q -0.0234,-2.554688 -1.54687,-4.171875 -1.5,-1.617188 -3.72657,-1.617188 -2.20312,0 -3.67968,1.523438 -1.47657,1.5 -1.73438,4.265625 z"
       style="fill:#cccccc;fill-opacity:1"
       id="path846" />
    <path
       d="m 166.51673,81.757599 h -5.34375 V 58.085724 h 4.82812 v 5.648437 q 1.03125,-3.304687 2.83594,-4.828125 1.80469,-1.523437 3.70312,-1.523437 0.25782,0 0.70313,0.02344 v 5.742188 q -4.07813,0 -5.41406,2.601562 -1.3125,2.601563 -1.3125,5.039063 z"
       style="fill:#cccccc;fill-opacity:1"
       id="path848" />
    <path
       d="M 182.40735,81.757599 H 177.0636 V 49.765411 h 5.34375 z"
       style="fill:#cccccc;fill-opacity:1"
       id="path850" />
    <path
       d="m 209.07923,81.757599 h -5.08594 q -0.67969,-2.15625 -0.82031,-4.78125 -2.13282,5.273437 -8.01563,5.273437 -3.53906,0 -5.69531,-2.0625 -2.13281,-2.085937 -2.13281,-5.226562 0,-8.15625 14.32031,-8.15625 0.5625,0 1.52344,0.02344 v -1.78125 q 0,-3.679687 -5.01563,-3.679687 -4.875,0 -5.53125,3.679687 l -4.54687,-0.679687 q 0.375,-2.953125 3.04687,-4.851563 2.67188,-1.921875 7.73438,-1.921875 2.74218,0 4.47656,0.46875 1.73437,0.445313 2.92969,1.546875 1.19531,1.078125 1.64062,2.367188 0.46875,1.265625 0.46875,4.3125 v 10.6875 q 0,2.320312 0.70313,4.78125 z m -5.90625,-12.046875 q -10.35938,0 -10.35938,4.945312 0,1.476563 1.03125,2.53125 1.05469,1.03125 3.16406,1.03125 3.04688,0 4.59375,-1.921875 1.57032,-1.945312 1.57032,-4.40625 z"
       style="fill:#cccccc;fill-opacity:1"
       id="path852" />
    <path
       d="m 232.44641,58.085724 -9.21093,26.953125 q -0.84375,2.484375 -2.32032,3.84375 -1.45312,1.382812 -4.125,1.382812 -1.05468,0 -3.07031,-0.164062 v -4.242188 l 2.55469,0.04687 q 1.6875,0 2.48437,-0.5625 0.82032,-0.539062 1.28907,-1.945312 0.46875,-1.40625 0.46875,-1.640625 0,-0.140625 -0.49219,-1.453125 l -8.13281,-22.21875 h 5.60156 l 5.74219,15.609375 4.94531,-15.609375 z"
       style="fill:#cccccc;fill-opacity:1"
       id="path854" />
    <path
       d="m 254.05579,81.757599 h -5.76563 V 49.765411 h 13.10157 q 5.60156,0 8.29687,2.835938 2.71875,2.8125 2.71875,6.65625 0,4.382812 -2.92969,7.101562 -2.92968,2.71875 -7.42968,2.71875 h -7.99219 z m 0,-17.625 h 6.82031 q 2.67188,0 4.07813,-1.3125 1.40625,-1.3125 1.40625,-3.492188 0,-1.96875 -1.3125,-3.375 -1.28907,-1.40625 -4.6875,-1.40625 h -6.30469 z"
       style="fill:#cccccc;fill-opacity:1"
       id="path856" />
    <path
       d="m 282.08704,81.757599 h -5.34375 V 58.085724 h 4.82812 v 5.648437 q 1.03125,-3.304687 2.83594,-4.828125 1.80469,-1.523437 3.70313,-1.523437 0.25781,0 0.70312,0.02344 v 5.742188 q -4.07812,0 -5.41406,2.601562 -1.3125,2.601563 -1.3125,5.039063 z"
       style="fill:#cccccc;fill-opacity:1"
       id="path858" />
    <path
       d="m 307.70423,74.210724 4.82812,0.65625 q -0.9375,3.210937 -3.65625,5.296875 -2.71875,2.085937 -6.82031,2.085937 -4.92188,0 -7.92188,-3.304687 -3,-3.304688 -3,-8.953125 0,-5.367188 3.02344,-8.882813 3.02344,-3.515625 8.20313,-3.515625 5.0625,0 7.82812,3.46875 2.76563,3.46875 2.76563,8.90625 l -0.0234,0.609375 H 296.6886 q 0,2.414063 0.44531,3.867188 0.46875,1.453125 1.82813,2.53125 1.35937,1.078125 3.39844,1.078125 3.96093,0 5.34375,-3.84375 z m -0.32813,-7.078125 q -0.0234,-2.554688 -1.54687,-4.171875 -1.5,-1.617188 -3.72657,-1.617188 -2.20312,0 -3.67968,1.523438 -1.47657,1.5 -1.73438,4.265625 z"
       style="fill:#cccccc;fill-opacity:1"
       id="path860" />
    <path
       d="m 314.94641,76.320099 5.01563,-0.960938 q 1.14844,2.882813 5.0625,2.882813 4.96875,0 4.96875,-2.929688 0,-0.9375 -0.77344,-1.546875 -0.77344,-0.609375 -1.82812,-0.820312 l -4.3125,-0.820313 q -7.17188,-1.382812 -7.17188,-7.007812 0,-3.140625 2.27344,-5.320313 2.27344,-2.203125 6.77344,-2.203125 7.5,0 9.16406,5.507813 l -4.75781,0.960937 q -0.75,-2.671875 -4.26563,-2.671875 -4.26562,0 -4.26562,2.671875 0,1.851563 3.44531,2.554688 l 5.08594,1.054687 q 5.92968,1.21875 5.92968,6.796875 0,3.914063 -3.04687,5.859375 -3.04688,1.921875 -7.24219,1.921875 -3.63281,0 -6.42187,-1.453125 -2.78907,-1.476562 -3.63282,-4.476562 z"
       style="fill:#cccccc;fill-opacity:1"
       id="path862" />
    <path
       d="m 354.67298,74.210724 4.82812,0.65625 q -0.9375,3.210937 -3.65625,5.296875 -2.71875,2.085937 -6.82031,2.085937 -4.92188,0 -7.92188,-3.304687 -3,-3.304688 -3,-8.953125 0,-5.367188 3.02344,-8.882813 3.02344,-3.515625 8.20313,-3.515625 5.0625,0 7.82812,3.46875 2.76563,3.46875 2.76563,8.90625 l -0.0234,0.609375 h -16.24219 q 0,2.414063 0.44531,3.867188 0.46875,1.453125 1.82813,2.53125 1.35937,1.078125 3.39844,1.078125 3.96093,0 5.34375,-3.84375 z m -0.32813,-7.078125 q -0.0234,-2.554688 -1.54687,-4.171875 -1.5,-1.617188 -3.72657,-1.617188 -2.20312,0 -3.67968,1.523438 -1.47657,1.5 -1.73438,4.265625 z"
       style="fill:#cccccc;fill-opacity:1"
       id="path864" />
    <path
       d="m 384.39173,81.757599 h -5.34375 V 66.968536 q 0,-2.34375 -1.07813,-3.515625 -1.07812,-1.195312 -2.60156,-1.195312 -2.08594,0 -3.65625,1.828125 -1.57031,1.828125 -1.57031,5.507812 v 12.164063 h -5.34375 V 58.085724 h 4.875 v 5.484375 q 2.55468,-5.976563 7.17187,-5.976563 3.11719,0 5.32031,1.96875 2.22657,1.96875 2.22657,6.914063 z"
       style="fill:#cccccc;fill-opacity:1"
       id="path866" />
    <path
       d="m 401.75891,77.585724 v 4.171875 q -2.39062,0.515625 -3.70312,0.515625 -2.15625,0 -3.70313,-0.84375 -1.54687,-0.867188 -2.27343,-2.34375 -0.70313,-1.5 -0.70313,-4.59375 V 62.234161 h -2.95312 v -4.148437 h 3.25781 l 0.49219,-6.164063 4.38281,-0.398437 v 6.5625 h 4.75781 v 4.148437 h -4.75781 v 11.554688 q 0,2.226562 0.79687,3.046875 0.82032,0.796875 3.07032,0.796875 0.63281,0 1.33593,-0.04687 z"
       style="fill:#cccccc;fill-opacity:1"
       id="path868" />
    <path
       d="m 403.3761,76.320099 5.01563,-0.960938 q 1.14843,2.882813 5.0625,2.882813 4.96875,0 4.96875,-2.929688 0,-0.9375 -0.77344,-1.546875 -0.77344,-0.609375 -1.82813,-0.820312 l -4.3125,-0.820313 q -7.17187,-1.382812 -7.17187,-7.007812 0,-3.140625 2.27344,-5.320313 2.27343,-2.203125 6.77343,-2.203125 7.5,0 9.16407,5.507813 l -4.75782,0.960937 q -0.75,-2.671875 -4.26562,-2.671875 -4.26563,0 -4.26563,2.671875 0,1.851563 3.44532,2.554688 l 5.08593,1.054687 q 5.92969,1.21875 5.92969,6.796875 0,3.914063 -3.04687,5.859375 -3.04688,1.921875 -7.24219,1.921875 -3.63281,0 -6.42188,-1.453125 -2.78906,-1.476562 -3.63281,-4.476562 z"
       style="fill:#cccccc;fill-opacity:1"
       id="path870" />
  </g>
</svg>
