<?xml version="1.0" encoding="UTF-8" standalone="no"?>
<svg
   xmlns:dc="http://purl.org/dc/elements/1.1/"
   xmlns:cc="http://creativecommons.org/ns#"
   xmlns:rdf="http://www.w3.org/1999/02/22-rdf-syntax-ns#"
   xmlns:svg="http://www.w3.org/2000/svg"
   xmlns="http://www.w3.org/2000/svg"
   xmlns:sodipodi="http://sodipodi.sourceforge.net/DTD/sodipodi-0.dtd"
   xmlns:inkscape="http://www.inkscape.org/namespaces/inkscape"
   version="1.1"
   id="Ebene_2"
   x="0px"
   y="0px"
   width="601.1402"
   height="103.75898"
   viewBox="0 0 601.14018 103.75898"
   enable-background="new 0 0 566.929 97.854"
   xml:space="preserve"
   sodipodi:docname="3do.svg"
   inkscape:version="1.0.1 (3bc2e813f5, 2020-09-07)"><metadata
   id="metadata107"><rdf:RDF><cc:Work
       rdf:about=""><dc:format>image/svg+xml</dc:format><dc:type
         rdf:resource="http://purl.org/dc/dcmitype/StillImage" /></cc:Work></rdf:RDF></metadata><defs
   id="defs105" /><sodipodi:namedview
   pagecolor="#ffffff"
   bordercolor="#666666"
   borderopacity="1"
   objecttolerance="10"
   gridtolerance="10"
   guidetolerance="10"
   inkscape:pageopacity="0"
   inkscape:pageshadow="2"
   inkscape:window-width="1920"
   inkscape:window-height="986"
   id="namedview103"
   showgrid="false"
   inkscape:zoom="1.7361832"
   inkscape:cx="364.29692"
   inkscape:cy="88.592789"
   inkscape:window-x="-11"
   inkscape:window-y="-11"
   inkscape:window-maximized="1"
   inkscape:current-layer="Ebene_2"
   inkscape:document-rotation="0" />
<g
   id="g100"
   transform="scale(1.0603448)">
	<path
   d="M 90.931,60.036 57.737,40.1 72.492,40.092 c 9.917,0 17.957,-8.04 17.957,-17.957 V 18.17 C 90.449,8.253 82.409,0.213 72.492,0.213 H 0.027 V 60.12 H 11.578 V 10.56 H 54.665 L 70.83,10.548 c 4.777,0 8.649,3.873 8.649,8.649 v 1.91 c 0,4.776 -3.873,8.649 -8.649,8.649 H 20.441 l 50.415,30.28 z"
   id="path2"
   inkscape:connector-curvature="0"
   style="fill:#e6e6e6" />
	<path
   d="M 11.578,10.56 H 54.665 L 70.83,10.548"
   id="path4"
   inkscape:connector-curvature="0" />
	<path
   d="M 72.492,0.213 H 0.027"
   id="path6"
   inkscape:connector-curvature="0" />
	<polygon
   points="143.374,0.213 143.374,60.12 198.012,60.12 236.769,60.108 236.769,49.772 154.925,49.772 154.925,10.56 198.012,10.56 236.769,10.548 236.769,0.213 "
   id="polygon8"
   style="fill:#e6e6e6" />
	<polygon
   points="539.89,60.108 539.89,49.772 458.047,49.772 458.047,0.213 446.496,0.213 446.496,60.12 501.134,60.12 "
   id="polygon10"
   style="fill:#e6e6e6" />
	<polygon
   points="162.728,35.34 162.728,24.993 221.418,24.993 221.418,35.328 "
   id="polygon12"
   style="fill:#e6e6e6" />
	<path
   stroke-miterlimit="10"
   d="M 326.284,0.986"
   id="path14"
   inkscape:connector-curvature="0"
   style="fill:none;stroke:#000000;stroke-width:0.1;stroke-miterlimit:10" />
	<polygon
   points="340.962,14.025 364.022,34.509 331.321,34.509 320.401,44.845 320.401,44.845 375.657,44.845 392.531,59.834 408.094,59.834 340.735,0 277.603,59.834 292.628,59.834 "
   id="polygon16"
   style="fill:#e6e6e6" />
	<rect
   x="109.409"
   y="19.406"
   width="19.004"
   height="19.004"
   id="rect18"
   style="fill:#f01b20" />
	<rect
   x="255.743"
   y="19.406"
   width="19.004"
   height="19.004"
   id="rect20"
   style="fill:#23b14d" />
	<rect
   x="405.87799"
   y="19.406"
   width="19.004999"
   height="19.004"
   id="rect22"
   style="fill:#2993c3" />
	<rect
   y="70.814003"
   width="539.86298"
   height="3.8010001"
   id="rect24"
   x="0"
   style="fill:#e6e6e6" />
	<g
   id="g48">
		<path
   d="m 321.311,82.527 h 7.139 l 5.255,9.757 5.255,-9.757 h 7.139 v 15.158 h -4.522 V 86.799 h -0.042 l -6.092,10.887 h -3.476 l -6.092,-10.887 h -0.042 v 10.887 h -4.522 z"
   id="path26"
   inkscape:connector-curvature="0"
   style="fill:#e6e6e6" />
		<path
   d="m 350.077,82.527 h 4.648 v 8.752 c 0,1.926 0.69,2.68 2.596,2.68 h 4.606 c 1.905,0 2.596,-0.754 2.596,-2.68 v -8.752 h 4.648 v 9.757 c 0,3.769 -1.947,5.569 -6.219,5.569 h -6.657 c -4.271,0 -6.219,-1.801 -6.219,-5.569 v -9.757 z"
   id="path28"
   inkscape:connector-curvature="0"
   style="fill:#e6e6e6" />
		<path
   d="m 373.147,82.527 h 4.648 v 11.264 h 10.448 v 3.895 H 373.146 V 82.527 Z"
   id="path30"
   inkscape:connector-curvature="0"
   style="fill:#e6e6e6" />
		<path
   d="m 387.614,82.527 h 17.713 v 3.769 h -6.532 v 11.39 h -4.648 v -11.39 h -6.532 v -3.769 z"
   id="path32"
   inkscape:connector-curvature="0"
   style="fill:#e6e6e6" />
		<path
   d="m 408.445,82.527 h 4.648 v 15.158 h -4.648 z"
   id="path34"
   inkscape:connector-curvature="0"
   style="fill:#e6e6e6" />
		<path
   d="m 417.322,82.527 h 12.667 c 4.418,0 5.485,2.22 5.485,5.192 v 1.298 c 0,2.262 -0.984,4.857 -4.271,4.857 h -9.233 v 3.811 h -4.648 z m 4.648,7.579 h 7.223 c 1.089,0 1.508,-0.712 1.508,-1.612 v -0.586 c 0,-1.025 -0.503,-1.612 -1.905,-1.612 h -6.825 v 3.81 z"
   id="path36"
   inkscape:connector-curvature="0"
   style="fill:#e6e6e6" />
		<path
   d="m 438.823,82.527 h 4.648 v 11.264 h 10.447 v 3.895 H 438.822 V 82.527 Z"
   id="path38"
   inkscape:connector-curvature="0"
   style="fill:#e6e6e6" />
		<path
   d="m 463.444,82.527 h 6.051 l 8.333,15.158 h -5.172 l -1.444,-2.68 h -9.422 l -1.36,2.68 h -5.193 z m 0.083,9.212 h 5.946 l -3.015,-5.694 z"
   id="path40"
   inkscape:connector-curvature="0"
   style="fill:#e6e6e6" />
		<path
   d="m 484.588,92.409 -8.396,-9.882 h 5.611 l 5.108,6.197 5.108,-6.197 h 5.611 l -8.396,9.882 v 5.276 h -4.648 v -5.276 z"
   id="path42"
   inkscape:connector-curvature="0"
   style="fill:#e6e6e6" />
		<path
   d="m 500.185,82.527 h 16.582 v 3.518 h -11.934 v 2.429 h 11.306 v 3.14 h -11.306 v 2.43 h 12.205 v 3.643 h -16.854 v -15.16 z"
   id="path44"
   inkscape:connector-curvature="0"
   style="fill:#e6e6e6" />
		<path
   d="m 520.681,82.527 h 14.028 c 3.58,0 4.543,1.779 4.543,4.502 v 0.963 c 0,2.03 -0.461,3.224 -2.597,3.727 v 0.042 c 1.382,0.251 2.533,0.858 2.533,3.35 v 2.575 h -4.647 v -1.821 c 0,-1.592 -0.461,-2.115 -1.905,-2.115 h -7.307 v 3.937 h -4.648 z m 4.649,7.453 h 7.684 c 1.256,0 1.717,-0.502 1.717,-1.591 v -0.503 c 0,-1.34 -0.67,-1.591 -2.136,-1.591 h -7.265 z"
   id="path46"
   inkscape:connector-curvature="0"
   style="fill:#e6e6e6" />
	</g>
	<g
   id="g72">
		<path
   d="m 90.971,82.527 h 4.648 v 15.158 h -4.648 z"
   id="path50"
   inkscape:connector-curvature="0"
   style="fill:#e6e6e6" />
		<path
   d="m 99.848,82.527 h 7.202 l 8.73,11.013 h 0.042 V 82.527 h 4.647 v 15.158 h -7.202 l -8.73,-11.013 h -0.042 V 97.685 H 99.847 V 82.527 Z"
   id="path52"
   inkscape:connector-curvature="0"
   style="fill:#e6e6e6" />
		<path
   d="m 123.338,82.527 h 17.712 v 3.769 h -6.532 v 11.39 h -4.648 v -11.39 h -6.532 z"
   id="path54"
   inkscape:connector-curvature="0"
   style="fill:#e6e6e6" />
		<path
   d="M 143.917,82.527 H 160.5 v 3.518 h -11.934 v 2.429 h 11.306 v 3.14 h -11.306 v 2.43 h 12.206 v 3.643 h -16.854 v -15.16 z"
   id="path56"
   inkscape:connector-curvature="0"
   style="fill:#e6e6e6" />
		<path
   d="m 164.414,82.527 h 14.028 c 3.58,0 4.543,1.779 4.543,4.502 v 0.963 c 0,2.03 -0.461,3.224 -2.596,3.727 v 0.042 c 1.382,0.251 2.533,0.858 2.533,3.35 v 2.575 h -4.648 v -1.821 c 0,-1.592 -0.461,-2.115 -1.905,-2.115 h -7.307 v 3.937 h -4.648 z m 4.648,7.453 h 7.683 c 1.257,0 1.717,-0.502 1.717,-1.591 v -0.503 c 0,-1.34 -0.67,-1.591 -2.135,-1.591 h -7.265 z"
   id="path58"
   inkscape:connector-curvature="0"
   style="fill:#e6e6e6" />
		<path
   d="m 193.682,82.527 h 6.051 l 8.333,15.158 h -5.171 l -1.445,-2.68 h -9.422 l -1.36,2.68 h -5.193 z m 0.083,9.212 h 5.946 l -3.015,-5.694 z"
   id="path60"
   inkscape:connector-curvature="0"
   style="fill:#e6e6e6" />
		<path
   d="m 210.22,87.845 c 0,-4.438 2.491,-5.485 6.679,-5.485 h 5.465 c 6.616,0 7.474,1.424 7.433,5.717 h -4.648 v -0.419 c 0,-1.089 -0.795,-1.403 -2.177,-1.403 h -5.067 c -2.449,0 -2.91,1.152 -2.91,3.036 v 1.633 c 0,2.198 0.461,3.036 2.659,3.036 h 4.962 c 2.094,0 2.722,-0.21 2.722,-2.094 h 4.647 v 1.424 c 0,2.555 -0.921,4.564 -5.59,4.564 h -7.496 c -4.188,0 -6.679,-1.047 -6.679,-5.485 z"
   id="path62"
   inkscape:connector-curvature="0"
   style="fill:#e6e6e6" />
		<path
   d="m 232.517,82.527 h 17.712 v 3.769 h -6.532 v 11.39 h -4.648 v -11.39 h -6.532 z"
   id="path64"
   inkscape:connector-curvature="0"
   style="fill:#e6e6e6" />
		<path
   d="m 253.347,82.527 h 4.648 v 15.158 h -4.648 z"
   id="path66"
   inkscape:connector-curvature="0"
   style="fill:#e6e6e6" />
		<path
   d="m 260.758,82.527 h 5.088 l 5.925,11.264 5.925,-11.264 h 5.088 l -8.145,15.158 h -5.737 z"
   id="path68"
   inkscape:connector-curvature="0"
   style="fill:#e6e6e6" />
		<path
   d="m 285.295,82.527 h 16.583 v 3.518 h -11.934 v 2.429 h 11.306 v 3.14 h -11.306 v 2.43 h 12.207 v 3.643 h -16.855 v -15.16 z"
   id="path70"
   inkscape:connector-curvature="0"
   style="fill:#e6e6e6" />
	</g>
	<g
   id="g80">
		<path
   d="m 0.027,92.305 h 4.396 v 0.67 c 0,1.277 0.398,1.612 2.01,1.612 h 5.548 c 1.445,0 1.613,-0.397 1.613,-1.424 0,-1.005 -0.252,-1.465 -1.675,-1.465 H 7.146 v -3.142 h 4.334 c 1.507,0 1.779,-0.376 1.779,-1.465 0,-1.173 -0.732,-1.466 -2.114,-1.466 H 6.539 c -1.507,0 -1.968,0.314 -1.968,1.444 v 0.649 H 0.174 v -0.837 c 0,-4.083 1.989,-4.523 7.684,-4.523 h 3.119 c 5.402,0 6.679,0.838 6.679,4.188 0,2.555 -0.439,2.869 -2.512,3.497 v 0.063 c 2.45,0.419 2.848,1.193 2.848,3.602 0,2.993 -1.047,4.146 -5.255,4.146 H 5.01 c -2.701,0 -4.983,-0.774 -4.983,-3.937 z"
   id="path74"
   inkscape:connector-curvature="0"
   style="fill:#e6e6e6" />
		<path
   d="m 21.926,82.527 h 14.028 c 4.648,0 6.281,1.528 6.281,5.276 v 4.605 c 0,3.748 -1.633,5.276 -6.281,5.276 H 21.926 Z m 4.648,11.264 h 8.25 c 1.989,0 2.763,-0.565 2.763,-2.722 v -2.052 c 0,-2.156 -0.774,-2.722 -2.763,-2.722 h -8.25 z"
   id="path76"
   inkscape:connector-curvature="0"
   style="fill:#e6e6e6" />
		<path
   d="m 45.542,87.845 c 0,-4.438 2.491,-5.485 6.679,-5.485 h 7.454 c 4.188,0 6.679,1.048 6.679,5.485 v 4.523 c 0,4.438 -2.491,5.485 -6.679,5.485 H 52.22 c -4.188,0 -6.679,-1.047 -6.679,-5.485 v -4.523 z m 4.773,3.078 c 0,2.198 0.461,3.036 2.659,3.036 h 5.946 c 2.198,0 2.659,-0.838 2.659,-3.036 V 89.29 c 0,-1.884 -0.46,-3.036 -2.91,-3.036 h -5.444 c -2.449,0 -2.91,1.152 -2.91,3.036 z"
   id="path78"
   inkscape:connector-curvature="0"
   style="fill:#e6e6e6" />
	</g>
	<g
   id="g86">
		<path
   d="M 72.804,90.508 H 70.631 V 84.25 h -2.086 v -1.891 h 6.454 v 1.891 h -2.195 z"
   id="path82"
   inkscape:connector-curvature="0"
   style="fill:#e6e6e6" />
		<path
   d="M 78.267,90.508 H 76.094 V 82.36 h 3.444 l 1.554,5.117 h 0.076 l 1.478,-5.117 h 3.531 v 8.148 h -2.173 l 0.217,-6.246 h -0.076 l -2.064,6.246 h -1.879 l -2.086,-6.246 h -0.065 z"
   id="path84"
   inkscape:connector-curvature="0"
   style="fill:#e6e6e6" />
	</g>
	<g
   id="g92">
		<path
   d="m 548.798,90.676 h -2.173 v -6.258 h -2.086 v -1.891 h 6.453 v 1.891 h -2.194 z"
   id="path88"
   inkscape:connector-curvature="0"
   style="fill:#e6e6e6" />
		<path
   d="m 554.26,90.676 h -2.173 v -8.148 h 3.444 l 1.554,5.117 h 0.076 l 1.478,-5.117 h 3.531 v 8.148 h -2.173 l 0.217,-6.247 h -0.076 l -2.064,6.247 h -1.879 l -2.087,-6.247 h -0.064 z"
   id="path90"
   inkscape:connector-curvature="0"
   style="fill:#e6e6e6" />
	</g>
	<g
   id="g98">
		<path
   d="m 549.946,60.12 h -2.758 v -7.947 h -2.648 v -2.4 h 8.195 v 2.4 h -2.789 z"
   id="path94"
   inkscape:connector-curvature="0"
   style="fill:#e6e6e6" />
		<path
   d="m 556.884,60.12 h -2.758 V 49.772 h 4.373 l 1.973,6.498 h 0.097 l 1.876,-6.498 h 4.484 V 60.12 h -2.758 l 0.275,-7.933 h -0.098 l -2.62,7.933 h -2.388 l -2.648,-7.933 h -0.083 z"
   id="path96"
   inkscape:connector-curvature="0"
   style="fill:#e6e6e6" />
	</g>
</g>
</svg>
