<?xml version="1.0" encoding="UTF-8" standalone="no"?>
<!-- Generator: Adobe Illustrator 13.0.0, SVG Export Plug-In . SVG Version: 6.00 Build 14948)  -->

<svg
   xmlns:dc="http://purl.org/dc/elements/1.1/"
   xmlns:cc="http://creativecommons.org/ns#"
   xmlns:rdf="http://www.w3.org/1999/02/22-rdf-syntax-ns#"
   xmlns:svg="http://www.w3.org/2000/svg"
   xmlns="http://www.w3.org/2000/svg"
   xmlns:sodipodi="http://sodipodi.sourceforge.net/DTD/sodipodi-0.dtd"
   xmlns:inkscape="http://www.inkscape.org/namespaces/inkscape"
   version="1.2"
   id="svg2"
   x="0px"
   y="0px"
   width="602.02557"
   height="176.88383"
   viewBox="0 0 602.02557 176.88384"
   xml:space="preserve"
   sodipodi:docname="logo.svg"
   inkscape:version="0.92.4 (5da689c313, 2019-01-14)"><metadata
   id="metadata30"><rdf:RDF><cc:Work
       rdf:about=""><dc:format>image/svg+xml</dc:format><dc:type
         rdf:resource="http://purl.org/dc/dcmitype/StillImage" /></cc:Work></rdf:RDF></metadata><defs
   id="defs28" /><sodipodi:namedview
   pagecolor="#ffffff"
   bordercolor="#666666"
   borderopacity="1"
   objecttolerance="10"
   gridtolerance="10"
   guidetolerance="10"
   inkscape:pageopacity="0"
   inkscape:pageshadow="2"
   inkscape:window-width="1366"
   inkscape:window-height="704"
   id="namedview26"
   showgrid="false"
   inkscape:zoom="0.61625314"
   inkscape:cx="282.35177"
   inkscape:cy="93.924836"
   inkscape:window-x="0"
   inkscape:window-y="27"
   inkscape:window-maximized="1"
   inkscape:current-layer="svg2" />
<g
   id="layer1"
   transform="translate(2.7083618e-4)">
</g>
<g
   id="layer5"
   transform="translate(2.7083618e-4)">
</g>








<linearGradient
   id="path4019_2_"
   gradientUnits="userSpaceOnUse"
   x1="345.3418"
   y1="32.959"
   x2="345.3418"
   y2="137.959">
	<stop
   offset="0"
   style="stop-color:#BCBCBC"
   id="stop19" />
	<stop
   offset="1"
   style="stop-color:#5B5B5B"
   id="stop21" />
</linearGradient>
<g
   id="g41"
   transform="matrix(1.0660919,0,0,1.0660919,2.8873627e-4,0)"><path
     id="path4"
     d="m 92.609,29.581 c 6.181,-6.782 9.402,-16.306 9.846,-29.116 L 102.471,0 102.016,0.093 C 80.308,4.534 69.097,18.14 68.694,40.532 l -0.008,0.436 0.431,-0.067 c 10.341,-1.619 18.025,-5.323 23.492,-11.32 z"
     inkscape:connector-curvature="0"
     style="fill:#008000" /><path
     id="path6"
     d="m 17.902,144.756 0.399,0.574 c 3.588,5.176 7.703,10.211 12.229,14.971 3.447,3.623 8.938,5.617 15.46,5.617 4.78,0 9.736,-1.124 12.935,-2.934 6.618,-3.74 10.125,-3.748 12.685,-3.752 0.514,0 0.994,-0.002 1.456,-0.029 l 0.418,-0.027 c 0.554,-0.035 1.126,-0.074 1.771,-0.074 2.27,0 5.66,0.445 11.823,3.928 4.301,1.805 8.472,2.718 12.397,2.718 0.001,0 0.001,0 0.002,0 10.686,0 20.056,-6.688 28.644,-20.431 l 0.351,-0.561 z"
     inkscape:connector-curvature="0"
     style="fill:#0000ff" /><path
     id="path8"
     d="m 129.742,59.003 c 1.429,-1.424 2.969,-2.828 4.623,-4.208 l 0.277,-0.231 -0.228,-0.281 C 126.359,44.347 115.329,38.989 102.517,38.787 l -0.587,-0.003 c -6.493,0 -12.235,1.217 -16.604,3.519 -5.666,2.984 -9.88,3.646 -9.921,3.652 -0.074,0.01 -0.538,0.028 -1.81,0.028 -1.544,0 -2.877,-0.025 -3.037,-0.048 L 70.456,45.922 C 68.639,45.687 64.008,44.925 60.254,42.924 55.152,40.204 49.468,38.765 43.817,38.765 l -0.372,0.002 C 28.503,38.934 16.012,46.215 8.251,59.003 Z"
     inkscape:connector-curvature="0"
     style="fill:#008000" /><path
     id="path10"
     d="m 117.214,80.245 c 1.47,-7.11 5.439,-14.013 11.911,-20.619 l 0.61,-0.623 H 8.249 L 8.142,59.18 C 4.419,65.358 1.953,72.504 0.782,80.244 Z"
     inkscape:connector-curvature="0"
     style="fill:#ffff00" /><path
     id="path12"
     d="m 120.06,101.229 c -2.938,-6.035 -4.381,-13.008 -2.919,-20.542 l 0.084,-0.437 H 0.794 l -0.046,0.31 c -0.985,6.711 -0.985,13.658 -0.074,20.668 H 120.06 Z"
     inkscape:connector-curvature="0"
     style="fill:#ff6600" /><path
     id="path14"
     d="m 6.393,123.243 h 133.058 l 0.779,-1.685 -0.32,-0.158 c -6.368,-3.153 -14.905,-10.055 -19.765,-19.967 l -0.101,-0.205 H 0.67 l 0.055,0.414 c 0.812,6.073 2.472,13.45 5.668,21.601 z"
     inkscape:connector-curvature="0"
     style="fill:#ff0000" /><path
     id="path16"
     d="M 17.904,144.756 H 128.46 c 4.221,-6.841 7.701,-14.373 10.758,-20.992 l 0.24,-0.52 H 6.414 l 0.201,0.502 c 2.908,7.264 6.685,14.283 11.289,21.01 z"
     inkscape:connector-curvature="0"
     style="fill:#800080" /><path
     d="m 373.914,38.527 v 78.112 h 18.555 V 38.527 Z m 122.687,0 V 49.02 h 10.902 c 1.353,0 2.447,1.127 2.447,2.516 v 52.112 c 0,1.391 -1.104,2.516 -2.447,2.516 h -10.902 v 10.514 h 29.365 V 38.527 Z m 38.516,0 v 24.235 53.916 h 29.367 v -10.514 h -10.902 c -1.354,0 -2.447,-1.125 -2.447,-2.516 V 51.536 c 0,-1.389 1.094,-2.516 2.447,-2.516 h 10.902 V 38.527 Z M 157.155,57.298 c -8.841,0 -16.031,2.907 -22.043,8.88 -6.054,6.016 -8.912,12.669 -8.912,20.425 0,7.646 3.015,14.396 9.423,20.705 6.392,6.299 13.492,9.33 21.751,9.33 h 11.962 v -13.74 h -4.931 c -4.734,0 -8.978,-1.547 -12.291,-4.563 -3.312,-3.014 -5.113,-7.059 -5.113,-11.525 0,-4.512 1.764,-8.574 5.041,-11.471 3.258,-2.883 7.441,-4.298 12.145,-4.298 h 12.948 c 1.352,0 2.447,1.125 2.447,2.514 v 43.083 h 18.555 v -59.34 z m 53.163,0 v 78.114 h 18.573 V 73.555 c 0,-1.389 1.096,-2.514 2.447,-2.514 h 12.053 c 5.064,0 9.608,1.756 13.167,5.162 3.29,3.152 5.131,7.128 5.131,11.433 0,4.451 -1.977,8.449 -5.534,11.205 -3.511,2.724 -7.878,4.058 -12.765,4.058 h -4.255 v 13.74 h 12.51 c 8.708,0 15.867,-2.806 21.916,-8.521 6.044,-5.714 8.93,-12.373 8.93,-20.576 0,-8.5 -2.894,-15.452 -8.913,-21.4 -6.027,-5.957 -13.029,-8.843 -21.477,-8.843 z m 81.799,0 v 78.114 h 18.555 V 73.555 c 0,-1.389 1.101,-2.514 2.447,-2.514 h 12.071 c 5.063,0 9.605,1.756 13.166,5.162 3.292,3.152 5.132,7.128 5.132,11.433 0,4.457 -1.998,8.453 -5.554,11.205 -3.507,2.72 -7.856,4.058 -12.744,4.058 h -4.257 v 13.74 h 12.511 c 8.707,0 15.847,-2.804 21.896,-8.521 6.045,-5.714 8.938,-12.373 8.938,-20.576 0,-8.5 -2.896,-15.452 -8.913,-21.4 -6.023,-5.958 -13.011,-8.843 -21.458,-8.843 z m 146.646,0 c -9.93,0 -18.368,3.023 -25.694,9.144 -7.346,6.136 -10.721,12.707 -10.721,20.255 0,9.113 3.479,16.156 10.864,21.889 6.922,5.357 15.299,8.053 25.441,8.053 h 37.182 v -13.74 h -35.283 c -4.678,0 -8.897,-1.582 -12.233,-4.619 -3.357,-3.057 -5.188,-7.188 -5.188,-11.784 0,-4.388 1.765,-8.339 4.986,-11.189 3.25,-2.873 7.531,-4.26 12.436,-4.26 h 12.056 c 0.938,0.001 1.791,0.553 2.196,1.419 0.408,0.867 0.3,1.896 -0.278,2.654 l -13.388,17.322 h 20.31 L 475.84,72.734 V 57.298 Z"
     id="path4012_1_"
     inkscape:connector-curvature="0"
     style="fill:#808080" /><path
     d="m 373.694,38.42 v 78.566 h 18.993 V 38.42 Z m 122.686,0 v 10.945 h 11.123 c 0.592,-0.001 1.16,0.239 1.578,0.668 0.418,0.43 0.652,1.015 0.65,1.623 v 52.113 c 0.002,0.604 -0.232,1.188 -0.65,1.621 -0.418,0.43 -0.986,0.67 -1.578,0.668 H 496.38 v 10.965 h 29.808 V 38.42 Z m 38.518,0 v 24.461 54.143 h 29.805 v -10.963 h -11.121 c -0.592,0.002 -1.16,-0.238 -1.578,-0.668 -0.418,-0.434 -0.652,-1.016 -0.645,-1.621 V 51.657 c -0.009,-0.608 0.229,-1.193 0.645,-1.623 0.418,-0.43 0.986,-0.67 1.578,-0.668 h 11.121 V 38.42 Z M 157.155,57.194 c -8.891,0 -16.138,2.923 -22.189,8.936 -6.09,6.05 -8.985,12.775 -8.985,20.591 0,7.713 3.035,14.527 9.479,20.879 6.426,6.332 13.601,9.387 21.915,9.387 h 12.181 v -14.188 h -5.149 c -4.688,0 -8.873,-1.522 -12.145,-4.506 -3.271,-2.979 -5.041,-6.949 -5.041,-11.354 0,-4.458 1.735,-8.425 4.968,-11.286 3.214,-2.846 7.337,-4.263 11.998,-4.263 h 12.948 c 0.592,-0.001 1.16,0.239 1.577,0.669 0.418,0.43 0.653,1.015 0.651,1.62 v 43.313 h 18.993 V 57.194 Z m 52.943,0 v 78.564 H 229.11 V 73.674 c -0.002,-0.605 0.232,-1.19 0.65,-1.62 0.418,-0.43 0.986,-0.67 1.577,-0.669 h 12.053 c 5.016,0 9.501,1.74 13.021,5.106 3.255,3.119 5.06,7.022 5.06,11.264 0,4.388 -1.951,8.302 -5.46,11.021 -3.47,2.688 -7.771,4.021 -12.62,4.021 h -4.475 v 14.189 h 12.729 c 8.756,0 15.991,-2.824 22.08,-8.582 6.084,-5.745 8.984,-12.479 8.984,-20.739 0,-8.559 -2.909,-15.583 -8.967,-21.569 -6.065,-5.995 -13.142,-8.899 -21.641,-8.899 z m 81.798,0 v 78.564 h 18.992 V 73.674 c -10e-4,-0.605 0.231,-1.19 0.649,-1.62 0.42,-0.43 0.983,-0.67 1.58,-0.669 h 12.065 c 5.021,0 9.501,1.74 13.021,5.106 3.254,3.119 5.06,7.022 5.061,11.264 -0.001,4.396 -1.973,8.304 -5.479,11.021 -3.469,2.688 -7.754,4.021 -12.604,4.021 h -4.479 v 14.189 h 12.729 c 8.758,0 15.975,-2.822 22.063,-8.582 6.086,-5.745 8.983,-12.479 8.983,-20.739 0,-8.559 -2.905,-15.583 -8.967,-21.569 -6.063,-5.997 -13.124,-8.899 -21.623,-8.899 z m 146.867,0 c -9.973,0 -18.477,3.027 -25.842,9.18 -7.381,6.166 -10.793,12.823 -10.793,20.442 0,9.178 3.506,16.309 10.938,22.078 6.964,5.387 15.401,8.092 25.588,8.092 h 37.397 V 102.793 H 440.55 c -4.633,0 -8.795,-1.561 -12.09,-4.561 -3.313,-3.021 -5.113,-7.082 -5.113,-11.623 0,-4.33 1.734,-8.188 4.912,-11 3.205,-2.834 7.428,-4.225 12.291,-4.225 h 12.056 c 0.854,-0.002 1.641,0.503 2.01,1.296 0.371,0.794 0.264,1.736 -0.273,2.422 L 440.68,92.787 h 20.875 L 476.057,72.925 V 57.194 Z"
     id="path4019_1_"
     style="fill:url(#path4019_2_)"
     inkscape:connector-curvature="0" /></g>
</svg>