<?xml version="1.0" encoding="UTF-8" standalone="no"?>
<svg
   xmlns:dc="http://purl.org/dc/elements/1.1/"
   xmlns:cc="http://creativecommons.org/ns#"
   xmlns:rdf="http://www.w3.org/1999/02/22-rdf-syntax-ns#"
   xmlns:svg="http://www.w3.org/2000/svg"
   xmlns="http://www.w3.org/2000/svg"
   xmlns:sodipodi="http://sodipodi.sourceforge.net/DTD/sodipodi-0.dtd"
   xmlns:inkscape="http://www.inkscape.org/namespaces/inkscape"
   width="600"
   height="96.396469"
   version="1.1"
   id="svg33"
   sodipodi:docname="logo.svg"
   inkscape:version="0.92.4 (5da689c313, 2019-01-14)">
  <metadata
     id="metadata37">
    <rdf:RDF>
      <cc:Work
         rdf:about="">
        <dc:format>image/svg+xml</dc:format>
        <dc:type
           rdf:resource="http://purl.org/dc/dcmitype/StillImage" />
      </cc:Work>
    </rdf:RDF>
  </metadata>
  <sodipodi:namedview
     pagecolor="#ffffff"
     bordercolor="#666666"
     borderopacity="1"
     objecttolerance="10"
     gridtolerance="10"
     guidetolerance="10"
     inkscape:pageopacity="0"
     inkscape:pageshadow="2"
     inkscape:window-width="1366"
     inkscape:window-height="704"
     id="namedview35"
     showgrid="false"
     inkscape:zoom="0.87"
     inkscape:cx="200"
     inkscape:cy="64.26431"
     inkscape:window-x="0"
     inkscape:window-y="27"
     inkscape:window-maximized="1"
     inkscape:current-layer="svg33" />
  <defs
     id="defs21">
    <linearGradient
       id="a"
       x2="1"
       gradientTransform="matrix(0,-46.391461,46.391461,0,200.00002,46.391769)"
       gradientUnits="userSpaceOnUse">
      <stop
         offset="0"
         stop-color="#fff"
         id="stop2" />
      <stop
         offset=".26694311"
         stop-color="#fff"
         id="stop4" />
      <stop
         offset=".458827"
         stop-color="#8a9cd7"
         id="stop6" />
      <stop
         offset=".65396032"
         stop-color="#fff"
         id="stop8" />
      <stop
         offset="1"
         stop-color="#fff"
         id="stop10" />
    </linearGradient>
    <linearGradient
       id="b"
       x2="1"
       gradientTransform="matrix(0,-17.872542,17.872542,0,200.02066,64.264311)"
       gradientUnits="userSpaceOnUse">
      <stop
         offset="0"
         stop-color="#fff"
         id="stop13" />
      <stop
         offset="1"
         stop-color="#4675c3"
         id="stop15" />
    </linearGradient>
    <clipPath
       id="c">
      <path
         d="M 0,82.668 H 514.55 V 0 H 0 Z"
         id="path18"
         inkscape:connector-curvature="0" />
    </clipPath>
  </defs>
  <g
     id="g44"
     transform="scale(1.5)">
    <path
       id="path23"
       d="m 183.86707,0.938298 c -10.94626,1.305995 -21.38645,4.298902 -30.74609,10.168108 -9.28889,5.830337 -19.46477,8.885434 -30.06821,10.790788 -14.93422,2.673404 -30.030907,3.341949 -45.181233,3.24089 -11.373822,-0.06996 -22.746089,-0.318725 -34.104363,0.04742 -9.677582,0.317948 -19.232339,1.927121 -28.405403,5.269848 -4.305898,1.56253 -8.4034589,3.505976 -11.9016613,6.498882 -2.63453504,2.269945 -3.7858323,5.029638 -3.3808182,7.891167 0.06996404,0.512293 0.19434457,1.025362 0.3653678,1.546983 H 399.59654 c 0.15548,-0.497522 0.27208,-1.011369 0.34205,-1.546983 0.0319,-0.233991 0.0474,-0.474978 0.0552,-0.715965 0.003,-0.09562 0.005,-0.18968 0.006,-0.283743 v -0.1306 c -0.0256,-3.516082 -2.0857,-5.880867 -4.78709,-7.849188 -5.3095,-3.879118 -11.37305,-6.04023 -17.65504,-7.594986 -11.99417,-2.961812 -24.21534,-3.637353 -36.52123,-3.537072 -11.89389,0.09329 -23.79555,0.217666 -35.68866,0.02332 -10.69751,-0.171023 -21.33204,-1.282674 -31.79478,-3.521524 -8.79215,-1.873482 -17.39772,-4.353318 -25.13341,-9.266349 C 236.85996,4.630843 224.01845,1.272568 210.48351,0.363036 206.96899,0.126713 203.45679,0 199.94615,0 194.58224,0 189.223,0.294627 183.86686,0.938296"
       style="fill:url(#a)"
       inkscape:connector-curvature="0" />
    <path
       id="path25"
       d="m 0.4446593,46.392384 c 0.30240015,0.916529 0.7618308,1.841609 1.3837334,2.751142 0.9476241,1.376737 2.1214654,2.65086 3.3808182,3.747741 3.2338937,2.828879 7.1293361,4.562433 11.1165091,5.961714 10.487611,3.69332 21.424546,4.84307 32.440774,5.0926 13.113594,0.29463 26.236517,0.28763 39.357885,0.30241 37.244971,0.0311 74.489171,0.008 111.740361,0.008 v -0.0156 h 46.02857 c 7.54678,-0.003 15.09357,-0.002 22.64036,-0.002 20.27947,0.002 40.56127,0.005 60.84307,-0.0917 2.32436,-0.0117 4.6495,-0.005 6.97619,0.002 10.04217,0.0311 20.09057,0.0614 30.08843,-1.40939 7.23039,-1.06501 14.39704,-2.269943 21.08327,-5.44087 3.74619,-1.780973 7.36955,-3.732193 9.96599,-7.121562 0.90176,-1.173841 1.66359,-2.409873 2.10592,-3.785055 H 0.4446593 Z"
       style="fill:url(#b)"
       inkscape:connector-curvature="0" />
    <g
       id="g31"
       transform="matrix(0.77737829,0,0,-0.77737829,-1.0862693e-6,64.264311)"
       clip-path="url(#c)"
       style="fill:#231f20">
      <path
         id="path27"
         d="m 497.5416,17.6508 c -5.55,-4.73 -12.24,-6.96 -19.08,-8.82 -10.42,-2.83 -21.09,-4.1 -31.86,-4.14 -56.83,-0.22 -113.66,-0.33 -170.5,-0.47 -43.42,-0.11 -86.85,-0.32 -130.27,-0.27 -26.61,0.03 -53.22,0.29 -79.83,0.81 -13.02,0.24 -25.91,2.11 -38.08,7.02 -4.02,1.63 -7.83,4.15 -11.19,6.91 -2.26,1.85 -3.41,4.04 -3.51,6.29 -0.11,2.44 1.02,4.95 3.31,7.18 4.78,4.63 10.81,6.99 17.03,8.82 8.85,2.6 17.95,4 27.13,4.21 17.01,0.38 34.03,0.23 51.03,0.58 18.71,0.39 37.36,1.59 55.66,5.97 7.75,1.86 15.28,4.33 22.56,7.56 0.16,0.07 0.34,0.11 0.4,0.12 3.95,-2.41 7.54,-4.87 11.37,-6.88 6.64,-3.48 13.98,-4.76 21.27,-6.07 12.8,-2.29 25.72,-2.11 38.65,-2.13 13.58,-0.03 27.03,0.87 40.28,4.09 8.04,1.96 15.43,5.17 21.76,10.62 0.2,0.17 0.46,0.27 0.51,0.28 6.61,-2.21 12.84,-4.54 19.22,-6.37 10.61,-3.05 21.49,-4.64 32.47,-5.69 22.67,-2.18 45.42,-1.42 68.14,-1.62 12.54,-0.11 24.99,-1.15 37.13,-4.52 5.99,-1.66 11.75,-3.93 16.57,-8.03 3.08,-2.62 4.5,-5.37 4.3,-8.12 -0.18,-2.48 -1.68,-4.95 -4.47,-7.33 m -285.99,48.97 c 5.3,2.96 11.17,4.16 17.06,5.17 14.96,2.57 30.03,3.01 45.13,1.96 9.96,-0.69 19.89,-1.82 29.37,-5.25 1.84,-0.67 3.65,-1.54 5.26,-2.64 3.59,-2.44 3.68,-5.52 -0.05,-7.7 -2.95,-1.72 -6.22,-3.11 -9.52,-4 -12.96,-3.51 -26.26,-4.18 -36,-4.24 -15.67,0 -27.68,0.7 -39.47,3.39 -3.75,0.86 -7.34,2.39 -10.99,3.62 -0.26,0.09 -0.5,0.22 -0.73,0.37 -1.77,1.14 -3.78,2.18 -3.81,4.65 -0.03,2.49 1.92,3.65 3.75,4.67 m 296.84,-30.09 c -6.83,4.99 -14.63,7.77 -22.71,9.77 -15.43,3.81 -31.15,4.68 -46.98,4.55 -15.3,-0.12 -30.61,-0.28 -45.91,-0.03 -13.76,0.22 -27.44,1.65 -40.9,4.53 -11.31,2.41 -22.38,5.6 -32.33,11.92 -14.87,9.44 -31.39,13.76 -48.8,14.93 -11.43,0.77 -22.84,0.63 -34.24,-0.74 -14.08,-1.68 -27.51,-5.53 -39.55,-13.08 -11.95,-7.5 -25.04,-11.43 -38.68,-13.88 -19.21,-3.44 -38.63,-4.3 -58.12,-4.17 -14.63,0.09 -29.26,0.41 -43.87,-0.06 -12.45,-0.41 -24.74,-2.48 -36.54,-6.78 -5.54,-2.01 -10.81,-4.51 -15.31,-8.36 -3.39,-2.92 -4.87,-6.47 -4.35,-10.15 0.25,-1.83 1,-3.7 2.25,-5.53 1.22,-1.77 2.73,-3.41 4.35,-4.82 4.16,-3.64 9.17,-5.87 14.3,-7.67 13.49,-4.75 27.56,-6.23 41.73,-6.55 16.87,-0.38 33.75,-0.37 50.63,-0.39 47.91,-0.04 95.82,-0.01 143.74,-0.01 v 0.02 h 59.21 c 35.79,0.02 71.59,-0.05 107.39,0.12 15.9,0.08 31.84,-0.52 47.68,1.81 9.3,1.37 18.52,2.92 27.12,7 4.82,2.29 9.48,4.8 12.82,9.16 1.58,2.06 2.83,4.27 3.15,6.86 0.04,0.3 0.06,0.61 0.07,0.92 0.18,4.82 -2.54,8 -6.15,10.63"
         inkscape:connector-curvature="0" />
      <path
         id="path29"
         d="m 280.2916,58.6308 c 0.26,0.82 0.79,2.48 0.79,2.48 0,0 0.834,-1.69 1.174,-2.48 -0.66,-0.06 -1.284,0.06 -1.964,0 m 1.36,9.4 -0.9,-0.03 c -1.69,-4.91 -3.38,-9.81 -5.14,-14.9 h 2.65 c 0.54,1.44 1.05,2.81 1.7,4.55 0.26,-0.82 0.4,-1.27 0.53,-1.69 h 5.31 c -1.43,4.16 -2.79,8.11 -4.15,12.07 m 7.63,-13.3 c -1.4,4.26 -2.84,8.5 -4.21,12.77 -0.64,1.97 -1.89,3.24 -3.96,3.21 -1.96,-0.04 -3.16,-1.27 -3.77,-3.18 -1.15,-3.62 -2.38,-7.22 -3.6,-10.82 -0.15,-0.43 -0.41,-0.83 -0.62,-1.25 -0.14,0.05 -0.29,0.08 -0.43,0.12 v 8.58 h -6.64 l -0.057,-1.941 4.377,-0.019 c 0,0 -0.05,-4.57 -0.05,-6.89 -1.96,0 -3.78,0.02 -5.6,0 -1.8,-0.03 -2.59,0.87 -2.58,2.64 0.03,2.38 -0.01,4.76 0,7.15 0.03,2.32 0.7,2.98 3.07,3.01 2.44,0.02 4.87,0 7.42,0 v 2.24 c -3.05,0 -5.9,0.12 -8.74,-0.04 -2.39,-0.13 -3.95,-1.81 -4,-4.1 -0.08,-3.07 -0.08,-6.13 -0.01,-9.19 0.05,-2.12 1.61,-3.9 3.65,-3.97 3.73,-0.13 7.47,-0.04 11.23,-0.04 0.33,0.9 0.63,1.66 0.89,2.43 1.32,3.85 2.59,7.72 3.98,11.55 0.21,0.6 0.73,1.387 1.42,1.46 0.672,0.071 1.28,-0.37 1.43,-0.77 1.48,-4.05 2.85,-8.14 4.4,-12.64 h -6.56 c 0.04,-0.84 0.06,-1.35 0.09,-1.95 h 9.22 c -0.13,0.63 -0.19,1.15 -0.35,1.64 m -16.64,10.34 v 2.12 c -2.69,0 -5.13,-0.02 -7.57,0 -1.33,0.02 -2.08,-0.69 -2.13,-1.94 -0.09,-2.36 -0.18,-4.75 0.02,-7.1 0.05,-0.71 0.97,-1.78 1.63,-1.91 1.54,-0.28 3.17,-0.09 4.86,-0.09 v 5.15 h -2.54 c 0,-1.11 -0.05,-1.62 -0.05,-2.77 -0.55,0.09 -1,-0.03 -1.52,0.05 v 6.49 z m -21.13,-6.66 c 0,0.24 0.01,0.47 0.02,0.71 h 5.25 c -0.04,0.78 -0.07,1.28 -0.1,1.8 h -7.85 c 0,-1 0.05,-1.828 0.05,-2.6 0,-1.268 0.89,-1.99 1.44,-2.03 2.66,-0.22 5.35,-0.1 8.1,-0.1 v 2.22 z m 6.84,8.76 c -2.66,0 -5.17,0.14 -7.65,-0.09 -0.67,-0.06 -1.8,-0.465 -1.8,-1.91 0,-0.713 -0.06,-1.7 -0.06,-2.85 h 7.92 c -0.04,0.72 -0.07,1.26 -0.11,2.04 h -5.06 c 0,0.21 0,0.42 -0.01,0.62 h 6.77 z m -7.59,-11.82 c -1.86,-0.02 -2.77,0.93 -2.79,2.73 -0.04,2.24 -0.05,4.49 -0.03,6.73 0.02,2.56 0.74,3.28 3.26,3.3 2.36,0.02 4.72,0 7.16,0 v 2.23 c -2.99,0 -5.84,0.13 -8.67,-0.04 -2.24,-0.13 -3.7,-1.53 -3.84,-3.78 -0.21,-3.17 -0.22,-6.38 -0.06,-9.56 0.11,-2.16 1.53,-3.69 3.58,-3.82 2.96,-0.19 5.94,-0.04 9.03,-0.04 v 2.25 c -2.64,0 -5.14,0.01 -7.64,0 m -12.04,8.88 c -0.77,0.09 -1.534,-0.059 -2.294,0.041 0.01,0.2 0.014,0.649 0.034,0.859 h 7.71 c -0.04,0.87 -0.1,2.04 -0.1,2.04 0,0 -5.29,0.18 -7.83,-0.11 -0.83,-0.09 -2.069,-0.602 -2.15,-2.15 -0.086,-1.657 0.273,-2.014 1.023,-2.514 0.366,-0.244 1.077,-0.366 1.467,-0.396 0.61,-0.05 1.22,-0.01 1.84,-0.02 2.09,-0.05 3.46,-1.26 3.52,-3.13 0.07,-1.92 -1.33,-3.43 -3.43,-3.51 -2.49,-0.09 -4.99,-0.02 -7.66,-0.02 0.05,-0.92 0.09,-1.55 0.13,-2.31 2.9,0 5.61,-0.12 8.31,0.03 2.83,0.16 4.94,2.64 4.95,5.5 0.02,3.03 -2.19,5.31 -5.52,5.69 m -4.83,2.25 c -0.522,-0.696 -0.677,-2.231 -0.37,-3.12 0.359,-1.04 1.227,-1.732 2.577,-1.948 0.888,-0.142 1.94,0.008 2.86,-0.172 1.42,-0.28 2.323,-1.15 2.273,-2.61 -0.06,-1.46 -0.94,-2.45 -2.46,-2.49 -2.51,-0.08 -5.02,-0.02 -7.72,-0.02 -0.07,0.68 -0.12,1.23 -0.19,2.07 h 7.8 c 0.03,0.21 0.027,0.684 0.047,0.894 -0.727,0 -1.247,0.006 -1.897,0.036 -3.38,0.14 -5.89,2.43 -5.95,5.46 -0.06,3.13 2.25,5.59 5.64,5.76 2.49,0.13 4.99,0.03 7.6,0.03 v -2.26 c -2.25,0 -4.49,0.18 -6.69,-0.07 -1.24,-0.13 -2.703,-0.472 -3.52,-1.56 m 244.82,-47.51 c -3.35,-0.01 -6.32,2.75 -6.56,6.01 -0.02,0.14 -0.03,0.28 -0.03,0.42 -0.03,3.42 3.04,6.39 6.57,6.38 3.56,-0.01 6.54,-2.98 6.47,-6.47 0,-0.11 -0.01,-0.22 -0.02,-0.33 -0.23,-3.26 -3.12,-5.99 -6.43,-6.01 m -20.15,-6.04 c -0.62,-0.04 -1.33,-0.13 -2.04,-0.13 -8.57,-0.01 -17.15,-0.03 -25.71,0 -5.11,0.02 -7.4,2.4 -7.38,7.56 0.01,1.54 0.01,3.07 0.01,4.62 -0.01,1.37 -0.01,2.74 -0.01,4.11 0.39,0.09 0.65,0.2 0.9,0.2 2.86,0.02 5.72,0.01 8.86,0.01 0.43,-2.41 2.35,-2.23 4.22,-2.22 5.65,0.01 11.29,0 16.94,-0.01 0.86,0 1.73,-0.09 2.66,-0.14 v -4.97 h -23.35 c -0.44,-2.74 0.25,-3.62 2.66,-3.64 6.46,-0.03 12.93,-0.01 19.39,-0.01 h 2.85 z m -55.04,-0.03 h -12.32 c -2.66,3.98 -5.33,7.97 -8.09,12.08 -0.93,1.38 -1.86,2.78 -2.81,4.19 h 11.19 c 0.89,-1.35 1.81,-2.74 2.76,-4.19 0.99,-1.5 2.02,-3.06 3.11,-4.7 1.07,1.62 2.08,3.17 3.08,4.7 0.93,1.42 1.85,2.82 2.78,4.23 h 11.19 c -0.95,-1.43 -1.89,-2.84 -2.82,-4.23 -2.74,-4.09 -5.4,-8.07 -8.07,-12.08 m -31.95,0.02 h -9.7 v 16.25 h 9.7 z m -14.04,-0.11 c -3.52,0 -7.04,-0.14 -10.55,0.09 -0.94,0.07 -2,1.11 -2.66,1.97 -1.81,2.39 -4.06,3.23 -7.04,2.97 -3.1,-0.25 -6.23,-0.05 -9.55,-0.05 v 6.59 h 10.03 c 1.76,0 3.53,0 5.3,0.01 1.22,0.01 1.91,0.14 2.31,0.59 0.35,0.39 0.46,1.05 0.5,2.12 0.01,0.66 0.07,1.32 0.11,2.09 h 9.73 c 0.28,-1.52 0.32,-2.92 0.03,-4.21 -0.47,-2.17 -1.84,-4.02 -4.48,-5.56 2.45,-2.01 4.68,-3.85 6.91,-5.68 -0.21,-0.31 -0.43,-0.62 -0.64,-0.93 m -32.2,0.15 h -9.85 v 16.24 h 9.85 z m -16.44,6.33 c -0.05,-3.44 -2.24,-6.29 -5.61,-6.37 -8.01,-0.2 -16.03,-0.06 -24.3,-0.06 v 5.31 c 0.89,0.05 1.68,0.13 2.47,0.13 4.9,0.01 9.79,-0.01 14.7,0.01 2.27,0.02 2.78,0.52 2.8,2.75 0.01,1.3 0.02,2.6 0.02,3.92 0,1.36 -0.01,2.74 -0.01,4.17 h 10.01 c 0,-1.36 0.01,-2.75 0,-4.14 v -0.03 c -0.02,-1.89 -0.05,-3.79 -0.08,-5.69 m -31.52,-6.33 h -9.78 v 16.22 h 9.78 z m -33.15,0 h -9.73 c -0.06,1.51 -0.13,2.97 -0.21,4.72 h -17.65 v 6.63 h 17.71 v 4.87 h 9.88 z m -29.68,-0.02 h -9.83 v 16.23 h 9.83 z m -14.77,6.49 c -0.21,-3.6 -3.13,-6.55 -6.78,-6.6 -5.37,-0.09 -10.74,-0.04 -16.11,-0.04 -4.02,0 -8.03,-0.03 -12.04,0.02 -4.31,0.04 -6.83,2.61 -6.85,6.86 v 9.65 h 9.94 v -7.59 c 0.01,-3.12 0.3,-3.42 3.35,-3.42 h 15.09 c 0.41,0 0.82,-0.01 1.23,0.02 1.16,0.08 2.14,0.65 1.83,1.87 -0.17,0.67 -1.18,1.55 -1.86,1.59 -3.05,0.18 -6.12,0.09 -9.18,0.09 h -2.7 v 4.77 c 0.11,0.09 0.22,0.25 0.31,0.25 6.05,0 12.1,0.18 18.13,-0.09 1.4,-0.06 2.66,-0.77 3.64,-1.83 1.33,-1.44 2.13,-3.53 2,-5.55 m -47.07,-6.51 c -0.71,-0.04 -1.42,-0.12 -2.15,-0.12 -8.51,-0.01 -17.01,-0.02 -25.52,0 -5.15,0.01 -7.48,2.38 -7.46,7.48 0.01,1.56 0,3.12 0,4.7 v 4.18 h 9.78 c 0.51,-1.89 2.03,-2.11 3.79,-2.1 5.71,0.05 11.43,0.02 17.15,0.02 h 2.84 v -5.13 h -23.38 c -0.36,-2.75 0.33,-3.62 2.74,-3.63 6.54,-0.03 13.07,-0.01 19.6,-0.01 h 2.61 z m -40.86,0.03 h -9.93 v 16.2 h 9.93 z m -22.04,-0.04 h -9.64 v 16.24 h 9.64 z m -21.88,0.03 h -9.69 v 16.28 h 9.69 z m -32.33,6.03 c -3.34,-0.02 -6.32,2.76 -6.55,6.01 -0.03,0.15 -0.03,0.31 -0.03,0.47 0.03,3.39 3,6.31 6.45,6.33 3.6,0.02 6.6,-2.9 6.58,-6.41 0,-0.13 -0.01,-0.26 -0.02,-0.39 -0.23,-3.24 -3.14,-5.99 -6.43,-6.01 m 22.64,17.52 c 0.64,0.06 1.17,0.16 1.69,0.16 15.44,0.01 30.88,0.02 46.32,0 3.56,-0.01 5.71,-2.21 5.55,-5.66 h -53.56 z m 59.4,0.02 h 35.1 v -5.5 h -35.1 z m 45.82,0.13 c 3.95,0.07 7.89,0.02 11.84,0.02 h 24.4 v -5.62 h -41.49 c -0.36,3.21 1.81,5.55 5.25,5.6 m 46.43,-0.02 c 9.78,0.08 19.56,0.08 29.34,0 3.08,-0.02 5.13,-2.45 4.94,-5.59 h -39.34 c 0.06,3.38 1.95,5.57 5.06,5.59 m 57.59,-0.18 c 0.67,0.09 1.12,0.21 1.58,0.21 11.42,0.01 22.85,0.03 34.28,-0.01 3.44,0 5.57,-2.21 5.4,-5.64 h -41.12 c -0.05,0.75 -0.12,1.34 -0.14,1.94 -0.01,1.14 0,2.28 0,3.5 m 52.98,0.17 c 10.13,0.1 20.24,0.1 30.36,0 3.12,-0.03 5.16,-2.54 4.83,-5.63 h -40 c -0.27,3.1 1.75,5.61 4.81,5.63 m 41.44,-0.09 h 9.74 v -5.52 h -9.74 z m 24.43,0.43 c 1.22,-1.83 2.48,-3.72 3.97,-5.93 h -11.23 c -1.16,1.76 -2.45,3.7 -3.92,5.93 z m 22.06,0.02 h 11.21 c -1.44,-2.18 -2.69,-4.06 -3.95,-5.97 h -11.17 c 1.45,2.21 2.68,4.1 3.91,5.97 m 15.09,-0.42 h 35.14 v -5.53 h -35.14 z m 65.09,-6.55 c -2.49,2.13 -5.38,3.97 -8.38,5.24 -8.22,3.51 -16.96,4.94 -25.82,5.33 -8.49,0.36 -17,0.45 -25.51,0.45 -114.42,0.03 -228.83,0.02 -343.25,0.02 -6.26,0 -12.53,0.14 -18.79,-0.07 -10.34,-0.35 -20.61,-1.32 -30.46,-4.86 -4.08,-1.47 -7.98,-3.19 -10.94,-6.48 -1.42,-1.58 -2.09,-3.11 -1.99,-4.65 0.07,-1.34 0.72,-2.68 1.95,-4.08 2.93,-3.33 6.54,-5.68 10.75,-7.15 7.76,-2.71 15.8,-4.04 23.97,-4.38 8.43,-0.36 16.87,-0.47 25.31,-0.47 57.24,-0.04 114.48,-0.02 171.73,-0.02 h 25.52 c 53.3,0.01 106.59,-0.02 159.89,0.06 10.81,0.01 21.6,0.63 32.11,3.62 5.41,1.54 10.37,3.77 14.19,8.01 1.36,1.5 2.12,2.98 2.23,4.41 0.16,1.75 -0.65,3.43 -2.51,5.02"
         inkscape:connector-curvature="0" />
    </g>
  </g>
</svg>
