<?xml version="1.0" encoding="UTF-8" standalone="no"?>
<svg
   xmlns:dc="http://purl.org/dc/elements/1.1/"
   xmlns:cc="http://creativecommons.org/ns#"
   xmlns:rdf="http://www.w3.org/1999/02/22-rdf-syntax-ns#"
   xmlns:svg="http://www.w3.org/2000/svg"
   xmlns="http://www.w3.org/2000/svg"
   xmlns:sodipodi="http://sodipodi.sourceforge.net/DTD/sodipodi-0.dtd"
   xmlns:inkscape="http://www.inkscape.org/namespaces/inkscape"
   width="606.30841"
   height="146.12604"
   viewBox="8.78 12 102.64098 24.717838"
   version="1.1"
   id="svg4"
   sodipodi:docname="logo.svg"
   inkscape:version="0.92.4 (5da689c313, 2019-01-14)">
  <metadata
     id="metadata10">
    <rdf:RDF>
      <cc:Work
         rdf:about="">
        <dc:format>image/svg+xml</dc:format>
        <dc:type
           rdf:resource="http://purl.org/dc/dcmitype/StillImage" />
      </cc:Work>
    </rdf:RDF>
  </metadata>
  <defs
     id="defs8" />
  <sodipodi:namedview
     pagecolor="#ffffff"
     bordercolor="#666666"
     borderopacity="1"
     objecttolerance="10"
     gridtolerance="10"
     guidetolerance="10"
     inkscape:pageopacity="0"
     inkscape:pageshadow="2"
     inkscape:window-width="1366"
     inkscape:window-height="704"
     id="namedview6"
     showgrid="false"
     inkscape:zoom="0.78743411"
     inkscape:cx="198.3516"
     inkscape:cy="21.336766"
     inkscape:window-x="0"
     inkscape:window-y="27"
     inkscape:window-maximized="1"
     inkscape:current-layer="svg4" />
  <path
     d="m 111.42098,17.179953 h -0.48504 v -1.212619 l -0.48504,0.800329 h -0.24253 l -0.24253,-0.800329 v 1.212619 H 109.4808 V 15.1185 h 0.48504 l 0.48506,1.11561 0.48504,-1.11561 h 0.48504 z m -2.18271,-1.697667 h -0.48504 v 1.697667 h -0.48506 v -1.697667 h -0.48504 V 15.1185 h 1.45514 z m -2.66776,7.639504 h -1.45515 v -4.656459 l -1.69766,3.031549 h -0.9701 l -1.45514,-3.031549 V 23.12179 H 99.294791 V 15.1185 h 1.697669 l 1.94018,4.316926 2.18272,-4.316926 h 1.45515 z m -9.458437,0 h -1.697668 l -0.485047,-1.406639 h -2.667764 l -0.485047,1.406639 h -1.697668 l 2.910287,-8.00329 h 1.21262 z m -2.425239,-2.74052 -0.970096,-2.910287 -0.970096,2.910287 z m -7.033195,2.74052 H 82.318113 V 15.1185 h 5.335526 v 1.382386 H 84.01578 v 1.891688 h 3.152812 V 19.77496 H 84.01578 v 1.964444 h 3.637859 z m -7.760767,-6.620904 h -1.94019 V 23.12179 H 76.255014 V 16.500886 H 74.072298 V 15.1185 h 5.820574 z m -7.760765,4.268422 c 0,1.649163 -1.455145,2.400987 -2.910288,2.425239 -1.455144,0 -2.425239,-0.339533 -2.910288,-1.067105 l 0.970097,-0.994348 c 0.485047,0.436543 0.970095,0.679067 1.940191,0.679067 0.970096,0 1.455143,-0.339533 1.455143,-0.994348 0,-0.60631 -0.485047,-0.873087 -0.970095,-0.970096 l -0.970096,-0.121262 c -1.455143,-0.194019 -2.182716,-0.945843 -2.182716,-2.255472 0,-0.727573 0.242525,-1.30963 0.727573,-1.770425 0.485047,-0.436544 1.212619,-0.654815 1.940191,-0.654815 1.21262,0 1.940192,0.315281 2.667764,0.921591 l -0.970097,0.994348 c -0.485047,-0.363786 -0.970095,-0.557805 -1.697667,-0.557805 -0.727572,0.0485 -1.21262,0.315281 -1.21262,1.0186 0,0.557806 0.485048,0.824582 0.970097,0.873087 l 0.970095,0.145514 c 1.21262,0.145514 2.182716,0.970096 2.182716,2.32823 z M 59.763385,19.314165 c 0,2.182715 -1.940192,3.95314 -4.122907,3.95314 -2.182715,0 -3.880383,-1.770425 -3.880383,-3.95314 0,-2.158464 1.697668,-3.928888 3.880383,-3.928888 2.182715,0 4.122907,1.770424 4.122907,3.928888 z m -4.122907,-7.324224 c -3.880383,0 -7.275719,3.249821 -7.275719,7.299971 l -4.607955,6.572399 c -0.242524,-0.02449 -0.242524,-0.04851 -0.485048,-0.04851 -0.970096,0 -1.940191,0.291029 -2.910287,0.776077 L 19.649923,18.247059 c -0.557805,-2.473744 -2.764773,-4.316926 -5.384031,-4.316926 -3.007298,0 -5.485892,2.473744 -5.485892,5.505293 0,3.007297 2.478594,5.481042 5.485892,5.481042 1.043095,0 1.988696,-0.266777 2.81352,-0.776077 l 20.85706,8.342824 c 0.485048,2.546501 2.667764,4.244169 5.335527,4.244169 2.667763,0 5.093003,-2.182716 5.335527,-4.874732 l 7.033194,-5.141507 c 4.122907,0 7.518243,-3.298326 7.518243,-7.372729 -2.43e-4,-4.050149 -3.395578,-7.348475 -7.518485,-7.348475 z m 0,2.425239 c 2.910287,0 5.093003,2.206969 5.093003,4.923236 0,2.740522 -2.182716,4.947489 -5.093003,4.947489 -2.667764,0 -4.85048,-2.206967 -4.85048,-4.947489 0,-2.716267 2.182716,-4.923236 4.85048,-4.923236 z m -41.374586,0.970097 c 1.552153,0 2.910287,0.848833 3.589597,2.13421 l -2.013191,-0.800329 c -1.624911,-0.582057 -3.419588,0.218272 -4.074403,1.81893 -0.630562,1.624911 0.09701,3.44384 1.673415,4.14716 l 1.697668,0.679066 c -0.267018,0.07275 -0.557805,0.09701 -0.873329,0.09701 -2.230978,0 -4.025897,-1.794677 -4.025897,-4.025898 2.43e-4,-2.255473 1.794919,-4.050149 4.02614,-4.050149 z M 43.271756,27.26895 c 2.182716,0 3.880384,1.818929 3.880384,4.05015 0,2.255473 -1.697668,3.953141 -3.880384,3.953141 -1.697667,0 -2.910287,-0.727573 -3.637859,-2.061454 0.727572,0.363786 1.21262,0.60631 1.940192,0.848834 1.697667,0.727571 3.395335,-0.242524 4.122907,-1.794678 0.485047,-1.503406 0,-3.564859 -1.697668,-4.219674 L 42.30166,27.366202 c 0.242525,-0.04875 0.727573,-0.09725 0.970096,-0.09725 z"
     id="path2"
     inkscape:connector-curvature="0"
     style="stroke-width:0.24252395" />
</svg>
