<?xml version="1.0" encoding="UTF-8" standalone="no"?>
<svg
   xmlns:dc="http://purl.org/dc/elements/1.1/"
   xmlns:cc="http://creativecommons.org/ns#"
   xmlns:rdf="http://www.w3.org/1999/02/22-rdf-syntax-ns#"
   xmlns:svg="http://www.w3.org/2000/svg"
   xmlns="http://www.w3.org/2000/svg"
   xmlns:sodipodi="http://sodipodi.sourceforge.net/DTD/sodipodi-0.dtd"
   xmlns:inkscape="http://www.inkscape.org/namespaces/inkscape"
   viewBox="-258.2 372 400.00001 244.46835"
   version="1.1"
   id="svg14"
   sodipodi:docname="logo.svg"
   inkscape:version="0.92.4 (5da689c313, 2019-01-14)">
  <metadata
     id="metadata20">
    <rdf:RDF>
      <cc:Work
         rdf:about="">
        <dc:format>image/svg+xml</dc:format>
        <dc:type
           rdf:resource="http://purl.org/dc/dcmitype/StillImage" />
      </cc:Work>
    </rdf:RDF>
  </metadata>
  <defs
     id="defs18" />
  <sodipodi:namedview
     pagecolor="#ffffff"
     bordercolor="#666666"
     borderopacity="1"
     objecttolerance="10"
     gridtolerance="10"
     guidetolerance="10"
     inkscape:pageopacity="0"
     inkscape:pageshadow="2"
     inkscape:window-width="1366"
     inkscape:window-height="704"
     id="namedview16"
     showgrid="false"
     inkscape:zoom="0.87"
     inkscape:cx="200"
     inkscape:cy="122.23418"
     inkscape:window-x="0"
     inkscape:window-y="27"
     inkscape:window-maximized="1"
     inkscape:current-layer="svg14" />
  <path
     fill="none"
     d="M-549.89793 938.28555h82.3v50h-82.3z"
     id="path2" />
  <g
     id="g27"
     transform="matrix(0.7272994,0,0,0.7272994,-18.411298,136.11129)">
    <path
       id="path4"
       d="m -212.27891,513.17061 h -0.97112 c -26.22016,-12.62452 -39.8158,-27.67683 -39.33024,-43.21471 0.48556,-12.62452 10.68229,-24.76349 30.10463,-34.96022 17.96567,-9.71117 43.70027,-16.99455 74.29046,-21.85014 0.97112,0 1.94223,0.48556 1.94223,1.45668 0,0.97112 -0.48555,1.94223 -1.45667,1.94223 -61.18038,9.71118 -100.02507,30.10464 -100.99618,52.92589 -0.48556,13.59564 12.62452,27.67684 37.38801,39.81581 0.97111,0.48555 1.45667,1.45667 0.97111,2.42779 -0.48555,0.97112 -1.45667,1.45667 -1.94223,1.45667 M 17.97297,418.16525 c 0,0 -0.485558,0 0,0 -19.9079019,-3.39891 -40.301363,-5.34115 -61.665941,-6.31226 -0.971117,0 -1.942234,-0.97112 -1.942234,-1.94224 0,-0.97111 0.971117,-1.94223 1.942234,-1.94223 21.364578,0.97112 41.7580391,3.39891 61.665941,6.31226 0.971117,0 1.456676,0.97112 1.456676,1.94224 0,0.97111 -0.485559,1.94223 -1.456676,1.94223 m -58.2748,124.8949 h -3.39891 1.942234 c 0.485559,0 0.971118,-0.97112 1.456676,-0.97112 99.053955,0 177.22889,-26.22017 178.20001,-59.23815 0.48556,-11.65341 -8.74006,-23.79237 -26.70572,-34.47466 -17.965675,-10.68229 -43.700285,-19.9079 -74.290474,-26.22016 -0.971117,0 -1.456675,-1.45668 -1.456675,-2.4278 0,-0.97111 0.971117,-1.45667 2.427793,-1.45667 31.075751,6.79782 56.810351,15.53787 75.261586,26.70572 19.42234,11.16785 29.13352,24.27793 28.64796,37.38801 -0.48556,17.48011 -19.9079,33.01799 -54.868125,44.18583 -33.50355,11.16785 -78.6604959,16.509 -127.216355,16.509"
       inkscape:connector-curvature="0" />
    <path
       id="path6"
       d="m -6.6846659,448.02128 49.0414179,-37.38802 -57.295914,22.82126 -16.023434,-16.99455 5.341145,23.30681 -49.041418,37.38801 57.295914,-22.82125 16.0234331,16.99455 z"
       inkscape:connector-curvature="0" />
    <path
       id="path8"
       d="m -121.84897,428.53338 3.88447,-20.87902 14.56676,-2.42779 c 1.94223,-0.48556 2.91335,0.97112 2.42779,2.91335 l -2.42779,14.0812 c -0.48556,1.94223 -1.94224,3.39891 -3.88447,3.88447 z m 163.633248,59.23815 3.884469,-20.87902 c 1.456676,-6.79782 8.254498,-13.11008 14.566758,-14.0812 l 26.22016,-4.37003 c 4.37003,-0.48555 7.76894,4.37003 6.79782,9.22562 l -1.45667,6.79782 c -0.97112,4.85558 -5.8267,10.19673 -10.19673,10.68229 l -27.67684,4.37002 -0.48556,2.4278 c -0.48556,2.91335 1.45668,4.85558 3.88447,4.37002 l 30.59019,-4.85558 -1.94223,11.16785 -34.47467,5.34114 c -5.826698,1.45668 -10.682284,-3.39891 -9.711167,-10.19673 m -68.463762,-21.36458 11.167848,-1.94223 -8.254496,45.64251 -11.167848,1.94223 8.254496,-45.64251 c -0.485558,0 0,0 0,0 z m -73.319347,55.83924 -11.167849,1.94223 5.34115,-29.61907 c 0.48555,-3.88447 -0.48556,-4.85559 -3.88447,-4.37003 l -19.9079,2.91335 -6.31227,34.96022 -11.16784,1.94224 8.25449,-45.64251 h 0.48556 l 37.38801,-5.8267 c 5.826705,-0.97112 8.740056,2.42779 7.768939,8.74005 -0.485558,-0.48556 -6.79782,34.96022 -6.79782,34.96022 z m -54.382559,-2.91335 -2.42779,12.13896 -47.09919,7.28338 14.56676,-79.14605 38.84469,-6.31226 -1.94223,10.68229 -27.67684,4.37003 -4.37003,22.82125 22.82125,-3.39891 -1.94223,10.68229 -22.82126,3.39891 -4.37002,22.82125 z m 1.45668,-8.74006 -26.70573,4.37003 0.97112,-5.34114 21.36458,-3.39891 5.34114,-28.1624 -21.36457,3.39891 0.97111,-5.34115 26.70572,-4.37002 z m 59.238141,19.42235 v -0.97112 c 0.971117,0 1.942234,0.48556 2.427792,0 l 22.335696,-3.39891 c -0.971117,4.37003 -6.797821,5.34115 -15.537875,6.79782 l -10.196731,1.45668 -5.341144,29.13351 13.59564,-1.94223 c 33.017985,-3.39891 45.642508,-20.39346 49.526977,-40.30137 l 40.3013631,-6.31226 6.312262,-34.96022 3.3989099,-0.48555 c 3.39891,-0.48556 2.913352,-0.97112 2.427793,2.42779 l -5.8267029,32.04687 28.6479569,-4.37003 0.485558,-1.94224 c 1.942235,0.97112 4.855586,1.45668 7.283379,0.97112 l 50.01254,-7.76894 4.855585,-24.76348 -3.398915,-2.4278 c 2.913355,-3.39891 4.855595,-7.28338 5.826705,-10.68229 l 0.97112,-3.88447 c 2.42779,-14.56675 -11.167855,-18.45122 -17.480115,-17.4801 l -28.64795,4.37002 c -4.85559,0.97112 -10.682294,4.37003 -14.566763,9.22562 -3.884468,-3.88447 -9.711171,-5.34115 -13.110082,-4.85559 l -32.0468669,4.85559 3.39891,7.76893 28.6479569,-4.37002 c 4.370028,-0.48556 6.797821,0.97111 7.768938,4.37002 -0.485559,0.97112 -7.768938,39.81581 -7.768938,39.81581 l -10.19673,1.45667 5.341144,-29.61907 c 0.485559,-3.88447 -0.485558,-4.85559 -3.884468,-4.37003 l -19.9079029,2.91335 -6.312261,34.96022 -11.1678481,1.94224 7.2833791,-39.81581 -9.2256131,-11.16785 -33.503543,12.13897 16.023433,-2.42779 h 0.485559 l -10.19673,54.38256 c -2.427793,13.59564 -17.48011,27.19128 -30.590192,29.13351 l -13.595641,1.94224 1.942235,-10.68229 10.19673,-1.45668 c 8.740055,-1.45667 18.936786,-10.19673 20.87902,-19.9079 l 0.971117,-5.8267 -26.705723,4.37003 c -5.826703,0.97111 -8.740054,-2.4278 -7.768937,-8.74006 l 4.855586,-25.7346 c 0.971117,-4.37003 3.884469,-8.2545 7.283379,-10.19673 v -0.48556 l 13.110082,-10.19673 -7.768938,1.45667 c -4.370027,0.48556 -11.653406,3.88447 -16.508992,9.71117 -3.884469,-4.37002 -10.19673,-6.31226 -13.595645,-5.34114 l -28.64795,4.37003 4.85558,-24.76349 20.87902,-3.39891 c 11.167851,-1.94224 23.306815,-14.0812 25.734608,-25.73461 l 2.913352,-16.99455 c 1.942234,-11.6534 -5.826703,-20.87902 -16.994551,-18.93678 l -45.642509,7.28338 -9.71117,51.95477 -41.75803,6.79782 c -3.39891,0.48555 -6.79782,3.88446 -7.76894,7.76893 l -15.53788,84.00164 c -0.48556,3.88447 1.45668,6.31226 5.34115,5.8267 l 80.11716,-12.62452 6.31226,-34.96022 3.39891,-0.48556 c 3.39891,-0.48556 2.91335,-0.97111 2.4278,2.4278 l -5.82671,32.04686 c -0.48556,-0.97111 28.162401,-5.34114 28.162401,-5.34114 z M 56.351035,468.34919 v 1.45667 l 21.36458,-3.39891 c 1.45667,-0.48556 3.39891,-1.94223 3.88447,-3.88447 0.48556,-1.94223 -0.97112,-2.91335 -2.4278,-2.91335 l -5.34114,0.97112 -8.74005,1.45667 -2.4278,0.48556 c -2.91335,0 -5.8267,2.91336 -6.31226,5.82671 m -131.586378,21.36457 -2.427793,13.59565 c -0.485559,3.88446 0.485559,4.85558 3.884469,4.37002 l 20.879019,-3.39891 4.370028,-23.79237 -20.87902,3.39891 c -3.39891,0.48556 -4.855586,1.94224 -5.826703,5.8267 m 7.283379,4.85559 c 0.485559,-3.39891 1.942234,-2.91335 5.341144,-3.39891 l 3.398911,-0.48556 -0.971118,5.34115 -3.39891,0.48556 c -3.39891,0.48555 -4.855586,1.45667 -4.370027,-1.94224"
       inkscape:connector-curvature="0" />
    <path
       id="path10"
       d="m -29.786573,438.28437 -2.913352,-12.13897 h -1.942234 l -0.485559,2.91336 c -0.485558,1.94223 -1.942234,3.88447 -3.884468,3.88447 l -11.653406,1.94223 c -1.942235,0.48556 -2.913352,-0.97112 -2.913352,-2.91335 l 5.826703,-32.04687 c 0.485559,-1.94223 1.942235,-3.88447 3.884469,-3.88447 l 11.653406,-1.94223 c 1.942234,-0.48556 2.913352,0.97111 2.913352,2.91335 l -0.971118,3.88447 23.7923711,-3.88447 0.971118,-4.85559 c 2.427793,-12.13896 -6.3122621,-21.85013 -17.9656681,-19.9079 l -22.821254,3.39891 c -11.653406,1.94224 -24.27793,14.56676 -26.220164,26.70572 l -6.312262,33.98911 c -2.427793,12.13896 6.312262,21.85013 17.965668,19.9079 l 7.768938,-1.45668 z m 16.960562,-7.26347 c 0.485558,-1.45668 0.971117,-2.42779 1.456675,-3.88447 l 0.971118,-4.37003 -9.711172,1.45668 z"
       inkscape:connector-curvature="0" />
    <path
       id="path12"
       d="m 20.49399,600.93048 c -2.427793,1.94223 -5.341144,2.91335 -8.254496,2.91335 H -9.6106419 c -2.4277931,0 -5.3411451,-0.48556 -7.2833791,-1.94224 -2.913352,-1.94223 -4.370028,-4.37003 -4.855586,-7.28338 -0.485559,-3.39891 0.485558,-6.31226 2.427793,-8.74005 1.942234,-2.42779 4.370027,-3.88447 7.283379,-3.88447 H 13.69617 c 2.427793,0 4.370027,0.97112 6.312262,2.42779 1.942234,1.45668 3.39891,3.39891 3.884469,5.82671 0.971117,4.37002 -0.485559,7.76893 -3.398911,10.68229 M 12.725053,579.08034 H -9.6106419 c -2.9133521,0 -5.3411451,0.48556 -7.7689381,1.45667 -2.913351,1.45668 -4.855586,3.39891 -6.312262,6.31227 -0.971117,2.42779 -1.456675,5.34114 -0.971117,7.76893 0.485559,2.91335 1.456676,5.34115 3.39891,7.76894 2.913352,3.39891 6.797821,4.85559 11.167848,4.85559 h 25.249047 c 2.913351,-0.48556 5.341144,-1.45668 7.768937,-3.39891 2.427793,-2.4278 3.884469,-5.34115 4.370028,-8.74006 0.485558,-3.39891 0,-6.31226 -1.942235,-8.74005 -2.913351,-5.34115 -7.283379,-7.28338 -12.624523,-7.28338 m -159.263223,24.76349 h -27.19127 c -0.97112,0 -0.97112,0 -0.97112,-0.97112 v -19.9079 c 0,-0.97112 0,-0.97112 0.97112,-0.97112 h 25.24904 c 5.34114,0 9.22561,2.91335 10.19673,8.74005 1.45668,6.31227 -1.94223,11.65341 -8.2545,13.11009 m 6.31227,-21.85014 c -2.4278,-1.94223 -4.85559,-2.91335 -7.76894,-2.91335 h -29.61907 c -0.97112,0 -0.97112,0 -0.97112,0.97112 v 26.22016 c 0,0.97112 0.48556,0.97112 0.97112,0.97112 h 29.61907 c 0.97112,0 2.42779,0 3.39891,-0.48556 5.34114,-2.42779 8.74005,-6.31226 9.22561,-12.13897 0.97112,-4.85558 -0.48556,-9.22561 -4.85558,-12.62452 m 86.914984,4.85559 c -0.971117,0.48555 -1.456675,0.48555 -2.427793,0.48555 h -33.017984 c -0.971117,0 -1.456676,-0.48555 -1.456676,-1.45667 v -2.91335 c 0,0 0,-0.97112 0.971117,-0.97112 h 33.989102 c 1.456676,0 1.942234,0.48556 2.427793,1.94223 0.971117,1.45668 0.485559,2.4278 -0.485559,2.91336 m -2.427793,-7.76894 h -36.902453 c -0.971117,0 -0.971117,0.48556 -0.971117,0.97112 v 10.19673 c 0,0.97111 0,0.97111 0.971117,0.97111 h 34.960219 c 1.456676,0 2.913352,0 4.370027,-0.48556 2.427793,-0.97111 4.370028,-3.88446 3.398911,-6.79782 -0.485559,-3.88446 -2.427793,-4.85558 -5.826704,-4.85558 m -54.868121,15.53787 c -0.48556,0.97112 -1.45668,1.94224 -2.42779,1.94224 h -3.88447 c -0.97112,-0.48556 -1.94224,-1.94224 -1.94224,-2.91335 0,-1.45668 1.45668,-2.91336 2.4278,-2.91336 h 1.45667 c 0.97112,0 2.4278,-0.48555 3.39891,0.97112 1.45668,0.97112 1.45668,1.94224 0.97112,2.91335 m 0,-6.79782 c -1.45668,-0.97111 -3.39891,-0.97111 -5.34114,-0.97111 -3.88447,0 -7.28338,4.37002 -6.31227,8.25449 0.97112,2.91335 3.39891,4.37003 7.28338,4.85559 0.48556,0 0.97112,0 1.94224,-0.48556 3.88447,-0.48556 4.85558,-2.91335 5.34114,-5.34115 0.97112,-2.42779 0,-4.37002 -2.91335,-6.31226 m 248.606,-6.79782 c 0,0.48556 0,0.97112 -0.97111,0.97112 h -21.85014 c -0.97112,0 -1.45667,-0.48556 -1.45667,-1.45668 0,-2.42779 0,-4.37002 0.48555,-6.79782 0.48556,-1.94223 2.4278,-4.37002 4.37003,-4.85558 0.97112,0 2.42779,-0.48556 3.39891,-0.48556 h 6.31226 c 1.45668,0 2.4278,-0.97112 2.4278,-2.42779 0,-1.45668 -0.97112,-2.4278 -2.4278,-2.91336 h -11.6534 c -0.97112,0 -0.97112,-0.48555 -0.97112,-0.97111 v -2.4278 c 0,0 0.48556,-1.45667 1.45668,-1.45667 h 12.13896 c 0.97112,0 1.94223,0 2.91335,0.48556 2.91335,0.48556 4.37003,2.42779 5.34115,5.34114 0.97111,3.88447 -0.97112,7.76894 -5.34115,9.22562 h -8.25449 c -1.45668,0 -3.39891,1.45667 -3.39891,2.91335 0,0.48556 0,0.97111 0.97111,0.97111 h 15.05232 c 0.97112,0 0.97112,0.48556 0.97112,0.97112 0,0.48556 0,1.94224 0.48555,2.91335 m 0.48556,-5.8267 h -15.05231 c 0.48556,-0.97112 0.97111,-0.48556 1.45667,-0.48556 h 6.31226 c 0.97112,0 1.45668,0 2.4278,-0.48556 4.85558,-1.45667 6.79782,-5.8267 5.8267,-10.19673 -0.97112,-4.37003 -3.88447,-6.79782 -8.74005,-6.79782 h -14.56676 c -0.97112,0 -1.45668,0.48556 -1.45668,1.45668 v 5.34114 c 0,0.97112 0,0.97112 0.97112,0.97112 h 11.65341 c 1.45667,0 1.94223,0.48556 1.94223,1.45667 0,0.97112 -0.48556,1.45668 -1.94223,1.45668 h -6.31227 c -0.97111,0 -1.94223,0 -2.91335,0.48556 -3.88447,0.97112 -5.8267,4.37003 -5.8267,8.2545 v 6.79782 c 0,0.48555 0,0.97111 0.97112,0.97111 h 25.24904 c 0.97112,0 0.97112,-0.48556 0.97112,-0.97111 v -6.31227 c 0,-1.94223 -0.48556,-1.94223 -0.97112,-1.94223 M 35.060748,596.56045 c -0.971117,4.37003 -2.913351,8.25449 -6.312262,11.16785 -1.942234,1.94223 -4.370027,2.91335 -7.283378,3.88446 -1.942235,0.48556 -4.370028,0.48556 -6.312262,0.48556 h -28.647957 c -8.254496,0 -15.537875,-5.34114 -17.965668,-12.62452 -2.427793,-6.79782 -1.456676,-13.11008 2.913351,-18.93679 2.913352,-3.88446 6.312262,-5.8267 10.68229,-6.79782 1.456675,-0.48555 2.913351,-0.48555 4.370027,-0.48555 h 31.561308 c 4.370028,0 7.768938,1.94223 11.167848,4.37002 2.427793,1.94224 3.884469,4.37003 5.341145,6.79782 0.971117,3.88447 0.971117,8.2545 0.485558,12.13897 M 32.147397,577.1381 c -1.942235,-1.94223 -3.884469,-3.39891 -6.312262,-4.85558 -2.913352,-1.45668 -5.341145,-1.94224 -8.740055,-1.94224 h -34.960218 c -4.370028,0.97112 -8.740055,2.91336 -12.138965,6.31227 -2.427793,1.94223 -3.884469,4.85558 -5.341145,7.76893 -1.942234,4.85559 -2.427793,9.22562 -0.971117,14.0812 1.456676,4.85559 3.884469,9.22562 7.768937,12.13897 4.370028,3.39891 8.740055,4.85558 14.0812,4.85558 h 30.590191 c 1.456676,0 2.913352,-0.48556 4.370027,-0.48556 2.913352,-0.97111 5.826704,-1.94223 8.254496,-3.88446 3.398911,-2.4278 5.826704,-5.34115 7.283379,-9.22562 1.942235,-3.88447 2.427793,-8.25449 1.456676,-12.62452 0,-4.85559 -1.942234,-8.74006 -5.341144,-12.13897 m -160.234337,24.27793 c -0.97112,1.45668 -1.94223,3.39891 -2.91335,4.85559 -1.45668,1.94223 -3.39891,2.91335 -5.34114,4.37003 -2.4278,1.45667 -4.85559,1.94223 -7.28338,2.42779 h -41.27248 c -0.97112,0 -0.97112,0 -0.97112,-0.97112 v -36.90245 c 0,-0.97112 0.48556,-0.97112 0.97112,-0.97112 h 40.78692 c 4.37003,0 8.25449,1.94224 11.6534,4.85559 2.4278,2.42779 4.85559,5.34114 5.82671,8.74005 0.48556,1.45668 0.97111,2.91335 0.97111,4.37003 -0.48555,2.42779 -0.97111,5.8267 -2.42779,9.22561 m -4.37003,-27.19128 c -3.39891,-2.42779 -7.28337,-4.37002 -11.6534,-4.37002 h -44.18583 c -0.97112,0 -0.97112,0 -0.97112,0.97111 v 43.21472 c 0,0.97111 0.48556,0.97111 0.97112,0.97111 h 46.61362 c 5.8267,-0.97111 10.68229,-4.37002 14.0812,-9.22561 2.42779,-3.39891 3.39891,-6.79782 3.88447,-10.68229 0.48556,-3.39891 0,-7.28338 -1.45668,-10.19673 -0.97111,-4.37003 -3.39891,-7.76894 -7.28338,-10.68229 m 90.313902,38.35913 h -6.312262 c -0.485558,0 -0.971117,0 -0.971117,-0.97112 v -6.79782 c 0,-2.42779 -2.427793,-6.31226 -4.855586,-7.28338 -1.456676,-0.48555 -2.427793,-0.48555 -3.884469,-0.48555 h -33.989101 c -0.971117,0 -1.456676,0.48555 -1.456676,1.45667 v 13.11008 c 0,0.97112 0,0.97112 -0.971117,0.97112 h -5.826704 c -0.97112,0 -0.97112,0 -0.97112,-0.97112 v -36.90245 c 0,-0.97112 0,-1.45667 1.456679,-1.45667 h 47.584743 c 4.855585,0 9.711171,3.88446 11.167847,8.74005 0.971117,4.85559 0,8.74005 -3.39891,11.65341 -0.485559,0.48555 -0.971117,0.97111 0,1.94223 0.971117,0.97112 1.942234,2.42779 2.427793,3.39891 0.971117,1.45668 1.456676,3.39891 1.456676,5.34115 v 6.79782 c -0.485559,0.97111 -0.971117,1.45667 -1.456676,1.45667 m 3.884469,-8.74005 c -0.485559,-2.91335 -1.456676,-5.34115 -3.39891,-7.76894 -0.485559,-0.48556 -0.485559,-0.97112 0,-1.45668 0.971117,-0.97111 1.456675,-2.42779 1.942234,-3.39891 1.456676,-2.91335 1.942234,-6.31226 0.971117,-9.22561 -0.971117,-3.39891 -2.427793,-6.31226 -5.341144,-8.2545 -2.913352,-1.94223 -5.826703,-3.39891 -9.225614,-3.39891 h -50.983654 c -0.97111,0 -0.97111,0 -0.97111,0.97112 v 43.70027 c 0,0.97112 0,0.97112 0.97111,0.97112 h 12.624525 c 0.971118,0 0.971118,0 0.971118,-0.97112 v -13.11008 c 0,-0.97111 0.485558,-0.97111 0.971117,-0.97111 h 32.532426 c 2.427793,0.48555 4.370027,2.91335 4.370027,4.85558 v 9.22561 c 0,0.48556 0,0.97112 0.971117,0.97112 h 13.110082 c 0.971117,0 0.971117,-0.48556 0.971117,-0.97112 v -7.76893 c 0,-1.45668 0,-2.4278 -0.485558,-3.39891 M -196.06514,577.62366 c 0,0.97112 0,1.45668 -1.45667,1.45668 h -35.93134 c -5.34114,-0.48556 -11.16785,4.37003 -12.62452,8.74005 -1.94224,4.85559 -0.97112,9.71117 1.94223,14.0812 1.94224,2.4278 4.85559,4.37003 8.2545,4.85559 h 38.84469 c 0.97111,0 1.45667,0 0.97111,0.97112 v 2.91335 c 0,0 0,0.97111 -0.97111,0.97111 h -38.84469 c -4.37003,0 -8.74006,-1.45667 -12.13897,-4.37002 -2.91335,-2.4278 -4.85558,-5.82671 -5.8267,-9.22562 -1.45668,-6.31226 -0.97112,-11.6534 2.91335,-16.99455 2.91335,-4.37002 7.28338,-6.31226 12.13897,-7.76893 0.97111,-0.48556 2.42779,-0.48556 3.39891,-0.48556 h 38.35913 c 0.97111,0 1.45667,0 0.97111,1.45667 v 3.39891 m 1.94224,-7.28338 h -36.90246 c -2.91335,0 -5.8267,0 -8.74005,0.48556 -3.39891,0.48556 -6.31226,1.94224 -8.74006,3.39891 -2.91335,2.4278 -5.34114,4.85559 -7.28337,8.2545 -2.4278,4.85558 -2.91336,9.71117 -1.94224,15.05231 0.97112,4.85559 3.39891,9.22562 6.79782,12.13897 4.37003,3.39891 8.74006,5.34114 14.56676,5.8267 h 42.2436 c 0.97111,0 0.97111,0 0.97111,-0.97111 v -9.22562 c 0,-0.97111 0,-1.45667 -1.45667,-1.45667 h -38.84469 c -3.88447,0 -6.79782,-1.45668 -8.74005,-4.37003 -1.45668,-1.94224 -2.4278,-4.85559 -2.4278,-7.28338 0,-2.91335 1.45668,-5.34114 3.39891,-7.28338 1.94224,-1.45667 3.88447,-2.91335 6.79782,-2.91335 h 39.81581 c 0.97112,0 0.97112,0 0.97112,-0.97112 v -9.71117 c 0.97111,-0.97112 0.48555,-0.97112 -0.48556,-0.97112 m 300.56077,41.75804 h -5.82671 c -0.971115,0 -0.971115,0 -0.971115,-0.97111 v -23.79238 c 0,-2.91335 -1.45668,-5.8267 -3.88447,-7.28337 -1.45668,-0.97112 -2.91335,-1.45668 -4.37003,-1.45668 h -10.19673 c -0.97112,0 -0.97112,0 -0.97112,0.97112 v 31.56131 c 0,0.97111 0,1.45667 -1.45667,1.45667 h -4.85559 c -0.97112,0 -0.97112,-0.48556 -0.97112,-0.97112 v -31.5613 c 0,-0.97112 -0.48556,-1.45668 -1.45667,-1.45668 h -9.71117 c 0,0 -5.82671,1.45668 -7.28338,3.88447 -0.97112,1.45667 -1.45668,2.91335 -1.45668,4.85558 v 23.79238 c 0,0.97111 0,1.45667 -1.45667,1.45667 h -5.826708 c -0.485558,0 -0.971117,0 -0.971117,-0.97112 v -27.67684 c 0,-4.37002 3.884469,-8.74005 7.768935,-9.71117 1.45668,-0.48556 3.39891,-0.48556 4.85559,-0.48556 h 39.33024 c 4.370035,0 7.283385,1.94224 9.711185,5.34115 0.97111,1.45667 1.45667,3.39891 1.45667,5.34114 v 26.70573 c -0.48556,0.97111 -0.48556,0.97111 -1.45667,0.97111 m -0.97112,-38.35913 c -2.91335,-2.42779 -5.826705,-3.39891 -9.711175,-3.39891 h -39.81581 c -1.45667,0 -2.91335,0 -4.37002,0.48556 -2.913356,0.97112 -5.341149,2.4278 -7.283384,4.85559 -1.942234,2.42779 -3.39891,4.85558 -3.39891,8.25449 v 31.07575 c 0,0.97112 0,0.97112 0.971117,0.97112 h 12.624527 c 0.97111,0 1.45667,0 1.45667,-0.97112 v -27.19128 c 0,-1.94223 0.97112,-3.88447 2.91335,-4.85558 0.97112,-0.48556 2.4278,-0.48556 3.39891,-0.48556 h 5.82671 c 0.97111,0 1.45667,0.48556 1.45667,1.45667 v 31.56131 c 0,0.97112 0,0.97112 0.97112,0.97112 h 11.65341 c 0.97111,0 0.97111,-0.48556 0.97111,-0.97112 v -31.56131 c 0,-0.48555 0,-0.97111 0.48556,-0.97111 h 7.76894 c 2.91335,0 4.85559,2.42779 4.85559,5.34114 v 26.70572 c 0,0.97112 0,0.97112 0.97111,0.97112 h 12.624535 c 0.97111,0 0.97111,-0.48556 0.97111,-0.97112 v -29.13351 c 0,-5.34115 -1.94223,-9.22561 -5.34114,-12.13897"
       inkscape:connector-curvature="0"
       style="fill:#0f0f0f" />
  </g>
</svg>
