<?xml version="1.0" encoding="UTF-8" standalone="no"?>
<svg
   xmlns:dc="http://purl.org/dc/elements/1.1/"
   xmlns:cc="http://creativecommons.org/ns#"
   xmlns:rdf="http://www.w3.org/1999/02/22-rdf-syntax-ns#"
   xmlns:svg="http://www.w3.org/2000/svg"
   xmlns="http://www.w3.org/2000/svg"
   xmlns:sodipodi="http://sodipodi.sourceforge.net/DTD/sodipodi-0.dtd"
   xmlns:inkscape="http://www.inkscape.org/namespaces/inkscape"
   viewBox="94 357.6 603.12109 59.859771"
   version="1.1"
   id="svg16"
   sodipodi:docname="logo.svg"
   width="603.12109"
   height="59.859772"
   inkscape:version="0.92.4 (5da689c313, 2019-01-14)">
  <metadata
     id="metadata22">
    <rdf:RDF>
      <cc:Work
         rdf:about="">
        <dc:format>image/svg+xml</dc:format>
        <dc:type
           rdf:resource="http://purl.org/dc/dcmitype/StillImage" />
      </cc:Work>
    </rdf:RDF>
  </metadata>
  <defs
     id="defs20" />
  <sodipodi:namedview
     pagecolor="#ffffff"
     bordercolor="#666666"
     borderopacity="1"
     objecttolerance="10"
     gridtolerance="10"
     guidetolerance="10"
     inkscape:pageopacity="0"
     inkscape:pageshadow="2"
     inkscape:window-width="1366"
     inkscape:window-height="704"
     id="namedview18"
     showgrid="false"
     inkscape:zoom="0.87"
     inkscape:cx="601.07195"
     inkscape:cy="25.31229"
     inkscape:window-x="0"
     inkscape:window-y="27"
     inkscape:window-maximized="1"
     inkscape:current-layer="svg16" />
  <g
     id="g31"
     transform="matrix(0.75390139,0,0,0.75390139,23.133269,88.004863)">
    <path
       id="path2"
       d="m 133.7,357.6 h 720.6 c 21.8,0 39.7,17.9 39.7,39.7 0,21.8 -17.9,39.7 -39.7,39.7 H 133.7 C 111.9,437 94,419.1 94,397.3 c 0,-21.9 17.9,-39.7 39.7,-39.7 z"
       inkscape:connector-curvature="0"
       style="fill:#4e4e4e" />
    <path
       id="path4"
       d="M 535.5,371.1 H 753.1 V 377 H 535.5"
       inkscape:connector-curvature="0"
       style="fill:#ff0000" />
    <path
       id="path6"
       d="m 535.5,382.8 h 217.6 v 5.8 H 535.5"
       inkscape:connector-curvature="0"
       style="fill:#fd4120" />
    <path
       id="path8"
       d="m 535.5,394.4 h 217.6 v 5.8 H 535.5"
       inkscape:connector-curvature="0"
       style="fill:#ffcc00" />
    <path
       id="path10"
       d="m 535.5,406 h 217.6 v 5.8 H 535.5"
       inkscape:connector-curvature="0"
       style="fill:#4dac26" />
    <path
       id="path12"
       d="m 535.5,417.6 h 217.6 v 5.8 H 535.5"
       inkscape:connector-curvature="0"
       style="fill:#00a0c6" />
    <path
       id="path14"
       d="m 817,405.7 c 0,7.4 -6.5,11 -19.4,11 H 791 c -7.3,0 -12.4,-1.3 -15.2,-3.8 -2.8,-2.5 -4.2,-6.9 -4.2,-13.1 v -8.3 c 0,-6.2 1.4,-10.5 4.2,-13 2.8,-2.5 7.9,-3.8 15.2,-3.8 h 6.6 c 6,0 10.5,0.8 13.6,2.4 3,1.6 4.5,4 4.5,7.1 v 3 h -15.6 v -1.1 c 0,-1 -0.3,-1.6 -0.8,-1.9 -0.6,-0.3 -1.7,-0.5 -3.4,-0.5 h -3.7 c -2.1,0 -3.5,0.2 -4,0.5 -0.6,0.3 -0.9,1.1 -0.9,2.4 v 5.7 c 2.3,-1.2 5.1,-1.9 8.4,-1.9 h 5.5 c 5.5,0 9.5,0.9 12.1,2.8 2.5,1.9 3.8,4.7 3.8,8.6 z M 467.8,385.6 h -7.5 v 21.5 h 7.8 v -11.2 c 0,-2.9 1.8,-4.4 5.1,-4.4 3.3,0 4.1,1 4.2,3.7 h 7.3 c 0,-7.3 -1,-10.1 -8.8,-10.1 -4.7,0 -6.4,1 -8.1,4.6 z m -307.6,12.9 h -12.6 v 10.3 h 22.6 z m 10,-12.5 h -22.6 v 10.3 H 160 Z m 333.6,16.8 c -7.5,0 -8.6,-0.7 -8.6,-4.4 h 20.5 c -0.3,-10.4 -0.3,-12.9 -14.2,-12.9 -11.7,0 -14.3,2.1 -14.3,11.4 0,8.6 3.4,10.8 12.9,10.9 10.6,0 15.6,-0.5 15.6,-7.5 H 508 c -0.3,1.7 -0.9,2.5 -4.2,2.5 z m -8.8,-8.9 c 0.3,-2.3 1,-3.1 6.2,-3.1 5.7,0 6.5,0.3 6.9,3.1 z m -291.4,0.8 h 7.8 c -0.7,-7.3 -2.8,-9.1 -13.7,-9.1 -12.4,0 -15.2,2 -15.2,11.1 0,9.1 2.6,11.2 14.2,11.2 12.2,0 14.7,-1.6 14.7,-9.3 h -7.8 c 0,2.1 -0.8,3.1 -6.8,3.1 -5.2,0 -6.4,-1.3 -6.4,-5.5 0,-4.1 1.1,-4.1 7.3,-4.1 4.6,0 5.4,0.5 5.9,2.6 z m 181.7,1.3 c 0,-8.8 -2.6,-10.6 -15.2,-10.6 -13.5,0 -15.2,2.3 -15.2,11.4 0,9.1 2.3,11.1 15.2,11.1 13.7,0 15.2,-2.3 15.2,-11.9 z m -22.3,0.5 c 0,-4.4 1,-4.9 6.7,-4.9 6.4,0 7.5,0.2 7.5,4.9 0,4.4 -0.8,5.2 -6.8,5.2 -6.6,0 -7.4,-0.7 -7.4,-5.2 z m 92.6,-0.5 c 0,-8.8 -2.4,-10.6 -15,-10.6 -13.4,0 -15,2.1 -15,11.2 0,9.3 2.3,11.2 15,11.2 13.7,0.1 15,-2.2 15,-11.8 z m -22.2,0.5 c 0,-4.4 1,-4.9 6.7,-4.9 6.4,0 7.5,0.2 7.5,4.9 0,4.4 -0.8,5.2 -6.8,5.2 -6.6,0 -7.4,-0.7 -7.4,-5.2 z M 246.1,396 c 0,-8.8 -2.4,-10.6 -15,-10.6 -13.5,0 -15.2,2.1 -15.2,11.2 0,9.3 2.3,11.2 15.2,11.2 13.7,0.1 15,-2.2 15,-11.8 z m -22,0.5 c 0,-4.4 1,-4.9 6.5,-4.9 6.4,0 7.5,0.2 7.5,4.9 0,4.4 -0.8,5.2 -6.8,5.2 -6.4,0 -7.2,-0.7 -7.2,-5.2 z M 412.5,376.4 V 389 c -1.8,-2.4 -3.4,-3.7 -9.9,-3.7 -10.4,0 -12.4,2.8 -12.4,11.2 0,8.6 2.8,11.1 12.9,11.1 6.4,0 8.3,-1.6 9.8,-4.4 v 3.9 h 7.8 v -30.6 h -8.2 z m -5.7,15 c 4.4,0 5.9,0.6 5.9,4.1 0,5.2 -0.3,5.7 -6.5,5.7 -6.2,0 -7.8,-0.2 -7.8,-4.6 0,-5 1.9,-5.2 8.4,-5.2 z M 146.9,385.3 V 372 c -2.7,-0.7 -4.5,-1 -7.2,-1 -14,0 -26.3,11.7 -26.3,26.3 0,15 12.4,26.2 26.4,26.2 2.5,0 4,-0.3 7.1,-1.1 v -13.6 c -3.1,1.6 -4.7,2 -7.2,2 -7.8,0 -13.7,-6.5 -13.7,-13.7 0,-7.5 5.8,-13.9 13.6,-13.9 2.6,0 4.9,0.7 7.3,2.1 z m 111.6,0.3 h -7.3 v 21.5 H 259 V 396 c 0,-3.3 1.6,-4.4 6,-4.4 4.1,0 5.2,1.5 5.2,5.5 v 9.9 h 8 v -11.4 c 0,-3.1 2.4,-4.1 6.2,-4.1 3.6,0 5.2,1 5.2,4.1 V 407 h 7.8 v -12.7 c 0,-6.4 -3.9,-9.3 -11.1,-9.3 -6.2,0 -8.5,2.3 -9.3,4.7 -1.6,-2.8 -3.9,-4.7 -10.1,-4.7 -5.9,0 -7.5,2 -8.5,5.5 z m 52.7,0 h -7.3 v 21.5 h 7.8 V 396 c 0,-3.3 2,-4.4 5.9,-4.4 4.1,0 5.2,1.3 5.2,5.5 v 9.9 h 8 v -11.4 c 0,-3.1 2.3,-4.1 6,-4.1 3.6,0 5.4,1.1 5.4,4.1 V 407 h 7.8 v -12.7 c 0,-6.4 -3.9,-9.3 -11.1,-9.3 -6.2,0 -8.3,2.1 -9.3,4.7 -1.6,-2.8 -3.9,-4.7 -10.1,-4.7 -5.7,0 -7.2,2 -8.3,5.5 z m 562.1,23 h -6.6 v 7.7 h -15.6 v -7.7 H 823 l 0.1,-11.2 22.3,-22.1 h 21.3 v 24.2 h 6.6 z m -22.1,-9.1 V 386 l -13.5,13.6 h 13.5 z m -49.8,5.6 v -3 c 0,-1.1 -0.3,-1.7 -1,-2 -0.7,-0.3 -2.2,-0.4 -4.5,-0.4 h -3 c -2.3,0 -3.8,0.1 -4.5,0.4 -0.7,0.3 -1.1,0.9 -1.1,2 v 3 c 0,1.1 0.4,1.8 1.1,2.1 0.7,0.3 2.2,0.4 4.5,0.4 h 3 c 2.4,0 3.9,-0.1 4.5,-0.4 0.7,-0.2 1,-1 1,-2.1 z"
       inkscape:connector-curvature="0"
       style="fill:#ffffff" />
  </g>
</svg>
