<?xml version="1.0" encoding="UTF-8" standalone="no"?>
<!-- Generator: Adobe Illustrator 16.0.3, SVG Export Plug-In . SVG Version: 6.00 Build 0)  -->

<svg
   xmlns:dc="http://purl.org/dc/elements/1.1/"
   xmlns:cc="http://creativecommons.org/ns#"
   xmlns:rdf="http://www.w3.org/1999/02/22-rdf-syntax-ns#"
   xmlns:svg="http://www.w3.org/2000/svg"
   xmlns="http://www.w3.org/2000/svg"
   xmlns:sodipodi="http://sodipodi.sourceforge.net/DTD/sodipodi-0.dtd"
   xmlns:inkscape="http://www.inkscape.org/namespaces/inkscape"
   version="1.1"
   id="Ebene_2"
   x="0px"
   y="0px"
   width="601.14136"
   height="69.382202"
   viewBox="0 0 601.14137 69.382198"
   enable-background="new 0 0 566.93 65.438"
   xml:space="preserve"
   sodipodi:docname="logo.svg"
   inkscape:version="0.92.4 (5da689c313, 2019-01-14)"><metadata
   id="metadata18"><rdf:RDF><cc:Work
       rdf:about=""><dc:format>image/svg+xml</dc:format><dc:type
         rdf:resource="http://purl.org/dc/dcmitype/StillImage" /></cc:Work></rdf:RDF></metadata><defs
   id="defs16" /><sodipodi:namedview
   pagecolor="#ffffff"
   bordercolor="#666666"
   borderopacity="1"
   objecttolerance="10"
   gridtolerance="10"
   guidetolerance="10"
   inkscape:pageopacity="0"
   inkscape:pageshadow="2"
   inkscape:window-width="1366"
   inkscape:window-height="704"
   id="namedview14"
   showgrid="false"
   inkscape:zoom="0.6138324"
   inkscape:cx="343.09411"
   inkscape:cy="29.330889"
   inkscape:window-x="0"
   inkscape:window-y="27"
   inkscape:window-maximized="1"
   inkscape:current-layer="Ebene_2" />










<g
   id="g31"
   transform="matrix(1.0603448,0,0,1.0603448,2.9756826e-4,0.00140155)"><path
     d="m 437.047,26.359 c -1.192,-3.612 -4.341,-7.049 -4.341,-7.049 0,0 -4.731,-6.146 -14.024,-8.242 -7.956,-1.664 -14.208,1.845 -14.208,1.845 0,0 -5.677,2.275 -9.943,6.978 -6.796,6.542 -8.749,16.088 -8.749,16.088 0,0 -2.604,8.314 1.521,14.896 l 4.482,5.422 c 6.326,5.279 13.087,5.819 13.087,5.819 0,0 5.46,1.229 11.824,-0.434 5.563,-1.122 9.614,-3.869 9.614,-3.869 0,0 9.222,-5.097 11.749,-15.509 z M 422.69,43.676 c 0,0 -3.686,6.437 -11.782,5.675 -9.51,-0.975 -10.628,-9.325 -10.628,-9.325 0,0 -1.305,-6.146 4.553,-11.498 5.931,-4.987 12.113,-4.229 12.113,-4.229 0,0 4.154,0.397 6.292,7.268 2.744,8.747 -0.548,12.109 -0.548,12.109"
     id="path5256"
     inkscape:connector-curvature="0"
     style="fill:#2d288b" /><path
     d="m 467.773,43.787 c -3.044,-0.672 -7.917,0.575 -7.917,0.575 0,0 -6.796,2.493 -7.845,2.458 -0.396,-0.577 -1.263,-11.677 -1.012,-16.123 0.146,-7.846 -0.509,-14.243 -0.509,-14.243 0,0 -0.323,-7.558 -4.373,-12.039 -4.771,-4.811 -8.101,-2.747 -10.016,-1.593 -4.591,4.122 -2.457,9.146 -2.457,9.146 l 2.389,6.762 c 0,0 1.155,2.894 1.012,7.628 l 1.012,15.944 c 0,2.133 1.737,16.484 1.737,16.484 0,0 0.176,4.665 4.661,5.496 4.593,0.759 9.109,-1.52 11.025,-2.423 1.917,-0.901 4.447,-1.697 4.447,-1.697 0,0 2.098,-0.471 4.194,-0.65 4.916,-0.472 6.688,-1.338 6.688,-1.338 0,0 1.901,-0.286 3.184,-2.099 1.278,-1.81 2.826,-10.302 -6.22,-12.288"
     id="path5262"
     inkscape:connector-curvature="0"
     style="fill:#639d01" /><path
     d="m 387.3,50.872 c -3.229,-0.969 -6.938,-0.327 -6.938,-0.327 0,0 -10.485,1.011 -15.945,-0.146 -8.457,-1.48 -8.174,-10.592 -8.174,-10.592 0,0 -0.283,-6.039 4.813,-14.208 6.289,-10.088 13.23,-11.895 13.23,-11.895 0,0 1.733,-0.649 3.36,0.217 1.013,5.854 6.688,5.818 6.688,5.818 0,0 8.171,0.545 7.771,-9.359 -0.938,-8.138 -8.782,-9.257 -12.074,-10.018 -9.864,-1.771 -16.269,3.508 -16.269,3.508 0,0 -6.614,3.578 -14.531,16.051 -5.391,7.735 -6.04,13.811 -6.04,13.811 0,0 -0.649,1.446 -0.396,7.883 -0.145,5.023 1.737,8.676 1.737,8.676 0,0 2.854,8.645 11.891,12.187 5.497,2.276 13.525,2.241 13.525,2.241 0,0 7.771,-0.108 13.733,-0.435 3.255,0.252 4.812,-1.447 4.812,-1.447 0,0 3.648,-2.385 3.289,-6.543 0,0 -0.708,-4.295 -4.482,-5.422"
     id="path5264"
     inkscape:connector-curvature="0"
     style="fill:#94012c" /><path
     d="m 152.788,62.488 h -11.956 l -1.598,-36.012 -15.545,36.012 h -7.975 L 109.072,29.931 98.705,62.488 H 78.374 L 75.317,45.085 H 61.495 l -7.84,17.403 H 41.16 L 66.812,4.288 H 81.561 L 89.4,51.328 104.685,4.287 h 11.823 l 5.848,31.893 13.56,-31.893 h 14.351 z M 73.515,33.781 71.326,22.491 66.277,33.781 h 7.238"
     id="path5266"
     inkscape:connector-curvature="0"
     style="fill:#2e3192" /><path
     d="M 187.072,62.488 189.07,50 h -20.866 l 1.654,-10.365 h 18.148 L 190,27.14 h -18.341 l 1.594,-10.366 h 20.861 l 1.995,-12.486 h -33.087 l -9.305,58.2 h 33.355"
     id="path5268"
     inkscape:connector-curvature="0"
     style="fill:#2e3192" /><path
     d="m 342.419,4.287 h -13.954 l -11.827,19 -7.438,-19 h -13.688 l 14.084,30.692 -4.339,27.508 h 11.963 l 3.671,-24.315 21.528,-33.885"
     id="path5270"
     inkscape:connector-curvature="0"
     style="fill:#2e3192" /><path
     d="M 253.306,28.382 C 257.02,12.289 270.775,1.728 284.023,4.791 297.279,7.854 305.012,23.377 301.301,39.47 297.587,55.559 283.834,66.122 270.58,63.059 257.327,59.996 249.595,44.469 253.306,28.382 Z m 18.099,23.023 c 6.327,2.83 14.078,-2.721 17.302,-12.398 3.223,-9.685 0.714,-19.828 -5.614,-22.659 -6.328,-2.832 -14.069,2.722 -17.298,12.404 -3.227,9.683 -0.713,19.821 5.61,22.653"
     id="path5272"
     inkscape:connector-curvature="0"
     style="fill:#2e3192" /><path
     d="m 224.595,16.877 c 0,0 0.265,0 7.786,0 8.439,0 6.727,10.812 -1.316,10.812 -6.596,0 -8.313,0 -8.313,0 z m -3.689,22.679 c 0,0 2.505,0 10.021,0 9.499,0 9.233,11.605 -1.317,11.605 -6.59,0 -10.55,0 -10.55,0 z m -6.595,-34.949 -9.229,57.767 c 0,0 19.122,0 26.903,0 11.076,0 27.276,-16.326 12.531,-29.672 15.162,-15.692 0.126,-27.955 -7.916,-28.095 -6.461,-0.104 -22.416,0 -22.416,0 h 0.127"
     id="path5276"
     inkscape:connector-curvature="0"
     style="fill:#2e3192" /><path
     d="M 15.648,9.468 C 4.252,16.521 -1.228,27.271 0.231,41.89 1.928,58.847 23.887,69.53 42.49,58.769 c 1.629,-0.94 0.992,-0.792 1.595,-1.331 L 47.808,33.782 H 25.614 l -1.702,10.897 h 9.276 l -1.065,5.85 c -5.314,2.125 -14.352,1.327 -18.204,-5.582 -2.44,-4.376 -4.703,-14.142 5.583,-23.124 8.369,-7.309 22.856,-8.633 31.23,-4.78 0,0 1.062,-6.111 1.857,-11.829 C 36.511,-0.366 24.018,4.287 15.648,9.468"
     id="path5274"
     inkscape:connector-curvature="0"
     style="fill:#2e3192" /><path
     d="m 518.642,24.443 c -6.325,-10.339 -17.46,-11.894 -17.46,-11.894 0,0 -3.543,-1.194 -11.133,-0.183 -14.246,2.713 -19.2,13.667 -19.2,13.667 0,0 -5.099,8.024 -3.074,17.75 l 6.224,12.292 c 4.59,4.302 6.469,4.302 6.757,4.558 6.076,2.747 13.125,1.156 13.125,1.156 0,0 8.895,-0.867 17.029,-7.194 6.506,-4.771 9.326,-11.786 9.326,-11.786 l 0.863,-9.41 z m -17.316,21.113 c -10.231,6.146 -16.668,-0.579 -16.668,-0.579 0,0 -2.855,-1.88 -3.47,-7.593 -0.438,-6.615 6.146,-10.05 6.146,-10.05 0,0 3.471,-2.134 7.81,-1.808 4.339,0.324 5.708,0.035 9.219,2.64 3.324,3.002 3.107,5.206 3.107,5.206 0,0 1.195,7.449 -6.144,12.184"
     id="path5258"
     inkscape:connector-curvature="0"
     style="fill:#c8a601" /><path
     d="m 520.234,42.809 c 0,0 0.218,5.783 -0.688,7.194 -1.229,2.639 -1.047,5.206 -1.047,5.206 0,0 -0.835,7.809 8.209,9.107 6.214,-0.035 6.971,-5.206 7.081,-7.411 0.36,-1.732 0.217,-9.798 0.217,-9.798 l 8.063,6.581 c 0,0 5.856,4.917 9.295,7.772 3.581,2.818 4.479,3.325 4.479,3.325 0,0 0.763,0.901 3.506,0.577 2.211,0.038 4.234,-1.952 4.234,-1.952 0,0 2.563,-1.875 3.214,-5.167 0.795,-3.905 -2.24,-5.821 -2.24,-5.821 0,0 -11.205,-9.039 -18.798,-15.258 5.097,-2.783 7.556,-4.699 7.556,-4.699 0,0 7.088,-4.698 8.604,-11.896 2.099,-7.918 -3.867,-11.024 -3.867,-11.024 0,0 -3.726,-2.676 -6.87,-4.087 -7.92,-3.868 -15.293,-3.073 -15.293,-3.073 0,0 -10.483,-0.722 -17.316,7.703 -3.144,4.083 -1.19,9.436 -1.19,9.436 0,0 0.388,0.857 1.263,4.916 1.753,8.167 1.588,18.369 1.588,18.369 z m 13.738,-16.053 -0.688,-9.435 c 0,0 6.614,-0.146 9.363,0.324 5.426,0.831 5.134,2.352 5.134,2.352 0,0 -0.181,1.915 -4.303,3.796 -4.48,2.17 -9.506,2.963 -9.506,2.963"
     id="path5260"
     inkscape:connector-curvature="0"
     style="fill:#00766a" /></g>
</svg>