<?xml version="1.0" encoding="UTF-8" standalone="no"?>
<!-- Generator: Adobe Illustrator 16.0.0, SVG Export Plug-In . SVG Version: 6.00 Build 0)  -->

<svg
   xmlns:dc="http://purl.org/dc/elements/1.1/"
   xmlns:cc="http://creativecommons.org/ns#"
   xmlns:rdf="http://www.w3.org/1999/02/22-rdf-syntax-ns#"
   xmlns:svg="http://www.w3.org/2000/svg"
   xmlns="http://www.w3.org/2000/svg"
   xmlns:sodipodi="http://sodipodi.sourceforge.net/DTD/sodipodi-0.dtd"
   xmlns:inkscape="http://www.inkscape.org/namespaces/inkscape"
   version="1.0"
   id="Layer_1"
   x="0px"
   y="0px"
   width="600.3006"
   height="106.72763"
   viewBox="0 0 600.3006 106.72763"
   enable-background="new 0 0 221.248 39.334"
   xml:space="preserve"
   sodipodi:docname="logo.svg"
   inkscape:version="0.92.4 (5da689c313, 2019-01-14)"><metadata
   id="metadata23"><rdf:RDF><cc:Work
       rdf:about=""><dc:format>image/svg+xml</dc:format><dc:type
         rdf:resource="http://purl.org/dc/dcmitype/StillImage" /></cc:Work></rdf:RDF></metadata><defs
   id="defs21" /><sodipodi:namedview
   pagecolor="#ffffff"
   bordercolor="#666666"
   borderopacity="1"
   objecttolerance="10"
   gridtolerance="10"
   guidetolerance="10"
   inkscape:pageopacity="0"
   inkscape:pageshadow="2"
   inkscape:window-width="1366"
   inkscape:window-height="704"
   id="namedview19"
   showgrid="false"
   inkscape:zoom="1.5728956"
   inkscape:cx="346.88619"
   inkscape:cy="87.060631"
   inkscape:window-x="0"
   inkscape:window-y="27"
   inkscape:window-maximized="1"
   inkscape:current-layer="Layer_1" />







<g
   id="g33"
   transform="matrix(2.7132304,0,0,2.7132304,0.00256103,0)"><path
     id="path2"
     d="m 211.005,19.795 9.112,-11.134 c 1.228,-1.5 1.478,-3.572 0.644,-5.321 -0.831,-1.74 -2.587,-2.846 -4.513,-2.846 -0.01,0 -0.019,0 -0.028,0 l -12.279,0.07 c -1.489,0.009 -2.897,0.681 -3.841,1.833 l -1.67,2.04 -1.671,-2.041 c -0.943,-1.152 -2.351,-1.823 -3.84,-1.832 L 180.64,0.494 c -0.373,-0.003 -0.739,0.05 -1.098,0.129 C 179.056,0.466 178.541,0.38 178.01,0.38 h -21.676 c -1.849,0 -3.444,1.015 -4.31,2.506 -2.341,-1.624 -5.151,-2.412 -7.815,-2.412 h -18.125 c -0.992,0 -1.912,0.298 -2.689,0.796 -0.791,-0.518 -1.726,-0.829 -2.728,-0.829 H 99.25 c -1.809,0 -3.423,0.968 -4.303,2.453 C 91.894,1.021 88.355,0 84.667,0 79.393,0 74.608,2.098 71.072,5.489 L 70.541,3.844 C 69.874,1.78 67.953,0.381 65.783,0.381 H 43.861 c -0.511,0 -0.994,0.099 -1.458,0.241 -0.12,-0.01 -0.238,-0.026 -0.359,-0.027 L 31.466,0.5 C 29.724,0.471 28.12,1.365 27.195,2.827 L 23.897,8.041 20.324,2.666 C 19.406,1.285 17.864,0.449 16.205,0.434 L 5.045,0.333 C 3.2,0.275 1.496,1.318 0.611,2.938 -0.274,4.558 -0.194,6.532 0.818,8.076 l 19,28.979 c 0.925,1.41 2.498,2.258 4.182,2.258 0.017,0 0.034,0 0.051,0 1.703,-0.017 3.281,-0.901 4.185,-2.344 L 38.861,20.018 V 34.08 c 0,2.761 2.239,5 5,5 h 21.922 c 2.169,0 4.091,-1.399 4.758,-3.463 l 0.563,-1.742 c 3.533,3.374 8.305,5.461 13.563,5.461 5.839,0 11.339,-2.57 15.088,-7.052 0.078,-0.094 0.133,-0.198 0.204,-0.296 v 2.084 c 0,2.761 2.239,5 5,5 h 10 c 0.015,0 0.028,-0.004 0.043,-0.004 l 11.077,-0.053 c 0.001,0 0.003,0 0.005,0 h 10.25 c 1.231,0 2.358,-0.445 3.229,-1.183 0.896,0.775 2.054,1.218 3.271,1.218 h 12 c 0.236,0 0.469,-0.019 0.698,-0.051 0.263,0.042 0.527,0.081 0.802,0.081 h 21.676 c 0.434,0 0.853,-0.07 1.259,-0.176 0.432,0.121 0.883,0.188 1.345,0.188 0.01,0 0.019,0 0.028,0 l 12.291,-0.07 c 1.489,-0.009 2.897,-0.681 3.841,-1.833 l 1.657,-2.024 1.656,2.024 c 0.942,1.153 2.351,1.825 3.841,1.833 l 12.291,0.07 c 0.01,0 0.019,0 0.028,0 1.926,0 3.683,-1.107 4.513,-2.847 0.834,-1.749 0.583,-3.822 -0.645,-5.321 z m -111.504,5.788 -5.763,-5.912 0.425,-0.415 c 0.895,0.755 2.031,1.185 3.221,1.185 h 2.575 v 5.709 c -0.142,-0.194 -0.285,-0.389 -0.458,-0.567 z"
     inkscape:connector-curvature="0"
     style="fill:#0072bc" /><path
     id="path4"
     d="m 217.309,4.989 -13.579,0.077 -5.3,6.475 -5.302,-6.475 -13.578,-0.077 12.119,14.808 -12.117,14.799 13.59,-0.078 5.288,-6.461 5.287,6.461 13.59,0.078 -12.118,-14.799 z m -2.122,28.595 -10.992,-0.063 -5.764,-7.043 -5.765,7.043 -10.992,0.063 L 192.963,19.796 181.672,6 l 10.98,0.063 5.778,7.056 5.776,-7.056 L 215.188,6 203.897,19.796 Z"
     inkscape:connector-curvature="0"
     style="fill:#ffffff" /><path
     id="path6"
     d="M 69.125,14.098 66.147,4.881 H 43.361 v 29.697 h 22.786 l 2.978,-9.217 H 52.578 V 23.34 h 8.313 v -7.475 h -8.313 v -1.768 h 16.547 z m -9.234,2.768 v 5.475 h -8.313 v 4.021 H 67.75 l -2.331,7.217 H 44.361 V 5.881 h 21.058 l 2.331,7.217 H 51.578 v 3.768 z"
     inkscape:connector-curvature="0"
     style="fill:#ffffff" /><path
     id="path8"
     d="M 164.959,25.361 V 23.34 h 8.219 v -7.475 h -8.219 v -1.767 h 16.36 l -2.944,-9.217 h -22.541 v 29.697 h 22.541 l 2.944,-9.217 z m 12.686,8.217 H 156.834 V 5.881 h 20.811 l 2.306,7.217 H 163.96 v 3.767 h 8.219 v 5.475 h -8.219 v 4.021 h 15.991 z"
     inkscape:connector-curvature="0"
     style="fill:#ffffff" /><path
     id="path10"
     d="m 151.987,19.521 c 1.478,-2.016 0.868,-6.548 0.845,-6.712 -0.645,-7.739 -8.266,-7.833 -8.622,-7.833 h -0.001 -18.625 v 29.539 h 11.25 v -20.79 h 3.849 c 0.951,0.665 0.906,1.42 0.904,1.445 l -0.008,0.071 0.013,0.071 c 0.175,0.994 0.058,1.744 -0.349,2.229 -0.537,0.64 -1.521,0.735 -2.06,0.736 -0.365,0 -0.624,-0.042 -0.641,-0.044 l -0.584,-0.098 v 9.11 l 4.599,7.305 h 13.13 l -6.796,-12.128 c 1.838,-1.09 3.049,-2.834 3.096,-2.901 z m 1.993,14.028 h -10.87 l -4.151,-6.594 v -7.684 c 0.843,0.028 2.225,-0.104 3.05,-1.088 0.598,-0.712 0.791,-1.718 0.577,-2.991 0.007,-0.328 -0.076,-1.494 -1.483,-2.39 l -0.123,-0.078 h -5.146 v 20.789 h -9.25 V 5.975 h 17.647 c 0.72,0 7.044,0.194 7.607,6.944 0.166,1.196 0.371,4.606 -0.667,6.022 -0.013,0.019 -1.331,1.909 -3.187,2.836 l -0.469,0.234 z"
     inkscape:connector-curvature="0"
     style="fill:#ffffff" /><path
     id="path12"
     d="m 98.834,4.942 -2.053,11 h 7.677 V 34.57 h 11 V 15.942 h 7.676 l -2.053,-11 z m 15.625,10 V 33.57 h -9 V 14.942 h -7.473 l 1.68,-9 h 20.586 l 1.68,9 z"
     inkscape:connector-curvature="0"
     style="fill:#ffffff" /><path
     id="path14"
     d="m 84.667,13.881 c 2.007,0 3.842,1.017 4.908,2.72 l 0.329,0.525 6.828,-6.662 -0.288,-0.354 C 93.548,6.544 89.255,4.5 84.667,4.5 76.304,4.5 69.5,11.304 69.5,19.667 c 0,8.363 6.804,15.167 15.167,15.167 4.503,0 8.745,-1.982 11.637,-5.439 l 0.29,-0.346 -6.681,-6.854 -0.338,0.539 c -1.066,1.703 -2.901,2.72 -4.908,2.72 -3.19,0 -5.786,-2.596 -5.786,-5.786 0,-3.19 2.596,-5.787 5.786,-5.787 z m -6.786,5.786 c 0,3.742 3.044,6.786 6.786,6.786 2.142,0 4.117,-0.987 5.397,-2.67 l 5.178,5.312 c -2.691,3.018 -6.52,4.74 -10.576,4.74 -7.812,0 -14.167,-6.355 -14.167,-14.167 0,-7.812 6.356,-14.168 14.168,-14.168 4.134,0 8.011,1.777 10.708,4.891 l -5.302,5.173 c -1.28,-1.69 -3.259,-2.683 -5.407,-2.683 -3.741,0 -6.785,3.044 -6.785,6.786 z"
     inkscape:connector-curvature="0"
     style="fill:#ffffff" /><path
     id="path16"
     d="M 23.991,16.309 16.43,4.937 4.069,4.825 24.009,35.239 42.898,5.104 31.147,4.998 Z M 41.102,6.087 23.991,33.386 5.931,5.842 15.89,5.932 24.011,18.147 31.695,6.002 Z"
     inkscape:connector-curvature="0"
     style="fill:#ffffff" /></g>
</svg>