<?xml version="1.0" encoding="UTF-8" standalone="no"?>
<!-- Generator: Adobe Illustrator 16.0.3, SVG Export Plug-In . SVG Version: 6.00 Build 0)  -->

<svg
   xmlns:dc="http://purl.org/dc/elements/1.1/"
   xmlns:cc="http://creativecommons.org/ns#"
   xmlns:rdf="http://www.w3.org/1999/02/22-rdf-syntax-ns#"
   xmlns:svg="http://www.w3.org/2000/svg"
   xmlns="http://www.w3.org/2000/svg"
   xmlns:sodipodi="http://sodipodi.sourceforge.net/DTD/sodipodi-0.dtd"
   xmlns:inkscape="http://www.inkscape.org/namespaces/inkscape"
   version="1.1"
   id="svg2"
   inkscape:version="0.92.4 (5da689c313, 2019-01-14)"
   sodipodi:version="0.32"
   sodipodi:docname="logo.svg"
   x="0px"
   y="0px"
   width="601.16211"
   height="70.050613"
   viewBox="0 0 601.16209 70.050613"
   enable-background="new 0 0 566.929 66.041"
   xml:space="preserve"><metadata
   id="metadata18"><rdf:RDF><cc:Work
       rdf:about=""><dc:format>image/svg+xml</dc:format><dc:type
         rdf:resource="http://purl.org/dc/dcmitype/StillImage" /></cc:Work></rdf:RDF></metadata><defs
   id="defs16" />
<sodipodi:namedview
   height="206.5px"
   width="1772.6px"
   inkscape:window-x="0"
   inkscape:window-y="27"
   inkscape:current-layer="svg2"
   inkscape:pageshadow="2"
   inkscape:window-width="1366"
   inkscape:pageopacity="0.0"
   inkscape:window-height="704"
   objecttolerance="10.0"
   inkscape:cx="995.45439"
   borderopacity="1.0"
   inkscape:cy="-87.182424"
   guidetolerance="10.0"
   pagecolor="#ffffff"
   inkscape:zoom="0.32"
   bordercolor="#666666"
   gridtolerance="10.0"
   id="base"
   showgrid="false"
   inkscape:window-maximized="0">
	</sodipodi:namedview>











<g
   id="g32"
   transform="matrix(1.0606489,0,0,1.0606489,-0.07522639,0.00263578)"><path
     d="m 296.042,8.236 4.352,-6.971 h -66.25 c -5.084,0.076 -9.82,1.502 -14.135,4.274 l -5.084,3.736 C 212.691,6.579 210.495,4.691 208.337,3.421 205.642,1.919 202.638,1.265 199.21,1.265 H 87.009 L 83.349,12.434 81.541,1.266 H 57.003 L 56.118,3.345 53.807,2.536 c -12.943,-4.43 -25.383,-3.081 -37.131,4.198 -5.971,3.813 -10.477,8.59 -13.25,14.443 -2.85,5.855 -3.814,12.364 -3.158,19.76 0.461,4.43 2.002,8.551 4.699,12.287 2.695,3.736 6.123,6.74 10.398,8.897 6.201,3.235 12.941,4.198 19.99,3.081 h 21.84 l 5.469,-12.133 2.004,12.133 131.266,-0.153 c 2.852,0 5.701,-0.694 8.59,-1.964 2.85,-1.271 5.314,-3.082 7.549,-5.316 3.66,3.891 8.012,6.51 13.096,7.55 6.895,1.656 13.559,0.462 19.836,-3.505 l 0.811,-0.617 -0.617,3.968 h 26.73 l 0.656,-4.622 c 1.578,-0.23 2.85,-1.039 3.967,-2.389 h 72.682 c 11.17,0 19.373,-2.85 24.381,-8.589 l 5.393,8.589 h 77.768 V 47.217 l 13.98,10.938 h 96.102 V 8.313 H 462.744 V 19.097 L 448.955,8.313 h -55.387 l -6.818,12.942 -7.549,-13.02 h -83.159 z"
     id="path10"
     inkscape:connector-curvature="0"
     style="fill:#1f00cc" /><path
     d="m 313.027,16.557 h -8.318 l -19.605,33.009 h 23.342 v -7.318 h -9.514 l 9.514,-17.063 13.789,24.42 h 10.631 v -0.076 h 16.6 c 14.367,0 21.57,-5.547 21.57,-16.523 0,-1.888 -0.23,-3.66 -0.732,-5.316 l 13.25,21.84 h 6.355 L 408.975,16.598 H 398.883 L 386.98,38.164 374.423,16.596 h -10.861 l 3.004,4.93 c -3.504,-3.313 -8.551,-4.93 -15.137,-4.93 h -21.84 V 43.98 Z m 25.961,7.471 h 12.52 c 6.508,0 9.82,2.851 9.82,8.551 0,3.429 -1.039,5.932 -3.004,7.241 -1.887,1.348 -5.469,2.003 -10.477,2.003 h -8.82 V 24.028 Z"
     id="path12"
     inkscape:connector-curvature="0"
     style="fill:#ffffff" /><polygon
     points="405.007,49.565 405.007,49.488 418.488,49.488 418.488,42.131 409.052,42.131 418.412,25.146 432.201,49.565 442.947,49.565 442.947,49.488 448.416,49.488 448.416,29.575 473.337,49.488 479.808,49.488 479.808,16.557 471.179,16.557 471.179,36.238 446.027,16.557 439.595,16.557 439.595,43.941 423.033,16.557 414.675,16.557 395.146,49.565 "
     id="polygon14"
     style="fill:#ffffff" /><path
     d="m 484.738,18.404 c -1.348,1.195 -2.041,3.352 -2.041,6.434 v 16.33 c 0,3.159 0.693,5.316 2.002,6.51 1.271,1.195 3.582,1.811 6.973,1.811 h 19.373 c 3.352,0 5.777,-0.616 7.049,-1.811 1.271,-1.193 2.004,-3.351 2.004,-6.51 v -4.583 l -9.514,-0.154 v 5.085 H 492.172 V 24.221 h 18.412 v 4.507 h 9.514 v -3.89 c 0,-3.236 -0.732,-5.393 -2.004,-6.434 -1.271,-1.271 -3.504,-1.887 -7.049,-1.887 h -19.373 c -3.352,0.04 -5.663,0.618 -6.934,1.887 z"
     id="path16"
     inkscape:connector-curvature="0"
     style="fill:#ffffff" /><polygon
     points="558.458,16.557 523.255,16.557 523.255,49.488 558.882,49.488 558.882,41.862 532.769,41.862 532.769,36.008 547.83,36.008 547.83,28.766 532.769,28.766 532.769,24.028 558.458,24.028 "
     id="polygon18"
     style="fill:#ffffff" /><path
     d="M 50.841,10.354 C 40.519,6.619 30.542,7.813 20.99,13.706 11.554,19.483 7.433,28.304 8.55,39.82 c 0.307,3.352 1.578,6.433 3.736,9.129 2.156,2.696 4.93,4.621 8.242,6.123 3.35,1.503 6.895,2.08 10.631,1.888 4.121,-0.231 7.857,-1.425 11.516,-3.429 l 0.385,-0.23 -1.424,3.158 H 51.65 l 6.434,-13.981 h 11.092 l 2.465,13.981 h 16.41 l 8.396,-26.191 5.393,26.191 h 6.508 l 12.557,-29.041 1.271,29.041 h 9.592 L 129.803,9.545 H 118.13 L 107.192,35.197 102.493,9.545 H 92.901 L 80.539,47.484 74.183,9.545 H 62.359 L 44.255,50.489 46.874,33.348 H 29.001 l -1.348,8.821 h 7.473 l -0.732,4.698 -7.857,0.54 c -3.158,-0.809 -5.393,-2.465 -6.895,-5.085 -1.271,-2.465 -1.887,-5.007 -1.578,-7.856 0.385,-3.968 2.311,-7.55 5.969,-10.785 3.313,-2.928 7.551,-4.584 12.635,-5.238 4.854,-0.732 9.129,-0.231 12.711,1.348 z m 16.91,22.957 H 61.82 l 4.121,-9.051 z"
     id="path20"
     inkscape:connector-curvature="0"
     style="fill:#ffffff" /><polygon
     points="159.46,56.46 161.193,46.484 144.246,46.484 145.593,38.087 160.269,38.087 161.847,27.996 147.019,27.996 148.291,19.6 165.199,19.6 166.779,9.508 140.085,9.508 132.576,56.46 "
     id="polygon22"
     style="fill:#ffffff" /><polygon
     points="258.179,9.508 247.087,9.508 258.564,34.273 254.945,56.46 264.689,56.46 267.617,36.894 284.949,9.508 273.74,9.508 264.15,24.875 "
     id="polygon24"
     style="fill:#ffffff" /><path
     d="m 237.88,9.97 c -5.469,-1.271 -10.477,0 -15.33,3.736 -4.852,3.582 -8.012,8.743 -9.668,15.253 -1.424,6.432 -0.73,12.518 1.889,17.871 2.773,5.547 6.74,8.898 12.209,10.092 5.393,1.271 10.4,0 15.254,-3.659 4.854,-3.736 8.088,-8.897 9.59,-15.407 1.502,-6.432 0.811,-12.44 -1.887,-17.871 -2.697,-5.47 -6.74,-8.821 -12.057,-10.015 z m -0.808,9.359 c 2.619,1.04 4.275,3.429 5.162,6.972 0.885,3.582 0.693,7.318 -0.617,11.285 -1.271,3.891 -3.35,6.818 -6.047,8.667 -2.773,2.003 -5.393,2.388 -7.857,1.271 -2.619,-1.04 -4.352,-3.429 -5.238,-6.972 -0.963,-3.659 -0.617,-7.396 0.654,-11.285 1.271,-3.813 3.352,-6.818 6.047,-8.821 2.657,-1.887 5.355,-2.311 7.896,-1.117 z"
     id="path26"
     inkscape:connector-curvature="0"
     style="fill:#ffffff" /><path
     d="m 205.025,11.626 c -1.887,-1.194 -3.736,-1.81 -5.545,-1.81 h -17.949 l -7.396,46.644 h 21.57 c 2.311,0 4.699,-0.731 7.203,-2.233 2.465,-1.503 4.352,-3.352 5.854,-5.624 1.58,-2.618 2.156,-5.161 1.889,-7.856 -0.309,-2.928 -1.889,-5.701 -4.623,-8.32 5.469,-5.623 6.74,-10.939 3.891,-16.023 -1.234,-1.889 -2.775,-3.508 -4.894,-4.778 z m -16.678,16.755 1.502,-8.666 h 6.279 c 1.58,0 2.773,0.461 3.582,1.348 0.693,0.809 0.963,1.811 0.809,3.004 -0.154,1.195 -0.73,2.157 -1.656,3.005 -1.039,0.886 -2.311,1.349 -3.813,1.349 h -6.703 l 10.861,11.092 c 0.887,0.887 1.35,2.042 1.271,3.313 -0.076,1.271 -0.693,2.312 -1.811,3.236 -1.115,0.885 -2.695,1.425 -4.852,1.425 h -8.475 l 1.502,-9.437 h 8.088 c 1.811,0 3.236,0.539 4.275,1.502 z"
     id="path28"
     inkscape:connector-curvature="0"
     style="fill:#ffffff" /><path
     d="m 276.437,52.262 c 0,-1.349 -0.539,-2.389 -1.35,-3.275 -0.885,-0.885 -2.002,-1.424 -3.311,-1.424 -1.271,0 -2.389,0.539 -3.275,1.424 -0.885,0.887 -1.348,1.965 -1.348,3.275 0,1.271 0.463,2.311 1.348,3.234 0.887,0.887 2.004,1.426 3.275,1.426 1.27,0 2.387,-0.539 3.311,-1.426 0.811,-0.924 1.35,-1.963 1.35,-3.234 z m -1.889,-2.774 c 0.693,0.693 1.117,1.656 1.117,2.773 0,1.04 -0.461,1.965 -1.117,2.773 -0.654,0.654 -1.656,1.04 -2.771,1.04 -1.117,0 -2.08,-0.386 -2.773,-1.04 -0.811,-0.809 -1.195,-1.732 -1.195,-2.773 0,-1.117 0.387,-2.08 1.195,-2.773 0.654,-0.809 1.656,-1.194 2.773,-1.194 1.154,0 2.117,0.347 2.771,1.194 z"
     id="path30"
     inkscape:connector-curvature="0"
     style="fill:#ffffff" /><path
     d="m 273.433,49.873 -1.271,-0.308 h -2.234 v 5.238 h 0.732 v -2.388 h 1.039 l 1.426,2.388 h 0.809 l -1.58,-2.388 c 1.041,0 1.656,-0.462 1.656,-1.502 0.038,-0.462 -0.116,-0.886 -0.577,-1.04 z m -0.154,1.041 c 0,0.616 -0.617,0.885 -1.734,0.885 h -0.885 v -1.656 h 1.424 c 0.847,0 1.195,0.308 1.195,0.771 z"
     id="path32"
     inkscape:connector-curvature="0"
     style="fill:#ffffff" /></g>
</svg>