<?xml version="1.0" encoding="UTF-8" standalone="no"?>
<!-- Generator: Adobe Illustrator 13.0.0, SVG Export Plug-In . SVG Version: 6.00 Build 14948)  -->

<svg
   xmlns:dc="http://purl.org/dc/elements/1.1/"
   xmlns:cc="http://creativecommons.org/ns#"
   xmlns:rdf="http://www.w3.org/1999/02/22-rdf-syntax-ns#"
   xmlns:svg="http://www.w3.org/2000/svg"
   xmlns="http://www.w3.org/2000/svg"
   xmlns:sodipodi="http://sodipodi.sourceforge.net/DTD/sodipodi-0.dtd"
   xmlns:inkscape="http://www.inkscape.org/namespaces/inkscape"
   version="1.1"
   id="svg2"
   x="0px"
   y="0px"
   width="600.53882"
   height="119.52238"
   viewBox="0 0 600.5388 119.52239"
   enable-background="new 0 0 567.429 113.032"
   xml:space="preserve"
   sodipodi:docname="logo.svg"
   inkscape:version="0.92.4 (5da689c313, 2019-01-14)"><metadata
   id="metadata24"><rdf:RDF><cc:Work
       rdf:about=""><dc:format>image/svg+xml</dc:format><dc:type
         rdf:resource="http://purl.org/dc/dcmitype/StillImage" /></cc:Work></rdf:RDF></metadata><defs
   id="defs22" /><sodipodi:namedview
   pagecolor="#ffffff"
   bordercolor="#666666"
   borderopacity="1"
   objecttolerance="10"
   gridtolerance="10"
   guidetolerance="10"
   inkscape:pageopacity="0"
   inkscape:pageshadow="2"
   inkscape:window-width="1366"
   inkscape:window-height="704"
   id="namedview20"
   showgrid="false"
   inkscape:zoom="0.61329257"
   inkscape:cx="283.46446"
   inkscape:cy="63.006389"
   inkscape:window-x="0"
   inkscape:window-y="27"
   inkscape:window-maximized="1"
   inkscape:current-layer="svg2" />



<g
   id="g38"
   transform="matrix(1.0574208,0,0,1.0574208,-0.26440609,0)"><g
     id="g5">
	<path
   d="m 165.884,28.918 v 28.77 28.77 h 5.039 5.039 V 60.776 35.095 h 6.186 c 4.461,0 6.475,0.12 7.233,0.437 1.496,0.625 3.036,2.529 3.667,4.521 0.331,1.047 0.604,3.313 0.701,5.831 0.2,5.154 -0.398,8.356 -1.971,10.433 -1.641,2.168 -2.645,2.51 -7.284,2.51 h -3.982 v 3.119 3.127 l 6.257,-0.121 6.258,-0.121 2.214,-1.047 c 4.045,-1.908 6.982,-5.811 8.167,-10.84 0.662,-2.808 0.652,-9.086 -0.021,-12.099 -0.646,-2.896 -1.991,-5.813 -3.504,-7.579 -0.633,-0.738 -1.857,-1.797 -2.712,-2.347 -2.933,-1.882 -4.062,-2.001 -18.356,-2.001 z m 44.535,0 v 28.77 28.77 h 5.038 5.039 v -28.77 -28.77 h -5.039 z m 126.372,0 c -4.514,0.001 -9.158,0.16 -10.32,0.346 -2.623,0.418 -5.682,1.805 -7.416,3.372 -1.748,1.579 -3.236,3.949 -4.043,6.44 -0.502,1.548 -0.66,2.959 -0.68,5.933 -0.029,4.103 0.316,5.851 1.727,8.614 0.916,1.798 3.361,4.393 5.039,5.363 1.949,1.13 4.441,1.728 8.727,2.072 3.26,0.264 4.02,0.426 5.08,1.129 0.834,0.551 1.564,1.453 2.184,2.711 0.869,1.771 0.918,2.142 0.914,5.953 -0.004,3.801 -0.057,4.176 -0.896,5.771 -0.566,1.084 -1.385,2.032 -2.242,2.602 l -1.354,0.895 -8.563,0.103 -8.553,0.092 v 3.077 3.068 h 9.73 c 5.92,0 10.412,-0.146 11.459,-0.367 3.984,-0.838 7.299,-3.42 8.908,-6.938 1.355,-2.963 1.834,-6.008 1.656,-10.576 -0.188,-4.816 -0.9,-7.44 -2.824,-10.32 -2.391,-3.575 -5.064,-4.801 -11.855,-5.423 -2.512,-0.23 -5.086,-0.635 -5.719,-0.904 -1.398,-0.592 -2.705,-2.082 -3.281,-3.738 -0.568,-1.633 -0.561,-6.361 0.021,-8.359 0.57,-1.973 2.305,-3.79 4.135,-4.338 0.883,-0.266 3.852,-0.396 8.848,-0.396 H 345 v -3.09 -3.09 h -8.209 z m 115.806,0 v 4.227 4.226 h 5.039 5.039 v -4.226 -4.227 h -5.039 z m -96.902,6.502 0.104,20.723 c 0.09,20.398 0.105,20.754 0.803,22.604 0.391,1.033 1.227,2.58 1.857,3.443 1.293,1.76 2.973,2.994 5.1,3.738 1.023,0.359 2.762,0.498 6.064,0.51 l 4.633,0.02 V 83.37 80.282 h -3.027 c -2.881,0 -3.07,-0.039 -3.891,-0.895 -0.508,-0.529 -1.006,-1.563 -1.207,-2.52 -0.221,-1.033 -0.313,-6.406 -0.256,-14.791 l 0.092,-13.165 5.445,-0.092 5.445,-0.092 v -3.076 -3.08 h -5.527 -5.525 V 38.995 35.42 h -5.049 z m 69.596,0 v 20.469 c 0,19.797 0.023,20.54 0.672,22.512 0.771,2.348 2.338,4.672 4.043,5.973 0.65,0.498 1.939,1.166 2.863,1.482 1.289,0.445 2.73,0.582 6.156,0.59 l 4.469,0.01 V 83.368 80.28 h -2.885 c -2.41,0 -3.02,-0.104 -3.727,-0.662 -0.467,-0.365 -0.996,-1.205 -1.18,-1.867 -0.205,-0.74 -0.336,-6.584 -0.336,-15.106 V 48.748 h 5.537 5.537 l -0.094,-3.007 -0.092,-3.008 -5.445,-0.09 -5.441,-0.093 V 38.985 35.42 h -5.039 z m -8.889,7.069 -10.758,0.174 c -11.568,0.178 -12.766,0.32 -16.162,2.042 -3.799,1.925 -6.447,5.663 -7.648,10.788 -0.502,2.138 -0.59,3.979 -0.59,12.109 0,9.23 0.027,9.661 0.742,11.428 1.441,3.561 3.586,5.76 6.674,6.826 1.361,0.471 2.781,0.58 7.457,0.588 l 5.771,0.012 v -3.09 -3.088 h -4.043 c -3.828,0 -4.088,-0.047 -4.998,-0.813 -0.602,-0.506 -1.092,-1.35 -1.32,-2.256 -0.453,-1.793 -0.475,-15.937 -0.031,-19.361 0.631,-4.865 1.727,-7.146 4.014,-8.371 0.787,-0.42 2.146,-0.57 5.975,-0.67 l 4.957,-0.132 v 18.896 18.885 h 5.201 5.201 V 74.315 c 0,-6.674 -0.104,-16.566 -0.225,-21.982 z M 263.73,42.5 252.922,42.662 c -11.746,0.181 -13.433,0.396 -16.64,2.113 -3.725,1.994 -6.385,5.936 -7.508,11.123 -0.713,3.295 -1.047,16.791 -0.498,20.054 0.48,2.846 1.811,5.713 3.404,7.334 1.172,1.192 3.117,2.368 4.743,2.864 0.447,0.138 3.481,0.259 6.745,0.272 l 5.932,0.031 V 83.365 80.28 h -4.154 c -4.686,0 -5.303,-0.221 -6.186,-2.234 -0.395,-0.897 -0.549,-2.662 -0.65,-7.416 -0.146,-6.756 0.324,-14.086 1.056,-16.52 0.657,-2.185 1.881,-3.863 3.321,-4.57 1.052,-0.516 2.019,-0.613 6.125,-0.62 l 4.875,-0.011 0.082,18.773 0.082,18.771 h 5.039 5.039 v -21.98 z m 10.85,0.071 c -2.928,0 -5.319,0.037 -5.313,0.082 0.004,0.045 3.346,9.857 7.426,21.811 l 7.416,21.738 -4.176,10.77 c -2.295,5.927 -4.175,10.818 -4.175,10.869 0,0.05 1.993,0.05 4.429,0 l 4.43,-0.092 12.951,-32.508 c 7.127,-17.879 12.963,-32.542 12.963,-32.588 0.002,-0.045 -2.102,-0.082 -4.684,-0.082 -3.404,0 -4.766,0.113 -4.947,0.408 -0.137,0.223 -2.627,6.543 -5.525,14.049 -2.897,7.504 -5.397,13.688 -5.565,13.744 -0.17,0.057 -2.472,-6.266 -5.108,-14.049 l -4.796,-14.152 z m 178.017,0 v 21.942 21.942 h 5.039 5.039 V 64.513 42.571 h -5.039 z m 60.951,0.162 -0.094,21.861 h 0.012 l -0.092,21.861 h 5.211 5.201 V 67.571 48.676 l 4.957,0.133 c 5.262,0.137 6.141,0.356 7.619,1.939 1.158,1.24 1.986,3.499 2.355,6.439 0.191,1.539 0.348,8.603 0.348,16.01 v 13.259 h 5.037 5.037 l -0.01,-12.922 c -0.002,-13.705 -0.242,-16.957 -1.563,-20.673 -1.797,-5.053 -5.104,-8.049 -10.482,-9.508 -1.779,-0.483 -3.68,-0.567 -12.811,-0.59 z m -25.478,0.092 c -2.842,0 -5.674,0.357 -7.709,1.057 -2.709,0.932 -4.41,2.023 -6.117,3.921 -1.852,2.06 -3.193,4.849 -3.98,8.259 -0.48,2.09 -0.596,3.845 -0.566,8.938 0.025,5.359 0.133,6.729 0.711,8.849 0.979,3.596 2.26,6.017 4.205,7.985 1.916,1.938 4.748,3.422 7.936,4.146 1.434,0.324 3.422,0.427 6.461,0.345 5.238,-0.14 7.73,-0.814 10.787,-2.904 2.563,-1.752 4.5,-4.517 5.598,-7.996 1.57,-4.967 1.846,-13.156 0.641,-19.199 -0.586,-2.936 -2.01,-6.119 -3.598,-8.056 -1.492,-1.821 -3.936,-3.418 -6.551,-4.287 -2.115,-0.701 -4.976,-1.058 -7.818,-1.058 z m 0.123,6.054 c 1.475,0 2.953,0.285 4.113,0.873 1.514,0.768 2.465,2.104 3.291,4.632 0.541,1.653 0.676,3.158 0.803,8.625 0.166,7.141 -0.162,10.506 -1.27,13.043 -0.781,1.793 -2.045,3.186 -3.434,3.779 -0.594,0.254 -2.156,0.446 -3.605,0.446 -2.055,0 -2.844,-0.146 -3.992,-0.75 -0.902,-0.478 -1.773,-1.295 -2.336,-2.205 -1.469,-2.37 -1.953,-5.479 -1.973,-12.483 -0.016,-6.668 0.328,-9.348 1.557,-12.06 0.416,-0.92 1.256,-2.043 1.879,-2.52 1.184,-0.903 3.07,-1.38 4.967,-1.38 z"
   id="path2998_1_"
   inkscape:connector-curvature="0" />
	<path
   id="path3"
   d="m 275.653,108.839 c -0.027,-0.013 -0.044,-0.013 -0.063,-0.013 v 0 c -0.047,0 -0.119,0.003 -0.438,-0.19 v 0 c -0.115,-0.083 -0.386,-0.333 -0.395,-0.796 v 0 c 0.019,-0.298 0.036,-0.231 0.042,-0.285 v 0 c 0.006,-0.025 0.01,-0.038 0.015,-0.049 v 0 c 0.006,-0.025 0.015,-0.046 0.023,-0.069 v 0 c 0.017,-0.047 0.038,-0.108 0.068,-0.185 v 0 c 0.057,-0.155 0.14,-0.374 0.246,-0.654 v 0 c 0.212,-0.561 0.52,-1.362 0.9,-2.348 v 0 c 0.756,-1.972 1.8,-4.678 2.949,-7.642 v 0 l 4.043,-10.431 -7.298,-21.392 c -3.998,-11.717 -7.258,-21.279 -7.436,-21.841 v 0 c 0,-0.001 -0.001,-0.002 -0.001,-0.004 v 0 c -0.1,-0.251 -0.02,-0.687 0.161,-0.899 v 0 c 0.06,-0.08 0.124,-0.136 0.178,-0.176 v 0 c 0.068,-0.056 0.128,-0.09 0.18,-0.114 v 0 c 0.076,-0.039 0.121,-0.049 0.159,-0.063 v 0 c 0.089,-0.026 0.123,-0.03 0.159,-0.036 v 0 c 0.063,-0.009 0.106,-0.011 0.155,-0.015 v 0 c 0.096,-0.008 0.206,-0.013 0.348,-0.017 v 0 c 0.282,-0.01 0.677,-0.019 1.163,-0.027 v 0 c 0.97,-0.015 2.301,-0.023 3.768,-0.023 v 0 1 1 c -1.539,-0.002 -2.976,0.011 -3.939,0.027 v 0 c 0.05,0.148 0.104,0.308 0.161,0.48 v 0 c 0.378,1.112 0.923,2.717 1.597,4.691 v 0 c 1.346,3.952 3.203,9.395 5.243,15.37 v 0 l 7.533,22.082 -4.308,11.109 c -1.574,4.065 -2.979,7.717 -3.678,9.546 v 0 c 0.781,-0.002 1.832,-0.014 2.979,-0.036 v 0 l 3.768,-0.078 12.704,-31.894 c 5.879,-14.741 10.888,-27.327 12.45,-31.276 v 0 c -0.837,-0.014 -1.983,-0.022 -3.24,-0.022 v 0 c -2.263,-0.007 -3.658,0.066 -4.186,0.157 v 0 c -0.082,0.202 -0.2,0.493 -0.348,0.857 v 0 c -0.298,0.737 -0.712,1.781 -1.21,3.052 v 0 c -1.002,2.543 -2.348,5.999 -3.798,9.749 v 0 c -2.107,5.46 -4.003,10.215 -4.956,12.454 v 0 c -0.345,0.783 -0.478,1.138 -0.707,1.49 v 0 c -0.085,0.062 -0.018,0.161 -0.516,0.389 v 0 l -0.151,0.051 h -0.167 -0.005 c -0.704,-0.087 -0.696,-0.334 -0.798,-0.385 v 0 c -0.068,-0.085 -0.098,-0.136 -0.127,-0.187 v 0 c -0.058,-0.1 -0.098,-0.188 -0.149,-0.299 v 0 c -0.1,-0.215 -0.218,-0.501 -0.364,-0.866 v 0 c -0.289,-0.729 -0.676,-1.765 -1.141,-3.042 v 0 c -0.93,-2.554 -2.16,-6.068 -3.472,-9.949 v 0 l -4.566,-13.472 h -4.608 v -1 -1 h 6.042 l 5.026,14.831 c 1.229,3.627 2.386,6.94 3.284,9.429 v 0 c 0.335,0.933 0.645,1.769 0.905,2.453 v 0 c 0.232,-0.561 0.503,-1.222 0.806,-1.967 v 0 c 1.004,-2.483 2.352,-5.903 3.799,-9.65 v 0 c 2.539,-6.574 4.76,-12.224 5.377,-13.712 v 0 c 0.106,-0.244 0.11,-0.285 0.231,-0.501 v 0 c 0.365,-0.51 0.689,-0.535 0.977,-0.633 v 0 c 0.302,-0.074 0.63,-0.119 1.057,-0.155 v 0 c 0.845,-0.068 2.051,-0.096 3.766,-0.096 v 0 c 2.427,0.004 4.281,0.021 4.782,0.081 v 0 c 0.007,0.003 0.013,0.005 0.018,0.006 v 0 c 0.013,10e-4 0.025,0.003 0.037,0.004 v 0 c 10e-4,0 0.002,0 0.003,0 v 0 c 0.029,-0.001 0.07,-0.003 0.208,0.061 v 0 c 0.028,0.012 0.055,0.024 0.081,0.035 v 0 c 0.008,0.005 0.016,0.011 0.023,0.016 v 0 c 0.028,0.015 0.06,0.031 0.093,0.049 v 0 c 0.023,0.017 0.058,0.042 0.097,0.076 v 0 c 0.081,0.062 0.16,0.146 0.224,0.285 v 0 c 0.058,0.113 0.103,0.256 0.113,0.437 v 0 c 0.002,0.011 0.003,0.021 0.004,0.032 v 0 c -0.001,0.007 -0.001,0.014 -0.002,0.021 v 0 c 0,0.051 -0.006,0.111 -0.02,0.175 v 0 c -0.012,0.094 -0.02,0.097 -0.024,0.098 v 0 c -0.002,0.007 -0.005,0.015 -0.007,0.022 v 0 c 0,0 0,10e-4 0,0.002 v 0 c -0.005,0.017 -0.009,0.025 -0.011,0.034 v 0 c -0.007,0.017 -0.013,0.032 -0.02,0.049 v 0 c -0.013,0.034 -0.029,0.079 -0.053,0.138 v 0 c -0.045,0.117 -0.112,0.287 -0.199,0.507 v 0 c -0.172,0.442 -0.429,1.087 -0.758,1.919 v 0 c -0.66,1.66 -1.611,4.057 -2.787,7.009 v 0 c -2.35,5.907 -5.592,14.043 -9.153,22.982 v 0 l -13.199,33.129 -5.094,0.105 c -1.225,0.023 -2.335,0.036 -3.148,0.036 v 0 c -0.713,-0.003 -1.104,0 -1.405,-0.036 z m 13.343,-38.64 c 0,0.001 0,0.001 0,0 z m 21.381,-26.558 c 0.093,0.016 0.278,0.029 0.486,-0.047 v 0 c -0.105,0.038 -0.219,0.057 -0.334,0.057 v 0 c -0.064,0 -0.129,-0.006 -0.192,-0.019 v 0 c 0.013,0.003 0.027,0.006 0.04,0.009 z m 59.242,43.796 c -3.335,-0.02 -5.111,-0.13 -6.392,-0.566 v 0 c -2.299,-0.799 -4.173,-2.174 -5.576,-4.091 v 0 c -0.709,-0.979 -1.543,-2.525 -1.986,-3.681 v 0 c -0.38,-0.977 -0.604,-1.807 -0.692,-4.663 v 0 c -0.104,-2.904 -0.13,-8.088 -0.174,-18.289 v 0 l -0.104,-20.723 -0.004,-1.004 h 6.064 6.048 v 4.577 2.577 h 4.527 6.524 v 4.078 4.061 l -6.427,0.108 -4.469,0.075 -0.085,12.19 c -0.015,1.612 -0.019,3.118 -0.017,4.504 v 0 c -0.011,5.731 0.114,9.521 0.251,10.072 v 0 c 0.148,0.774 0.639,1.733 0.95,2.033 v 0 c 0.429,0.425 0.396,0.403 0.676,0.486 v 0 c 0.306,0.078 1.061,0.105 2.494,0.102 v 0 h 4.026 v 4.088 4.091 z M 356.797,56.139 c 0.045,10.197 0.072,15.389 0.175,18.225 v 0 c 0.112,2.883 0.246,3.156 0.563,4.028 v 0 c 0.339,0.911 1.176,2.458 1.729,3.205 v 0 c 1.183,1.604 2.668,2.698 4.625,3.386 v 0 c 0.765,0.282 2.465,0.45 5.735,0.455 v 0 l 3.63,0.015 V 83.37 81.279 l -2.026,0.003 c -1.45,-0.005 -2.229,0.002 -2.942,-0.153 v 0 c -0.741,-0.15 -1.278,-0.62 -1.671,-1.051 v 0 c -0.704,-0.758 -1.21,-1.865 -1.465,-3.001 v 0 c -0.221,-1.121 -0.284,-4.646 -0.292,-10.488 v 0 c -0.003,-1.389 0.002,-2.899 0.017,-4.52 v 0 l 0.098,-14.141 6.421,-0.108 4.464,-0.076 V 45.65 l -0.002,-2.078 h -4.525 -6.525 v -4.577 -2.577 h -4.05 -4.056 z m -1.103,-19.72 v -1 z m 83.327,51.025 c -3.435,-0.009 -5.005,-0.137 -6.477,-0.644 v 0 c -1.059,-0.369 -2.348,-1.031 -3.147,-1.633 v 0 c -1.915,-1.475 -3.541,-3.916 -4.386,-6.454 v 0 c -0.353,-1.049 -0.55,-1.951 -0.628,-4.854 v 0 c -0.089,-2.938 -0.094,-8.071 -0.094,-17.971 v 0 -20.469 -1 h 6.039 6.039 v 4.566 2.581 l 4.458,0.077 6.397,0.104 0.123,3.963 0.125,4.038 h -6.567 -4.538 v 12.896 c 0,4.256 0.031,7.842 0.091,10.448 v 0 c 0.045,2.554 0.172,4.355 0.208,4.39 v 0 c 0.087,0.409 0.62,1.216 0.837,1.35 v 0 c 0.275,0.204 0.358,0.255 0.778,0.342 v 0 c 0.417,0.074 1.139,0.106 2.329,0.106 v 0 h 3.882 v 4.088 4.089 z M 426.29,55.888 c 0,9.896 0.006,15.034 0.093,17.911 v 0 c 0.094,2.907 0.231,3.364 0.529,4.289 v 0 c 0.698,2.155 2.205,4.362 3.701,5.489 v 0 c 0.499,0.394 1.788,1.068 2.582,1.333 v 0 c 1.102,0.383 2.415,0.527 5.83,0.535 v 0 l 3.469,0.007 v -2.085 -2.089 h -1.885 c -1.221,-0.002 -2.008,-0.021 -2.677,-0.138 v 0 c -0.664,-0.106 -1.239,-0.386 -1.668,-0.736 v 0 c -0.72,-0.599 -1.246,-1.474 -1.526,-2.388 v 0 c -0.168,-0.707 -0.208,-2.197 -0.28,-4.881 v 0 c -0.06,-2.63 -0.092,-6.228 -0.092,-10.492 v 0 -14.895 h 6.538 4.504 l -0.062,-1.977 -0.063,-2.055 -4.491,-0.074 -6.423,-0.11 v -4.547 -2.566 h -4.04 -4.039 z m -1,-19.469 v -1 z m -29.176,51.025 c -4.668,-0.011 -6.211,-0.106 -7.782,-0.644 v 0 c -3.372,-1.148 -5.777,-3.651 -7.274,-7.396 v 0 c -0.373,-0.899 -0.621,-1.696 -0.709,-3.227 v 0 c -0.1,-1.545 -0.105,-3.959 -0.105,-8.577 v 0 c 0,-8.115 0.083,-10.051 0.617,-12.337 v 0 c 1.242,-5.33 4.059,-9.372 8.168,-11.452 v 0 c 1.718,-0.879 3.08,-1.424 5.345,-1.7 v 0 c 2.266,-0.283 5.467,-0.359 11.255,-0.45 v 0 l 10.758,-0.174 0.993,-0.015 0.237,10.836 c 0.124,5.429 0.226,15.321 0.226,22.005 v 0 13.139 h -6.2 -6.203 V 67.571 49.701 l -3.929,0.106 c -3.81,0.081 -5.124,0.299 -5.529,0.552 v 0 c -1.868,1.008 -2.849,2.8 -3.494,7.618 v 0 c -0.204,1.53 -0.316,5.748 -0.314,9.791 v 0 c -0.013,4.25 0.146,8.604 0.323,9.195 v 0 c 0.176,0.723 0.601,1.414 0.995,1.736 v 0 c 0.461,0.363 0.423,0.365 0.922,0.472 v 0 c 0.509,0.087 1.525,0.108 3.435,0.106 v 0 h 5.041 v 4.088 4.091 z M 407.44,67.571 v 17.884 h 4.201 4.2 v -11.14 c 0.002,-6.665 -0.102,-16.559 -0.223,-21.961 v 0 l -0.194,-8.85 -9.765,0.158 c -5.78,0.089 -8.962,0.172 -11.038,0.435 v 0 c -2.074,0.27 -3.01,0.656 -4.689,1.499 v 0 c -3.485,1.772 -5.967,5.205 -7.125,10.125 v 0 c -0.47,1.989 -0.565,3.736 -0.565,11.88 v 0 c 0,4.612 0.009,7.03 0.103,8.448 v 0 c 0.104,1.433 0.227,1.736 0.568,2.604 v 0 c 1.387,3.377 3.27,5.271 6.073,6.257 v 0 c 1.152,0.403 2.447,0.527 7.132,0.533 v 0 l 4.77,0.009 v -2.087 -2.089 h -3.041 c -1.924,-0.002 -2.951,-0.004 -3.756,-0.132 v 0 c -0.814,-0.11 -1.438,-0.514 -1.889,-0.917 v 0 c -0.807,-0.689 -1.363,-1.685 -1.646,-2.773 v 0 c -0.29,-1.255 -0.371,-5.292 -0.384,-9.687 v 0 c 0.002,-4.104 0.1,-8.263 0.331,-10.051 v 0 c 0.615,-4.909 1.827,-7.681 4.534,-9.123 v 0 c 1.167,-0.586 2.572,-0.668 6.419,-0.788 v 0 l 5.983,-0.159 v 19.925 z m 7.962,-25.06 1,-0.021 z M 315.393,87.457 V 83.39 79.323 l 9.541,-0.102 8.269,-0.1 1.105,-0.732 c 0.68,-0.445 1.42,-1.284 1.91,-2.233 v 0 c 0.414,-0.794 0.557,-1.109 0.66,-1.744 v 0 c 0.103,-0.642 0.121,-1.667 0.123,-3.528 v 0 c -0.006,-0.148 -0.002,-0.275 -0.004,-0.371 v 0 c -0.027,-3.577 -0.021,-3.503 -0.809,-5.173 v 0 c -0.567,-1.15 -1.201,-1.9 -1.839,-2.318 v 0 c -0.87,-0.566 -1.301,-0.688 -4.607,-0.966 v 0 c -4.335,-0.351 -6.994,-0.959 -9.146,-2.203 v 0 c -1.935,-1.152 -4.352,-3.721 -5.431,-5.773 v 0 c -1.422,-2.745 -1.854,-4.795 -1.838,-8.616 v 0 c 0,-0.153 0.002,-0.308 0.004,-0.461 v 0 c 0.016,-2.989 0.181,-4.56 0.727,-6.234 v 0 c 0.863,-2.655 2.422,-5.147 4.323,-6.873 v 0 c 1.951,-1.743 5.091,-3.152 7.931,-3.617 v 0 c 1.346,-0.208 5.914,-0.354 10.478,-0.359 v 0 1 -1 -0.002 l 1,-0.002 v 0.004 h 8.208 L 346,32.008 v 4.088 h -8.528 c -4.936,-0.013 -8.024,0.163 -8.561,0.354 v 0 c -1.431,0.399 -3.017,2.033 -3.463,3.662 v 0 c -0.246,0.821 -0.407,2.509 -0.4,4.097 v 0 c -0.011,1.541 0.156,3.095 0.364,3.653 v 0 c 0.47,1.397 1.665,2.715 2.729,3.146 v 0 c 0.29,0.155 2.999,0.624 5.419,0.828 v 0 c 6.817,0.573 10.076,2.012 12.596,5.865 v 0 c 2.038,3.022 2.814,5.958 2.991,10.841 v 0 c 0.021,0.608 0.035,1.199 0.035,1.772 v 0 c 0.003,3.723 -0.536,6.546 -1.78,9.254 v 0 c -1.751,3.823 -5.334,6.6 -9.611,7.5 v 0 c -1.314,0.261 -5.689,0.38 -11.666,0.389 v 0 H 315.393 Z M 326.626,30.25 c -2.407,0.37 -5.384,1.734 -6.903,3.127 v 0 c -1.592,1.433 -3.012,3.681 -3.761,6.007 v 0 c -0.459,1.42 -0.609,2.672 -0.633,5.635 v 0 c -0.002,0.151 -0.002,0.299 -0.002,0.442 v 0 c 0.017,3.744 0.324,5.13 1.621,7.707 v 0 c 0.752,1.541 3.227,4.163 4.648,4.952 v 0 c 1.747,1.013 4.071,1.601 8.307,1.94 v 0 c 3.211,0.248 4.301,0.452 5.551,1.291 v 0 c 1.031,0.684 1.857,1.738 2.53,3.103 v 0 c 0.896,1.763 1.042,2.639 1.013,6.057 v 0 c 0,0.121 0,0.219 0.002,0.34 v 0 c -0.002,1.905 -0.011,2.969 -0.146,3.862 v 0 c -0.134,0.904 -0.438,1.571 -0.862,2.371 v 0 c -0.643,1.221 -1.541,2.278 -2.577,2.972 v 0 l -1.6,1.056 -8.858,0.108 -7.563,0.08 v 2.089 2.067 h 8.73 c 5.862,0.009 10.473,-0.165 11.254,-0.346 v 0 c 3.689,-0.775 6.735,-3.163 8.204,-6.375 v 0 c 1.108,-2.435 1.597,-4.877 1.601,-8.422 v 0 c 0,-0.54 -0.015,-1.108 -0.034,-1.7 v 0 c -0.199,-4.755 -0.847,-7.066 -2.657,-9.803 v 0 c -2.263,-3.298 -4.35,-4.311 -11.114,-4.982 v 0 c -2.604,-0.254 -5.044,-0.596 -6.018,-0.98 v 0 c -1.734,-0.753 -3.154,-2.414 -3.836,-4.328 v 0 c -0.354,-1.055 -0.469,-2.624 -0.478,-4.311 v 0 c 0.006,-1.724 0.14,-3.46 0.483,-4.655 v 0 c 0.696,-2.322 2.579,-4.322 4.806,-5.018 v 0 c 1.231,-0.341 4.08,-0.424 9.137,-0.439 v 0 h 6.527 v -2.089 -2.089 h -8.165 c -4.161,0.021 -8.298,0.18 -9.207,0.331 z m -83.462,57.17 c -1.643,-0.007 -3.227,-0.038 -4.464,-0.09 v 0 c -1.287,-0.063 -2.023,-0.082 -2.569,-0.225 v 0 c -1.827,-0.569 -3.833,-1.781 -5.164,-3.12 v 0 c -1.794,-1.845 -3.154,-4.834 -3.677,-7.869 v 0 c -0.212,-1.273 -0.287,-3.602 -0.289,-6.353 v 0 c 0.006,-5.234 0.291,-11.702 0.794,-14.078 v 0 c 1.166,-5.396 3.972,-9.626 8.015,-11.793 v 0 c 1.643,-0.89 3.084,-1.45 5.461,-1.743 v 0 c 2.384,-0.301 5.755,-0.397 11.634,-0.488 v 0 l 9.822,-0.146 V 41.5 h 0.987 0.013 0.002 v 1 -1 l 0.007,1 h 0.992 v 21.972 22.979 h -6.039 -6.037 l -0.085,-19.766 -0.079,-17.775 -3.878,0.009 c -4.137,0.006 -4.897,0.123 -5.685,0.518 v 0 c -1.083,0.514 -2.212,1.959 -2.804,3.961 v 0 c -0.58,1.859 -1.053,7.824 -1.042,13.725 v 0 c 0,0.83 0.008,1.662 0.028,2.484 v 0 c 0.084,4.725 0.299,6.503 0.566,7.036 v 0 c 0.457,0.979 0.571,1.119 1.089,1.333 v 0 c 0.569,0.221 1.857,0.313 4.182,0.304 v 0 h 5.154 v 4.086 4.091 z m 11.404,-19.743 0.077,17.775 h 4.046 4.037 V 64.472 43.514 l -9.792,0.148 c -5.865,0.089 -9.212,0.191 -11.411,0.474 v 0 c -2.204,0.286 -3.209,0.694 -4.772,1.522 v 0 c -3.407,1.821 -5.922,5.474 -7.002,10.452 v 0 c -0.431,1.94 -0.756,8.548 -0.75,13.655 v 0 c -0.002,2.687 0.091,5.041 0.261,6.02 v 0 c 0.435,2.657 1.738,5.402 3.131,6.801 v 0 c 1.011,1.043 2.89,2.181 4.317,2.607 v 0 -0.001 c 0.023,0.003 0.066,0.009 0.121,0.016 v 0 c 0.108,0.015 0.263,0.029 0.452,0.044 v 0 c 0.378,0.03 0.892,0.058 1.494,0.081 v 0 c 1.208,0.049 2.772,0.083 4.394,0.091 v 0 l 4.929,0.025 V 83.367 81.28 h -3.154 c -2.362,-0.01 -3.727,-0.029 -4.858,-0.422 v 0 c -1.183,-0.399 -1.817,-1.376 -2.244,-2.409 v 0 c -0.522,-1.263 -0.616,-3.015 -0.734,-7.797 v 0 c -0.02,-0.838 -0.028,-1.683 -0.028,-2.528 v 0 c 0.011,-6.056 0.418,-11.897 1.125,-14.302 v 0 c 0.722,-2.369 2.04,-4.279 3.84,-5.179 v 0 c 1.316,-0.637 2.488,-0.713 6.561,-0.722 v 0 l 5.874,-0.013 z m -39.111,19.78 h -6.039 v -29.769 -28.771 -1 h 6.039 6.039 v 29.77 29.769 h -6.039 z m -4.038,-29.769 v 27.769 h 4.038 4.039 V 57.688 29.917 h -4.039 -4.038 z m -1,-27.771 v -1 z m -39.496,57.54 h -6.039 v -29.769 -28.771 -1 h 13.931 c 7.153,0 11.008,0.025 13.547,0.299 v 0 c 2.526,0.257 3.857,0.883 5.349,1.859 v 0 c 0.97,0.632 2.195,1.689 2.931,2.539 v 0 c 1.662,1.955 3.034,4.967 3.721,8.011 v 0 c 0.365,1.658 0.533,4.045 0.535,6.423 v 0 c -0.004,2.324 -0.159,4.587 -0.518,6.124 v 0 c -1.238,5.271 -4.354,9.458 -8.711,11.513 v 0 l -2.409,1.138 -6.472,0.126 -7.276,0.142 v -4.146 -4.12 h 4.982 c 2.297,0.005 3.632,-0.102 4.44,-0.388 v 0 c 0.796,-0.283 1.248,-0.686 2.046,-1.724 v 0 c 1.174,-1.541 1.809,-3.991 1.806,-8.007 v 0 c 0,-0.564 -0.013,-1.161 -0.036,-1.785 v 0 c -0.089,-2.454 -0.382,-4.727 -0.656,-5.568 v 0 c -0.52,-1.732 -2.01,-3.483 -3.101,-3.899 v 0 c -0.331,-0.187 -2.439,-0.384 -6.846,-0.361 v 0 h -5.186 v 24.683 26.68 h -6.038 z m -4.04,-29.769 v 27.769 h 4.04 4.038 V 60.777 34.095 h 7.187 c 4.515,0.023 6.436,0.066 7.618,0.514 v 0 c 1.904,0.834 3.492,2.891 4.235,5.144 v 0 c 0.386,1.252 0.641,3.511 0.747,6.094 v 0 c 0.025,0.647 0.039,1.268 0.039,1.862 v 0 c -0.004,4.192 -0.631,7.111 -2.212,9.212 v 0 c -0.843,1.129 -1.711,1.98 -2.989,2.409 v 0 c -1.263,0.427 -2.751,0.492 -5.092,0.497 v 0 h -2.982 v 2.12 2.105 l 5.239,-0.1 6.043,-0.118 2.021,-0.956 c 3.731,-1.759 6.489,-5.376 7.621,-10.163 v 0 c 0.295,-1.24 0.467,-3.449 0.465,-5.666 v 0 c 0,-2.269 -0.176,-4.6 -0.488,-5.988 v 0 c -0.605,-2.747 -1.925,-5.568 -3.288,-7.145 v 0 c -0.529,-0.628 -1.753,-1.689 -2.492,-2.157 v 0 c -1.441,-0.904 -2.14,-1.28 -4.485,-1.554 v 0 c -2.335,-0.254 -6.19,-0.291 -13.331,-0.289 v 0 h -11.932 v 27.772 z m -0.999,-27.771 v -1 z m 378.219,57.537 h -6.039 V 73.196 c 0.005,-7.367 -0.161,-14.506 -0.339,-15.886 v 0 c -0.344,-2.821 -1.172,-4.918 -2.094,-5.879 v 0 c -0.713,-0.741 -1.027,-0.985 -1.908,-1.225 v 0 c -0.887,-0.231 -2.39,-0.333 -5.007,-0.397 v 0 l -3.929,-0.106 v 17.868 19.883 h -6.203 -6.217 l 0.093,-21.861 h -0.013 l 0.101,-22.865 0.004,-0.998 11.724,0.032 c 9.123,0.028 11.08,0.094 13.071,0.626 v 0 c 5.616,1.49 9.306,4.82 11.161,10.138 v 0 c 1.39,3.92 1.619,7.323 1.621,21.006 v 0 l 0.011,13.922 z M 528.769,47.81 c 2.646,0.072 4.212,0.148 5.447,0.456 v 0 c 1.246,0.299 2.109,0.955 2.876,1.8 v 0 c 1.395,1.516 2.223,3.938 2.617,6.996 v 0 c 0.206,1.698 0.353,8.688 0.354,16.134 v 0 12.259 h 4.039 4.035 l -0.011,-11.921 c 0,-13.728 -0.252,-16.828 -1.502,-20.339 v 0 c -1.736,-4.789 -4.662,-7.448 -9.803,-8.877 v 0 c -1.568,-0.433 -3.411,-0.537 -12.552,-0.556 v 0 l -9.728,-0.027 -0.087,19.859 h 0.013 l -0.094,21.861 h 4.209 4.201 V 67.571 47.648 Z m -15.224,-4.078 0.002,-1 z m -55.908,43.722 h -6.041 v -22.942 -21.941 -1 h 6.041 6.038 v 22.941 22.941 h -6.038 z m -4.04,-22.942 -0.002,20.942 h 4.042 4.037 V 64.512 43.57 h -4.037 -4.04 z m -1,-20.942 v -1 z m 29.729,43.383 c -3.35,-0.762 -6.339,-2.313 -8.425,-4.417 v 0 c -2.089,-2.107 -3.458,-4.733 -4.458,-8.425 v 0 c -0.611,-2.229 -0.726,-3.768 -0.747,-9.1 v 0 c -0.006,-0.49 -0.006,-0.947 -0.006,-1.371 v 0 c 0,-4.076 0.14,-5.818 0.598,-7.803 v 0 c 0.815,-3.534 2.219,-6.487 4.212,-8.703 v 0 c 1.794,-2.01 3.726,-3.243 6.535,-4.199 v 0 c 2.201,-0.753 5.105,-1.108 8.035,-1.112 v 0 1.002 1 c -2.756,-0.004 -5.515,0.354 -7.385,1.002 v 0 c -2.607,0.908 -4.078,1.857 -5.7,3.645 v 0 c -1.71,1.902 -2.99,4.53 -3.748,7.813 v 0 c -0.412,1.797 -0.546,3.292 -0.548,7.355 v 0 c 0,0.424 0.002,0.872 0.007,1.354 v 0 c 0.029,5.378 0.131,6.58 0.677,8.592 v 0 c 0.955,3.498 2.148,5.715 3.95,7.544 v 0 c 1.747,1.772 4.419,3.19 7.444,3.874 v 0 c 1.004,0.228 2.4,0.346 4.402,0.346 v 0 c 0.554,0 1.157,-0.01 1.813,-0.025 v 0 c 5.192,-0.159 7.323,-0.755 10.251,-2.731 v 0 c 2.348,-1.604 4.162,-4.165 5.206,-7.472 v 0 c 0.868,-2.738 1.344,-6.654 1.342,-10.59 v 0 c 0,-2.828 -0.242,-5.672 -0.728,-8.111 v 0 c -0.544,-2.768 -1.944,-5.869 -3.391,-7.618 v 0 c -1.331,-1.637 -3.646,-3.165 -6.092,-3.972 v 0 c -1.957,-0.651 -4.746,-1.008 -7.501,-1.006 v 0 -1 -1.002 c 2.927,0.004 5.86,0.361 8.129,1.108 v 0 c 2.787,0.932 5.358,2.598 7.01,4.602 v 0 c 1.729,2.125 3.178,5.392 3.806,8.497 v 0 c 0.518,2.604 0.767,5.561 0.767,8.501 v 0 c -0.003,4.099 -0.476,8.148 -1.434,11.192 v 0 c -1.152,3.653 -3.211,6.623 -5.987,8.521 v 0 c -3.187,2.203 -6.041,2.957 -11.329,3.078 v 0 c -0.666,0.015 -1.284,0.025 -1.861,0.025 v 0 c -2.079,0.001 -3.603,-0.114 -4.844,-0.394 z m 1.305,-6.542 c -1.081,-0.577 -2.051,-1.492 -2.72,-2.563 v 0 c -1.641,-2.666 -2.1,-5.984 -2.122,-13.004 v 0 c 0,-0.142 0,-0.286 -0.003,-0.431 v 0 c -0.002,-6.368 0.354,-9.204 1.647,-12.046 v 0 c 0.514,-1.095 1.344,-2.235 2.185,-2.904 v 0 c 1.462,-1.097 3.511,-1.575 5.574,-1.583 v 0 1 1 c -1.73,-0.011 -3.456,0.465 -4.36,1.174 v 0 c -0.407,0.287 -1.257,1.393 -1.575,2.14 v 0 c -1.116,2.458 -1.467,4.87 -1.471,11.22 v 0 c 0,0.136 0.002,0.273 0.002,0.423 v 0 c 0.017,6.985 0.526,9.885 1.825,11.959 v 0 c 0.455,0.749 1.228,1.469 1.949,1.847 v 0 c 1.027,0.521 1.478,0.619 3.527,0.635 v 0 c 1.333,0.017 2.946,-0.224 3.212,-0.365 v 0 c 1.074,-0.448 2.216,-1.649 2.91,-3.259 v 0 c 0.839,-1.921 1.227,-4.485 1.225,-9.486 v 0 c 0,-0.955 -0.011,-1.997 -0.038,-3.135 v 0 c -0.127,-5.48 -0.266,-6.856 -0.754,-8.337 v 0 c -0.811,-2.435 -1.583,-3.424 -2.791,-4.05 v 0 c -0.972,-0.495 -2.315,-0.769 -3.661,-0.764 v 0 -1 -1 c 1.603,0.002 3.213,0.299 4.565,0.98 v 0 c 1.817,0.911 2.948,2.594 3.789,5.213 v 0 c 0.595,1.826 0.724,3.458 0.852,8.911 v 0 c 0.025,1.152 0.038,2.21 0.038,3.182 v 0 c -0.003,5.08 -0.376,7.939 -1.391,10.284 v 0 c -0.868,1.975 -2.254,3.561 -3.957,4.299 v 0 c -0.921,0.367 -2.433,0.51 -3.999,0.526 v 0 c -0.081,0.001 -0.16,0.001 -0.239,0.001 v 0 c -1.909,-0.002 -2.998,-0.206 -4.219,-0.867 z M 457.637,38.37 h -6.041 v -5.226 -4.227 -1 h 6.041 6.038 v 5.226 5.226 h -6.038 z m -4.04,-5.226 v 3.226 h 4.04 4.037 v -3.226 l -0.002,-3.227 h -4.035 -4.04 z m -1,-3.227 v -1 z"
   inkscape:connector-curvature="0"
   style="fill:#e5e5e5" />
</g><g
     id="g10">
	<path
   d="m 559.435,83.913 h 0.77 v -2.836 h 1.756 c 0.48,0 0.795,0.078 0.939,0.232 0.139,0.148 0.229,0.492 0.268,1.031 l 0.068,0.836 c 0.012,0.16 0.027,0.293 0.055,0.4 0.021,0.114 0.063,0.228 0.117,0.334 h 0.807 v -0.209 c -0.064,-0.058 -0.107,-0.125 -0.135,-0.205 -0.037,-0.095 -0.064,-0.211 -0.072,-0.351 l -0.07,-0.972 c -0.047,-0.473 -0.109,-0.797 -0.189,-0.973 -0.117,-0.264 -0.322,-0.422 -0.611,-0.477 0.311,-0.07 0.555,-0.244 0.742,-0.525 0.189,-0.285 0.283,-0.633 0.283,-1.039 0,-0.334 -0.068,-0.625 -0.207,-0.871 -0.145,-0.274 -0.352,-0.486 -0.617,-0.635 -0.217,-0.119 -0.477,-0.197 -0.777,-0.234 -0.199,-0.022 -0.508,-0.035 -0.914,-0.035 h -2.209 v 6.527 h -0.004 z m 0.772,-3.538 v -2.289 h 1.557 c 0.305,0 0.523,0.009 0.662,0.022 0.205,0.033 0.369,0.093 0.488,0.175 0.146,0.096 0.256,0.219 0.328,0.368 0.08,0.158 0.121,0.334 0.121,0.526 0,0.433 -0.121,0.738 -0.367,0.921 -0.246,0.185 -0.648,0.274 -1.207,0.274 z"
   id="path3775_1_"
   inkscape:connector-curvature="0" />
	<path
   id="path8"
   d="m 560.436,84.912 h -1 -0.002 v -1 1 -1 h -0.229 -0.768 v -7.527 h 3.209 c 0.429,0 0.757,0.013 1.035,0.043 v 0 c 0.399,0.049 0.785,0.157 1.144,0.354 v 0 c 0.428,0.234 0.787,0.604 1,1.017 v 0 c 0.236,0.419 0.338,0.894 0.336,1.361 v 0 c 0.002,0.557 -0.134,1.12 -0.451,1.595 v 0 c -0.013,0.021 -0.026,0.041 -0.041,0.061 v 0 c 0.164,0.395 0.204,0.75 0.265,1.287 v 0 l 0.07,0.963 0.21,0.188 v 0.449 1.208 h -2.417 l -0.279,-0.543 c -0.093,-0.183 -0.168,-0.383 -0.197,-0.544 v 0 c -0.051,-0.211 -0.068,-0.39 -0.081,-0.565 v 0 l -0.07,-0.845 c -0.007,-0.135 -0.021,-0.246 -0.034,-0.332 v 0 c -0.05,-0.004 -0.108,-0.006 -0.174,-0.006 v 0 h -0.757 v 2.837 h -0.769 z m 0.77,-5.539 0.582,-0.001 c 0.226,0 0.396,-0.019 0.5,-0.042 v 0 c 0.029,-0.007 0.05,-0.012 0.065,-0.016 v 0 c 0.005,-0.03 0.009,-0.075 0.009,-0.136 v 0 c -10e-4,-0.032 -0.004,-0.049 -0.009,-0.063 v 0 c -0.015,-0.005 -0.035,-0.011 -0.027,-0.011 v 0 c -0.08,-0.009 -0.28,-0.02 -0.563,-0.02 v 0 h -0.557 z m -1.772,4.539 v 1 z"
   inkscape:connector-curvature="0"
   style="fill:#e5e5e5" />
</g><path
     id="path12"
     d="m 555.467,80.648 c 0,-3.486 2.807,-6.316 6.286,-6.355 v 0 c 0.023,-0.002 0.047,-0.003 0.07,-0.003 v 0 c 3.508,0.002 6.354,2.846 6.355,6.358 v 0 h -0.002 c 0,3.51 -2.844,6.355 -6.354,6.355 v 0 c -3.51,0 -6.355,-2.843 -6.355,-6.355 z m 2,0 c 0.004,2.407 1.948,4.352 4.356,4.356 v 0 c 2.403,-0.005 4.35,-1.953 4.354,-4.356 v 0 c -0.005,-2.365 -1.885,-4.283 -4.227,-4.354 v 0 h -0.128 c -2.406,0.003 -4.351,1.948 -4.355,4.354 z m 3.952,-4.442 c 0.126,0.053 0.22,0.072 0.294,0.079 v 0 c -0.088,-0.01 -0.173,-0.031 -0.255,-0.063 v 0 c -0.059,-0.023 -0.115,-0.052 -0.17,-0.086 v 0 c -0.013,-0.008 -0.025,-0.017 -0.038,-0.025 v 0 c 0.06,0.042 0.119,0.074 0.169,0.095 z m -0.47,-0.431 c -0.002,-0.003 -0.003,-0.005 -0.005,-0.008 v 0 c 0.002,0.003 0.003,0.005 0.005,0.008 z m -0.012,-0.021 c -0.002,-0.004 -0.003,-0.007 -0.005,-0.01 v 0 c 0.002,0.004 0.003,0.006 0.005,0.01 z m -0.113,-0.466 c 0,-0.114 0.021,-0.227 0.059,-0.333 v 0 c -0.031,0.078 -0.062,0.186 -0.059,0.333 z"
     inkscape:connector-curvature="0"
     style="fill:#e5e5e5" /><g
     transform="translate(-61.6856,-312.868)"
     id="g3">
	<path
   d="m 142.207,336.374 -0.099,89.525 -23.986,-7.801 v -105.23 l 30.618,8.096 c 19.599,5.267 31.592,15.507 31.398,33.45 -0.195,20.873 -9.849,29.257 -28.667,23.796 v -41.154 c -0.002,-4.976 -9.264,-5.267 -9.264,-0.682 z"
   id="path7"
   inkscape:connector-curvature="0"
   style="fill:#de0029" />
	<path
   d="m 107.102,400.738 -11.311,3.805 c -7.314,2.537 -13.554,-3.412 -6.826,-5.854 l 5.46,-1.947 -20.575,-6.537 c -6.338,2.148 -12.288,6.73 -11.896,13.168 0.39,6.533 15.309,8.096 26.815,9.947 10.726,1.754 20.477,0.779 29.351,-2.342 v -6.73 z m 35.2,25.162 20.965,-7.313 -21.16,-6.729 v 13.558 z"
   id="path9"
   inkscape:connector-curvature="0"
   style="fill:#f3c202" />
	<path
   d="m 198.08,406.299 0.389,-0.099 c 9.167,-3.218 13.067,-7.707 12.092,-11.898 -1.56,-7.021 -12.773,-10.826 -30.033,-12.094 -12.384,-0.877 -24.572,1.854 -36.468,5.947 l -1.95,0.686 21.355,6.633 12.48,-4.197 c 13.067,-2.436 18.333,1.854 5.755,5.854 l -6.242,2.146 z m -79.958,-31.013 -9.459,3.217 9.459,2.926 z"
   id="path11"
   inkscape:connector-curvature="0"
   style="fill:#326db3" />
	<path
   d="m 163.268,418.585 34.812,-12.286 -22.624,-7.022 -33.348,11.41 v 1.17 z m -45.146,-21.552 -11.019,3.705 11.019,3.512 z m 23.985,5.755 v -13.945 l 21.355,6.631 z m -47.682,-6.046 23.696,-8.485 v -6.826 l -9.459,-2.927 -34.324,11.605 c -0.097,0 -0.292,0.096 -0.487,0.096 z"
   id="path13"
   inkscape:connector-curvature="0"
   style="fill:#00aa9e" />
</g></g>
</svg>