<?xml version="1.0" encoding="UTF-8" standalone="no"?>
<svg
   version="1.1"
   id="svg15185"
   sodipodi:docname="oric.svg"
   width="600"
   height="176.472"
   inkscape:version="1.1 (c68e22c387, 2021-05-23)"
   xmlns:inkscape="http://www.inkscape.org/namespaces/inkscape"
   xmlns:sodipodi="http://sodipodi.sourceforge.net/DTD/sodipodi-0.dtd"
   xmlns="http://www.w3.org/2000/svg"
   xmlns:svg="http://www.w3.org/2000/svg">
  <defs
     id="defs15189" />
  <sodipodi:namedview
     id="namedview15187"
     pagecolor="#ffffff"
     bordercolor="#111111"
     borderopacity="1"
     inkscape:pageshadow="0"
     inkscape:pageopacity="0"
     inkscape:pagecheckerboard="1"
     showgrid="false"
     fit-margin-top="0"
     fit-margin-left="0"
     fit-margin-right="0"
     fit-margin-bottom="0"
     inkscape:zoom="3.4"
     inkscape:cx="61.911765"
     inkscape:cy="75"
     inkscape:window-width="1280"
     inkscape:window-height="738"
     inkscape:window-x="-8"
     inkscape:window-y="-8"
     inkscape:window-maximized="1"
     inkscape:current-layer="svg15185" />
  <path
     d="M 94.118,0 C 35.294,0 0,47.058 0,88.235 c 0,41.177 29.411,88.235 94.118,88.235 52.941,0 94.118,-47.058 94.118,-88.235 C 188.236,47.058 152.942,0 94.118,0 Z m 0,147.057 c -29.411,0 -47.058,-17.645 -47.058,-58.822 0,-41.177 17.647,-58.824 47.058,-58.824 29.411,0 47.06,17.649 47.06,58.824 -0.002,41.178 -17.649,58.822 -47.06,58.822 z"
     style="fill:#ffffff"
     id="path15177" />
  <path
     d="M 547.06,176.47 C 482.354,176.47 441.177,141.176 441.177,88.235 441.177,35.294 476.471,0 535.293,0 564.706,0 588.236,17.645 600,35.294 c -5.881,11.764 -29.411,29.413 -29.411,29.413 -5.883,0 -11.766,-5.885 -11.766,-5.885 0,-11.764 5.883,-29.411 -23.53,-29.411 -29.409,0 -47.059,11.764 -47.059,58.824 0,35.294 29.412,58.822 58.825,58.822 5.881,0 17.647,0 17.647,0 5.883,-5.881 11.764,-11.764 11.764,-17.645 11.764,0 11.764,0 11.764,0 v 47.058 c 0.002,0 -17.644,0 -41.174,0 z"
     style="fill:#ffffff"
     id="path15179" />
  <path
     d="m 347.059,158.823 c -5.881,-5.881 -35.294,-58.822 -41.175,-64.705 17.648,0 41.175,-17.647 41.175,-47.058 0,-29.413 -23.528,-47.058 -47.058,-47.058 -23.53,0 -70.59,0 -100.001,0 v 11.764 c 11.764,0 11.764,17.645 11.764,17.645 0,0 0,117.646 0,123.531 0,5.881 -5.883,11.764 -11.764,11.764 v 11.764 h 62.499 c 0,0 0,-3.675 0,-11.764 -8.088,0 -9.558,-5.883 -9.558,-11.764 0,-5.883 0,-41.176 0,-52.941 5.881,0 11.764,0 17.647,5.881 5.883,5.883 17.647,41.175 23.528,52.941 5.885,11.764 11.766,17.649 17.647,17.649 5.883,0 23.53,0 35.294,0 11.765,0 11.765,-11.765 11.765,-11.765 0,0 -5.882,-0.001 -11.763,-5.884 z M 276.471,76.471 c -11.764,0 -23.528,0 -23.528,0 0,-23.528 0,-47.06 0,-47.06 0,0 11.764,0 23.528,0 11.764,0 23.53,5.883 23.53,23.532 0,17.645 -11.766,23.528 -23.53,23.528 z"
     style="fill:#ffffff"
     id="path15181" />
  <path
     d="m 423.53,152.94 c 0,5.883 5.883,11.764 11.766,11.764 v 11.765 h -70.589 v -11.765 c 5.883,0 11.765,-5.881 11.765,-11.764 V 23.53 c 0,-5.883 -5.882,-11.764 -11.765,-11.764 V 0 h 70.589 v 11.764 c -5.883,0 -11.766,5.881 -11.766,11.764 z"
     style="fill:#ffffff"
     id="path15183" />
</svg>
