<?xml version="1.0" encoding="UTF-8" standalone="no"?>
<!-- Created with Inkscape (http://www.inkscape.org/) -->

<svg
   xmlns:dc="http://purl.org/dc/elements/1.1/"
   xmlns:cc="http://creativecommons.org/ns#"
   xmlns:rdf="http://www.w3.org/1999/02/22-rdf-syntax-ns#"
   xmlns:svg="http://www.w3.org/2000/svg"
   xmlns="http://www.w3.org/2000/svg"
   xmlns:sodipodi="http://sodipodi.sourceforge.net/DTD/sodipodi-0.dtd"
   xmlns:inkscape="http://www.inkscape.org/namespaces/inkscape"
   width="135.73125mm"
   height="35.548527mm"
   viewBox="0 0 135.73125 35.548526"
   version="1.1"
   id="svg4515"
   inkscape:version="0.92.1 r15371"
   sodipodi:docname="windows.svg">
  <defs
     id="defs4509">
    <inkscape:perspective
       sodipodi:type="inkscape:persp3d"
       inkscape:vp_x="0 : 148.49999 : 1"
       inkscape:vp_y="0 : 999.99996 : 0"
       inkscape:vp_z="210.00001 : 148.49999 : 1"
       inkscape:persp3d-origin="105 : 98.999996 : 1"
       id="perspective5098" />
  </defs>
  <sodipodi:namedview
     id="base"
     pagecolor="#ffffff"
     bordercolor="#666666"
     borderopacity="1.0"
     inkscape:pageopacity="0.0"
     inkscape:pageshadow="2"
     inkscape:zoom="0.74511719"
     inkscape:cx="178.58447"
     inkscape:cy="-63.730237"
     inkscape:document-units="mm"
     inkscape:current-layer="layer1"
     showgrid="false"
     inkscape:pagecheckerboard="true"
     inkscape:window-width="1280"
     inkscape:window-height="738"
     inkscape:window-x="-8"
     inkscape:window-y="-8"
     inkscape:window-maximized="1" />
  <metadata
     id="metadata4512">
    <rdf:RDF>
      <cc:Work
         rdf:about="">
        <dc:format>image/svg+xml</dc:format>
        <dc:type
           rdf:resource="http://purl.org/dc/dcmitype/StillImage" />
        <dc:title />
      </cc:Work>
    </rdf:RDF>
  </metadata>
  <g
     inkscape:label="Layer 1"
     inkscape:groupmode="layer"
     id="layer1"
     transform="translate(-41.497202,-61.321965)">
    <text
       xml:space="preserve"
       style="font-style:normal;font-variant:normal;font-weight:normal;font-stretch:normal;font-size:16.93333244px;line-height:1.25;font-family:'Segoe UI';-inkscape-font-specification:'Segoe UI';letter-spacing:0px;word-spacing:0px;fill:#000000;fill-opacity:1;stroke:none;stroke-width:0.26458332"
       x="49.712536"
       y="18.254696"
       id="text5080"><tspan
         sodipodi:role="line"
         id="tspan5078"
         x="49.712536"
         y="33.507469"
         style="font-style:normal;font-variant:normal;font-weight:normal;font-stretch:normal;font-size:16.93333244px;font-family:'Segoe UI';-inkscape-font-specification:'Segoe UI';stroke-width:0.26458332" /></text>
    <g
       style="font-style:normal;font-variant:normal;font-weight:normal;font-stretch:normal;font-size:50.79999924px;line-height:1.25;font-family:Impact;-inkscape-font-specification:Impact;letter-spacing:0px;word-spacing:0px;fill:#ffffff;fill-opacity:1;stroke:none;stroke-width:0.26458332"
       id="text5147" />
    <path
       id="path5156"
       transform="scale(0.26458333)"
       style="opacity:1;fill:#ffffff;fill-opacity:1;stroke:none;stroke-width:5.36828327;stroke-miterlimit:4;stroke-dasharray:none;stroke-opacity:0.94366198"
       d="m 351.55241,261.27077 -4.56623,-4.36173 2.94503,-10.06553 2.94503,-10.06553 6.79157,-0.39811 c 7.74606,-0.45405 20.03929,3.54652 25.60251,8.3318 3.41959,2.9414 3.4461,3.09912 1.5024,8.93787 -1.80201,5.41313 -2.44801,6.01665 -7.23766,6.7616 -2.89247,0.44987 -7.50439,1.80872 -10.2487,3.01966 -7.75022,3.41981 -12.49788,2.84153 -17.73395,-2.16003 z m 280.41239,35.38518 h -35.4375 v 54.74999 q 0,3.28125 6.46874,4.59376 6.46877,1.31249 21.75001,1.31249 h 7.40625 q 11.62499,0 17.90627,-4.31249 6.37496,-4.31251 10.21874,-14.90625 l 3.46874,-9.56251 h 6.09373 q -2.71873,13.12501 -4.96872,35.71875 h -40.12501 q -3.09373,0 -15.93751,-0.46874 -12.74998,-0.46876 -20.15622,-0.46876 -16.21875,0 -28.21875,0.9375 v -6.18749 l 11.90623,-1.6875 q 4.87499,-0.65625 6.65624,-2.71875 1.78125,-2.0625 1.78125,-6.9375 V 249.3122 q 0,-4.87501 -1.78125,-6.9375 -1.78125,-2.0625 -6.65624,-2.71875 l -11.90623,-1.6875 v -6.18751 q 12,0.9375 28.21875,0.9375 7.40624,0 19.31248,-0.46874 11.90626,-0.46876 15,-0.46876 h 37.68752 q 0,16.96876 0.93747,29.81251 h -6.1875 l -2.06249,-9.09376 q -2.15626,-7.59374 -7.31252,-10.68749 -5.06248,-3.09376 -15.56247,-3.09376 h -7.50001 q -14.71873,0 -20.625,1.31251 -5.8125,1.21875 -5.8125,4.59375 v 45.09375 h 35.4375 q 4.78125,0 6.84374,-1.78125 2.06252,-1.78125 2.81249,-6.65626 l 1.68753,-11.81249 h 6.1875 q -0.93751,11.90625 -0.93751,23.71874 0,11.81251 0.93751,23.81251 h -6.1875 l -1.68753,-11.90625 q -0.74997,-4.875 -2.81249,-6.65625 -2.06249,-1.78125 -6.84374,-1.78125 z M 524.52734,366.1247 424.96483,246.59345 v 100.125 q 0,4.78125 1.78125,6.84375 1.78126,2.06249 6.65624,2.8125 l 11.90623,1.6875 v 6.18749 q -11.90623,-0.9375 -24.18746,-0.9375 -12.1875,0 -24.1875,0.9375 v -6.18749 l 11.90623,-1.6875 q 4.87502,-0.75001 6.65624,-2.8125 1.78125,-2.0625 1.78125,-6.84375 V 249.3122 q 0,-4.87501 -1.78125,-6.84375 -1.68749,-2.0625 -6.65624,-2.8125 l -11.90623,-1.6875 v -6.18751 q 8.71872,0.9375 18.46873,0.9375 11.24999,0 17.625,-0.9375 l 87.84374,105.5625 V 249.3122 q 0,-4.78125 -1.78125,-6.84375 -1.78126,-2.0625 -6.65624,-2.8125 l -11.90623,-1.6875 v -6.18751 q 12,0.9375 24.18746,0.9375 12.28128,0 24.18751,-0.9375 v 6.18751 l -11.90623,1.6875 q -4.87499,0.75 -6.65624,2.8125 -1.78126,2.0625 -1.78126,6.84375 V 366.1247 Z M 192.93357,238.71844 q -6.5625,0.93751 -1.875,12.28125 l 36.46875,89.43751 15.75,-39 -23.25,-52.31251 q -2.4375,-5.43749 -4.59375,-7.59374 -2.15625,-2.25001 -5.8125,-2.81251 l -4.78125,-0.74999 v -6.18751 q 12,0.9375 20.71875,0.9375 7.875,0 19.78125,-0.9375 v 6.18751 l -4.40625,0.74999 q -4.125,0.65626 -4.875,3.5625 -0.65625,2.90626 1.96875,8.71875 l 13.3125,30.09376 11.90625,-29.34375 q 2.625,-6.5625 1.78125,-9.46876 -0.75,-2.90624 -5.625,-3.5625 l -5.625,-0.74999 v -6.18751 q 12,0.9375 18.46875,0.9375 6.46875,0 18.375,-0.9375 v 6.18751 l -4.78125,0.74999 q -4.3125,0.65626 -7.03125,3.46876 -2.71875,2.71875 -5.4375,9.1875 l -17.25,40.31249 21.46875,48.18751 32.4375,-88.31251 q 2.53125,-6.93749 1.6875,-9.5625 -0.75,-2.71875 -5.71875,-3.28125 l -6.09375,-0.74999 v -6.18751 q 12,0.9375 18.75,0.9375 6.9375,0 18.84375,-0.9375 v 6.18751 l -4.78125,0.74999 q -4.96875,0.84375 -7.5,3.5625 -2.4375,2.71875 -5.71875,10.87501 l -45,112.96875 h -2.625 l -24.375,-54.84375 -23.625,54.84375 h -2.71875 l -47.625,-116.4375 q -2.625,-6.18751 -4.78125,-8.15625 -2.15625,-1.96876 -7.125,-2.81251 l -4.78125,-0.74999 v -6.18751 q 12,0.9375 20.90625,0.9375 8.8125,0 20.71875,-0.9375 v 6.18751 z m 165.23084,-6.95029 c -3.66309,-0.008 -6.47983,0.59059 -7.64388,1.87981 -1.84678,2.04538 -6.09738,17.29842 -11.40349,40.60806 -3.82823,16.77348 -1.17222,26.55544 1.44361,31.79061 3.34429,6.69304 5.95067,10.7174 0.66469,24.07404 -3.82832,9.67341 -7.73429,11.52481 -11.36195,11.98509 -8.74252,-2.10231 -15.34001,-2.17763 -16.20169,0.18694 -1.1787,3.23459 8.79665,9.791 22.26693,14.64383 13.47028,4.85282 25.36713,6.17374 26.54584,2.93915 0.86449,-2.37231 -4.28688,-6.53447 -12.40052,-10.49994 -3.56185,-3.66998 -6.75684,-6.22614 -3.93618,-17.59336 5.51804,-22.23758 13.93523,-14.59468 23.85594,-28.41526 8.41535,-11.72348 10.64365,-20.71832 15.51622,-34.45974 5.16264,-14.55943 7.42938,-21.29945 6.76108,-22.63042 -4.50093,-8.9645 -23.11735,-14.48351 -34.1066,-14.50882 z m 0.75815,3.05339 c 4.09405,0.0359 9.2985,0.92939 13.52217,2.44064 9.0519,3.23881 17.22109,7.76559 16.74173,10.47916 -1.21149,6.85817 -3.85561,12.46035 -4.52814,14.39458 -8.85201,-8.56169 -20.21926,16.98914 -38.44785,-4.15428 0,0 3.48565,-13.43167 5.88869,-21.09334 0.45913,-1.46387 3.211,-2.09843 6.8234,-2.06676 z m -13.33523,26.56661 c 18.44205,20.17972 31.31728,-5.03843 38.07395,3.71808 -2.3139,7.59969 -16.25907,53.61509 -34.844,45.39587 -15.39539,-6.71082 -6.47975,-40.92714 -3.22995,-49.11395 z" />
  </g>
</svg>
