<?xml version="1.0" encoding="UTF-8" standalone="no"?>
<svg
   xmlns:dc="http://purl.org/dc/elements/1.1/"
   xmlns:cc="http://creativecommons.org/ns#"
   xmlns:rdf="http://www.w3.org/1999/02/22-rdf-syntax-ns#"
   xmlns:svg="http://www.w3.org/2000/svg"
   xmlns="http://www.w3.org/2000/svg"
   xmlns:sodipodi="http://sodipodi.sourceforge.net/DTD/sodipodi-0.dtd"
   xmlns:inkscape="http://www.inkscape.org/namespaces/inkscape"
   width="618"
   height="180"
   viewBox="0 0 618 180"
   fill="none"
   version="1.1"
   id="svg50"
   sodipodi:docname="splashlogo.svg"
   inkscape:version="1.0.1 (3bc2e813f5, 2020-09-07)">
  <metadata
     id="metadata56">
    <rdf:RDF>
      <cc:Work
         rdf:about="">
        <dc:format>image/svg+xml</dc:format>
        <dc:type
           rdf:resource="http://purl.org/dc/dcmitype/StillImage" />
        <dc:title />
      </cc:Work>
    </rdf:RDF>
  </metadata>
  <defs
     id="defs54">
    <rect
       x="491.5038"
       y="91.145419"
       width="35.350793"
       height="41.739491"
       id="rect27" />
    <rect
       x="493.20745"
       y="91.571332"
       width="126.92212"
       height="78.793937"
       id="rect21" />
  </defs>
  <sodipodi:namedview
     pagecolor="#ffffff"
     bordercolor="#666666"
     borderopacity="1"
     objecttolerance="10"
     gridtolerance="10"
     guidetolerance="10"
     inkscape:pageopacity="0"
     inkscape:pageshadow="2"
     inkscape:window-width="1920"
     inkscape:window-height="986"
     id="namedview52"
     showgrid="false"
     inkscape:zoom="1.6602135"
     inkscape:cx="316.60095"
     inkscape:cy="134.46549"
     inkscape:window-x="-11"
     inkscape:window-y="-11"
     inkscape:window-maximized="1"
     inkscape:current-layer="svg50"
     inkscape:document-rotation="0" />
  <g
     aria-label="Mr. Overlay Presents"
     id="text865"
     style="font-style:normal;font-variant:normal;font-weight:bold;font-stretch:normal;font-size:48px;line-height:1.25;font-family:'Franklin Gothic Medium';-inkscape-font-specification:'Franklin Gothic Medium, Bold';fill:#cccccc;fill-opacity:1"
     transform="matrix(0.84025432,0,0,0.74384907,224.88757,22.121158)">
    <path
       d="M 37.563601,81.757599 H 31.680789 V 53.749786 L 22.821414,81.757599 H 19.797976 L 10.891726,53.749786 V 81.757599 H 6.1807885 V 49.765411 h 9.0234375 l 6.703125,20.601563 6.585938,-20.601563 h 9.070312 z"
       style="fill:#cccccc;fill-opacity:1"
       id="path836" />
    <path
       d="m 49.657351,81.757599 h -5.34375 V 58.085724 h 4.828125 v 5.648437 q 1.03125,-3.304687 2.835938,-4.828125 1.804687,-1.523437 3.703125,-1.523437 0.257812,0 0.703125,0.02344 v 5.742188 q -4.078125,0 -5.414063,2.601562 -1.3125,2.601563 -1.3125,5.039063 z"
       style="fill:#cccccc;fill-opacity:1"
       id="path838" />
    <path
       d="m 65.688601,75.616974 v 6.140625 h -5.789062 v -6.140625 z"
       style="fill:#cccccc;fill-opacity:1"
       id="path840" />
    <path
       d="m 95.876101,82.249786 q -6.375,0 -9.9375,-4.78125 -3.539062,-4.78125 -3.539062,-11.8125 0,-6.984375 3.773437,-11.671875 3.773438,-4.710937 9.960938,-4.710937 6.234376,0 9.843746,4.710937 3.63282,4.6875 3.63282,11.742188 0,7.40625 -3.77344,11.976562 -3.75,4.546875 -9.960939,4.546875 z m 0.04687,-4.640625 q 3.117188,0 5.273439,-2.578125 2.15625,-2.578125 2.15625,-9.351562 0,-5.507813 -1.78125,-8.625 -1.781251,-3.140625 -5.531251,-3.140625 -7.40625,0 -7.40625,11.929687 0,5.789063 1.875,8.789063 1.898437,2.976562 5.414062,2.976562 z"
       style="fill:#cccccc;fill-opacity:1"
       id="path842" />
    <path
       d="m 132.48548,58.085724 -8.03907,23.671875 h -4.42968 l -8.22657,-23.671875 h 5.57813 l 5.53125,16.054687 5.39062,-16.054687 z"
       style="fill:#cccccc;fill-opacity:1"
       id="path844" />
    <path
       d="m 151.04798,74.210724 4.82812,0.65625 q -0.9375,3.210937 -3.65625,5.296875 -2.71875,2.085937 -6.82031,2.085937 -4.92188,0 -7.92188,-3.304687 -3,-3.304688 -3,-8.953125 0,-5.367188 3.02344,-8.882813 3.02344,-3.515625 8.20313,-3.515625 5.0625,0 7.82812,3.46875 2.76563,3.46875 2.76563,8.90625 l -0.0234,0.609375 h -16.24219 q 0,2.414063 0.44531,3.867188 0.46875,1.453125 1.82813,2.53125 1.35937,1.078125 3.39844,1.078125 3.96093,0 5.34375,-3.84375 z m -0.32813,-7.078125 q -0.0234,-2.554688 -1.54687,-4.171875 -1.5,-1.617188 -3.72657,-1.617188 -2.20312,0 -3.67968,1.523438 -1.47657,1.5 -1.73438,4.265625 z"
       style="fill:#cccccc;fill-opacity:1"
       id="path846" />
    <path
       d="m 166.51673,81.757599 h -5.34375 V 58.085724 h 4.82812 v 5.648437 q 1.03125,-3.304687 2.83594,-4.828125 1.80469,-1.523437 3.70312,-1.523437 0.25782,0 0.70313,0.02344 v 5.742188 q -4.07813,0 -5.41406,2.601562 -1.3125,2.601563 -1.3125,5.039063 z"
       style="fill:#cccccc;fill-opacity:1"
       id="path848" />
    <path
       d="M 182.40735,81.757599 H 177.0636 V 49.765411 h 5.34375 z"
       style="fill:#cccccc;fill-opacity:1"
       id="path850" />
    <path
       d="m 209.07923,81.757599 h -5.08594 q -0.67969,-2.15625 -0.82031,-4.78125 -2.13282,5.273437 -8.01563,5.273437 -3.53906,0 -5.69531,-2.0625 -2.13281,-2.085937 -2.13281,-5.226562 0,-8.15625 14.32031,-8.15625 0.5625,0 1.52344,0.02344 v -1.78125 q 0,-3.679687 -5.01563,-3.679687 -4.875,0 -5.53125,3.679687 l -4.54687,-0.679687 q 0.375,-2.953125 3.04687,-4.851563 2.67188,-1.921875 7.73438,-1.921875 2.74218,0 4.47656,0.46875 1.73437,0.445313 2.92969,1.546875 1.19531,1.078125 1.64062,2.367188 0.46875,1.265625 0.46875,4.3125 v 10.6875 q 0,2.320312 0.70313,4.78125 z m -5.90625,-12.046875 q -10.35938,0 -10.35938,4.945312 0,1.476563 1.03125,2.53125 1.05469,1.03125 3.16406,1.03125 3.04688,0 4.59375,-1.921875 1.57032,-1.945312 1.57032,-4.40625 z"
       style="fill:#cccccc;fill-opacity:1"
       id="path852" />
    <path
       d="m 232.44641,58.085724 -9.21093,26.953125 q -0.84375,2.484375 -2.32032,3.84375 -1.45312,1.382812 -4.125,1.382812 -1.05468,0 -3.07031,-0.164062 v -4.242188 l 2.55469,0.04687 q 1.6875,0 2.48437,-0.5625 0.82032,-0.539062 1.28907,-1.945312 0.46875,-1.40625 0.46875,-1.640625 0,-0.140625 -0.49219,-1.453125 l -8.13281,-22.21875 h 5.60156 l 5.74219,15.609375 4.94531,-15.609375 z"
       style="fill:#cccccc;fill-opacity:1"
       id="path854" />
    <path
       d="m 254.05579,81.757599 h -5.76563 V 49.765411 h 13.10157 q 5.60156,0 8.29687,2.835938 2.71875,2.8125 2.71875,6.65625 0,4.382812 -2.92969,7.101562 -2.92968,2.71875 -7.42968,2.71875 h -7.99219 z m 0,-17.625 h 6.82031 q 2.67188,0 4.07813,-1.3125 1.40625,-1.3125 1.40625,-3.492188 0,-1.96875 -1.3125,-3.375 -1.28907,-1.40625 -4.6875,-1.40625 h -6.30469 z"
       style="fill:#cccccc;fill-opacity:1"
       id="path856" />
    <path
       d="m 282.08704,81.757599 h -5.34375 V 58.085724 h 4.82812 v 5.648437 q 1.03125,-3.304687 2.83594,-4.828125 1.80469,-1.523437 3.70313,-1.523437 0.25781,0 0.70312,0.02344 v 5.742188 q -4.07812,0 -5.41406,2.601562 -1.3125,2.601563 -1.3125,5.039063 z"
       style="fill:#cccccc;fill-opacity:1"
       id="path858" />
    <path
       d="m 307.70423,74.210724 4.82812,0.65625 q -0.9375,3.210937 -3.65625,5.296875 -2.71875,2.085937 -6.82031,2.085937 -4.92188,0 -7.92188,-3.304687 -3,-3.304688 -3,-8.953125 0,-5.367188 3.02344,-8.882813 3.02344,-3.515625 8.20313,-3.515625 5.0625,0 7.82812,3.46875 2.76563,3.46875 2.76563,8.90625 l -0.0234,0.609375 H 296.6886 q 0,2.414063 0.44531,3.867188 0.46875,1.453125 1.82813,2.53125 1.35937,1.078125 3.39844,1.078125 3.96093,0 5.34375,-3.84375 z m -0.32813,-7.078125 q -0.0234,-2.554688 -1.54687,-4.171875 -1.5,-1.617188 -3.72657,-1.617188 -2.20312,0 -3.67968,1.523438 -1.47657,1.5 -1.73438,4.265625 z"
       style="fill:#cccccc;fill-opacity:1"
       id="path860" />
    <path
       d="m 314.94641,76.320099 5.01563,-0.960938 q 1.14844,2.882813 5.0625,2.882813 4.96875,0 4.96875,-2.929688 0,-0.9375 -0.77344,-1.546875 -0.77344,-0.609375 -1.82812,-0.820312 l -4.3125,-0.820313 q -7.17188,-1.382812 -7.17188,-7.007812 0,-3.140625 2.27344,-5.320313 2.27344,-2.203125 6.77344,-2.203125 7.5,0 9.16406,5.507813 l -4.75781,0.960937 q -0.75,-2.671875 -4.26563,-2.671875 -4.26562,0 -4.26562,2.671875 0,1.851563 3.44531,2.554688 l 5.08594,1.054687 q 5.92968,1.21875 5.92968,6.796875 0,3.914063 -3.04687,5.859375 -3.04688,1.921875 -7.24219,1.921875 -3.63281,0 -6.42187,-1.453125 -2.78907,-1.476562 -3.63282,-4.476562 z"
       style="fill:#cccccc;fill-opacity:1"
       id="path862" />
    <path
       d="m 354.67298,74.210724 4.82812,0.65625 q -0.9375,3.210937 -3.65625,5.296875 -2.71875,2.085937 -6.82031,2.085937 -4.92188,0 -7.92188,-3.304687 -3,-3.304688 -3,-8.953125 0,-5.367188 3.02344,-8.882813 3.02344,-3.515625 8.20313,-3.515625 5.0625,0 7.82812,3.46875 2.76563,3.46875 2.76563,8.90625 l -0.0234,0.609375 h -16.24219 q 0,2.414063 0.44531,3.867188 0.46875,1.453125 1.82813,2.53125 1.35937,1.078125 3.39844,1.078125 3.96093,0 5.34375,-3.84375 z m -0.32813,-7.078125 q -0.0234,-2.554688 -1.54687,-4.171875 -1.5,-1.617188 -3.72657,-1.617188 -2.20312,0 -3.67968,1.523438 -1.47657,1.5 -1.73438,4.265625 z"
       style="fill:#cccccc;fill-opacity:1"
       id="path864" />
    <path
       d="m 384.39173,81.757599 h -5.34375 V 66.968536 q 0,-2.34375 -1.07813,-3.515625 -1.07812,-1.195312 -2.60156,-1.195312 -2.08594,0 -3.65625,1.828125 -1.57031,1.828125 -1.57031,5.507812 v 12.164063 h -5.34375 V 58.085724 h 4.875 v 5.484375 q 2.55468,-5.976563 7.17187,-5.976563 3.11719,0 5.32031,1.96875 2.22657,1.96875 2.22657,6.914063 z"
       style="fill:#cccccc;fill-opacity:1"
       id="path866" />
    <path
       d="m 401.75891,77.585724 v 4.171875 q -2.39062,0.515625 -3.70312,0.515625 -2.15625,0 -3.70313,-0.84375 -1.54687,-0.867188 -2.27343,-2.34375 -0.70313,-1.5 -0.70313,-4.59375 V 62.234161 h -2.95312 v -4.148437 h 3.25781 l 0.49219,-6.164063 4.38281,-0.398437 v 6.5625 h 4.75781 v 4.148437 h -4.75781 v 11.554688 q 0,2.226562 0.79687,3.046875 0.82032,0.796875 3.07032,0.796875 0.63281,0 1.33593,-0.04687 z"
       style="fill:#cccccc;fill-opacity:1"
       id="path868" />
    <path
       d="m 403.3761,76.320099 5.01563,-0.960938 q 1.14843,2.882813 5.0625,2.882813 4.96875,0 4.96875,-2.929688 0,-0.9375 -0.77344,-1.546875 -0.77344,-0.609375 -1.82813,-0.820312 l -4.3125,-0.820313 q -7.17187,-1.382812 -7.17187,-7.007812 0,-3.140625 2.27344,-5.320313 2.27343,-2.203125 6.77343,-2.203125 7.5,0 9.16407,5.507813 l -4.75782,0.960937 q -0.75,-2.671875 -4.26562,-2.671875 -4.26563,0 -4.26563,2.671875 0,1.851563 3.44532,2.554688 l 5.08593,1.054687 q 5.92969,1.21875 5.92969,6.796875 0,3.914063 -3.04687,5.859375 -3.04688,1.921875 -7.24219,1.921875 -3.63281,0 -6.42188,-1.453125 -2.78906,-1.476562 -3.63281,-4.476562 z"
       style="fill:#cccccc;fill-opacity:1"
       id="path870" />
  </g>
  <g
     aria-label="immersive"
     transform="scale(1.165401,0.85807377)"
     id="text869"
     style="font-size:138.543px;line-height:1.25;font-family:SNES;-inkscape-font-specification:SNES;fill:#cccccc;fill-opacity:1;stroke-width:0.721578">
    <path
       d="m 142.2499,199.3562 h -11.70309 l 17.65611,-97.00716 h 11.63545 z"
       style="fill:#cccccc;fill-opacity:1;stroke-width:0.721578"
       id="path853" />
    <path
       d="m 168.02377,102.34904 h 13.93548 l -0.74413,69.88033 23.40619,-69.88033 h 16.10021 l -17.58846,97.00716 h -11.7031 l 10.75602,-60.54491 -20.42968,60.54491 h -9.8766 l 0.74413,-61.28904 -10.55308,61.28904 h -11.70309 z"
       style="fill:#cccccc;fill-opacity:1;stroke-width:0.721578"
       id="path855" />
    <path
       d="m 228.90692,102.34904 h 13.93548 l -0.74413,69.88033 23.40619,-69.88033 h 16.10022 l -17.58847,97.00716 h -11.7031 l 10.75603,-60.54491 -20.42968,60.54491 h -9.8766 l 0.74412,-61.28904 -10.55308,61.28904 h -11.70309 z"
       style="fill:#cccccc;fill-opacity:1;stroke-width:0.721578"
       id="path857" />
    <path
       d="m 289.72243,102.34904 h 26.31505 l -1.89414,10.82367 h -14.61196 l -5.47948,30.77982 h 14.54431 l -2.02944,10.82367 h -14.47666 l -6.02067,33.75633 h 14.34137 l -1.96179,10.82367 h -26.31505 z"
       style="fill:#cccccc;fill-opacity:1;stroke-width:0.721578"
       id="path859" />
    <path
       d="m 306.63441,199.3562 17.38553,-97.00716 h 26.04446 q 3.51769,0 6.08831,2.57062 2.57062,2.50298 2.70592,6.15597 -0.0677,0.33824 -0.27059,1.62355 l -5.41184,30.57687 q -1.15001,6.35891 -7.50892,8.11776 2.36768,0.87942 3.58534,3.1118 0.94707,1.75885 0.94707,3.92358 0,0.47354 -0.0676,1.01472 0,1.01472 -0.0676,1.5559 l -7.03539,38.35639 h -11.90604 l 7.10304,-39.70934 v -0.33824 q 0,-1.15002 -0.81178,-1.9618 -0.81177,-0.81177 -1.96179,-0.81177 h -9.40306 l -7.57658,42.82115 z m 21.51205,-54.38895 h 9.40307 q 1.48825,0 2.63827,-1.01472 1.08236,-0.94707 1.35296,-2.36768 l 4.60006,-25.09739 v -0.40588 q 0,-1.21767 -0.81178,-2.02944 -0.87942,-0.74413 -2.09709,-0.74413 h -9.33541 z"
       style="fill:#cccccc;fill-opacity:1;stroke-width:0.721578"
       id="path861" />
    <path
       d="M 357.16744,164.38221 H 368.397 l -3.65299,20.76792 v 0.33824 q 0,1.15002 0.81178,2.02944 0.81177,0.87942 1.96179,0.87942 h 6.22361 q 1.48825,0 2.70592,-0.94707 1.28531,-1.01472 1.5559,-2.43532 l 2.43533,-13.66489 q 0.13529,-0.60883 0.13529,-1.28531 0,-2.70592 -2.43532,-7.03539 -1.01472,-1.82649 -5.75008,-10.68837 -5.27654,-9.94425 -6.08832,-11.50015 -2.57062,-5.0736 -2.57062,-9.94425 0,-0.27059 0,-0.60883 0,-1.15002 0.20295,-2.36768 l 2.90886,-16.77669 q 0.67648,-3.78829 3.78828,-6.29126 2.97651,-2.50298 6.83245,-2.50298 h 16.2355 q 3.5177,0 6.08832,2.57062 2.63827,2.57063 2.63827,6.35891 0,0.87943 -0.1353,1.42061 l -4.26182,23.81208 h -11.36485 l 3.58534,-20.0238 q 0.13529,-0.20294 0.13529,-0.54118 0,-1.01472 -0.87942,-1.89414 -0.87942,-0.74413 -2.02944,-0.74413 h -6.22361 q -1.48825,0 -2.63827,0.94707 -1.15001,0.87942 -1.42061,2.23238 l -1.96179,10.75603 q -0.20294,1.21766 -0.20294,2.50297 0,4.73536 3.11181,9.80895 11.56779,18.87378 12.10898,21.37676 1.75884,3.2471 1.75884,7.10303 -0.0676,1.75885 -0.40588,3.72064 l -3.45005,18.73848 q -0.67648,3.78829 -3.72064,6.35891 -3.04415,2.50297 -6.96773,2.50297 h -16.16786 q -3.58535,0 -6.02067,-2.57062 -2.36768,-2.57062 -2.36768,-6.29126 v -1.5559 z"
       style="fill:#cccccc;fill-opacity:1;stroke-width:0.721578"
       id="path863" />
    <path
       d="m 406.14456,199.3562 h -11.7031 l 17.65612,-97.00716 h 11.63544 z"
       style="fill:#cccccc;fill-opacity:1;stroke-width:0.721578"
       id="path865" />
    <path
       d="m 429.55076,102.34904 h 11.02661 l -3.38239,69.88033 20.56497,-69.88033 h 12.37958 L 438.2097,199.3562 h -12.37958 z"
       style="fill:#cccccc;fill-opacity:1;stroke-width:0.721578"
       id="path867" />
    <path
       d="M 475.82195,102.34904 H 502.137 l -1.89414,10.82367 H 485.6309 l -5.47948,30.77982 h 14.54431 l -2.02944,10.82367 h -14.47666 l -6.02067,33.75633 h 14.34137 l -1.96179,10.82367 h -26.31506 z"
       style="fill:#cccccc;fill-opacity:1;stroke-width:0.721578"
       id="path869" />
  </g>
</svg>
