<?xml version="1.0" encoding="UTF-8" standalone="no"?>
<svg
   xmlns:dc="http://purl.org/dc/elements/1.1/"
   xmlns:cc="http://creativecommons.org/ns#"
   xmlns:rdf="http://www.w3.org/1999/02/22-rdf-syntax-ns#"
   xmlns:svg="http://www.w3.org/2000/svg"
   xmlns="http://www.w3.org/2000/svg"
   xmlns:sodipodi="http://sodipodi.sourceforge.net/DTD/sodipodi-0.dtd"
   xmlns:inkscape="http://www.inkscape.org/namespaces/inkscape"
   viewBox="0 0 607.70855 68.743139"
   version="1.1"
   id="svg8"
   sodipodi:docname="logo.svg"
   width="607.70856"
   height="68.743141"
   inkscape:version="0.92.4 (5da689c313, 2019-01-14)">
  <metadata
     id="metadata14">
    <rdf:RDF>
      <cc:Work
         rdf:about="">
        <dc:format>image/svg+xml</dc:format>
        <dc:type
           rdf:resource="http://purl.org/dc/dcmitype/StillImage" />
      </cc:Work>
    </rdf:RDF>
  </metadata>
  <defs
     id="defs12" />
  <sodipodi:namedview
     pagecolor="#ffffff"
     bordercolor="#666666"
     borderopacity="1"
     objecttolerance="10"
     gridtolerance="10"
     guidetolerance="10"
     inkscape:pageopacity="0"
     inkscape:pageshadow="2"
     inkscape:window-width="1366"
     inkscape:window-height="704"
     id="namedview10"
     showgrid="false"
     inkscape:zoom="0.44172078"
     inkscape:cx="393.914"
     inkscape:cy="24.184137"
     inkscape:window-x="0"
     inkscape:window-y="27"
     inkscape:window-maximized="1"
     inkscape:current-layer="svg8" />
  <g
     id="g19"
     transform="matrix(0.77137209,0,0,0.77137209,0,-7.7137209e-4)">
    <path
       id="path2"
       d="M 63.724,63.655 H 35.06 l -5.595,5.708 -6.302,6.21 c -1.211,1.362 -2.088,2.591 -2.624,3.691 -0.42,0.844 -0.602,1.688 -0.563,2.532 0.045,0.883 0.667,1.7 1.87,2.454 1.206,0.753 3.16,1.185 5.863,1.296 l 0.092,1.891 H 0 l 0.595,-1.89 c 2.448,-0.328 4.607,-1.029 6.479,-2.089 2.487,-1.472 6.014,-4.495 10.579,-9.08 l 62.864,-62.27 h 3.089 l -0.007,60.268 c 0.019,3.15 0.046,5.053 0.078,5.713 0.13,2.507 0.838,4.326 2.134,5.465 1.302,1.145 3.397,1.806 6.302,1.99 l -0.59,1.89 h -40.24 l 0.663,-1.89 c 3.972,-0.296 6.25,-0.55 6.832,-0.766 1.262,-0.512 2.375,-1.586 3.35,-3.208 0.969,-1.629 1.474,-4.449 1.5,-8.477 l 0.09,-9.44 z m -0.222,-4.443 0.62,-24.04 -24.55,24.04 h 23.93 m 87.084,-45.396 9.465,50.71 41.664,-50.71 h 32.684 l -0.733,1.891 c -4.476,0 -7.847,0.76 -10.102,2.285 -2.25,1.525 -4.09,4.535 -5.51,9.038 l -14.751,47.226 c -0.948,3.01 -1.39,5.25 -1.308,6.714 0.065,1.354 0.805,2.447 2.219,3.272 1.414,0.825 4.135,1.275 8.159,1.348 l -0.524,1.891 h -46.38 l 0.727,-1.89 c 4.986,0 8.628,-0.76 10.93,-2.286 2.298,-1.524 4.163,-4.542 5.583,-9.046 L 197.644,26.43 147.587,87.485 h -2.88 L 133.18,25.232 117.869,74.26 c -0.628,2.015 -0.91,3.704 -0.845,5.065 0.092,1.832 0.956,3.304 2.585,4.424 1.637,1.118 4.352,1.736 8.154,1.846 l -0.59,1.891 H 96.449 l 0.525,-1.89 c 3.697,-0.11 6.497,-0.734 8.41,-1.873 3.37,-2.054 5.725,-5.208 7.074,-9.465 l 17.322,-54.52 c -2.002,-1.67 -3.783,-2.755 -5.34,-3.266 -1.551,-0.503 -4.136,-0.76 -7.741,-0.76 l 0.72,-1.89 h 33.179 m 91.96,1.838 0.66,-1.892 h 45.426 l -0.798,1.891 c -4.117,0 -7.225,0.734 -9.323,2.2 -2.101,1.46 -3.854,4.515 -5.268,9.172 l -14.726,47.15 c -1.067,3.37 -1.571,5.621 -1.518,6.753 0.066,1.321 0.759,2.343 2.076,3.076 1.694,0.95 4.828,1.466 9.407,1.538 l -0.595,1.891 h -46.036 l 0.66,-1.89 c 4.62,0 7.965,-0.708 10.044,-2.114 2.074,-1.408 3.868,-4.496 5.366,-9.256 l 14.726,-47.15 c 0.903,-2.932 1.315,-5.145 1.243,-6.649 -0.071,-1.349 -0.766,-2.415 -2.081,-3.18 -1.316,-0.773 -4.411,-1.282 -9.264,-1.539 m 182.186,47.994 h -28.655 l -5.595,5.708 -6.302,6.21 c -1.211,1.362 -2.09,2.591 -2.63,3.691 -0.413,0.844 -0.603,1.688 -0.557,2.532 0.045,0.883 0.667,1.7 1.872,2.454 1.203,0.753 3.153,1.185 5.863,1.296 l 0.092,1.891 H 361.03 l 0.59,-1.89 c 2.454,-0.328 4.612,-1.029 6.479,-2.089 2.486,-1.472 6.019,-4.495 10.588,-9.08 l 62.864,-62.27 h 3.089 l -0.013,60.268 c 0.026,3.15 0.052,5.053 0.085,5.713 0.125,2.507 0.838,4.326 2.133,5.465 1.297,1.145 3.397,1.806 6.296,1.99 l -0.588,1.89 h -40.24 l 0.668,-1.89 c 3.965,-0.296 6.249,-0.55 6.832,-0.766 1.256,-0.512 2.375,-1.586 3.343,-3.208 0.976,-1.629 1.473,-4.449 1.506,-8.477 l 0.085,-9.44 z m -0.222,-4.443 0.628,-24.04 -24.551,24.04 h 23.923 M 373.815,12.811 c 0.668,0.616 0.856,2.644 0.856,2.644 l -4.418,20.23 h -2.388 c -0.706,-6.82 -0.955,-11.728 -4.665,-14.727 -3.704,-2.998 -5.621,-4.679 -12.045,-4.679 -6.616,0 -14.977,2.016 -21.41,5.688 -6.425,3.671 -14.4,9.331 -18.68,16.98 -4.272,7.648 -6.858,15.688 -6.44,24.114 0.367,7.23 2.802,12.757 7.304,16.568 4.5,3.815 9.65,5.72 15.446,5.72 2.448,0 5.393,-0.525 8.837,-1.578 l 6.065,-19.45 c 1.027,-3.266 1.512,-5.399 1.466,-6.413 -0.071,-1.342 -0.844,-2.474 -2.33,-3.397 -1.491,-0.922 -3.991,-1.386 -7.511,-1.386 l 0.575,-2.107 h 39.938 l -0.511,2.107 c -2.37,0.118 -4.215,0.478 -5.536,1.1 -1.315,0.613 -2.337,1.523 -3.05,2.721 -0.426,0.707 -1.04,2.546 -1.852,5.497 l -6.845,21.912 c -9.675,3.175 -19.944,4.764 -30.808,4.764 -8.385,0 -15.563,-1.178 -21.561,-3.527 -5.993,-2.355 -11.057,-6.079 -15.17,-11.182 -4.121,-5.105 -6.34,-10.914 -6.667,-17.43 -0.693,-13.897 6.544,-25.356 21.71,-34.369 11.887,-6.989 25.289,-10.043 40.668,-10.797 1.459,0 5.223,-0.353 10.47,-0.353 4.457,0 9.616,0.143 17.088,0.674 0,0 0.642,-0.078 1.459,0.681"
       inkscape:connector-curvature="0"
       style="fill:#dc2b27" />
    <path
       id="path4"
       d="m 497.18,31.406 v 36.755 c 0,10.144 8.05,18.378 17.968,18.378 h 39.385 c 9.918,0 17.967,-8.23 17.967,-18.378 l -0.005,-9.39 H 554.67 v 3.534 c 0,4.562 -3.265,7.9 -7.721,7.9 h -24.492 c -4.451,0 -7.715,-3.337 -7.715,-7.9 V 38.902 c 0,-4.562 3.263,-7.899 7.715,-7.899 h 22.892 c 4.456,0 7.722,3.337 7.722,7.9 v 1.903 h 17.825 l 0.006,-9.398 c 0,-10.144 -8.05,-18.378 -17.967,-18.378 H 515.14 c -9.918,0 -17.967,8.232 -17.967,18.378 M 600.989,70.272 V 29.43 h 31.545 c 5.51,0 9.976,4.573 9.976,10.22 v 20.42 c 0,5.634 -4.47,10.211 -9.976,10.211 h -31.545 v -0.008 z m -17.565,16.334 h 57.353 c 10.638,0 19.567,-9.139 19.567,-20.01 v -33.49 c 0,-10.872 -8.93,-20.01 -19.567,-20.01 h -57.353 v 73.51"
       inkscape:connector-curvature="0"
       style="fill:#231f20" />
    <path
       id="path6"
       d="m 746.31,21.69 c -7.153,0 -14.441,3.775 -14.441,10.99 v 6.674 l 0.072,0.006 v 9.65 h 55.887 V 38.674 h -40.273 c -5.19,-1.322 0.498,-5.55 3.136,-5.857 h 24.182 c 7.153,0 12.95,-5.858 12.95,-13.067 v -6.682 c 0,-7.212 -5.797,-13.067 -12.95,-13.067 H 746.41 c -7.153,0 -14.55,4.22 -14.55,11.442 v 6.675 h 14.072 v -1.355 c 0,-3.239 2.355,-5.616 5.569,-5.616 h 18.093 c 3.095,0 5.393,2.206 5.555,5.27 -0.163,3.055 -2.461,5.26 -5.555,5.26 l -23.295,0.007 m -31.735,2.853 c 5.41,-0.406 9.38,-2.094 9.38,-8.056 v -6.68 c 0,-7.213 -5.803,-9.8 -12.95,-9.8 h -25.28 c -7.144,0 -14.55,4.22 -14.55,11.441 v 6.675 h 14.082 v -1.355 c 0,-3.239 2.35,-5.616 5.563,-5.616 h 14.9 c 3.097,0 5.395,0.576 5.559,3.633 -0.163,3.062 -2.462,5.26 -5.558,5.26 l -12.112,0.008 v 9.072 h 13.712 c 3.096,0 5.39,2.205 5.554,5.268 -0.163,3.056 -2.458,3.625 -5.554,3.625 h -16.501 c -3.213,0 -5.563,-2.37 -5.563,-5.609 v -1.36 h -14.08 v 6.681 c 0,7.212 7.403,11.434 14.55,11.434 h 26.88 c 8.159,-0.144 12.95,-4.22 12.95,-11.434 V 32.68 c 0,-6.539 -4.763,-7.932 -10.973,-8.134"
       inkscape:connector-curvature="0"
       style="fill:#dc2b27" />
  </g>
</svg>
