<?xml version="1.0" encoding="UTF-8" standalone="no"?>
<svg
   xmlns:dc="http://purl.org/dc/elements/1.1/"
   xmlns:cc="http://creativecommons.org/ns#"
   xmlns:rdf="http://www.w3.org/1999/02/22-rdf-syntax-ns#"
   xmlns:svg="http://www.w3.org/2000/svg"
   xmlns="http://www.w3.org/2000/svg"
   xmlns:sodipodi="http://sodipodi.sourceforge.net/DTD/sodipodi-0.dtd"
   xmlns:inkscape="http://www.inkscape.org/namespaces/inkscape"
   version="1.1"
   id="Ebene_1"
   x="0px"
   y="0px"
   width="600.13385"
   height="133.11621"
   viewBox="-8.038 -8.624 600.13385 133.11621"
   enable-background="new -8.038 -8.624 584 140"
   xml:space="preserve"
   sodipodi:docname="atari2600.svg"
   inkscape:version="1.0.1 (3bc2e813f5, 2020-09-07)"><metadata
   id="metadata207"><rdf:RDF><cc:Work
       rdf:about=""><dc:format>image/svg+xml</dc:format><dc:type
         rdf:resource="http://purl.org/dc/dcmitype/StillImage" /></cc:Work></rdf:RDF></metadata><defs
   id="defs205" /><sodipodi:namedview
   pagecolor="#ffffff"
   bordercolor="#666666"
   borderopacity="1"
   objecttolerance="10"
   gridtolerance="10"
   guidetolerance="10"
   inkscape:pageopacity="0"
   inkscape:pageshadow="2"
   inkscape:window-width="1920"
   inkscape:window-height="986"
   id="namedview203"
   showgrid="false"
   inkscape:zoom="1.6854326"
   inkscape:cx="261.44543"
   inkscape:cy="-36.455928"
   inkscape:window-x="-11"
   inkscape:window-y="-11"
   inkscape:window-maximized="1"
   inkscape:current-layer="Ebene_1"
   inkscape:document-rotation="0" />
<g
   id="g200"
   transform="matrix(1.0530013,0,0,1.0530013,-6.455339,-7.03818)">
	<g
   id="_x23_ffffffff">
		<g
   id="g13">
			<linearGradient
   id="SVGID_1_"
   gradientUnits="userSpaceOnUse"
   x1="218.2256"
   y1="-2.6240001"
   x2="218.2256"
   y2="127.376">
				<stop
   offset="0.0051"
   style="stop-color:#FF6F0D"
   id="stop2" />
				<stop
   offset="0.3807"
   style="stop-color:#FF0000"
   id="stop4" />
				<stop
   offset="1"
   style="stop-color:#A80000"
   id="stop6" />
			</linearGradient>
			<path
   d="m 207.014,5.277 c 4.724,-6.043 14.501,-7.076 20.297,-2.006 2.37,1.996 4.031,4.75 4.88,7.715 10.73,36.92 21.508,73.822 32.223,110.746 -6.332,0.006 -12.667,-0.012 -18.999,0.006 -2.987,-10.18 -5.903,-20.377 -8.852,-30.565 -12.246,-0.024 -24.485,-0.006 -36.73,-0.012 -2.998,10.184 -5.958,20.379 -8.901,30.582 -6.298,-0.021 -12.596,-0.005 -18.895,-0.011 10.194,-35.221 20.4,-70.438 30.643,-105.647 1.218,-3.681 1.678,-7.798 4.334,-10.808 m 11.179,22.625 c -4.49,15.295 -8.889,30.619 -13.354,45.922 8.9,0.043 17.796,0.016 26.692,0.016 -4.453,-15.313 -8.884,-30.625 -13.338,-45.938 z"
   id="path9"
   style="fill:#e6e6e6"
   inkscape:connector-curvature="0" />
			<path
   d="m 190.926,123.24 c -2.73,-0.011 -5.46,-0.013 -8.193,-0.011 v 0 c -2.436,-0.002 -4.87,-0.002 -7.304,-0.002 v 0 c -1.131,0 -2.262,0.002 -3.389,0.002 v 0 l -2.001,0.003 0.558,-1.919 C 180.79,86.092 190.996,50.874 201.256,15.612 v 0 c 1.174,-3.433 1.591,-7.781 4.585,-11.272 v 0 c 3.019,-3.839 7.757,-5.809 12.455,-5.813 v 0 c 3.579,0 7.188,1.152 9.98,3.596 v 0 c 2.626,2.214 4.433,5.226 5.355,8.443 v 0 c 10.73,36.919 21.508,73.819 32.223,110.745 v 0 l 0.557,1.918 h -1.997 c -0.984,0 -1.964,0 -2.948,0 v 0 c -3.103,0 -6.206,-0.004 -9.307,-0.004 v 0 c -2.25,0 -4.495,0.002 -6.738,0.011 v 0 l -1.129,0.004 -0.317,-1.081 c -2.884,-9.827 -5.7,-19.665 -8.542,-29.491 v 0 c -4.855,-0.009 -9.708,-0.013 -14.562,-0.011 v 0 c -5.156,-0.002 -10.31,-0.002 -15.465,0 v 0 c -1.485,-10e-4 -2.969,0 -4.453,0.001 v 0 c -2.887,9.823 -5.743,19.656 -8.581,29.499 v 0 l -0.315,1.087 z m -8.193,-3.011 c 2.357,0 4.714,0.003 7.071,0.01 v 0 c 2.84,-9.844 5.696,-19.678 8.589,-29.503 v 0 l 0.317,-1.075 h 1.121 c 1.858,-0.004 3.718,-0.004 5.576,-0.004 v 0 c 5.156,0 10.31,0 15.465,0 v 0 c 5.229,0 10.461,0.004 15.693,0.015 v 0 l 1.125,0.002 0.313,1.081 c 2.845,9.83 5.658,19.665 8.534,29.479 v 0 c 1.874,-0.007 3.749,-0.008 5.622,-0.008 v 0 c 3.103,0.002 6.206,0.006 9.307,0.006 v 0 c 0.316,0 0.633,0 0.949,0 v 0 C 251.885,83.949 241.292,47.686 230.748,11.4 v 0 c -0.774,-2.708 -2.291,-5.204 -4.426,-7 v 0 C 224.126,2.476 221.24,1.529 218.295,1.529 v 0 C 214.421,1.525 210.542,3.184 208.194,6.2 v 0 l -1.173,-0.917 1.117,0.985 c -2.274,2.521 -2.78,6.378 -4.019,10.235 v 0 c -10.057,34.568 -20.078,69.146 -30.087,103.726 v 0 c 0.465,0 0.93,0 1.396,0 v 0 c 2.435,0 4.869,0 7.305,0 z m 22.099,-44.906 -1.991,-0.012 0.557,-1.908 c 4.464,-15.299 8.864,-30.624 13.354,-45.924 v 0 l 1.446,-4.924 1.434,4.926 c 4.456,15.314 8.887,30.626 13.34,45.938 v 0 l 0.557,1.92 h -1.999 c -4.98,-0.002 -9.961,0.007 -14.946,0.007 v 0 c -3.917,10e-4 -7.834,-0.004 -11.752,-0.023 z m 11.752,-2.976 c 4.314,0 8.631,-0.006 12.948,-0.008 v 0 c -3.788,-13.028 -7.56,-26.055 -11.345,-39.083 v 0 c -3.805,13.015 -7.555,26.05 -11.351,39.076 v 0 c 3.249,0.012 6.497,0.015 9.748,0.015 z m 0.168,-44.026 1.44,-0.418 z"
   id="path11"
   inkscape:connector-curvature="0"
   style="fill:#470000" />
		</g>
		<g
   id="g26">
			<linearGradient
   id="SVGID_2_"
   gradientUnits="userSpaceOnUse"
   x1="352.207"
   y1="-2.6240001"
   x2="352.207"
   y2="127.376">
				<stop
   offset="0.0051"
   style="stop-color:#FF6F0D"
   id="stop15" />
				<stop
   offset="0.3807"
   style="stop-color:#FF0000"
   id="stop17" />
				<stop
   offset="1"
   style="stop-color:#A80000"
   id="stop19" />
			</linearGradient>
			<path
   d="m 340.411,6.072 c 3.301,-4.787 9.681,-7.109 15.296,-5.631 5.142,1.184 9.075,5.615 10.434,10.604 10.72,36.893 21.477,73.772 32.194,110.666 -6.342,0.049 -12.679,0 -19.021,0.024 -2.948,-10.188 -5.864,-20.387 -8.834,-30.575 -12.226,0.006 -24.447,-0.021 -36.672,0.01 -2.922,10.195 -5.935,20.367 -8.855,30.563 -6.293,0.006 -12.581,-0.006 -18.874,0.006 10.188,-35.414 20.497,-70.797 30.768,-106.187 1.076,-3.195 1.492,-6.718 3.564,-9.48 m -1.543,67.768 c 8.863,0.013 17.722,0.007 26.584,0.007 -4.409,-15.347 -8.89,-30.671 -13.284,-46.015 -4.426,15.338 -8.894,30.662 -13.3,46.008 z"
   id="path22"
   style="fill:#e6e6e6"
   inkscape:connector-curvature="0" />
			<path
   d="m 377.873,122.15 c -2.847,-9.83 -5.659,-19.667 -8.519,-29.492 v 0 c -0.929,0 -1.858,0 -2.785,0 v 0 c -6.264,0 -12.523,-0.009 -18.783,-0.006 v 0 c -4.282,-0.002 -8.565,0.001 -12.848,0.013 v 0 c -2.826,9.84 -5.729,19.653 -8.545,29.48 v 0 l -0.311,1.085 -1.129,0.002 c -1.428,0 -2.853,0 -4.28,0 v 0 c -2.544,0 -5.086,-0.004 -7.628,-0.004 v 0 c -2.32,0 -4.644,0.002 -6.964,0.01 v 0 l -1.998,0.002 0.553,-1.916 C 314.824,85.906 325.135,50.522 335.423,15.073 v 0 c 1.029,-2.962 1.414,-6.658 3.751,-9.852 v 0 0 c 2.953,-4.266 7.984,-6.714 13.072,-6.723 v 0 c 1.284,0 2.575,0.157 3.795,0.48 v 0 c 5.792,1.357 10.05,6.213 11.537,11.647 v 0 c 10.722,36.892 21.477,73.771 32.196,110.666 v 0 l 0.552,1.903 -1.982,0.015 c -2.348,0.02 -4.695,0.021 -7.037,0.021 v 0 c -2.567,0 -5.128,-0.007 -7.686,-0.007 v 0 c -1.435,0 -2.869,0.002 -4.3,0.011 v 0 l -1.135,0.006 z m -57.199,-1.916 c 1.051,0 2.1,0 3.147,0 v 0 c 2.825,-9.841 5.729,-19.653 8.544,-29.48 v 0 l 0.311,-1.082 1.128,-0.002 c 4.66,-0.015 9.322,-0.021 13.982,-0.021 v 0 c 6.262,0 12.523,0.008 18.783,0.011 v 0 c 1.304,-0.003 2.606,0 3.91,0 v 0 h 1.126 l 0.314,1.08 c 2.865,9.83 5.679,19.665 8.52,29.488 v 0 c 1.062,-0.004 2.122,-0.005 3.183,-0.005 v 0 c 2.564,0 5.125,0.008 7.686,0.008 v 0 c 1.678,0 3.355,-0.002 5.031,-0.009 v 0 C 385.805,83.963 375.235,47.722 364.693,11.438 v 0 c -1.222,-4.519 -4.831,-8.524 -9.37,-9.548 v 0 C 354.32,1.625 353.286,1.498 352.248,1.498 v 0 c -4.12,-0.008 -8.287,2.046 -10.602,5.424 v 0 0.002 l -1.235,-0.852 1.2,0.9 c -1.776,2.316 -2.225,5.645 -3.323,8.998 v 0 C 328.202,50.721 318.08,85.465 308.074,120.234 v 0 c 1.658,-0.003 3.316,-0.004 4.973,-0.004 v 0 c 2.543,-0.001 5.085,0.004 7.627,0.004 z m 44.778,-44.888 c -4.258,0 -8.51,0 -12.762,0 v 0 c -4.607,0 -9.216,-0.003 -13.824,-0.007 v 0 l -1.989,-0.002 0.549,-1.912 c 4.405,-15.348 8.874,-30.674 13.301,-46.01 v 0 l 1.445,-5.008 1.437,5.013 c 4.394,15.338 8.874,30.662 13.284,46.013 v 0 l 0.553,1.914 h -1.994 z M 352.69,72.345 c 3.588,0 7.176,0 10.768,0 v 0 C 359.71,59.311 355.911,46.29 352.162,33.254 v 0 c -3.768,13.032 -7.556,26.053 -11.304,39.087 v 0 c 3.945,0.004 7.888,0.004 11.832,0.004 z"
   id="path24"
   inkscape:connector-curvature="0"
   style="fill:#470000" />
		</g>
		<g
   id="g39">
			<linearGradient
   id="SVGID_3_"
   gradientUnits="userSpaceOnUse"
   x1="284.5957"
   y1="-2.6240001"
   x2="284.5957"
   y2="127.376">
				<stop
   offset="0.0051"
   style="stop-color:#FF6F0D"
   id="stop28" />
				<stop
   offset="0.3807"
   style="stop-color:#FF0000"
   id="stop30" />
				<stop
   offset="1"
   style="stop-color:#A80000"
   id="stop32" />
			</linearGradient>
			<path
   d="m 250.237,0.256 c 22.91,0 45.814,0 68.719,0 0,6.182 0,12.355 0,18.533 -8.437,0.006 -16.865,-0.01 -25.296,0.006 0,34.313 0.006,68.627 -0.005,102.938 -6.039,0 -12.083,0 -18.122,0 0,-34.312 -0.005,-68.625 0.005,-102.938 -8.436,-0.016 -16.866,0 -25.301,-0.006 0,-6.178 -0.005,-12.351 0,-18.533 z"
   id="path35"
   style="fill:#ececec"
   inkscape:connector-curvature="0" />
			<path
   d="m 293.655,123.232 c -6.04,0 -12.083,0 -18.123,0 v 0 h -1.5 v -1.5 c 0,-17.555 -0.002,-35.11 -0.002,-52.666 v 0 c 0,-16.259 0,-32.518 0.005,-48.775 v 0 c -2.514,-0.004 -5.029,-0.005 -7.543,-0.005 v 0 c -4,0 -8,0.002 -12.002,0.002 v 0 c -1.417,0 -2.836,0 -4.253,0 v 0 l -1.501,0.002 v -1.501 c 0,-4.118 -0.002,-8.234 -0.002,-12.354 v 0 c 0,-2.059 0,-4.12 0.002,-6.181 v 0 l 0.002,-1.498 h 1.498 c 22.91,0 45.814,0 68.72,0 v 0 h 1.5 v 1.5 c -0.003,6.181 -0.003,12.354 0,18.533 v 0 1.5 h -1.5 c -1.421,0.002 -2.842,0.002 -4.261,0.002 v 0 c -4.002,0 -8.002,-0.004 -12,-0.004 v 0 c -2.513,0 -5.025,0.001 -7.536,0.005 v 0 c 0,17.402 0,34.807 0,52.209 v 0 c 0,16.41 -0.004,32.819 -0.004,49.231 v 0 1.5 z m -1.502,-3 c 0.003,-15.912 0.007,-31.821 0.007,-47.731 v 0 c 0,-17.901 0,-35.805 0,-53.707 v 0 -1.496 l 1.495,-0.004 c 3.014,-0.008 6.028,-0.008 9.04,-0.008 v 0 c 4,0 8,0.002 12,0.004 v 0 c 0.92,-10e-4 1.84,-10e-4 2.759,-0.002 v 0 c 0,-5.178 0,-10.354 0,-15.534 v 0 c -21.906,0 -43.81,0 -65.72,0 v 0 c -0.001,1.56 -0.001,3.12 -0.001,4.679 v 0 c 0,3.619 0.002,7.235 0.002,10.854 v 0 c 0.919,0 1.837,0 2.755,0 v 0 c 4,0 8,-0.002 12.002,-0.002 v 0 c 3.016,0 6.032,0.002 9.048,0.008 v 0 l 1.498,0.002 v 1.498 c -0.008,16.756 -0.008,33.514 -0.008,50.272 v 0 c 0,17.053 0.002,34.111 0.002,51.166 v 0 c 2.52,-10e-4 5.04,-10e-4 7.561,-10e-4 v 0 c 2.52,10e-4 5.041,10e-4 7.56,0.002 z"
   id="path37"
   inkscape:connector-curvature="0"
   style="fill:#470000" />
		</g>
		<g
   id="g52">
			<linearGradient
   id="SVGID_4_"
   gradientUnits="userSpaceOnUse"
   x1="446.39059"
   y1="-2.6240001"
   x2="446.39059"
   y2="127.376">
				<stop
   offset="0.0051"
   style="stop-color:#FF6F0D"
   id="stop41" />
				<stop
   offset="0.3807"
   style="stop-color:#FF0000"
   id="stop43" />
				<stop
   offset="1"
   style="stop-color:#A80000"
   id="stop45" />
			</linearGradient>
			<path
   d="m 418.475,1.01 c 1.74,-0.602 3.599,-0.807 5.437,-0.764 7.223,0.025 14.446,0.006 21.667,0.01 12.164,0.225 23.773,7.771 29.037,18.719 3.646,7.109 4.021,15.377 3.102,23.176 -0.634,8.164 -4.058,16.328 -10.334,21.741 -3.313,2.952 -7.443,4.743 -10.992,7.375 -1.947,1.481 -2.047,4.364 -1.039,6.428 9.586,14.799 19.552,29.367 29.34,44.039 -7.158,0.012 -14.316,-0.017 -21.476,0.012 -9.37,-14.074 -18.643,-28.219 -27.976,-42.313 -2.743,-4.013 -3.489,-9.324 -1.846,-13.902 1.281,-3.512 4.351,-6.08 7.769,-7.406 6.524,-2.49 12.958,-6.4 16.572,-12.559 2.749,-4.627 2.605,-10.336 1.37,-15.4 -1.45,-6.574 -7.855,-11.746 -14.625,-11.52 -4.682,0.031 -9.359,-0.021 -14.033,0.021 -2.116,-0.049 -4.107,1.791 -4.08,3.934 -0.022,33.047 0.011,66.096 -0.01,99.141 -6.088,-0.012 -12.168,0 -18.256,-0.006 C 408.09,86.16 408.114,50.582 408.09,15.006 408.128,8.77 412.563,2.902 418.475,1.01 Z"
   id="path48"
   style="fill:#e6e6e6"
   inkscape:connector-curvature="0" />
			<path
   d="M 461.967,122.575 C 452.593,108.496 443.319,94.349 434.001,80.279 v 0 c -1.949,-2.854 -2.973,-6.274 -2.975,-9.7 v 0 c 0.002,-1.88 0.31,-3.766 0.958,-5.564 v 0 c 1.481,-4.026 4.905,-6.839 8.644,-8.293 v 0 c 6.356,-2.418 12.471,-6.196 15.816,-11.923 v 0 c 1.425,-2.396 2.004,-5.16 2.004,-8.038 v 0 c 0,-2.08 -0.308,-4.208 -0.809,-6.272 v 0 c -1.229,-5.721 -6.896,-10.388 -12.732,-10.35 v 0 c -0.133,0 -0.255,0 -0.418,0.006 v 0 c -1.209,0.008 -2.414,0.01 -3.617,0.01 v 0 c -1.982,0 -3.959,-0.008 -5.932,-0.006 v 0 c -1.496,-0.002 -2.991,0.002 -4.479,0.017 v 0 h -0.038 -0.027 c -0.029,-0.002 -0.031,-0.002 -0.031,-0.002 v 0 c -0.599,-0.004 -1.256,0.274 -1.738,0.744 v 0 c -0.463,0.443 -0.735,1.006 -0.761,1.557 v 0 0 0.137 c -0.006,9.164 -0.008,18.327 -0.008,27.49 v 0 c 0,15.309 0.002,30.618 0.002,45.928 v 0 c 0,8.573 0,17.147 -0.002,25.723 v 0 1.502 l -1.505,-0.004 c -2.248,-0.004 -4.494,-0.007 -6.74,-0.007 v 0 c -2.461,0 -4.918,0 -7.377,0 v 0 c -1.378,0 -2.756,0.003 -4.134,0.003 v 0 h -1.5 v -1.501 c -0.004,-8.059 -0.006,-16.118 -0.006,-24.18 v 0 c 0,-14.376 0,-28.752 0.002,-43.126 v 0 c -0.002,-13.141 -0.005,-26.283 -0.009,-39.435 v 0 C 406.658,8.06 411.458,1.716 417.993,-0.41 v 0 c 1.784,-0.615 3.639,-0.85 5.449,-0.85 v 0 c 0.165,0 0.335,0.002 0.473,0.006 v 0 c 2.983,0.011 5.967,0.013 8.952,0.013 v 0 c 3.515,0 7.031,-0.004 10.55,-0.004 v 0 c 0.723,0 1.443,0 2.188,0.002 v 0 c 12.766,0.252 24.829,8.095 30.345,19.534 v 0 c 2.727,5.32 3.689,11.19 3.689,16.982 v 0 c 0,2.375 -0.164,4.737 -0.428,6.996 v 0 c -0.661,8.493 -4.21,17.024 -10.832,22.742 v 0 c -3.563,3.154 -7.743,4.954 -11.081,7.45 v 0 c -0.712,0.538 -1.07,1.419 -1.078,2.497 v 0 c -0.002,0.68 0.159,1.396 0.439,1.996 v 0 c 9.557,14.753 19.501,29.291 29.279,43.947 v 0 l 1.555,2.328 -2.8,0.004 c -1.363,0.003 -2.723,0 -4.081,0 v 0 c -3.214,0 -6.425,-0.006 -9.636,-0.006 v 0 c -2.585,0 -5.17,0.004 -7.754,0.017 v 0 l -0.809,0.005 z m -1.405,-92.764 c 0.538,2.221 0.886,4.575 0.886,6.949 v 0 c 0.002,3.272 -0.66,6.601 -2.419,9.563 v 0 c -3.886,6.599 -10.639,10.643 -17.324,13.198 v 0 c -3.105,1.203 -5.819,3.524 -6.9,6.517 v 0 c -0.522,1.445 -0.777,2.988 -0.775,4.541 v 0 c -0.002,2.827 0.854,5.676 2.461,8.023 v 0 c 9.188,13.873 18.312,27.791 27.527,41.638 v 0 c 2.321,-0.013 4.643,-0.014 6.96,-0.014 v 0 c 3.216,0 6.427,0.008 9.636,0.006 v 0 c 0.425,0 0.85,0 1.273,0 v 0 c -9.281,-13.876 -18.704,-27.69 -27.795,-41.723 v 0 l -0.046,-0.072 -0.042,-0.084 c -0.508,-1.045 -0.782,-2.212 -0.784,-3.396 v 0 c -0.006,-1.753 0.643,-3.651 2.278,-4.896 v 0 c 3.744,-2.756 7.823,-4.538 10.905,-7.307 v 0 c 5.914,-5.088 9.214,-12.884 9.823,-20.777 v 0 c 0.259,-2.221 0.413,-4.469 0.413,-6.705 v 0 c 0,-5.465 -0.913,-10.847 -3.376,-15.646 v 0 C 468.268,9.203 457.111,1.955 445.575,1.756 v 0 c -0.721,-0.002 -1.438,-0.004 -2.158,-0.002 v 0 c -3.515,-0.002 -7.031,0.004 -10.55,0.004 v 0 c -2.987,0 -5.973,-0.002 -9.003,-0.013 v 0 C 423.729,1.741 423.59,1.739 423.442,1.739 v 0 c -1.555,0 -3.08,0.204 -4.479,0.687 v 0 l -0.488,-1.416 0.457,1.428 c -5.275,1.663 -9.336,7.048 -9.343,12.564 v 0 c 0.005,13.143 0.007,26.285 0.007,39.426 v 0 c 0,14.374 0,28.75 0,43.126 v 0 c 0,7.56 0.002,15.118 0.004,22.68 v 0 c 0.878,-10e-4 1.757,-0.002 2.636,-0.002 v 0 c 2.459,0 4.918,0 7.377,0 v 0 c 1.748,0 3.496,0.003 5.244,0.006 v 0 c 0.002,-8.073 0.002,-16.146 0.002,-24.22 v 0 c 0,-15.31 -0.002,-30.619 -0.002,-45.928 v 0 c 0,-9.139 0.002,-18.279 0.011,-27.418 v 0 c -0.002,-0.028 -0.002,-0.053 -0.002,-0.072 v 0 c -0.002,-0.046 0,-0.046 -0.002,-0.046 v 0 c 0.061,-3.034 2.583,-5.348 5.501,-5.39 v 0 c 0.055,0 0.096,0 0.124,10e-4 v 0 c 1.483,-0.016 2.969,-0.019 4.452,-0.019 v 0 c 1.979,0 3.957,0.006 5.932,0.006 v 0 c 1.199,0 2.399,-0.002 3.54,-0.008 v 0 c 0.177,-0.008 0.341,-0.008 0.495,-0.008 v 0 c 7.382,0.037 14.05,5.555 15.654,12.675 z"
   id="path50"
   inkscape:connector-curvature="0"
   style="fill:#470000" />
		</g>
		<g
   id="g65">
			<linearGradient
   id="SVGID_5_"
   gradientUnits="userSpaceOnUse"
   x1="503.86719"
   y1="-2.6240001"
   x2="503.86719"
   y2="127.376">
				<stop
   offset="0.0051"
   style="stop-color:#FF6F0D"
   id="stop54" />
				<stop
   offset="0.3807"
   style="stop-color:#FF0000"
   id="stop56" />
				<stop
   offset="1"
   style="stop-color:#A80000"
   id="stop58" />
			</linearGradient>
			<path
   d="m 494.262,0.256 c 6.402,0 12.803,0 19.21,0 -0.006,40.496 0.013,80.986 -0.012,121.481 -6.396,-0.018 -12.796,0 -19.198,-0.006 0,-40.496 0,-80.985 0,-121.475 z"
   id="path61"
   style="fill:#e6e6e6"
   inkscape:connector-curvature="0" />
			<path
   d="m 513.454,123.236 c -2.269,-0.007 -4.539,-0.011 -6.809,-0.009 v 0 c -3.135,-0.002 -6.271,0 -9.407,0 v 0 c -0.993,0 -1.985,0.002 -2.977,0.002 v 0 l -1.501,0.002 v -1.5 c 0,-40.498 0,-80.986 0,-121.476 v 0 -1.5 h 1.501 c 6.401,0 12.802,0 19.209,0 v 0 h 1.501 v 1.5 c -0.002,6.147 -0.004,12.294 -0.004,18.44 v 0 c 0,17.05 0,34.099 0,51.147 v 0 c 0,17.296 0,34.595 -0.009,51.895 v 0 1.503 z m -1.494,-3.004 c 0.008,-16.798 0.008,-33.594 0.008,-50.39 v 0 c 0,-17.048 0,-34.097 0,-51.147 v 0 c 0,-5.647 0.002,-11.295 0.002,-16.941 v 0 c -5.406,0 -10.808,0 -16.209,0 v 0 c 0,39.489 0,78.978 0,118.475 v 0 c 0.492,-0.001 0.984,-0.002 1.478,-0.002 v 0 c 3.135,0 6.272,-0.002 9.407,0 v 0 c 0.402,0 0.805,0 1.207,0 v 0 c 1.369,10e-4 2.738,0.002 4.107,0.005 z"
   id="path63"
   inkscape:connector-curvature="0"
   style="fill:#470000" />
		</g>
	</g>
	<g
   id="g146">
		<g
   id="g79">
			<linearGradient
   id="SVGID_6_"
   gradientUnits="userSpaceOnUse"
   x1="31.705601"
   y1="-2.6240001"
   x2="31.705601"
   y2="127.376">
				<stop
   offset="0.0051"
   style="stop-color:#FF6F0D"
   id="stop68" />
				<stop
   offset="0.3807"
   style="stop-color:#FF0000"
   id="stop70" />
				<stop
   offset="1"
   style="stop-color:#A80000"
   id="stop72" />
			</linearGradient>
			<path
   d="m 54.173,0.008 c 3.076,-0.01 6.153,0 9.229,-0.008 0.013,7.234 0,14.469 0.005,21.701 0.032,6.039 -0.139,12.076 -0.389,18.107 -0.412,8.711 -0.957,17.439 -2.4,26.05 -0.991,5.937 -3.044,11.662 -5.592,17.099 -4.156,8.76 -10.686,16.172 -18.027,22.405 -6.567,5.779 -14.405,9.986 -22.649,12.835 -4.664,1.604 -9.463,2.844 -14.35,3.532 0.005,-6.065 0.005,-12.137 0,-18.203 5.883,-0.883 11.538,-2.971 16.791,-5.729 6.233,-3.295 11.844,-7.729 16.566,-12.953 4.877,-5.395 8.764,-11.641 11.714,-18.272 3.474,-7.625 5.333,-15.861 6.597,-24.109 1.584,-10.482 2.244,-21.088 2.489,-31.684 0.035,-3.591 0.005,-7.183 0.016,-10.771 z"
   id="path75"
   style="fill:url(#SVGID_6_)"
   inkscape:connector-curvature="0" />
			<path
   d="m -1.5,121.727 c 0.002,-3.032 0.002,-6.067 0.002,-9.1 v 0 c 0,-3.035 -0.002,-6.07 -0.002,-9.101 v 0 -1.293 l 1.276,-0.19 c 5.678,-0.852 11.18,-2.877 16.313,-5.572 v 0 c 6.069,-3.209 11.544,-7.534 16.153,-12.634 v 0 C 37,78.575 40.807,72.466 43.705,65.949 v 0 c 3.389,-7.437 5.229,-15.536 6.48,-23.712 v 0 C 51.755,31.842 52.414,21.3 52.658,10.762 v 0 c 0.013,-1.421 0.017,-2.844 0.015,-4.271 v 0 C 52.675,4.944 52.669,3.39 52.669,1.836 v 0 c 0,-0.613 0,-1.226 0.004,-1.837 v 0 l 0.008,-1.487 1.487,-0.004 c 1.259,-0.004 2.517,-0.006 3.776,-0.006 v 0 c 0.723,0 1.446,0 2.171,0 v 0 c 1.094,0 2.188,-0.002 3.286,-0.002 v 0 l 1.498,-0.002 0.002,1.5 c 0.004,2.612 0.006,5.225 0.006,7.836 v 0 c 0,3.269 -0.002,6.538 -0.002,9.805 v 0 c 0,1.354 0,2.708 0.002,4.056 v 0 c 0.002,0.487 0.002,0.974 0.004,1.46 v 0 c -0.002,5.583 -0.166,11.155 -0.396,16.724 v 0 c -0.412,8.727 -0.959,17.514 -2.417,26.227 v 0 C 61.077,72.221 58.972,78.074 56.381,83.6 v 0 c -4.278,9.015 -10.96,16.578 -18.391,22.89 v 0 c -6.743,5.931 -14.753,10.224 -23.151,13.128 v 0 c -4.74,1.628 -9.63,2.894 -14.629,3.598 v 0 l -1.713,0.24 z m 3.004,-9.1 c -0.002,2.45 -0.002,4.901 -0.003,7.352 v 0 c 4.189,-0.704 8.32,-1.811 12.357,-3.201 v 0 c 8.091,-2.794 15.756,-6.916 22.169,-12.559 v 0 C 43.256,98.08 49.637,90.818 53.666,82.321 v 0 c 2.509,-5.353 4.51,-10.952 5.471,-16.711 v 0 c 1.427,-8.507 1.97,-17.176 2.382,-25.864 v 0 c 0.228,-5.537 0.39,-11.068 0.39,-16.591 v 0 c 0,-0.484 0,-0.965 -0.002,-1.45 v 0 c -0.004,-1.357 -0.004,-2.712 -0.004,-4.066 v 0 c 0,-3.267 0.004,-6.536 0.004,-9.805 v 0 c 0,-2.11 -10e-4,-4.222 -0.004,-6.333 v 0 c -0.596,0 -1.191,0 -1.788,0 v 0 c -0.723,0 -1.448,0 -2.171,0.002 v 0 c -0.76,-10e-4 -1.519,-10e-4 -2.276,0 v 0 c 0,0.111 0,0.222 0,0.333 v 0 c 0,1.548 0.006,3.099 0.006,4.655 v 0 c 0,1.432 -0.004,2.865 -0.017,4.321 v 0 C 55.41,21.447 54.748,32.115 53.151,42.688 v 0 c -1.276,8.317 -3.157,16.69 -6.709,24.491 v 0 c -3.008,6.76 -6.975,13.142 -11.974,18.669 v 0 c -4.834,5.349 -10.581,9.893 -16.98,13.275 v 0 c -4.992,2.622 -10.364,4.664 -15.987,5.673 v 0 c 0.001,2.608 0.001,5.219 0.003,7.831 z"
   id="path77"
   inkscape:connector-curvature="0"
   style="fill:#470000" />
		</g>
		<g
   id="g92">
			<linearGradient
   id="SVGID_7_"
   gradientUnits="userSpaceOnUse"
   x1="75.612801"
   y1="-2.6240001"
   x2="75.612801"
   y2="127.376">
				<stop
   offset="0.0051"
   style="stop-color:#FF6F0D"
   id="stop81" />
				<stop
   offset="0.3807"
   style="stop-color:#FF0000"
   id="stop83" />
				<stop
   offset="1"
   style="stop-color:#A80000"
   id="stop85" />
			</linearGradient>
			<path
   d="m 67.116,0.02 c 5.662,-0.037 11.328,-0.006 16.992,-0.016 0.002,40.574 0.002,81.149 0,121.728 -5.65,0.012 -11.303,-0.027 -16.953,0.021 C 67.083,108.815 67.145,95.874 67.125,82.938 67.118,55.295 67.136,27.658 67.116,0.02 Z"
   id="path88"
   style="fill:url(#SVGID_7_)"
   inkscape:connector-curvature="0" />
			<path
   d="m 65.655,121.76 c -0.029,-5.106 -0.037,-10.214 -0.037,-15.316 v 0 c 0,-5.862 0.008,-11.722 0.008,-17.578 v 0 c 0,-1.979 0,-3.956 0,-5.929 v 0 C 65.624,77.918 65.622,72.901 65.622,67.882 v 0 c 0,-11.903 0.002,-23.805 0.002,-35.706 v 0 c 0,-10.717 -0.002,-21.438 -0.008,-32.155 v 0 l 1.5,-0.002 0.01,1.5 -0.01,-1.5 -1.5,0.002 v -1.492 l 1.49,-0.01 c 2.27,-0.015 4.539,-0.019 6.807,-0.019 v 0 c 2.519,0 5.036,0.004 7.55,0.004 v 0 c 0.882,0 1.763,-0.002 2.646,-0.002 v 0 h 1.5 v 1.5 c 0.002,20.288 0.002,40.576 0.002,60.864 v 0 c 0,20.288 -0.002,40.576 -0.002,60.865 v 0 1.498 l -1.498,0.002 c -0.81,0 -1.62,0 -2.43,0.002 v 0 c -2.554,-0.002 -5.104,-0.01 -7.65,-0.01 v 0 c -2.289,0 -4.578,0.006 -6.861,0.028 v 0 l -1.506,0.015 z m 2.968,-89.584 c 0,11.903 -0.002,23.803 0,35.706 v 0 c -0.002,5.019 0,10.036 0.002,15.053 v 0 c 0,1.975 0,3.952 0,5.931 v 0 c 0,5.86 -0.008,11.718 -0.008,17.578 v 0 c 0,4.599 0.007,9.197 0.029,13.796 v 0 c 1.795,-0.013 3.59,-0.017 5.383,-0.017 v 0 c 2.554,0 5.104,0.009 7.65,0.009 v 0 c 0.31,0 0.619,0 0.928,0 v 0 c 0,-19.792 0.002,-39.58 0.002,-59.366 v 0 c 0,-19.788 -10e-4,-39.576 -0.002,-59.362 v 0 c -0.381,0 -0.763,0 -1.146,0 v 0 C 78.942,1.504 76.425,1.5 73.911,1.5 v 0 c -1.767,0 -3.532,0.002 -5.296,0.01 v 0 c 0.006,10.223 0.008,20.446 0.008,30.666 z"
   id="path90"
   inkscape:connector-curvature="0"
   style="fill:#470000" />
		</g>
		<g
   id="g105">
			<linearGradient
   id="SVGID_8_"
   gradientUnits="userSpaceOnUse"
   x1="119.5562"
   y1="-2.6240001"
   x2="119.5561"
   y2="127.376">
				<stop
   offset="0.0051"
   style="stop-color:#FF6F0D"
   id="stop94" />
				<stop
   offset="0.3807"
   style="stop-color:#FF0000"
   id="stop96" />
				<stop
   offset="1"
   style="stop-color:#A80000"
   id="stop98" />
			</linearGradient>
			<path
   d="m 87.888,0.004 c 3.06,-0.002 6.118,-0.008 9.176,0.002 -0.099,12.371 0.322,24.766 1.797,37.057 1.207,9.547 2.909,19.164 6.711,28.059 3.604,8.605 8.801,16.604 15.572,23.051 6.466,6.166 14.302,10.906 22.815,13.635 2.375,0.76 4.805,1.355 7.274,1.715 -0.003,6.064 -0.006,12.129 0,18.191 -4.852,-0.658 -9.61,-1.908 -14.24,-3.482 -5.514,-1.918 -10.847,-4.401 -15.745,-7.588 -3.576,-2.301 -6.828,-5.053 -9.952,-7.924 -5.149,-4.748 -9.758,-10.146 -13.219,-16.256 -2.708,-4.758 -4.683,-9.9 -6.23,-15.145 C 90.429,66.048 89.824,60.602 89.274,55.184 88.21,43.475 87.812,31.707 87.888,19.954 c 0,-6.649 -0.002,-13.302 0,-19.95 z"
   id="path101"
   style="fill:url(#SVGID_8_)"
   inkscape:connector-curvature="0" />
			<path
   d="m 151.031,123.199 c -4.974,-0.674 -9.825,-1.952 -14.532,-3.553 v 0 c -5.609,-1.952 -11.053,-4.483 -16.064,-7.743 v 0 c -3.685,-2.372 -7,-5.182 -10.156,-8.081 v 0 C 105.042,98.991 100.327,93.479 96.773,87.204 v 0 C 93.991,82.315 91.978,77.064 90.399,71.708 v 0 C 88.941,66.288 88.334,60.762 87.781,55.32 v 0 C 86.795,44.484 86.379,33.605 86.379,22.741 v 0 c 0,-0.934 0.002,-1.866 0.01,-2.788 v 0 c 0,-4.433 -0.002,-8.868 -0.002,-13.301 v 0 c 0,-2.216 0,-4.435 0.002,-6.649 v 0 -1.498 l 1.498,-0.002 c 1.757,-0.002 3.513,-0.004 5.27,-0.004 v 0 c 1.303,0 2.606,0 3.913,0.006 v 0 l 1.506,0.006 -0.012,1.506 C 98.556,1.14 98.549,2.263 98.551,3.383 v 0 c -0.002,11.207 0.466,22.405 1.798,33.49 v 0 c 1.199,9.5 2.89,18.977 6.608,27.668 v 0 c 3.534,8.438 8.622,16.26 15.223,22.544 v 0 c 6.306,6.014 13.95,10.638 22.236,13.293 v 0 c 2.31,0.737 4.661,1.313 7.033,1.659 v 0 l 1.284,0.187 v 1.297 c -0.002,3.501 -0.004,7.002 -0.004,10.503 v 0 c 0,2.563 0,5.125 0.004,7.687 v 0 l 0.004,1.72 z M 89.386,6.652 c 0,4.433 0.002,8.868 0.002,13.313 v 0 c -0.008,0.922 -0.01,1.848 -0.01,2.776 v 0 c 0,10.787 0.414,21.575 1.388,32.291 v 0 c 0.549,5.409 1.15,10.773 2.521,15.861 v 0 c 1.522,5.168 3.461,10.202 6.097,14.83 v 0 c 3.364,5.942 7.87,11.226 12.928,15.89 v 0 c 3.093,2.845 6.281,5.537 9.754,7.772 v 0 c 4.779,3.109 10.001,5.544 15.41,7.425 v 0 c 4.015,1.364 8.108,2.475 12.255,3.159 v 0 c -0.002,-1.983 -0.002,-3.965 -0.002,-5.945 v 0 c 0,-3.076 0.002,-6.151 0.003,-9.228 v 0 c -2.119,-0.376 -4.197,-0.911 -6.23,-1.562 v 0 c -8.74,-2.803 -16.767,-7.66 -23.392,-13.979 v 0 C 113.167,82.646 107.863,74.471 104.193,65.709 v 0 C 100.302,56.601 98.588,46.844 97.371,37.24 v 0 C 96.02,25.988 95.548,14.671 95.548,3.382 v 0 c 0,-0.628 0.002,-1.255 0.005,-1.883 v 0 C 94.755,1.498 93.956,1.497 93.156,1.497 v 0 c -1.256,0 -2.512,10e-4 -3.769,0.002 v 0 c -0.001,1.718 -0.001,3.435 -0.001,5.153 z"
   id="path103"
   inkscape:connector-curvature="0"
   style="fill:#470000" />
		</g>
		<g
   id="g118">
			<linearGradient
   id="SVGID_9_"
   gradientUnits="userSpaceOnUse"
   x1="31.705601"
   y1="-2.6240001"
   x2="31.705601"
   y2="127.376">
				<stop
   offset="0.0051"
   style="stop-color:#FF6F0D"
   id="stop107" />
				<stop
   offset="0.3807"
   style="stop-color:#FF0000"
   id="stop109" />
				<stop
   offset="1"
   style="stop-color:#A80000"
   id="stop111" />
			</linearGradient>
			<path
   d="m 54.173,0.008 c -0.01,3.588 0.02,7.18 -0.016,10.77 -0.245,10.596 -0.904,21.201 -2.489,31.684 -1.264,8.248 -3.124,16.484 -6.597,24.109 -2.95,6.635 -6.837,12.879 -11.714,18.272 -4.722,5.228 -10.333,9.658 -16.566,12.953 -5.253,2.764 -10.908,4.85 -16.791,5.73 0.005,6.066 0.005,12.138 0,18.203 4.887,-0.688 9.686,-1.928 14.35,-3.532 8.244,-2.849 16.082,-7.056 22.649,-12.834 7.341,-6.234 13.871,-13.646 18.027,-22.406 2.547,-5.437 4.601,-11.162 5.592,-17.099 1.443,-8.61 1.989,-17.339 2.4,-26.05 0.25,-6.031 0.421,-12.068 0.389,-18.107 C 63.402,14.469 63.415,7.234 63.402,0 60.325,0.008 57.249,-0.002 54.173,0.008"
   id="path114"
   style="fill:#e6e6e6"
   inkscape:connector-curvature="0" />
			<path
   d="m -1.5,121.729 c 0,-3.034 0.002,-6.069 0.002,-9.102 v 0 c 0,-3.033 0,-6.068 -0.002,-9.101 v 0 l -0.002,-1.295 1.278,-0.19 c 5.68,-0.85 11.18,-2.871 16.313,-5.57 v 0 c 6.069,-3.209 11.544,-7.532 16.153,-12.634 v 0 c 4.756,-5.26 8.563,-11.368 11.461,-17.888 v 0 c 3.389,-7.437 5.229,-15.536 6.48,-23.712 v 0 C 51.755,31.842 52.412,21.3 52.656,10.762 v 0 c 0.013,-1.438 0.015,-2.875 0.015,-4.317 v 0 c 0,-1.587 -0.002,-3.174 -0.002,-4.765 v 0 c -0.002,-0.559 0,-1.119 0.002,-1.68 v 0 0.002 l 1.501,0.004 -0.007,-1.5 C 55.424,-1.5 56.684,-1.5 57.941,-1.5 v 0 c 0.727,0 1.45,0.002 2.173,0 v 0 c 1.094,0 2.189,0 3.283,-0.002 v 0 l 1.5,-0.004 0.003,1.503 c 0.004,2.612 0.004,5.225 0.004,7.836 v 0 c 0,3.269 0,6.538 0,9.807 v 0 c 0,1.353 0,2.706 0.002,4.056 v 0 c 0.002,0.484 0.002,0.969 0.004,1.458 v 0 c -0.002,5.583 -0.164,11.155 -0.396,16.724 v 0 c -0.412,8.727 -0.959,17.517 -2.417,26.227 v 0 C 61.076,72.22 58.969,78.073 56.38,83.599 v 0 c -4.278,9.015 -10.96,16.578 -18.391,22.89 v 0 c -6.743,5.931 -14.753,10.224 -23.151,13.128 v 0 c -4.74,1.628 -9.63,2.894 -14.629,3.598 v 0 l -1.711,0.24 z m 3.004,-9.102 c -0.002,2.451 -0.002,4.901 -0.003,7.352 v 0 c 4.189,-0.704 8.32,-1.811 12.357,-3.201 v 0 c 8.091,-2.794 15.756,-6.916 22.169,-12.559 v 0 C 43.256,98.08 49.637,90.818 53.666,82.321 v 0 c 2.509,-5.353 4.51,-10.952 5.471,-16.711 v 0 c 1.427,-8.507 1.972,-17.176 2.382,-25.864 v 0 c 0.228,-5.535 0.39,-11.066 0.39,-16.591 v 0 c 0,-0.482 0,-0.965 -0.002,-1.452 v 0 c -0.002,-1.354 -0.002,-2.707 -0.002,-4.062 v 0 c 0,-3.269 0,-6.538 0,-9.807 v 0 c 0,-2.111 0,-4.222 -0.002,-6.332 v 0 c -0.596,10e-4 -1.192,10e-4 -1.788,10e-4 v 0 c -0.727,0 -1.45,-0.002 -2.173,-0.002 v 0 c -0.758,0 -1.516,0.001 -2.272,0.002 v 0 c 0,0.059 0,0.119 0,0.178 v 0 c 0,1.585 0.002,3.174 0.004,4.765 v 0 C 55.672,7.892 55.67,9.34 55.657,10.813 v 0 C 55.41,21.448 54.748,32.116 53.151,42.689 v 0 c -1.276,8.317 -3.157,16.69 -6.709,24.491 v 0 c -3.008,6.762 -6.975,13.142 -11.971,18.669 v 0 c -4.837,5.353 -10.583,9.893 -16.982,13.275 v 0 c -4.992,2.624 -10.365,4.668 -15.987,5.675 v 0 c 0,2.609 0,5.218 0.002,7.828 z"
   id="path116"
   inkscape:connector-curvature="0"
   style="fill:#470000" />
		</g>
		<g
   id="g131">
			<linearGradient
   id="SVGID_10_"
   gradientUnits="userSpaceOnUse"
   x1="75.613297"
   y1="-2.6240001"
   x2="75.613297"
   y2="127.376">
				<stop
   offset="0.0051"
   style="stop-color:#FF6F0D"
   id="stop120" />
				<stop
   offset="0.3807"
   style="stop-color:#FF0000"
   id="stop122" />
				<stop
   offset="1"
   style="stop-color:#A80000"
   id="stop124" />
			</linearGradient>
			<path
   d="m 67.116,0.02 c 0.02,27.641 0.002,55.275 0.01,82.917 0.02,12.938 -0.042,25.879 0.03,38.815 5.65,-0.051 11.302,-0.012 16.953,-0.021 0.002,-40.574 0.002,-81.15 0,-121.728 C 78.444,0.014 72.778,-0.018 67.116,0.02"
   id="path127"
   style="fill:#e6e6e6"
   inkscape:connector-curvature="0" />
			<path
   d="m 65.656,121.759 c -0.031,-5.106 -0.037,-10.212 -0.037,-15.316 v 0 c 0,-5.86 0.01,-11.72 0.01,-17.576 v 0 c 0,-1.977 0,-3.952 -0.004,-5.931 v 0 C 65.623,77.234 65.621,71.537 65.621,65.84 v 0 c 0,-11.061 0.004,-22.121 0.004,-33.18 v 0 c 0,-10.878 -0.002,-21.757 -0.008,-32.638 v 0 l 1.499,-0.002 -0.011,-1.5 c 2.254,-0.017 4.513,-0.02 6.766,-0.02 v 0 c 2.559,0 5.117,0.006 7.671,0.006 v 0 c 0.855,0 1.711,0 2.564,-0.002 v 0 l 1.501,-0.002 v 1.502 c 0,20.288 0.002,40.575 0.002,60.865 v 0 c 0,20.286 0,40.574 -0.002,60.864 v 0 1.503 l -1.504,-0.006 c -0.613,0 -1.226,0 -1.843,0 v 0 c -2.699,0 -5.396,-0.006 -8.089,-0.006 v 0 c -2.336,0 -4.671,0.006 -7.001,0.026 v 0 l -1.506,0.015 z M 68.624,32.66 c 0,11.06 -0.002,22.119 -0.002,33.18 v 0 c 0,5.696 0,11.394 0.002,17.094 v 0 c 0.004,1.977 0.004,3.954 0.004,5.933 v 0 c 0,5.858 -0.01,11.719 -0.01,17.576 v 0 c 0,4.602 0.007,9.198 0.029,13.797 v 0 c 1.842,-0.012 3.683,-0.016 5.524,-0.016 v 0 c 2.699,0 5.394,0.007 8.089,0.007 v 0 c 0.116,0 0.232,0 0.348,-10e-4 v 0 c 0,-19.787 0,-39.575 0,-59.361 v 0 c 0,-19.788 0,-39.576 0,-59.364 v 0 c -0.355,0 -0.711,0 -1.066,0 v 0 c -2.559,0 -5.117,-0.006 -7.671,-0.006 v 0 c -1.753,0 -3.505,0.002 -5.254,0.011 v 0 c 0.005,10.386 0.007,20.768 0.007,31.15 z M 65.617,0.02 c 0,0 0,0.001 0,0.002 v 0 0 z"
   id="path129"
   inkscape:connector-curvature="0"
   style="fill:#470000" />
		</g>
		<g
   id="g144">
			<linearGradient
   id="SVGID_11_"
   gradientUnits="userSpaceOnUse"
   x1="119.5562"
   y1="-2.6240001"
   x2="119.5561"
   y2="127.376">
				<stop
   offset="0.0051"
   style="stop-color:#FF6F0D"
   id="stop133" />
				<stop
   offset="0.3807"
   style="stop-color:#FF0000"
   id="stop135" />
				<stop
   offset="1"
   style="stop-color:#A80000"
   id="stop137" />
			</linearGradient>
			<path
   d="m 87.888,0.004 c -0.002,6.648 0,13.301 0,19.949 -0.076,11.754 0.322,23.521 1.386,35.23 0.55,5.418 1.155,10.863 2.573,16.134 1.547,5.244 3.522,10.388 6.23,15.146 3.46,6.109 8.07,11.509 13.219,16.256 3.124,2.871 6.376,5.623 9.952,7.923 4.898,3.188 10.231,5.672 15.745,7.59 4.63,1.574 9.388,2.824 14.24,3.481 -0.006,-6.063 -0.003,-12.127 0,-18.19 -2.47,-0.359 -4.899,-0.955 -7.274,-1.715 -8.513,-2.729 -16.35,-7.47 -22.815,-13.636 C 114.373,81.726 109.177,73.728 105.572,65.121 101.77,56.226 100.068,46.609 98.861,37.06 97.386,24.771 96.965,12.376 97.064,0.005 94.007,-0.004 90.948,0.002 87.888,0.004"
   id="path140"
   style="fill:#e6e6e6"
   inkscape:connector-curvature="0" />
			<path
   d="m 151.031,123.198 c -4.974,-0.673 -9.823,-1.951 -14.532,-3.551 v 0 c -5.609,-1.951 -11.053,-4.484 -16.062,-7.745 v 0 c -3.688,-2.372 -7.002,-5.183 -10.159,-8.081 v 0 c -5.237,-4.83 -9.952,-10.343 -13.504,-16.617 v 0 C 93.99,82.313 91.979,77.061 90.398,71.705 v 0 C 88.942,66.286 88.333,60.762 87.78,55.318 v 0 C 86.794,44.482 86.378,33.604 86.378,22.739 v 0 c 0,-0.932 0.004,-1.864 0.01,-2.786 v 0 c 0,-4.433 -0.002,-8.868 -0.002,-13.301 v 0 c 0,-2.216 0,-4.433 0.002,-6.649 v 0 l 1.5,0.001 -0.002,-1.5 C 89.713,-1.498 91.54,-1.5 93.369,-1.5 v 0 c 1.232,0 2.467,0.002 3.7,0.006 v 0 l 1.508,0.004 -0.012,1.508 C 98.555,1.139 98.55,2.261 98.55,3.384 v 0 c 0,11.207 0.468,22.405 1.798,33.488 v 0 c 1.199,9.5 2.89,18.977 6.608,27.669 v 0 c 3.534,8.438 8.624,16.263 15.223,22.546 v 0 c 6.304,6.014 13.95,10.637 22.238,13.293 v 0 c 2.308,0.737 4.657,1.313 7.033,1.659 v 0 l 1.284,0.187 -0.002,1.299 c -0.002,3.498 -0.004,6.999 -0.004,10.5 v 0 c 0,2.561 0.002,5.123 0.004,7.688 v 0 l 0.004,1.72 z M 89.385,6.652 c 0,4.433 0.002,8.868 0.002,13.312 v 0 c -0.006,0.926 -0.01,1.852 -0.008,2.776 v 0 c -0.002,10.788 0.412,21.575 1.388,32.292 v 0 c 0.547,5.409 1.15,10.772 2.519,15.861 v 0 c 1.525,5.167 3.461,10.202 6.097,14.83 v 0 c 3.364,5.941 7.87,11.228 12.928,15.891 v 0 c 3.092,2.844 6.283,5.537 9.754,7.771 v 0 c 4.779,3.109 10.001,5.545 15.41,7.426 v 0 c 4.015,1.365 8.107,2.475 12.255,3.159 v 0 c -10e-4,-1.981 -0.003,-3.964 -0.003,-5.945 v 0 c 0,-3.074 0,-6.149 0.003,-9.226 v 0 c -2.119,-0.378 -4.197,-0.913 -6.23,-1.563 v 0 c -8.74,-2.803 -16.767,-7.66 -23.392,-13.979 v 0 C 113.165,82.647 107.861,74.473 104.191,65.71 v 0 C 100.3,56.602 98.586,46.845 97.369,37.238 v 0 C 96.022,25.992 95.55,14.673 95.55,3.383 v 0 c 0,-0.628 0.001,-1.255 0.004,-1.883 v 0 c -0.729,-10e-4 -1.457,-10e-4 -2.186,0 v 0 c -1.327,-10e-4 -2.654,0 -3.982,10e-4 v 0 c 0,1.717 -10e-4,3.434 -10e-4,5.151 z"
   id="path142"
   inkscape:connector-curvature="0"
   style="fill:#470000" />
		</g>
	</g>
	<g
   id="g159">
		<linearGradient
   id="SVGID_12_"
   gradientUnits="userSpaceOnUse"
   x1="548.42682"
   y1="-2.6240001"
   x2="548.42682"
   y2="127.376">
			<stop
   offset="0.0051"
   style="stop-color:#FF6F0D"
   id="stop148" />
			<stop
   offset="0.3807"
   style="stop-color:#FF0000"
   id="stop150" />
			<stop
   offset="1"
   style="stop-color:#A80000"
   id="stop152" />
		</linearGradient>
		<path
   d="m 562.213,99.303 h 3.963 v 22.449 l -18.669,-15.213 c -1.751,-1.431 -3.919,-3.09 -6.225,-3.09 -3.642,0 -6.638,3.229 -6.638,6.821 0,3.552 2.856,6.455 6.358,6.687 v 4.334 c -6.177,-0.69 -10.324,-4.703 -10.324,-11.021 0,-5.897 4.38,-10.971 10.418,-10.971 2.582,0 5.164,0.969 7.146,2.58 l 13.969,11.434 z"
   id="path155"
   style="fill:#e6e6e6"
   inkscape:connector-curvature="0" />
		<path
   d="m 546.557,107.7 c -1.71,-1.436 -3.716,-2.802 -5.274,-2.751 v 0 c -1.37,-0.002 -2.646,0.606 -3.604,1.6 v 0 c -0.953,0.994 -1.538,2.345 -1.534,3.721 v 0 c -0.015,2.723 2.223,5.014 4.956,5.19 v 0 l 1.4,0.091 v 7.416 l -1.666,-0.186 c -6.745,-0.659 -11.733,-5.473 -11.658,-12.512 v 0 c 0.013,-6.622 4.977,-12.465 11.92,-12.469 v 0 c 2.957,0.002 5.843,1.091 8.096,2.918 v 0 l 11.519,9.428 V 99.302 97.803 h 6.964 v 27.107 z m -5.46,-6.9 c -5.137,0.009 -8.896,4.297 -8.919,9.47 v 0 c 0.068,5.018 2.733,8.118 7.326,9.226 v 0 -1.257 c -3.606,-0.87 -6.35,-4.077 -6.36,-7.969 v 0 c 0.023,-4.414 3.582,-8.281 8.139,-8.321 v 0 c 3.05,0.049 5.381,2.002 7.172,3.427 v 0 l 16.22,13.22 v -17.793 h -0.962 v 15.677 l -16.415,-13.437 c -1.712,-1.395 -3.985,-2.242 -6.184,-2.242 v 0 c -0.007,-0.001 -0.011,-0.001 -0.017,-0.001 z"
   id="path157"
   inkscape:connector-curvature="0"
   style="fill:#470000" />
	</g>
	<g
   id="g172">
		<linearGradient
   id="SVGID_13_"
   gradientUnits="userSpaceOnUse"
   x1="548.7998"
   y1="-2.6240001"
   x2="548.7998"
   y2="127.376">
			<stop
   offset="0.0051"
   style="stop-color:#FF6F0D"
   id="stop161" />
			<stop
   offset="0.3807"
   style="stop-color:#FF0000"
   id="stop163" />
			<stop
   offset="1"
   style="stop-color:#A80000"
   id="stop165" />
		</linearGradient>
		<path
   d="m 532.8,79.433 12.538,9.266 0.095,-0.092 c -0.509,-1.017 -0.829,-2.166 -0.829,-3.412 0,-5.715 5.302,-10.049 10.879,-10.049 6.36,0 11.434,5.164 11.434,11.479 0,5.992 -4.979,11.572 -11.108,11.572 -3.506,0 -6.454,-1.752 -9.176,-3.779 l -15.949,-11.85 z m 23.143,-0.14 c -4.334,0 -7.47,3.688 -7.47,7.375 0,3.781 3.458,7.377 7.236,7.377 4.013,0 7.332,-3.41 7.332,-7.377 0.003,-3.873 -3.227,-7.375 -7.098,-7.375 z"
   id="path168"
   style="fill:#e6e6e6"
   inkscape:connector-curvature="0" />
		<path
   d="m 545.736,95.62 -17.1,-12.704 2.919,-4.323 0.877,-1.296 10.671,7.886 c 0.06,-6.704 6.072,-11.529 12.378,-11.538 v 0 c 7.195,0 12.919,5.846 12.933,12.979 v 0 c -0.026,6.797 -5.531,13.021 -12.606,13.072 v 0 c -4.037,-0.008 -7.281,-2.002 -10.072,-4.076 z m -13.01,-13.404 14.802,10.998 c 2.651,1.979 5.302,3.489 8.28,3.48 v 0 c 2.6,0.002 4.99,-1.183 6.758,-3.063 v 0 c 1.766,-1.881 2.853,-4.432 2.849,-7.008 v 0 c -0.002,-5.496 -4.408,-9.968 -9.933,-9.979 v 0 c -2.399,-0.002 -4.788,0.946 -6.535,2.501 v 0 c -1.75,1.564 -2.842,3.666 -2.844,6.049 v 0 c 0,0.986 0.251,1.901 0.67,2.739 v 0 l 0.493,0.983 -1.799,1.742 -12.302,-9.093 z m 14.247,4.452 c 0.015,-4.508 3.737,-8.841 8.971,-8.877 v 0 1.502 1.5 c -1.733,0.002 -3.201,0.725 -4.278,1.842 v 0 c -1.074,1.114 -1.697,2.616 -1.693,4.033 v 0 c -0.006,1.426 0.677,2.934 1.776,4.059 v 0 c 1.098,1.13 2.558,1.823 3.961,1.817 v 0 c 3.124,-0.007 5.793,-2.716 5.833,-5.816 v 0 c -10e-4,-0.021 -0.002,-0.042 -0.002,-0.063 v 0 c 0.002,-1.515 -0.643,-3.011 -1.687,-4.105 v 0 c -1.045,-1.098 -2.438,-1.769 -3.91,-1.766 v 0 -1.5 -1.5 c 4.785,0.047 8.547,4.156 8.596,8.831 v 0 c 0.001,0.014 0.002,0.029 0.003,0.044 v 0 c -0.02,4.808 -3.952,8.852 -8.833,8.875 v 0 c -4.73,-0.081 -8.667,-4.202 -8.737,-8.876 z"
   id="path170"
   inkscape:connector-curvature="0"
   style="fill:#470000" />
	</g>
	<g
   id="g185">
		<linearGradient
   id="SVGID_14_"
   gradientUnits="userSpaceOnUse"
   x1="548.80182"
   y1="-2.6240001"
   x2="548.80182"
   y2="127.376">
			<stop
   offset="0.0051"
   style="stop-color:#FF6F0D"
   id="stop174" />
			<stop
   offset="0.3807"
   style="stop-color:#FF0000"
   id="stop176" />
			<stop
   offset="1"
   style="stop-color:#A80000"
   id="stop178" />
		</linearGradient>
		<path
   d="m 530.68,56.256 c 0,9.955 8.162,18.054 18.195,18.054 9.953,0 18.049,-8.099 18.049,-18.054 0,-10.242 -7.96,-18.268 -18.121,-18.268 -10.162,0 -18.123,8.026 -18.123,18.268 z m 18.196,-14 c 7.854,0 14.003,6.248 14.003,14.223 0,7.479 -6.281,13.563 -14.003,13.563 -7.801,0 -14.147,-6.084 -14.147,-13.563 0,-8.11 6.082,-14.223 14.147,-14.223 z"
   id="path181"
   style="fill:#e6e6e6"
   inkscape:connector-curvature="0" />
		<path
   d="m 529.179,56.255 c -0.003,-5.512 2.15,-10.469 5.686,-14.03 v 0 c 3.531,-3.565 8.459,-5.739 13.938,-5.737 v 0 c 5.478,-0.002 10.402,2.172 13.937,5.737 v 0 c 3.533,3.561 5.686,8.518 5.684,14.03 v 0 c -0.002,10.785 -8.765,19.552 -19.548,19.554 v 0 C 538.02,75.807 529.183,67.051 529.179,56.255 Z m 19.696,16.555 c 9.12,-0.018 16.531,-7.431 16.546,-16.555 v 0 c -0.017,-9.443 -7.275,-16.753 -16.618,-16.768 v 0 c -9.348,0.015 -16.605,7.324 -16.623,16.768 v 0 c 0.015,9.115 7.482,16.537 16.695,16.555 z M 533.227,56.478 c -0.002,-4.431 1.674,-8.388 4.486,-11.211 v 0 c 2.809,-2.827 6.75,-4.514 11.162,-4.512 v 0 1.5 1.5 c -7.277,0.036 -12.61,5.391 -12.648,12.723 v 0 c 0.013,6.596 5.631,12.06 12.648,12.064 v 0 c 6.927,-0.002 12.491,-5.454 12.502,-12.064 v 0 C 561.358,49.292 555.903,43.77 548.875,43.755 v 0 -1.5 -1.5 c 4.329,-0.002 8.227,1.731 11.016,4.569 v 0 c 2.793,2.833 4.488,6.777 4.486,11.153 v 0 c -0.007,8.347 -6.986,15.048 -15.502,15.063 v 0 c -8.584,-0.014 -15.636,-6.702 -15.648,-15.062 z"
   id="path183"
   inkscape:connector-curvature="0"
   style="fill:#470000" />
	</g>
	<g
   id="g198">
		<linearGradient
   id="SVGID_15_"
   gradientUnits="userSpaceOnUse"
   x1="548.80182"
   y1="-2.6240001"
   x2="548.80182"
   y2="127.376">
			<stop
   offset="0.0051"
   style="stop-color:#FF6F0D"
   id="stop187" />
			<stop
   offset="0.3807"
   style="stop-color:#FF0000"
   id="stop189" />
			<stop
   offset="1"
   style="stop-color:#A80000"
   id="stop191" />
		</linearGradient>
		<path
   d="m 530.68,18.299 c 0,9.953 8.162,18.051 18.195,18.051 9.953,0 18.049,-8.098 18.049,-18.051 0,-10.244 -7.96,-18.27 -18.121,-18.27 -10.162,0 -18.123,8.026 -18.123,18.27 z M 548.876,4.297 c 7.854,0 14.003,6.246 14.003,14.223 0,7.479 -6.281,13.563 -14.003,13.563 -7.801,0 -14.147,-6.084 -14.147,-13.563 0,-8.108 6.082,-14.223 14.147,-14.223 z"
   id="path194"
   style="fill:#e6e6e6"
   inkscape:connector-curvature="0" />
		<path
   d="m 529.179,18.299 c -0.003,-5.514 2.15,-10.473 5.686,-14.034 v 0 c 3.531,-3.565 8.459,-5.739 13.938,-5.737 v 0 c 5.478,-0.002 10.402,2.172 13.937,5.737 v 0 c 3.533,3.562 5.686,8.52 5.684,14.034 v 0 c -0.002,10.783 -8.765,19.548 -19.548,19.55 v 0 C 538.02,37.847 529.183,29.091 529.179,18.299 Z m 19.696,16.551 c 9.12,-0.017 16.531,-7.428 16.546,-16.55 v 0 C 565.404,8.853 558.146,1.543 548.803,1.528 v 0 C 539.455,1.543 532.198,8.853 532.18,18.3 v 0 h -0.002 c 0.017,9.111 7.484,16.533 16.697,16.55 z M 533.227,18.521 c -0.002,-4.431 1.674,-8.388 4.486,-11.211 v 0 c 2.809,-2.827 6.748,-4.516 11.162,-4.514 v 0 1.502 1.5 c -7.277,0.034 -12.61,5.391 -12.648,12.724 v 0 c 0.013,6.597 5.631,12.06 12.648,12.062 v 0 c 6.927,-0.002 12.491,-5.453 12.505,-12.062 v 0 C 561.359,11.332 555.903,5.811 548.875,5.798 v 0 -1.5 -1.503 c 4.327,-0.002 8.227,1.731 11.016,4.569 v 0 c 2.793,2.833 4.488,6.778 4.486,11.156 v 0 c -0.007,8.348 -6.986,15.046 -15.502,15.062 v 0 c -8.584,-0.015 -15.636,-6.703 -15.648,-15.061 z"
   id="path196"
   inkscape:connector-curvature="0"
   style="fill:#470000" />
	</g>
</g>
</svg>
