<?xml version="1.0" encoding="UTF-8" standalone="no"?>
<svg
   xmlns:dc="http://purl.org/dc/elements/1.1/"
   xmlns:cc="http://creativecommons.org/ns#"
   xmlns:rdf="http://www.w3.org/1999/02/22-rdf-syntax-ns#"
   xmlns:svg="http://www.w3.org/2000/svg"
   xmlns="http://www.w3.org/2000/svg"
   xmlns:sodipodi="http://sodipodi.sourceforge.net/DTD/sodipodi-0.dtd"
   xmlns:inkscape="http://www.inkscape.org/namespaces/inkscape"
   width="450.27155pt"
   height="102.80173pt"
   viewBox="0 0 450.27155 102.80173"
   version="1.1"
   id="svg24"
   sodipodi:docname="logo.svg"
   inkscape:version="0.92.4 (5da689c313, 2019-01-14)">
  <metadata
     id="metadata30">
    <rdf:RDF>
      <cc:Work
         rdf:about="">
        <dc:format>image/svg+xml</dc:format>
        <dc:type
           rdf:resource="http://purl.org/dc/dcmitype/StillImage" />
      </cc:Work>
    </rdf:RDF>
  </metadata>
  <defs
     id="defs28" />
  <sodipodi:namedview
     pagecolor="#ffffff"
     bordercolor="#666666"
     borderopacity="1"
     objecttolerance="10"
     gridtolerance="10"
     guidetolerance="10"
     inkscape:pageopacity="0"
     inkscape:pageshadow="2"
     inkscape:window-width="1366"
     inkscape:window-height="704"
     id="namedview26"
     showgrid="false"
     inkscape:zoom="0.39726027"
     inkscape:cx="438"
     inkscape:cy="37.068966"
     inkscape:window-x="0"
     inkscape:window-y="27"
     inkscape:window-maximized="1"
     inkscape:current-layer="svg24" />
  <g
     id="g44"
     transform="scale(0.68534483)">
    <g
       id="#fe8234ff">
      <path
         id="path2"
         d="m 0,0 h 144.35 c 8.18,1.43 16.49,4.22 22.7,9.95 6.95,6.21 13.02,14.46 13.43,24.1 0.23,8.5 -0.05,17.01 0.08,25.51 -14.86,0 -29.71,-0.05 -44.56,0.01 -5.69,-0.02 -11.58,0.52 -17.05,-1.45 C 79.39,45.03 39.58,32.68 0,19.64 Z"
         inkscape:connector-curvature="0"
         style="opacity:1;fill:#fe8234" />
      <path
         id="path4"
         d="m 59.92,42.93 c 11.86,3.12 23.26,7.7 34.97,11.32 4.82,1.48 9.58,3.14 14.31,4.89 0.39,15.98 0.04,31.98 0.16,47.96 5.27,0.18 10.54,0.24 15.82,0.2 0.38,14.23 0.1,28.47 0.14,42.7 H 37.64 c -0.09,-7.29 -0.15,-14.58 0.12,-21.86 7.22,-3.74 14.48,-7.41 21.89,-10.74 0.41,-24.82 -0.14,-49.65 0.27,-74.47 z"
         inkscape:connector-curvature="0"
         style="opacity:1;fill:#fe8234" />
      <path
         id="path6"
         d="m 114.94,64.34 c 21.88,0.06 43.76,0.01 65.63,0.03 -0.06,12.59 -0.09,25.18 0.02,37.77 -3.86,0.24 -7.73,0.32 -11.59,0.28 -18.06,-0.13 -36.12,0.14 -54.18,-0.13 -0.07,-12.65 -0.28,-25.31 0.12,-37.95 z"
         inkscape:connector-curvature="0"
         style="opacity:1;fill:#fe8234" />
    </g>
    <g
       id="#000000ff">
      <path
         id="path9"
         d="m 219.11,42.28 c 16.51,0.08 33.02,0 49.53,0.05 -0.01,4.11 0,8.21 -0.01,12.32 -11.76,0.18 -23.54,-0.4 -35.3,0.28 -0.02,5.69 -0.02,11.39 0.01,17.08 10.24,0.65 20.5,0.13 30.75,0.26 0.3,4.14 0.29,8.3 -0.03,12.44 -10.24,0.12 -20.5,-0.4 -30.73,0.25 -0.12,10.27 0.33,20.55 -0.2,30.82 -4.68,0.08 -9.35,0.08 -14.03,0.01 -0.26,-24.5 -0.28,-49.01 0.01,-73.51 z"
         inkscape:connector-curvature="0"
         style="opacity:1;fill:#000000" />
      <path
         id="path11"
         d="m 280.89,42.29 c 11.72,0.01 23.43,0.05 35.15,-0.01 6.05,0.04 12.71,1.05 17.26,5.41 4.49,4.82 7.32,12.04 4.74,18.47 -1.36,4.98 -5.4,8.41 -9.05,11.76 3.64,1.38 7.53,2.92 9.83,6.27 5.75,7.51 4.03,18.74 -2.27,25.38 -4.69,4.98 -11.98,6.16 -18.51,6.28 -12.4,-0.09 -24.79,0.02 -37.18,-0.06 -0.53,-14.59 -0.07,-29.19 -0.22,-43.79 0.14,-9.9 -0.32,-19.81 0.25,-29.71 m 14.47,12.11 c -0.09,5.87 -0.07,11.75 -0.05,17.63 6.56,0.33 13.15,0.53 19.71,0.18 4.13,-0.24 8.93,-2.7 9.37,-7.26 0.97,-5.02 -3.13,-10.61 -8.4,-10.46 -6.88,-0.17 -13.76,0.11 -20.63,-0.09 m -0.04,30.55 c -0.04,6.05 -0.03,12.11 -0.01,18.17 6.9,0.42 13.82,0.38 20.73,0.25 4.12,-0.04 8.79,-1.64 10.61,-5.66 1.86,-3.56 0.54,-8.42 -2.88,-10.52 -2.89,-1.83 -6.36,-2.48 -9.73,-2.53 -6.24,-0.12 -12.49,-0.09 -18.72,0.29 z"
         inkscape:connector-curvature="0"
         style="opacity:1;fill:#000000" />
      <path
         id="path13"
         d="m 404.65,42.44 c 5.03,-0.22 10.07,-0.21 15.11,-0.08 6.62,15.56 12.81,31.3 18.98,47.04 3.4,8.78 7.63,17.24 10.37,26.27 -5.22,0.26 -10.45,0.22 -15.68,0.01 -2.05,-5.65 -4.17,-11.28 -6.59,-16.79 -9.56,-0.37 -19.15,-0.37 -28.71,0 -2.23,5.56 -4.18,11.22 -6.51,16.74 -4.97,0.26 -9.95,0.32 -14.91,0.07 1.95,-7.33 5.51,-14.08 7.87,-21.27 6.65,-17.35 13.99,-34.43 20.07,-51.99 m 7.66,18.47 c -3.55,8.19 -6.85,16.52 -9.27,25.12 6.27,0.43 12.57,0.47 18.84,-0.07 -3.04,-8.4 -5.92,-16.89 -9.57,-25.05 z"
         inkscape:connector-curvature="0"
         style="opacity:1;fill:#000000" />
      <path
         id="path15"
         d="m 458.05,42.31 c 4.35,-0.05 8.71,-0.05 13.07,-0.01 0.58,14.22 0.08,28.46 0.24,42.7 -0.13,10.27 0.29,20.54 -0.22,30.8 -4.37,0.06 -8.73,0.06 -13.1,-0.02 -0.58,-13.92 -0.1,-27.86 -0.25,-41.78 0.14,-10.56 -0.32,-21.14 0.26,-31.69 z"
         inkscape:connector-curvature="0"
         style="opacity:1;fill:#000000" />
      <path
         id="path17"
         d="m 548.91,42.3 c 4.72,-0.04 9.43,-0.04 14.15,0.01 0.56,8.52 0.11,17.06 0.26,25.59 4.25,-3.28 9.13,-6.24 14.67,-6.38 4.96,-0.19 10.01,1.5 13.93,4.54 4.15,3.7 4.57,9.74 4.5,14.94 -0.27,11.6 0.26,23.2 -0.29,34.79 -4.4,0.07 -8.79,0.07 -13.19,0 -0.57,-11.27 -0.06,-22.56 -0.21,-33.84 -0.09,-3.03 -0.53,-6.6 -3.3,-8.41 -5.9,-4.64 -15.52,0.38 -15.96,7.64 -0.58,11.52 0.3,23.08 -0.38,34.6 -4.74,0.09 -9.47,0.09 -14.21,0.02 -0.5,-13.93 -0.07,-27.87 -0.21,-41.8 0.14,-10.57 -0.32,-21.14 0.24,-31.7 z"
         inkscape:connector-curvature="0"
         style="opacity:1;fill:#000000" />
      <path
         id="path19"
         d="m 510.29,62.03 c 9.21,-2.27 19.28,2.9 23.57,11.2 4.18,8.14 4.56,17.8 1.99,26.49 -2.02,9.86 -11.65,17.89 -21.82,17.24 -5.63,-0.33 -10.3,-3.82 -14.5,-7.24 -0.71,8.76 0.07,17.54 -0.47,26.3 -4.4,0.28 -8.82,0.3 -13.23,0.1 -0.32,-24.45 -0.24,-48.91 -0.04,-73.36 4.02,-0.2 8.04,-0.2 12.06,-0.01 0.2,2.15 0.4,4.29 0.62,6.44 3.57,-2.91 7.21,-6.11 11.82,-7.16 m -1.97,10.12 c -5.29,2.11 -8.54,7.55 -8.93,13.09 -0.65,6.6 0.41,14.18 5.47,18.93 3.52,3.48 9.78,3.5 13.39,0.13 3.87,-3.2 4.83,-8.51 4.99,-13.27 0.13,-5.55 -0.75,-11.54 -4.29,-16 -2.76,-2.54 -6.95,-4.12 -10.63,-2.88 z"
         inkscape:connector-curvature="0"
         style="opacity:1;fill:#000000" />
      <path
         id="path21"
         d="m 616.2,65.19 c 4.43,-2.64 9.67,-3.59 14.77,-3.74 6.69,-0.12 14.14,0.55 19.36,5.21 4.31,3.83 3.67,10.13 3.78,15.35 0.21,11.15 -1.77,22.82 2.89,33.38 v 0.8 c -4.21,-0.24 -8.42,-0.41 -12.63,-0.53 -1.13,-1.54 -2.24,-3.09 -3.36,-4.62 -4.91,2.89 -10.11,6.03 -16.01,5.99 -5.88,0 -12.3,-2.36 -15.42,-7.62 -3.56,-5.55 -2.83,-13.37 1.62,-18.21 3.67,-3.98 9.12,-5.51 14.24,-6.59 5.12,-0.97 10.21,-2.09 15.18,-3.65 -0.48,-2.48 0.11,-5.69 -2.21,-7.37 -2.66,-1.99 -6.22,-2.25 -9.4,-1.84 -4.42,0.73 -6.43,6.93 -11.31,5.98 -3.07,-0.35 -5.97,-1.46 -8.85,-2.49 1.92,-3.66 3.64,-7.82 7.35,-10.05 m 7.55,30.51 c -3.76,2.52 -1.92,8.95 2.1,10.36 4.39,1.82 9.54,-0.22 12.66,-3.52 2.64,-3.01 1.78,-7.29 1.82,-10.95 -5.57,1.06 -11.48,1.4 -16.58,4.11 z"
         inkscape:connector-curvature="0"
         style="opacity:1;fill:#000000" />
    </g>
  </g>
</svg>
