<?xml version="1.0" encoding="UTF-8" standalone="no"?>
<!-- Generator: Adobe Illustrator 13.0.0, SVG Export Plug-In . SVG Version: 6.00 Build 14948)  -->

<svg
   xmlns:dc="http://purl.org/dc/elements/1.1/"
   xmlns:cc="http://creativecommons.org/ns#"
   xmlns:rdf="http://www.w3.org/1999/02/22-rdf-syntax-ns#"
   xmlns:svg="http://www.w3.org/2000/svg"
   xmlns="http://www.w3.org/2000/svg"
   xmlns:sodipodi="http://sodipodi.sourceforge.net/DTD/sodipodi-0.dtd"
   xmlns:inkscape="http://www.inkscape.org/namespaces/inkscape"
   version="1.2"
   id="svg101576"
   x="0px"
   y="0px"
   width="601.1402"
   height="83.001671"
   viewBox="0 0 601.14018 83.001669"
   xml:space="preserve"
   sodipodi:docname="logo.svg"
   inkscape:version="0.92.4 (5da689c313, 2019-01-14)"><metadata
   id="metadata20"><rdf:RDF><cc:Work
       rdf:about=""><dc:format>image/svg+xml</dc:format><dc:type
         rdf:resource="http://purl.org/dc/dcmitype/StillImage" /></cc:Work></rdf:RDF></metadata><defs
   id="defs18" /><sodipodi:namedview
   pagecolor="#ffffff"
   bordercolor="#666666"
   borderopacity="1"
   objecttolerance="10"
   gridtolerance="10"
   guidetolerance="10"
   inkscape:pageopacity="0"
   inkscape:pageshadow="2"
   inkscape:window-width="1366"
   inkscape:window-height="704"
   id="namedview16"
   showgrid="false"
   inkscape:zoom="0.61383346"
   inkscape:cx="283.46451"
   inkscape:cy="43.862169"
   inkscape:window-x="0"
   inkscape:window-y="27"
   inkscape:window-maximized="1"
   inkscape:current-layer="svg101576" />












<g
   id="g35"
   transform="matrix(1.0603448,0,0,1.0603448,0,0.00212069)"><path
     d="m 347.884,70.38 c 0,0.83 -0.682,1.578 -1.521,1.578 h -29.102 c -0.848,0 -1.527,-0.748 -1.527,-1.578 V 49.358 c 0,-0.832 0.682,-1.496 1.527,-1.496 h 29.102 c 0.84,0 1.521,0.664 1.521,1.496 z M 346.621,41.546 H 317 c -4.287,0 -7.787,3.49 -7.787,7.813 v 21.104 c 0,4.236 3.5,7.813 7.787,7.813 h 29.621 c 4.297,0 7.787,-3.574 7.787,-7.813 V 49.358 c 0,-4.322 -3.491,-7.812 -7.787,-7.812"
     id="path100608"
     inkscape:connector-curvature="0"
     style="fill:#999999" /><path
     d="m 6.797,9.969 c 0,0 0,26.758 0,27.174 -0.357,0 -6.433,0 -6.797,0 0,-0.416 0,-36.314 0,-36.729 0.382,0 5.633,0 5.808,0 L 33.337,27.17 c 0,0 0,-26.341 0,-26.756 0.374,0 5.442,0 5.442,0 0,0 0.964,0 1.264,0 0,0.416 0,36.313 0,36.729 -0.366,0 -5.127,0 -5.311,0 L 6.797,9.969"
     id="path100618"
     inkscape:connector-curvature="0"
     style="fill:#c91818" /><path
     d="m 74.943,9.969 c 0,0 0,26.758 0,27.174 -0.366,0 -6.423,0 -6.797,0 0,-0.416 0,-36.313 0,-36.729 0.382,0 5.625,0 5.8,0 l 27.529,26.756 c 0,0 0,-26.341 0,-26.756 0.374,0 5.451,0 5.451,0 0,0 0.972,0 1.263,0 0,0.416 0,36.313 0,36.729 -0.374,0 -5.127,0 -5.31,0 L 74.943,9.969"
     id="path100622"
     inkscape:connector-curvature="0"
     style="fill:#c91818" /><path
     d="m 216.179,9.969 c 0,0 0,26.758 0,27.174 -0.375,0 -6.424,0 -6.797,0 0,-0.416 0,-36.313 0,-36.729 0.382,0 5.635,0 5.8,0 l 27.529,26.756 c 0,0 0,-26.341 0,-26.756 0.374,0 5.45,0 5.45,0 0,0 0.973,0 1.264,0 0,0.416 0,36.313 0,36.729 -0.374,0 -5.127,0 -5.301,0 L 216.179,9.969"
     id="path100626"
     inkscape:connector-curvature="0"
     style="fill:#c91818" /><path
     d="m 56.23,0.414 c 0,0 0.964,0 1.255,0 0,0.416 0,36.313 0,36.729 -0.356,0 -6.431,0 -6.797,0 0,-0.416 0,-36.313 0,-36.729 0.374,0 5.542,0 5.542,0"
     id="path100630"
     inkscape:connector-curvature="0"
     style="fill:#c91818" /><path
     d="m 154.482,0.414 c 0,0 0.947,0 1.246,0 0,0.333 0,5.983 0,6.315 -0.398,0 -16.386,0 -16.386,0 0,0 0,29.997 0,30.413 -0.366,0 -6.697,0 -7.063,0 0,-0.416 0,-30.413 0,-30.413 0,0 -15.986,0 -16.386,0 0,-0.332 0,-5.983 0,-6.315 0.406,0 38.589,0 38.589,0"
     id="path100634"
     inkscape:connector-curvature="0"
     style="fill:#c91818" /><path
     d="m 198.023,0.414 c 0,0 0.98,0 1.271,0 0,0.333 0,5.983 0,6.315 -0.391,0 -29.134,0 -29.134,0 v 8.226 c 0,0 22.153,0 22.536,0 0,0.416 0,5.9 0,6.316 -0.383,0 -22.536,0 -22.536,0 v 9.555 c 0,0 28.743,0 29.134,0 0,0.333 0,5.9 0,6.315 -0.391,0 -35.474,0 -35.863,0 0,-0.416 0,-36.313 0,-36.729 0.39,0.002 34.592,0.002 34.592,0.002"
     id="path100638"
     inkscape:connector-curvature="0"
     style="fill:#c91818" /><path
     d="M 287.216,30.827 H 266.342 V 6.731 h 20.874 c 6.531,0 8.852,6.479 8.852,12.049 -0.002,5.482 -2.318,12.047 -8.852,12.047 z m 11.153,-25.01 c -2.658,-3.573 -6.59,-5.401 -11.344,-5.401 0,0 -26.838,0 -27.238,0 0,0.416 0,36.313 0,36.729 0.398,0 27.238,0 27.238,0 4.754,0 8.686,-1.911 11.344,-5.401 2.492,-3.24 3.813,-7.728 3.813,-12.962 -0.001,-5.239 -1.321,-9.725 -3.813,-12.965"
     id="path100642"
     inkscape:connector-curvature="0"
     style="fill:#c91818" /><path
     d="m 347.884,29.331 c 0,0.748 -0.682,1.496 -1.521,1.496 h -29.102 c -0.848,0 -1.527,-0.748 -1.527,-1.496 V 8.226 c 0,-0.831 0.682,-1.496 1.527,-1.496 h 29.102 c 0.84,0 1.521,0.665 1.521,1.496 z M 346.621,0.414 H 317 c -4.287,0 -7.787,3.49 -7.787,7.813 v 21.104 c 0,4.321 3.5,7.813 7.787,7.813 h 29.621 c 4.297,0 7.787,-3.49 7.787,-7.813 V 8.226 c 0,-4.32 -3.491,-7.812 -7.787,-7.812"
     id="path100646"
     inkscape:connector-curvature="0"
     style="fill:#c91818" /><path
     d="m 470.017,62.737 c 7.045,2.824 21.928,5.066 33.545,5.066 12.713,0 17.973,-4.32 17.973,-9.806 0,-4.985 -4.887,-7.811 -18.92,-12.963 -18.771,-6.896 -32.541,-12.38 -32.541,-24.762 0,-12.713 16.57,-20.274 41.822,-20.274 13.561,0 18.215,0.831 26.822,2.41 l 0.066,12.131 c -8.459,-1.578 -15.955,-4.321 -27.598,-4.321 -12.479,0 -17.799,3.988 -17.799,8.063 0,5.9 8.191,8.725 22.563,13.876 20,7.146 31.127,12.629 31.127,24.68 0,12.463 -13.938,21.438 -45.361,21.438 -12.904,0 -21.805,-0.832 -31.699,-2.492 V 62.737"
     id="path100656"
     inkscape:connector-curvature="0"
     style="fill:#c91818" /><path
     d="M 403.125,10.719 H 388.17 V 67.39 h 14.955 c 22.961,0 37.443,-9.89 37.443,-28.252 0,-18.365 -14.483,-28.419 -37.443,-28.419 z m 40.144,61.905 c -7.396,3.324 -21.391,5.484 -33.621,5.484 H 362.9 V 0.165 h 46.748 c 12.23,0 26.225,2.16 33.637,5.484 18.008,8.143 23.873,21.188 23.873,33.485 0,12.302 -5.817,25.347 -23.889,33.49"
     id="path100660"
     inkscape:connector-curvature="0"
     style="fill:#c91818" /><path
     d="m 551.773,66.475 h -3 v -1.08 h 7.305 v 1.08 h -3.016 V 75.2 h -1.289 v -8.725"
     id="path100678"
     inkscape:connector-curvature="0"
     style="fill:#c91818" /><path
     d="m 565.443,70.878 c -0.076,-1.328 -0.158,-2.989 -0.158,-4.235 h -0.033 c -0.35,1.162 -0.748,2.407 -1.246,3.737 l -1.736,4.82 h -0.965 l -1.609,-4.736 c -0.467,-1.414 -0.85,-2.659 -1.121,-3.821 h -0.033 c -0.025,1.246 -0.104,2.907 -0.186,4.319 l -0.268,4.238 h -1.213 l 0.689,-9.807 h 1.621 l 1.68,4.735 c 0.406,1.246 0.73,2.326 0.996,3.324 h 0.025 c 0.266,-0.998 0.613,-2.078 1.055,-3.324 l 1.754,-4.735 h 1.619 l 0.615,9.807 h -1.254 l -0.232,-4.322"
     id="path100682"
     inkscape:connector-curvature="0"
     style="fill:#c91818" /></g>
</svg>