<?xml version="1.0" encoding="UTF-8" standalone="no"?>
<!-- Generator: Adobe Illustrator 13.0.0, SVG Export Plug-In . SVG Version: 6.00 Build 14948)  -->

<svg
   xmlns:dc="http://purl.org/dc/elements/1.1/"
   xmlns:cc="http://creativecommons.org/ns#"
   xmlns:rdf="http://www.w3.org/1999/02/22-rdf-syntax-ns#"
   xmlns:svg="http://www.w3.org/2000/svg"
   xmlns="http://www.w3.org/2000/svg"
   xmlns:sodipodi="http://sodipodi.sourceforge.net/DTD/sodipodi-0.dtd"
   xmlns:inkscape="http://www.inkscape.org/namespaces/inkscape"
   version="1.2"
   id="Ebene_2"
   x="0px"
   y="0px"
   width="600.89874"
   height="90.732452"
   viewBox="-2.153 -3.275 600.89877 90.732452"
   xml:space="preserve"
   sodipodi:docname="logo.svg"
   inkscape:version="0.92.4 (5da689c313, 2019-01-14)"><metadata
   id="metadata33"><rdf:RDF><cc:Work
       rdf:about=""><dc:format>image/svg+xml</dc:format><dc:type
         rdf:resource="http://purl.org/dc/dcmitype/StillImage" /></cc:Work></rdf:RDF></metadata><defs
   id="defs31" /><sodipodi:namedview
   pagecolor="#ffffff"
   bordercolor="#666666"
   borderopacity="1"
   objecttolerance="10"
   gridtolerance="10"
   guidetolerance="10"
   inkscape:pageopacity="0"
   inkscape:pageshadow="2"
   inkscape:window-width="1366"
   inkscape:window-height="704"
   id="namedview29"
   showgrid="false"
   inkscape:zoom="0.6054438"
   inkscape:cx="287.39249"
   inkscape:cy="48.982453"
   inkscape:window-x="0"
   inkscape:window-y="27"
   inkscape:window-maximized="1"
   inkscape:current-layer="Ebene_2" />

<g
   id="g45"
   transform="matrix(1.0866162,0,0,1.0866162,0.18648481,0.28366816)"><rect
     id="rect2"
     height="83.5"
     width="553"
     y="-3.2750001"
     x="-2.1530001" /><g
     id="g20">
	<g
   id="g12">
		<path
   id="path4"
   d="M 77.651,26.489 76.098,25.77 c 0.097,-0.32 0.194,-0.719 0.194,-1.119 0,-1.039 -9.127,-6.633 -24.953,-6.633 -15.146,0 -21.651,3.836 -21.651,8.79 0,13.104 57.186,-6.072 57.186,22.854 0,10.548 -12.428,18.699 -37.283,18.699 -23.689,0 -30.486,-6.233 -32.719,-6.233 -0.583,0 -0.874,0.397 -1.359,0.64 l -1.262,-0.24 8.058,-13.586 1.554,0.64 c 0,0.321 -0.195,0.642 -0.195,1.28 0,4.716 12.525,8.068 24.953,8.068 17.671,0 23.69,-4.152 23.69,-8.55 0,-15.66 -56.41,3.755 -56.41,-22.771 0,-13.425 17.185,-19.019 36.021,-19.019 16.894,0 28.739,6.073 29.904,6.073 1.262,0 1.456,-0.319 1.748,-0.559 l 1.553,0.399 z"
   inkscape:connector-curvature="0"
   style="fill:#c6af75" />
		<path
   id="path6"
   d="m 94.346,66.441 c 2.136,0 2.524,-0.639 2.524,-2.397 V 12.905 c 0,-1.758 -0.389,-2.397 -2.524,-2.397 V 9.389 h 63.012 c 2.33,0 3.301,-0.64 3.301,-1.758 h 1.359 v 13.265 h -1.359 c 0,-1.438 -0.971,-2.077 -3.301,-2.077 h -46.701 v 14.224 h 30.487 c 2.33,0 3.301,-0.64 3.301,-2.078 h 1.359 v 13.422 h -1.359 c 0,-0.639 -0.194,-1.117 -0.777,-1.438 -0.485,-0.319 -1.359,-0.48 -2.524,-0.48 h -30.487 v 15.664 h 47.575 c 2.33,0 3.301,-0.641 3.301,-1.918 h 1.359 v 13.104 h -1.359 c 0,-1.118 -0.971,-1.758 -3.301,-1.758 H 94.346 Z"
   inkscape:connector-curvature="0"
   style="fill:#c6af75" />
		<path
   id="path8"
   d="m 249.005,36.877 v 1.119 c -0.971,0.16 -1.845,0.799 -1.845,2.557 v 15.741 c 0,1.279 0.486,1.757 1.748,1.997 v 1.119 c -6.117,2.876 -21.069,8.951 -37.866,8.951 -22.331,0 -41.943,-9.112 -41.943,-29.886 0,-20.776 22.913,-29.886 43.108,-29.886 7.962,0 15.535,1.518 21.069,2.957 5.146,1.838 8.932,3.277 9.612,3.277 0.874,0 1.748,-0.4 2.136,-0.879 l 1.359,0.479 -9.417,13.104 -1.36,-0.719 c 0.097,-0.319 0.194,-0.799 0.194,-1.358 0,-2.478 -10.485,-7.432 -23.398,-7.432 -16.311,0 -29.515,6.633 -29.515,20.138 0,14.143 13.204,20.773 28.156,20.773 12.234,0 19.418,-3.437 22.331,-5.193 v -6.631 h -16.699 c -1.942,0 -3.107,0.799 -3.107,1.916 h -1.36 V 34.96 h 1.36 c 0,1.118 1.165,1.917 3.107,1.917 z"
   inkscape:connector-curvature="0"
   style="fill:#c6af75" />
		<path
   id="path10"
   d="m 253.853,67.563 v -1.119 c 1.748,-0.08 2.33,-0.479 3.689,-3.037 l 26.506,-49.063 c 0.484,-0.799 1.066,-1.678 1.066,-2.396 0,-0.879 -0.774,-1.279 -2.039,-1.438 V 9.39 h 21.167 v 1.119 c -1.457,0.16 -2.041,0.639 -2.041,1.199 0,0.639 0.39,1.278 0.875,2.078 l 28.156,49.621 c 1.357,2.478 1.748,3.037 3.785,3.037 v 1.119 h -19.32 v -1.119 c 1.264,0 1.748,-0.4 1.748,-0.799 0,-0.879 -0.873,-1.998 -7.379,-13.426 h -33.303 c -5.631,10.387 -7.087,11.986 -7.087,13.025 0,0.719 0.582,1.119 1.456,1.197 v 1.119 h -17.281 v 0.003 z M 304.438,43.109 292.787,22.173 281.33,43.109 Z"
   inkscape:connector-curvature="0"
   style="fill:#c6af75" />
	</g>
	<g
   id="g16">
		<path
   id="path14"
   d="M 547.578,77.074 H 1.117 V -0.125 h 546.46 V 77.074 Z M 6.034,72.157 H 542.661 V 4.792 H 6.034 Z"
   inkscape:connector-curvature="0"
   style="fill:#c6af75" />
	</g>
	<path
   id="path18"
   d="M 351.853,9.389 V 67.56 H 538.708 V 9.389 Z m 7.922,40.836 c -1.555,-10.357 32.85,-24.163 77.67,-31.438 -1.012,0.261 -2.969,0.762 -2.969,0.762 0,0 -4.404,1.076 -5.623,1.374 -22.863,5.587 -38.881,15.652 -37.545,24.577 1.369,9.137 20.469,14.083 44.766,12.393 1.35,-0.096 6.139,-0.326 7.182,-0.373 -44.989,6.179 -81.93,3.064 -83.481,-7.295 z m 112.039,2.237 c -9.932,2.257 -22.346,4.173 -22.346,4.173 V 30.676 l 6.4,21.124 c 0,0 15.242,-2.474 26.844,-7.304 10.084,-4.199 16.34,-9.466 15.918,-15.077 -0.684,-9.115 -20.068,-13.978 -44,-12.439 -1.596,0.103 -6.895,0.375 -7.936,0.421 44.98,-6.181 81.916,-3.064 83.471,7.293 1.321,8.81 -23.371,20.109 -58.351,27.768 z"
   inkscape:connector-curvature="0"
   style="fill:#c6af75" />
</g></g>
<g
   id="g26">
	<polygon
   points="557.207,7.272 558.839,7.272 558.839,-1.576 562.162,-1.576 562.162,-3 553.886,-3 553.886,-1.576 557.207,-1.576 "
   id="polygon22"
   style="fill:#c6af75" />
	<polygon
   points="564.478,-3 562.404,-3 562.404,7.272 563.964,7.272 563.964,-0.4 566.845,7.272 568.191,7.272 571.07,-0.397 571.07,7.272 572.632,7.272 572.632,-3 570.556,-3 567.509,5.09 "
   id="polygon24"
   style="fill:#c6af75" />
</g>
</svg>