<?xml version="1.0" encoding="UTF-8" standalone="no"?>
<svg
   xmlns:dc="http://purl.org/dc/elements/1.1/"
   xmlns:cc="http://creativecommons.org/ns#"
   xmlns:rdf="http://www.w3.org/1999/02/22-rdf-syntax-ns#"
   xmlns:svg="http://www.w3.org/2000/svg"
   xmlns="http://www.w3.org/2000/svg"
   xmlns:sodipodi="http://sodipodi.sourceforge.net/DTD/sodipodi-0.dtd"
   xmlns:inkscape="http://www.inkscape.org/namespaces/inkscape"
   viewBox="0 0 600.07512 308.93948"
   version="1.1"
   id="svg6"
   sodipodi:docname="logo.svg"
   inkscape:version="0.92.4 (5da689c313, 2019-01-14)"
   width="600.07513"
   height="308.93948">
  <metadata
     id="metadata12">
    <rdf:RDF>
      <cc:Work
         rdf:about="">
        <dc:format>image/svg+xml</dc:format>
        <dc:type
           rdf:resource="http://purl.org/dc/dcmitype/StillImage" />
      </cc:Work>
    </rdf:RDF>
  </metadata>
  <defs
     id="defs10" />
  <sodipodi:namedview
     pagecolor="#ffffff"
     bordercolor="#666666"
     borderopacity="1"
     objecttolerance="10"
     gridtolerance="10"
     guidetolerance="10"
     inkscape:pageopacity="0"
     inkscape:pageshadow="2"
     inkscape:window-width="1366"
     inkscape:window-height="704"
     id="namedview8"
     showgrid="false"
     inkscape:zoom="0.80105332"
     inkscape:cx="263.69158"
     inkscape:cy="194.28844"
     inkscape:window-x="0"
     inkscape:window-y="27"
     inkscape:window-maximized="1"
     inkscape:current-layer="svg6" />
  <g
     id="g16"
     transform="matrix(2.4358808,0,0,2.4358808,38.001853,16.000026)">
    <path
       id="path2"
       d="M 22.685,2.814 C 28.051,0.697 33.88,0.207 39.59,0.015 c 1.178,-0.076 2.337,0.16 3.511,0.186 3.341,0.328 6.671,0.842 9.938,1.629 5.519,1.284 10.762,3.544 15.745,6.208 a 90.064,90.064 0 0 1 8.136,4.933 c 0.91,0.652 1.782,1.36 2.709,1.988 3.619,2.698 6.946,5.77 10.084,9.008 0.264,0.251 0.498,0.643 0.921,0.566 3.22,-0.085 6.459,0.357 9.529,1.336 2.833,0.942 5.593,2.58 7.187,5.178 1.747,2.762 2.003,6.135 2.079,9.319 0.002,5.589 0.002,11.177 0,16.766 0.007,0.632 -0.057,1.275 0.105,1.895 1.834,7.497 2.383,15.406 0.811,23.001 -1.266,6.513 -4.198,12.742 -8.65,17.684 -4.712,5.306 -11.12,9 -17.979,10.733 -6.03,1.563 -12.366,1.723 -18.517,0.879 -7.9,-1.067 -15.511,-3.785 -22.536,-7.51 C 31.285,97.716 21.435,88.88 13.89,78.423 7.503,69.52 2.789,59.299 0.885,48.469 0.47,46.04 0.161,43.587 0.098,41.121 A 23.804,23.804 0 0 1 0.094,36.833 C 0.369,28.94 2.726,21.003 7.44,14.605 8.734,13.155 9.873,11.564 11.301,10.236 A 36.063,36.063 0 0 1 22.685,2.814 Z m 11.4,-1.933 C 27.126,1.686 20.297,4.495 15.17,9.332 c -0.89,0.634 -1.509,1.543 -2.25,2.326 -2.143,2.423 -3.835,5.215 -5.162,8.158 -1.5,3.557 -2.497,7.335 -2.871,11.177 -0.221,0.973 -0.083,1.979 -0.245,2.961 -0.264,6.854 0.892,13.729 3.035,20.238 2.438,7.406 6.107,14.384 10.606,20.743 6.926,9.69 15.76,18.041 25.986,24.175 6.479,3.874 13.543,6.828 20.942,8.389 5.254,1.096 10.687,1.439 16.018,0.765 6.328,-0.793 12.515,-3.24 17.404,-7.379 4.084,-3.4 7.2,-7.902 9.104,-12.854 2.025,-5.178 2.722,-10.794 2.619,-16.326 -0.173,-2.72 -0.35,-5.457 -0.927,-8.127 -0.013,1.119 -0.098,2.23 -0.197,3.343 -0.332,3.223 -1.205,6.596 -3.529,8.98 -1.732,1.883 -4.052,3.185 -6.54,3.759 C 95.344,80.576 91.392,80.294 87.5,80.342 81.669,80.338 75.84,80.344 70.009,80.34 69.992,61.736 69.998,43.135 70.005,24.531 c 6.22,0.002 12.439,-0.002 18.659,0.002 A 87.12,87.12 0 0 0 73.824,12.04 C 64.362,5.798 53.469,1.382 42.083,0.631 39.415,0.49 36.737,0.549 34.085,0.881 Z m 51.731,34.447 c -0.004,11.509 0,23.019 -0.002,34.528 1.424,0.018 2.849,0.017 4.275,0.004 1.001,-0.079 2.145,-0.205 2.816,-1.047 0.831,-1.06 0.724,-2.482 0.744,-3.75 0.004,-8.475 0.011,-16.951 -0.004,-25.426 0.024,-1.198 -0.09,-2.469 -0.835,-3.461 -0.721,-0.566 -1.629,-0.816 -2.534,-0.837 -1.486,-0.03 -2.973,0 -4.46,-0.011 z"
       inkscape:connector-curvature="0" />
    <path
       id="path4"
       d="m 39.763,23.673 c 2.014,-0.122 4.045,-0.359 6.059,-0.096 2.42,0.066 4.83,0.498 7.139,1.22 3.037,0.938 5.963,2.591 7.895,5.167 1.631,2.191 2.213,4.963 2.318,7.642 0.009,2.504 0.007,5.009 0,7.513 -5.108,0.016 -10.217,-0.015 -15.327,0.016 -0.142,-1.828 -0.024,-3.671 -0.059,-5.503 -0.042,-1.152 0.105,-2.396 -0.488,-3.437 -0.49,-1.028 -1.672,-1.513 -2.751,-1.578 -1.209,-0.077 -2.532,-0.024 -3.54,0.732 -0.923,0.685 -1.301,1.891 -1.253,3.006 0.002,9.579 -0.005,19.16 0.002,28.739 -0.024,0.853 0.289,1.677 0.811,2.344 1.196,0.997 2.842,1.107 4.325,0.92 0.886,-0.157 1.847,-0.529 2.307,-1.355 0.702,-1.111 0.54,-2.488 0.586,-3.741 -0.013,-1.85 0.017,-3.701 -0.017,-5.549 5.199,0.011 10.397,0.005 15.594,0.002 -0.076,3.816 0.269,7.69 -0.569,11.448 -0.667,2.906 -2.499,5.532 -5.04,7.104 -3.684,2.352 -8.177,2.949 -12.46,3.061 -1.286,0.162 -2.574,-0.052 -3.863,-0.055 -4.051,-0.241 -8.289,-0.844 -11.728,-3.166 a 11.84,11.84 0 0 1 -4.462,-5.331 c -0.956,-2.186 -1.156,-4.609 -1.137,-6.968 0.002,-7.738 0,-15.476 0.002,-23.216 0.02,-2.431 -0.12,-4.887 0.334,-7.287 0.378,-3.339 2.246,-6.483 5.053,-8.344 3.01,-2.09 6.677,-2.912 10.269,-3.288 z m 158.904,0.745 c 1.998,-0.011 3.995,-0.009 5.993,0 0.018,0.461 0.018,0.923 0.015,1.386 -0.741,0.02 -1.482,0.013 -2.219,0.009 -0.007,2.248 0.013,4.495 -0.011,6.743 a 58.35,58.35 0 0 1 -1.565,0.004 c -0.028,-2.246 0,-4.491 -0.013,-6.737 -0.739,-0.007 -1.476,0 -2.211,-0.017 -0.004,-0.463 -0.002,-0.926 0.011,-1.388 z m 8.455,-0.002 c 0.722,-0.004 1.447,-0.004 2.173,-0.015 0.588,1.974 1.063,3.981 1.607,5.967 0.595,-1.97 1.037,-3.984 1.603,-5.964 0.715,0.007 1.432,0.009 2.149,0.004 0.018,2.718 0.007,5.438 0.005,8.157 l -1.461,-0.005 c -0.04,-2.13 0.12,-4.263 0.103,-6.386 -0.558,1.911 -1.052,3.84 -1.544,5.77 a 3.77,3.77 0 0 1 -0.241,0.638 c -0.426,-0.02 -0.85,-0.022 -1.272,-0.011 -0.64,-2.145 -1.102,-4.344 -1.777,-6.476 0.094,2.154 0.123,4.314 0.111,6.47 a 88.667,88.667 0 0 0 -1.458,-0.004 c -0.011,-2.716 -0.013,-5.43 0.002,-8.145 z m -95.847,0.109 c 13.138,0.022 26.276,-0.002 39.415,0.011 0.002,3.555 0.002,7.11 0,10.666 -3.741,0.007 -7.484,0.007 -11.225,-0.002 -0.201,0.05 -0.667,-0.116 -0.66,0.212 -0.006,14.981 0.011,29.961 -0.004,44.94 -5.239,-0.011 -10.477,0.004 -15.714,-0.007 -0.031,-15.036 0.022,-30.074 -0.028,-45.11 -3.938,-0.066 -7.878,-0.009 -11.816,-0.03 -0.066,-2.449 -0.007,-4.902 -0.026,-7.353 0.036,-1.108 -0.067,-2.221 0.058,-3.327 z m 41.079,0.011 c 5.123,-0.009 10.248,0.002 15.371,-0.004 1.743,12.769 3.494,25.538 5.234,38.307 0.199,1.419 0.352,2.849 0.608,4.259 2.035,-14.177 3.916,-28.382 5.934,-42.564 5.199,0.002 10.397,-0.009 15.598,0.005 -0.831,3.813 -1.493,7.663 -2.259,11.489 -2.893,14.77 -5.705,29.558 -8.626,44.323 -7.139,-0.011 -14.278,0.015 -21.418,-0.013 -3.334,-17.968 -6.758,-35.919 -10.126,-53.88 -0.113,-0.64 -0.277,-1.272 -0.316,-1.922 z m 29.219,65.655 c 1.635,-0.929 3.881,-0.837 5.289,0.476 0.533,0.555 0.862,1.261 1.104,1.985 -0.604,0.153 -1.203,0.328 -1.812,0.453 -0.175,-0.571 -0.4,-1.222 -0.986,-1.485 -0.649,-0.383 -1.423,-0.335 -2.13,-0.19 -1.113,0.52 -1.73,1.743 -1.74,2.938 -0.05,1.124 0.129,2.409 1.03,3.188 0.645,0.604 1.618,0.726 2.451,0.509 0.824,-0.291 1.336,-1.065 1.611,-1.859 0.59,0.236 1.172,0.492 1.765,0.722 -0.094,0.16 -0.182,0.324 -0.267,0.488 -0.606,1.448 -2.094,2.457 -3.658,2.512 -1.284,0.107 -2.622,-0.322 -3.536,-1.242 -1.043,-1.091 -1.485,-2.646 -1.421,-4.132 -0.037,-1.707 0.809,-3.478 2.3,-4.363 z M 131.37,89.81 a 110.1,110.1 0 0 1 1.817,0.004 c 0.013,3.297 0.007,6.594 0.004,9.889 -0.608,0.011 -1.214,0.009 -1.821,0.005 -0.008,-3.299 -0.006,-6.599 0,-9.898 z m 4.072,0.002 c 0.529,-0.002 1.058,-0.002 1.589,-0.018 1.533,2.256 2.884,4.635 4.412,6.894 a 8.021,8.021 0 0 0 -0.052,-1.378 c -0.092,-1.482 -0.015,-2.971 -0.149,-4.449 -0.02,-0.357 0.033,-0.711 0.076,-1.063 0.551,0.017 1.106,0.017 1.66,-0.006 0.122,0.476 0.076,0.969 0.081,1.456 0,2.821 -0.006,5.643 0.002,8.464 -0.538,-0.03 -1.106,0.068 -1.624,-0.05 -1.478,-2.226 -2.788,-4.565 -4.294,-6.771 0.063,2.27 0.103,4.541 0.116,6.813 -0.608,0.009 -1.214,0.009 -1.821,0 -0.005,-3.297 -0.012,-6.595 0.004,-9.892 z m 9.038,0.02 c 2.436,-0.002 4.873,-0.02 7.311,0.007 0,0.569 -0.002,1.139 -0.009,1.708 -0.91,0.005 -1.819,0.004 -2.727,0.009 -0.005,2.715 0.004,5.429 -0.005,8.146 -0.61,0.011 -1.218,0.011 -1.826,0.004 -0.018,-2.716 0,-5.431 -0.009,-8.147 -0.907,-0.02 -1.815,0.007 -2.722,-0.018 -0.013,-0.57 -0.015,-1.14 -0.013,-1.709 z m 8.639,-0.018 c 2.329,-0.004 4.661,-0.015 6.992,0.004 0.005,0.569 0.005,1.143 -0.009,1.714 -1.723,-0.007 -3.444,0.004 -5.166,-0.004 -0.002,0.759 0,1.52 -0.005,2.28 1.59,0.03 3.183,-0.009 4.773,0.024 0,0.522 -0.002,1.045 -0.011,1.568 -1.587,0.011 -3.172,-0.004 -4.756,0.009 -0.002,0.864 0,1.73 -0.004,2.595 1.845,0.041 3.691,-0.011 5.536,0.046 0,0.549 -0.002,1.102 -0.005,1.653 -2.447,0.015 -4.895,0.009 -7.342,0.002 -0.016,-3.298 -0.012,-6.594 -0.003,-9.891 z m 8.72,0.005 c 1.266,-0.017 2.534,-0.005 3.804,-0.015 0.968,-0.015 1.992,0.26 2.696,0.956 0.962,1.056 1.139,2.823 0.26,3.981 -0.343,0.455 -0.857,0.73 -1.343,0.999 0.678,1.338 1.493,2.604 2.121,3.968 -0.678,0.004 -1.354,-0.007 -2.031,0.011 -0.737,-1.17 -1.283,-2.447 -1.979,-3.638 a 13.024,13.024 0 0 0 -1.616,-0.051 c -0.013,1.224 -0.002,2.446 -0.004,3.669 -0.638,0.015 -1.273,0.015 -1.909,0.002 0.001,-3.294 0.005,-6.589 0.001,-9.882 z m 1.904,1.644 c -0.002,1.025 0.011,2.049 -0.011,3.074 0.864,0.063 1.729,-0.068 2.584,-0.186 1.017,-0.299 1.347,-1.786 0.52,-2.464 -0.861,-0.715 -2.072,-0.384 -3.093,-0.424 z m 9.494,-1.664 c 0.649,0.011 1.299,0.019 1.95,-0.007 0.262,0.389 0.389,0.846 0.536,1.288 0.949,2.888 1.985,5.744 2.925,8.634 a 68.044,68.044 0 0 0 -1.917,0.007 c -0.28,-0.615 -0.387,-1.288 -0.621,-1.918 -1.226,-0.004 -2.449,0 -3.673,-0.004 -0.227,0.627 -0.394,1.272 -0.588,1.909 -0.667,0.004 -1.334,0.007 -1.998,-0.011 1.175,-3.282 2.2,-6.618 3.386,-9.898 z m -0.302,6.332 c 0.888,-0.005 1.778,-0.004 2.668,0.002 a 182.16,182.16 0 0 0 -1.297,-4.346 c -0.58,1.397 -0.927,2.894 -1.371,4.344 z m 15.744,-6.305 c 2.401,0 4.802,0.011 7.204,-0.009 0.09,0.577 0.057,1.161 -0.007,1.74 -0.892,-0.016 -1.782,-0.007 -2.672,-0.004 0.024,2.715 -0.005,5.429 0.015,8.146 -0.634,0.016 -1.266,0.015 -1.898,0.007 -0.007,-2.718 0.002,-5.436 -0.004,-8.155 -0.879,-0.004 -1.758,-0.004 -2.635,0 -0.005,-0.575 -0.005,-1.15 -0.003,-1.725 z m 8.67,-0.016 c 0.604,-0.002 1.211,-0.002 1.819,0.002 -0.002,3.297 0.005,6.594 -0.004,9.891 a 61.42,61.42 0 0 1 -1.821,0.004 c -0.003,-3.3 -0.014,-6.598 0.006,-9.897 z m 3.091,0 c 0.619,-0.002 1.24,0.002 1.861,-0.009 0.822,2.543 1.402,5.171 2.257,7.701 0.569,-2.062 1.141,-4.124 1.712,-6.185 0.162,-0.512 0.223,-1.062 0.501,-1.528 0.608,0.024 1.216,0.018 1.828,0.029 -0.958,3.295 -1.884,6.599 -2.836,9.896 -0.824,-0.011 -1.646,-0.004 -2.466,-0.005 -0.939,-3.302 -2.006,-6.575 -2.857,-9.899 z m 9.423,-0.006 c 2.316,0.018 4.635,-0.007 6.951,0.009 0.006,0.542 0.006,1.082 0.024,1.624 -0.468,0.151 -0.964,0.081 -1.443,0.09 -1.26,-0.002 -2.521,-0.002 -3.78,0.004 0,0.75 0.007,1.502 -0.007,2.254 1.583,0.076 3.168,0.011 4.753,0.035 0.007,0.533 0.037,1.067 -0.026,1.6 -1.57,-0.037 -3.14,-0.005 -4.71,-0.018 -0.002,0.885 -0.055,1.773 0.039,2.657 1.821,-0.064 3.643,0.011 5.466,-0.037 0.031,0.562 0.03,1.126 0.011,1.69 -2.436,-0.007 -4.873,0.004 -7.309,-0.004 0.041,-3.303 -0.029,-6.603 0.031,-9.904 z m -78.49,11.4 c 0.901,-0.013 1.8,-0.011 2.702,0.004 0.623,2.396 1.205,4.81 1.915,7.182 0.645,-2.392 1.261,-4.793 1.88,-7.193 0.896,0.004 1.791,-0.006 2.689,0.011 0.002,3.297 0,6.596 0,9.892 -0.608,0 -1.213,0.002 -1.817,0.004 -0.011,-2.617 0.09,-5.23 0.151,-7.843 -0.761,2.591 -1.424,5.213 -2.081,7.834 -0.564,0.011 -1.126,0.011 -1.688,0 -0.678,-2.598 -1.345,-5.199 -2.062,-7.786 -0.135,1.264 0.112,2.525 0.039,3.791 0.09,1.332 0.064,2.667 0.098,4.003 -0.608,0 -1.216,0 -1.824,-0.004 -0.013,-3.299 -0.013,-6.598 -0.002,-9.895 z m 11.842,0.002 c 0.627,-0.009 1.251,-0.011 1.878,-0.011 -0.002,2.029 -0.011,4.058 -0.002,6.087 0.035,0.571 -0.005,1.238 0.459,1.66 0.61,0.619 1.561,0.643 2.364,0.492 0.761,-0.131 1.417,-0.829 1.367,-1.625 -0.005,-2.2 -0.011,-4.403 -0.004,-6.603 a 62.076,62.076 0 0 1 1.93,-0.002 984.996,984.996 0 0 0 -0.002,6.432 c 0.007,0.912 -0.24,1.88 -0.905,2.538 -0.838,0.868 -2.092,1.187 -3.267,1.157 -1.144,-0.005 -2.394,-0.359 -3.102,-1.321 -0.608,-0.627 -0.715,-1.546 -0.726,-2.379 0.01,-2.142 -0.006,-4.283 0.01,-6.425 z m 10.818,-0.007 a 54.642,54.642 0 0 1 1.81,0.011 c 0.005,2.722 0.009,5.446 0,8.171 1.294,0.004 2.587,0.004 3.881,0.002 0.009,0.571 0.009,1.144 0,1.718 -1.904,0.007 -3.807,-0.011 -5.709,0.013 0.038,-3.305 0.001,-6.611 0.018,-9.915 z m 5.645,0.005 c 2.418,-0.002 4.836,-0.002 7.254,0 0.002,0.566 0.002,1.133 0.002,1.701 -0.896,0.02 -1.789,-0.013 -2.683,0.015 0,2.492 -0.007,4.983 0.011,7.476 -0.004,0.24 -0.03,0.479 -0.076,0.717 -0.608,-0.017 -1.214,-0.013 -1.821,-0.011 -0.022,-2.731 0.015,-5.46 -0.018,-8.192 -0.885,-0.05 -1.771,0.02 -2.654,-0.022 -0.036,-0.561 -0.008,-1.123 -0.015,-1.684 z m 9.151,0.002 a 77.574,77.574 0 0 1 1.869,-0.005 c -0.004,3.302 0.057,6.61 -0.033,9.911 -0.612,-0.013 -1.224,-0.011 -1.834,-0.011 -0.011,-3.299 -0.004,-6.596 -0.002,-9.895 z m 4.558,-0.007 c 0.894,0 1.786,-0.004 2.679,0.006 0.564,2.381 1.292,4.721 1.813,7.112 0.267,-0.12 0.232,-0.457 0.326,-0.686 0.538,-2.151 1.111,-4.296 1.675,-6.439 0.892,0.015 1.784,0 2.678,0.013 -0.002,3.297 0,6.594 0,9.891 -0.601,0.007 -1.202,0.007 -1.799,0.013 -0.033,-2.622 0.065,-5.243 0.114,-7.863 -0.72,2.608 -1.434,5.217 -2.068,7.847 -0.56,0.013 -1.12,0.015 -1.679,0.005 -0.671,-2.595 -1.406,-5.177 -2.022,-7.788 -0.181,2.597 0.107,5.189 0.101,7.788 -0.61,0.005 -1.22,0.005 -1.828,0.005 0.01,-3.301 0,-6.602 0.01,-9.904 z m 11.818,0.002 c 2.324,-0.006 4.646,-0.002 6.97,-0.002 0.002,0.553 0.007,1.108 0.033,1.66 -1.719,-0.004 -3.441,-0.033 -5.158,0.022 -0.046,0.759 -0.03,1.52 -0.022,2.283 1.59,0.048 3.188,-0.07 4.775,0.061 -0.011,0.496 -0.013,0.993 -0.007,1.493 -1.589,0.011 -3.177,-0.011 -4.764,0.013 -0.02,0.875 -0.009,1.751 -0.013,2.628 1.841,0.004 3.682,-0.005 5.523,0.002 0.007,0.581 0.007,1.161 0.004,1.741 -2.446,-0.002 -4.891,0.002 -7.338,0 -0.012,-3.3 -0.007,-6.601 -0.003,-9.901 z m 9.078,0.011 c 1.266,-0.017 2.532,0 3.8,-0.013 1.159,-0.013 2.359,0.352 3.201,1.178 1.13,1.196 1.506,2.936 1.364,4.537 -0.146,1.183 -0.558,2.418 -1.508,3.197 -0.94,0.815 -2.241,0.991 -3.439,0.995 -1.141,-0.024 -2.283,0.031 -3.422,-0.035 0.002,-3.286 0.008,-6.573 0.004,-9.859 z m 1.924,1.691 c -0.004,2.149 0.002,4.299 -0.002,6.45 1.091,-0.009 2.26,0.16 3.28,-0.315 0.877,-0.407 1.152,-1.452 1.189,-2.337 0.07,-1.104 -0.048,-2.366 -0.894,-3.172 -1.01,-0.83 -2.368,-0.616 -3.573,-0.626 z m 8.593,-1.699 a 49.207,49.207 0 0 1 1.882,0.004 c -0.007,3.295 -0.002,6.588 -0.002,9.883 -0.595,0.013 -1.191,0.007 -1.782,0.026 a 1.851,1.851 0 0 1 -0.103,-0.527 c 0.003,-3.129 0.009,-6.256 0.005,-9.386 z m 6.977,-0.007 c 0.689,0.004 1.378,0 2.07,0.002 1.111,3.306 2.248,6.603 3.367,9.905 a 78.847,78.847 0 0 0 -1.946,0.005 c -0.241,-0.647 -0.391,-1.321 -0.628,-1.966 -1.213,0.005 -2.425,-0.024 -3.634,0.022 -0.223,0.643 -0.407,1.299 -0.63,1.944 -0.663,-0.013 -1.323,-0.005 -1.983,-0.018 1.158,-3.287 2.23,-6.606 3.384,-9.894 z m -0.282,6.306 c 0.885,-0.002 1.769,0.006 2.655,-0.004 -0.422,-1.462 -0.837,-2.928 -1.316,-4.371 -0.524,1.428 -0.913,2.912 -1.339,4.375 z"
       inkscape:connector-curvature="0" />
  </g>
</svg>
