<?xml version="1.0" encoding="UTF-8" standalone="no"?>
<!-- Generator: Adobe Illustrator 13.0.0, SVG Export Plug-In . SVG Version: 6.00 Build 14948)  -->

<svg
   xmlns:dc="http://purl.org/dc/elements/1.1/"
   xmlns:cc="http://creativecommons.org/ns#"
   xmlns:rdf="http://www.w3.org/1999/02/22-rdf-syntax-ns#"
   xmlns:svg="http://www.w3.org/2000/svg"
   xmlns="http://www.w3.org/2000/svg"
   xmlns:sodipodi="http://sodipodi.sourceforge.net/DTD/sodipodi-0.dtd"
   xmlns:inkscape="http://www.inkscape.org/namespaces/inkscape"
   version="1.2"
   id="Ebene_1"
   x="0px"
   y="0px"
   width="600.18195"
   height="258.1033"
   viewBox="43.869 -10.908 600.18195 258.1033"
   xml:space="preserve"
   sodipodi:docname="logo.svg"
   inkscape:version="0.92.4 (5da689c313, 2019-01-14)"><metadata
   id="metadata22"><rdf:RDF><cc:Work
       rdf:about=""><dc:format>image/svg+xml</dc:format><dc:type
         rdf:resource="http://purl.org/dc/dcmitype/StillImage" /></cc:Work></rdf:RDF></metadata><defs
   id="defs20" /><sodipodi:namedview
   pagecolor="#ffffff"
   bordercolor="#666666"
   borderopacity="1"
   objecttolerance="10"
   gridtolerance="10"
   guidetolerance="10"
   inkscape:pageopacity="0"
   inkscape:pageshadow="2"
   inkscape:window-width="1366"
   inkscape:window-height="704"
   id="namedview18"
   showgrid="false"
   inkscape:zoom="0.72811268"
   inkscape:cx="238.97442"
   inkscape:cy="155.3348"
   inkscape:window-x="0"
   inkscape:window-y="27"
   inkscape:window-maximized="1"
   inkscape:current-layer="Ebene_1" />











<g
   id="g36"
   transform="matrix(1.255747,0,0,1.255747,-11.21884,2.7896883)"><path
     id="path2"
     d="m 341.373,193.968 c -2.26,-2.385 -8.34,-2.6 -9.285,-2.6 -42.588,0 -85.173,-0.002 -127.765,0.002 -4.329,0 -5.108,0.532 -4.578,-4.957 0.868,-8.979 4.167,-17.322 10.688,-23.765 1.249,-1.271 1.666,-1.7 4.52,-4.287 12.092,-10.957 36.182,-19.743 36.182,-19.743 0,0 20.159,-7.443 31.479,-11.897 5.085,-2 10.05,-4.31 14.578,-7.445 16.421,-12.943 7.894,-25.789 -13.755,-28.781 -15.163,-2.17 -28.978,1.533 -41.748,9.677 -1.667,1.063 -3.074,2.125 -4.684,3.281 -2.856,2.414 -5.307,5.229 -5.836,8.34 -0.286,1.681 -0.013,2.838 0.021,3.112 0.108,0.871 0.375,2.25 -0.272,2.884 -0.778,0.76 -2.394,-0.002 -3.111,-0.681 -6.58,-6.219 -13.172,-12.424 -19.759,-18.637 -0.412,-0.389 -1.173,-1.221 -1.173,-1.221 0,0 -0.72,-0.834 -0.745,-1.406 -0.029,-0.644 0.604,-1.249 1.36,-1.485 3.589,-0.661 5.245,-0.873 7.399,-2.448 5.797,-4.237 11.855,-8.025 18.325,-11.18 8.651,-4.219 17.747,-6.726 27.272,-8.01 7.325,-0.988 28.84,-4.338 53.973,6.837 6.629,2.907 12.313,7.024 16.598,12.831 2.535,3.437 12.096,22.281 -7.383,37.333 -6.963,5.588 -15.273,9.038 -23.674,11.971 -7.188,2.511 -12.465,4.396 -24.227,7.795 -8.931,2.658 -15.342,4.736 -25.563,9.585 -8.129,3.856 -13.465,8.543 -13.465,8.543 0,0 -2.662,2.053 -2.147,3.659 0.446,1.394 2.668,1.254 3.975,1.257 31.445,0.02 62.892,0.014 94.337,0.016 3.254,0 6.408,-0.229 8.893,-2.784 0.361,-0.373 1.318,-0.574 1.75,-0.356 0.414,0.207 0.703,1.061 0.707,1.633 0.049,7.365 0.051,14.894 0.008,22.258 -0.006,0.716 -0.24,0.972 -0.596,1.179 -0.538,0.311 -1.678,0.145 -2.299,-0.51 z"
     inkscape:connector-curvature="0"
     style="fill:#e50000" /><path
     id="path4"
     d="m 107.1,193.042 c -5.159,-0.315 -10.332,-0.979 -15.427,-1.879 -20.739,-3.656 -30.385,-8.554 -36.174,-10.826 -2.766,-1.086 -5.47,-2.114 -8.476,-1.012 -0.343,0.127 -0.745,0.12 -1.121,0.127 -1.911,0.021 -2.496,-0.722 -1.666,-2.427 0.989,-2.032 2.148,-3.985 3.317,-5.926 3.167,-5.252 6.376,-10.479 9.57,-15.718 0.147,-0.239 0.315,-0.471 0.46,-0.715 0.651,-1.09 1.366,-2.101 2.858,-1.892 1.403,0.197 1.706,1.354 2,2.451 0.642,2.388 2.099,4.166 4.016,5.647 4.536,3.511 9.659,5.873 15.033,7.748 6.969,2.431 14.143,3.953 21.429,5.097 8.627,1.354 17.299,1.526 25.961,1.024 7.342,-0.427 14.576,-1.752 21.498,-4.457 4.213,-1.646 7.409,-4.552 9.968,-8.103 3.395,-4.711 2.004,-11.188 -2.622,-14.871 -6.284,-5.002 -13.592,-6.979 -21.333,-8.31 -6.96,-1.192 -13.912,-1.065 -20.879,-0.976 -3.271,0.043 -11.09,0.354 -14.087,3.136 -1.104,0.972 -1.979,1.045 -2.504,0.571 -0.525,-0.476 -0.548,-1.228 -0.554,-1.885 -0.059,-6.801 -0.066,-13.604 -0.021,-20.401 0.015,-2.228 1.054,-2.902 2.78,-1.693 2.18,1.527 4.599,2.195 7.125,2.519 4.196,0.539 17.892,0.063 20.69,-0.303 7.481,-0.978 6.828,-0.859 11.194,-2.029 4.673,-1.252 9.131,-4.531 11.458,-7.242 0.038,-0.043 0.076,-0.088 0.113,-0.133 3.244,-3.908 2.154,-8.406 -0.864,-11.627 -2.898,-3.09 -6.541,-5.069 -10.597,-6.267 -6.647,-1.96 -13.456,-3.032 -20.365,-2.707 -12.507,0.588 -24.774,2.497 -36.083,8.316 -2.589,1.332 -5.016,3.008 -7.407,4.686 -2.042,1.433 -3.07,3.531 -3.128,6.056 -0.03,1.313 0.18,2.815 -1.379,3.389 -1.573,0.578 -2.388,-0.791 -3.285,-1.701 -5.76,-5.852 -11.496,-11.727 -17.238,-17.598 -0.33,-0.337 -0.698,-0.658 -0.942,-1.053 -0.694,-1.123 -0.267,-2.054 1.063,-2.208 1.488,-0.172 3.082,0.063 4.464,-0.387 2.042,-0.665 3.952,-1.753 5.895,-2.707 5.165,-2.533 10.195,-5.386 15.502,-7.57 8.405,-3.458 17.25,-5.316 26.285,-6.437 8.648,-1.073 23.906,-1.519 34.944,0.111 7.378,1.115 14.691,2.597 21.539,5.649 6.041,2.692 11.94,5.698 16.45,10.779 3.26,3.672 5.449,7.775 6.183,12.751 0.704,4.77 -0.081,9.127 -2.12,13.406 -1.404,2.947 -3.504,4.855 -6.393,6.588 -5.668,3.398 -9.024,4.248 -9.741,4.686 -1.14,0.693 -1.19,1.617 -0.027,2.283 1.046,0.6 2.248,0.953 3.413,1.316 6.821,2.129 12.679,5.873 17.563,11.002 3.567,3.744 5.68,8.23 6.39,13.535 0.726,5.434 -0.549,10.236 -2.896,14.957 -1.827,3.676 -4.856,6.262 -8.043,8.605 -6.444,4.744 -13.622,7.955 -21.316,10.232 -5.727,1.692 -11.531,2.842 -17.409,3.619 -20.096,2.2 -30.361,1.062 -35.064,0.774 z"
     inkscape:connector-curvature="0"
     style="fill:#e50000" /><path
     id="path6"
     d="m 383.914,72.788 c 6.705,0 13.41,0 20.117,0.001 0.66,0 1.328,-0.05 1.98,0.028 1.494,0.178 1.725,0.81 0.787,2.032 -1.676,2.182 -1.662,2.417 0.246,4.435 0.063,0.069 0.133,0.134 0.199,0.201 9.355,9.465 18.715,18.931 28.074,28.396 0.465,0.471 0.9,0.98 1.438,1.361 0.939,0.676 1.945,0.689 2.869,-0.055 0.514,-0.412 0.969,-0.898 1.434,-1.369 9.24,-9.318 18.48,-18.639 27.719,-27.961 0.334,-0.335 0.682,-0.659 0.977,-1.026 1.232,-1.531 1.203,-2.073 0.053,-3.714 -1.035,-1.398 -1.035,-2.249 1.076,-2.302 0.461,-0.012 0.939,-0.026 1.412,-0.026 13.6,0 27.199,-0.003 40.799,0.005 0.844,0 1.711,-0.01 2.525,0.169 0.348,0.076 0.771,0.6 0.83,0.971 0.057,0.367 -0.199,1.01 -0.504,1.162 -0.918,0.461 -1.902,0.855 -2.906,1.075 -3.807,0.832 -6.908,2.712 -9.66,5.516 -11.838,12.063 -23.799,24.004 -35.695,36.012 -2.982,3.016 -5.918,6.092 -8.842,9.17 -1.85,1.945 -1.854,2.863 0.021,4.781 3.295,3.36 6.68,6.633 9.959,10.008 2.43,2.5 4.688,5.17 7.137,7.648 6.508,6.582 13.096,13.082 19.613,19.652 4.387,4.422 8.736,8.881 13.047,13.377 2.482,2.594 5.373,4.4 8.861,5.293 1.271,0.322 2.514,0.807 3.715,1.338 0.326,0.146 0.666,0.764 0.617,1.109 -0.051,0.355 -0.516,0.813 -0.891,0.932 -0.613,0.193 -1.301,0.195 -1.955,0.195 -13.883,0.01 -27.766,0.008 -41.648,0.002 -0.563,0 -1.15,0.012 -1.684,-0.141 -0.883,-0.252 -1.217,-0.783 -0.67,-1.699 0.459,-0.771 1.186,-1.648 1.102,-2.402 -0.092,-0.801 -0.914,-1.588 -1.559,-2.242 -10.768,-10.99 -21.557,-21.961 -32.342,-32.934 -0.396,-0.404 -0.795,-0.809 -1.203,-1.201 -2.383,-2.303 -3.256,-2.332 -5.643,0.043 -6.896,6.857 -13.801,13.715 -20.633,20.641 -4.438,4.498 -8.764,9.107 -13.129,13.679 -1.645,1.722 -1.645,1.831 -0.395,4.114 0.713,1.305 0.443,1.879 -1.045,2.092 -0.646,0.094 -1.316,0.057 -1.98,0.057 -13.41,0.002 -26.818,0.018 -40.229,-0.023 -1.205,-0.004 -3.223,0.324 -3.326,-1.143 -0.211,-1.533 1.641,-1.611 2.729,-1.867 4.883,-1.143 8.611,-3.928 12.064,-7.471 11.008,-11.291 22.199,-22.398 33.279,-33.619 3.439,-3.484 6.729,-7.119 10.127,-10.645 1.311,-1.355 2.764,-2.568 4.104,-3.896 2.799,-2.777 2.811,-3.518 0.117,-6.236 -8.166,-8.26 -16.348,-16.498 -24.508,-24.762 -6.633,-6.715 -13.291,-13.408 -19.84,-20.205 -2.521,-2.617 -5.482,-4.244 -8.967,-5.059 -0.643,-0.15 -1.273,-0.349 -1.904,-0.544 -0.896,-0.277 -2.004,-0.489 -1.881,-1.71 0.125,-1.243 1.217,-1.243 2.188,-1.241 0.568,10e-4 1.135,-0.002 1.701,-0.002 6.71,0 13.417,0 20.123,0 z"
     inkscape:connector-curvature="0"
     style="fill:#e50000" /><path
     d="m 167.641,59.933 30.873,-0.025 c 12.627,0 22.862,-10.233 22.862,-22.861 0,-12.625 -10.234,-22.86 -22.862,-22.86 l -8.016,0.039 c -0.64,0 -1.156,-0.519 -1.156,-1.156 0,-0.643 0.517,-1.16 1.156,-1.16 l 30.798,0.004 0.018,-9.678 h -30.823 c -5.974,0 -10.814,4.842 -10.814,10.813 0,5.974 4.84,10.814 10.814,10.814 l 8.056,0.09 c 7.23,0 13.09,5.859 13.09,13.087 0,7.232 -5.859,13.092 -13.09,13.092 h -30.894 l -0.012,9.801"
     id="path2898_1_"
     inkscape:connector-curvature="0"
     style="fill:#30a0fc" /><path
     d="m 167.653,47.853 h 30.894 c 5.974,0 10.814,-4.84 10.814,-10.814 0,-5.969 -4.841,-10.812 -10.814,-10.812 l -8.056,-0.088 c -7.23,0 -13.09,-5.858 -13.09,-13.091 0,-7.228 5.86,-13.088 13.09,-13.088 l 30.823,-0.014 -0.018,-9.73 -30.798,-0.01 c -12.626,0 -22.861,10.236 -22.861,22.864 0,12.624 10.234,22.858 22.861,22.858 l 7.969,0.007 c 0.618,0 1.117,0.499 1.117,1.119 0,0.617 -0.499,1.119 -1.117,1.119 l -30.826,0.011 0.012,9.669"
     id="path2900_1_"
     inkscape:connector-curvature="0"
     style="fill:#30a0fc" /><path
     d="m 245.302,50.192 c -5.348,0 -9.735,-4.285 -9.735,-9.733 V 9.513 c 0,-5.247 4.387,-9.585 9.735,-9.585 l 32.953,0.009 -0.002,-9.719 -32.95,-0.007 c -10.717,0 -19.402,8.688 -19.402,19.401 v 30.847 c 0,10.713 8.686,19.399 19.402,19.399 l 32.815,0.014 -0.011,-9.693 -32.805,0.013"
     id="path2902_1_"
     inkscape:connector-curvature="0"
     style="fill:#30a0fc" /><path
     d="m 237.929,9.612 c 0,-4.085 3.285,-7.398 7.374,-7.398 h 32.953 l -0.002,9.703 h -28.39 c -2.275,10e-4 -2.302,2.287 -2.302,2.287 h 23.673 l 0.007,9.672 h -33.33 l 0.017,-14.264"
     id="path2904_1_"
     inkscape:connector-curvature="0"
     style="fill:#30a0fc" /><path
     d="m 245.302,47.84 c -4.077,0 -7.382,-3.307 -7.382,-7.381 l -0.007,-14.273 h 33.33 l -0.007,9.701 H 247.56 c 0.028,2.284 2.303,2.287 2.303,2.287 h 28.255 l -0.011,9.654 -32.805,0.012"
     id="path2906_1_"
     inkscape:connector-curvature="0"
     style="fill:#30a0fc" /><path
     d="m 301.343,50.167 c -5.349,0 -9.709,-4.361 -9.709,-9.708 V 9.612 c 0,-5.345 4.334,-9.683 9.683,-9.683 l 31.903,-0.006 0.004,-9.709 -31.982,-0.002 c -10.716,0 -19.401,8.688 -19.401,19.401 V 40.46 c 0,10.713 8.763,19.399 19.477,19.399 l 31.907,0.014 -0.003,-45.679 H 305.8 v 9.682 h 17.729 V 50.17 l -22.186,-0.003"
     id="path2908_1_"
     inkscape:connector-curvature="0"
     style="fill:#30a0fc" /><path
     d="m 293.917,40.459 c 0,4.084 3.313,7.449 7.399,7.449 l 19.925,10e-4 V 26.165 h -15.417 v 9.714 h 5.722 l 0.023,2.286 -5.693,-0.008 c -1.257,0 -2.277,-1.021 -2.277,-2.278 l -0.035,-21.698 c 0,0 -0.006,-2.262 2.287,-2.31 h 27.396 l -0.026,-9.682 -31.904,0.024 c -4.086,0 -7.398,3.313 -7.398,7.398 v 30.848"
     id="path2910_1_"
     inkscape:connector-curvature="0"
     style="fill:#30a0fc" /><path
     d="m 363.203,2.053 c 0.429,-1.234 1.604,-2.122 2.983,-2.122 1.382,0 2.56,0.892 2.985,2.128 l 15.476,45.899 h -22.664 l 0.024,-10.794 h 7.582 l -3.421,-10.163 -11.106,32.862 h -11.447 l 19.588,-57.81"
     id="path2912_1_"
     inkscape:connector-curvature="0"
     style="fill:#30a0fc" /><path
     d="M 387.777,50.17 H 362.02 v 9.694 h 39.215 L 380.836,-0.673 c -1.787,-5.902 -7.671,-10.235 -14.656,-10.235 -6.979,0 -12.86,4.33 -14.651,10.223 l -20.588,60.548 h 10.268 l 19.972,-58.86 c 0.817,-1.948 2.738,-3.318 4.983,-3.318 2.241,0 4.158,1.359 4.977,3.3 l 16.636,49.185"
     id="path2914_1_"
     inkscape:connector-curvature="0"
     style="fill:#30a0fc" /></g>
</svg>