<?xml version="1.0" encoding="UTF-8" standalone="no"?>
<svg
   xmlns:ns="&amp;#38;ns_sfw;"
   xmlns:dc="http://purl.org/dc/elements/1.1/"
   xmlns:cc="http://creativecommons.org/ns#"
   xmlns:rdf="http://www.w3.org/1999/02/22-rdf-syntax-ns#"
   xmlns:svg="http://www.w3.org/2000/svg"
   xmlns="http://www.w3.org/2000/svg"
   xmlns:sodipodi="http://sodipodi.sourceforge.net/DTD/sodipodi-0.dtd"
   xmlns:inkscape="http://www.inkscape.org/namespaces/inkscape"
   version="1.1"
   id="svg2"
   x="0px"
   y="0px"
   width="601.14124"
   height="151.16652"
   viewBox="0 0 601.14122 151.16652"
   enable-background="new 0 0 566.929 142.564"
   xml:space="preserve"
   sodipodi:docname="virtualboy.svg"
   inkscape:version="1.0.1 (3bc2e813f5, 2020-09-07)"><defs
   id="defs21" /><sodipodi:namedview
   pagecolor="#ffffff"
   bordercolor="#666666"
   borderopacity="1"
   objecttolerance="10"
   gridtolerance="10"
   guidetolerance="10"
   inkscape:pageopacity="0"
   inkscape:pageshadow="2"
   inkscape:window-width="1920"
   inkscape:window-height="986"
   id="namedview19"
   showgrid="false"
   inkscape:zoom="0.61383346"
   inkscape:cx="597.06749"
   inkscape:cy="79.884524"
   inkscape:window-x="-11"
   inkscape:window-y="-11"
   inkscape:window-maximized="1"
   inkscape:current-layer="svg2"
   inkscape:document-rotation="0" />
<metadata
   id="metadata2">
	<ns:sfw>
		<ns:slices />
		<ns:sliceSourceBounds
   x="677.036"
   y="468.218"
   width="566.929"
   height="142.564"
   bottomLeftOrigin="true" />
	</ns:sfw>
<rdf:RDF><cc:Work
     rdf:about=""><dc:format>image/svg+xml</dc:format><dc:type
       rdf:resource="http://purl.org/dc/dcmitype/StillImage" /></cc:Work></rdf:RDF></metadata>
<g
   id="g16"
   transform="scale(1.0603447)"
   style="fill:#cccccc;fill-opacity:1">
	<path
   id="path2952"
   d="M 0,0.016 29.727,142.547 59.3,0.016 H 43.294 L 29.727,80.124 16.007,0.016 Z"
   inkscape:connector-curvature="0"
   style="fill:#cccccc;fill-opacity:1" />
	<path
   id="path3726"
   d="M 65.855,0.016 H 81.861 V 142.547 H 65.855 Z"
   inkscape:connector-curvature="0"
   style="fill:#cccccc;fill-opacity:1" />
	<path
   id="path3728"
   d="m 96.181,0 v 142.555 h 16.012 V 68.899 l 22.266,73.652 h 14.762 L 131.408,75.154 c 9.896,-5.938 12.81,-13.71 12.81,-13.71 V 16.161 C 137.66,1.603 126.353,0 126.353,0 Z m 16.012,14.51 h 16.012 v 49.536 h -16.012 z"
   inkscape:connector-curvature="0"
   style="fill:#cccccc;fill-opacity:1" />
	<path
   id="path3733"
   d="m 149.24,0.016 h 47.867 v 14.48 H 181.1 v 128.05 H 165.094 V 14.498 H 149.24 Z"
   inkscape:connector-curvature="0"
   style="fill:#cccccc;fill-opacity:1" />
	<path
   id="path3735"
   d="m 285.669,0 -30.924,142.402 v 0.149 h 15.862 l 3.353,-19.213 h 22.366 l 3.202,19.213 h 16.013 z m 0,61.443 7.306,49.085 h -15.813 z"
   inkscape:connector-curvature="0"
   style="fill:#cccccc;fill-opacity:1" />
	<path
   id="path2882"
   d="m 321.955,0.016 h 16.008 v 128.049 h 23.936 v 14.481 h -39.941 z"
   inkscape:connector-curvature="0"
   style="fill:#cccccc;fill-opacity:1" />
	<path
   id="path3660"
   d="m 493.148,0.016 h 14.635 l 14.938,61.435 13.568,-61.435 h 16.156 l -22.408,83.842 v 58.688 H 514.031 V 83.859 Z"
   inkscape:connector-curvature="0"
   style="fill:#cccccc;fill-opacity:1" />
	<path
   id="path3662"
   d="m 464.423,0.016 c -18.193,0 -24.041,16.146 -24.041,16.146 0.15,0.229 0,107.181 0,110.23 2.412,17.325 24.041,16.155 24.041,16.155 v 0 c 24,0 23.992,-16.155 23.992,-16.155 V 16.161 C 482.21,-0.783 464.423,0.016 464.423,0.016 Z m -8.031,16.145 h 16.014 v 111.881 h -16.014 z"
   inkscape:connector-curvature="0"
   style="fill:#cccccc;fill-opacity:1" />
	<path
   id="path3667"
   d="m 203.356,0.016 h 16.16 V 126.39 h 16.159 V 0.016 h 15.853 V 126.39 c 0,0 -5.183,16.157 -23.323,16.157 -18.14,0 -24.849,-16.157 -24.849,-16.157 z"
   inkscape:connector-curvature="0"
   style="fill:#cccccc;fill-opacity:1" />
	<path
   id="path3669"
   d="m 379.587,0 v 142.555 h 32.174 c 14.934,-3.89 15.859,-14.513 15.859,-14.513 0,0 -0.023,-38.076 -0.023,-47.918 -1.121,-6.213 -6.229,-6.422 -6.229,-6.422 0,0 -0.021,-1.731 0,-3.102 5.645,-0.433 6.254,-6.556 6.254,-6.556 0,0 -0.023,-38.039 0,-47.885 C 425.179,4.533 411.761,0 411.761,0 Z m 16.061,16.26 h 16.111 v 47.785 h -16.111 z m -0.049,62.247 h 16.16 v 49.535 h -16.16 z"
   inkscape:connector-curvature="0"
   style="fill:#cccccc;fill-opacity:1" />
	<path
   id="path3699"
   d="m 539.72,128.066 h 11.125 v 1.656 h -4.725 v 12.825 h -1.604 v -12.825 h -4.801 v -1.656 z"
   inkscape:connector-curvature="0"
   style="fill:#cccccc;fill-opacity:1" />
	<path
   id="path3713"
   d="m 552.447,142.548 v -14.481 h 1.602 l 5.717,12.92 5.486,-12.92 h 1.678 v 14.481 h -1.678 v -11.209 l -4.73,11.209 h -1.615 l -4.855,-11.209 v 11.209 z"
   inkscape:connector-curvature="0"
   style="fill:#cccccc;fill-opacity:1" />
</g>
</svg>
