<?xml version="1.0" encoding="UTF-8" standalone="no"?>
<svg
   xmlns:ns="&amp;#38;ns_sfw;"
   xmlns:dc="http://purl.org/dc/elements/1.1/"
   xmlns:cc="http://creativecommons.org/ns#"
   xmlns:rdf="http://www.w3.org/1999/02/22-rdf-syntax-ns#"
   xmlns:svg="http://www.w3.org/2000/svg"
   xmlns="http://www.w3.org/2000/svg"
   xmlns:sodipodi="http://sodipodi.sourceforge.net/DTD/sodipodi-0.dtd"
   xmlns:inkscape="http://www.inkscape.org/namespaces/inkscape"
   version="1.1"
   id="Ebene_1"
   x="0px"
   y="0px"
   width="601.3056"
   height="120.31087"
   viewBox="217.274 0.152 601.30562 120.31086"
   enable-background="new 217.274 0.152 362.658 72.563"
   xml:space="preserve"
   sodipodi:docname="atari7800.svg"
   inkscape:version="1.0.1 (3bc2e813f5, 2020-09-07)"><defs
   id="defs27" /><sodipodi:namedview
   pagecolor="#ffffff"
   bordercolor="#666666"
   borderopacity="1"
   objecttolerance="10"
   gridtolerance="10"
   guidetolerance="10"
   inkscape:pageopacity="0"
   inkscape:pageshadow="2"
   inkscape:window-width="1920"
   inkscape:window-height="986"
   id="namedview25"
   showgrid="false"
   inkscape:zoom="0.95958178"
   inkscape:cx="181.329"
   inkscape:cy="84.029364"
   inkscape:window-x="-11"
   inkscape:window-y="-11"
   inkscape:window-maximized="1"
   inkscape:current-layer="g39"
   inkscape:document-rotation="0" />
<metadata
   id="metadata2">
	<ns:sfw>
		<ns:slices />
		<ns:sliceSourceBounds
   x="894.31"
   y="503.143"
   width="362.658"
   height="72.563"
   bottomLeftOrigin="true" />
	</ns:sfw>
<rdf:RDF><cc:Work
     rdf:about=""><dc:format>image/svg+xml</dc:format><dc:type
       rdf:resource="http://purl.org/dc/dcmitype/StillImage" /></cc:Work></rdf:RDF></metadata>




<g
   id="g39"
   transform="matrix(1.6580423,0,0,1.6580423,-142.97548,-0.10002243)"><g
     id="g14"
     style="fill:#cccccc;fill-opacity:1">
	<path
   id="path4"
   d="m 227.98,36.615 c 1.446,-1.85 4.439,-2.166 6.213,-0.614 0.726,0.612 1.234,1.455 1.494,2.361 3.284,11.302 6.583,22.598 9.863,33.899 -1.938,0.002 -3.878,-0.003 -5.815,0.002 -0.914,-3.115 -1.807,-6.237 -2.709,-9.356 -3.749,-0.01 -7.495,-0.003 -11.243,-0.005 -0.917,3.118 -1.823,6.239 -2.725,9.361 -1.928,-0.007 -3.856,-0.002 -5.784,-0.004 3.121,-10.779 6.245,-21.562 9.38,-32.338 0.372,-1.126 0.513,-2.384 1.326,-3.306 m 3.422,6.926 c -1.375,4.682 -2.721,9.372 -4.087,14.057 2.724,0.013 5.447,0.004 8.17,0.004 -1.363,-4.687 -2.719,-9.375 -4.083,-14.061 z"
   inkscape:connector-curvature="0"
   style="fill:#cccccc;fill-opacity:1" />
	<path
   id="path6"
   d="m 268.813,36.858 c 1.01,-1.465 2.963,-2.176 4.683,-1.724 1.573,0.363 2.778,1.719 3.193,3.246 3.281,11.293 6.574,22.583 9.855,33.876 -1.941,0.013 -3.881,0 -5.822,0.008 -0.902,-3.119 -1.795,-6.241 -2.705,-9.359 -3.742,0.002 -7.483,-0.007 -11.225,0.003 -0.894,3.121 -1.816,6.235 -2.711,9.355 -1.926,0.003 -3.852,-0.002 -5.777,0.003 3.119,-10.84 6.274,-21.672 9.417,-32.504 0.33,-0.98 0.458,-2.058 1.092,-2.904 m -0.472,20.744 c 2.713,0.004 5.424,0.001 8.137,0.001 -1.349,-4.695 -2.721,-9.387 -4.066,-14.084 -1.355,4.695 -2.723,9.386 -4.071,14.083 z"
   inkscape:connector-curvature="0"
   style="fill:#cccccc;fill-opacity:1" />
	<path
   id="path8"
   d="m 241.211,35.078 c 7.013,0 14.024,0 21.035,0 0,1.892 0,3.781 0,5.673 -2.582,0.002 -5.163,-0.003 -7.744,0.002 0,10.502 10e-4,21.007 -0.001,31.509 -1.848,0 -3.699,0 -5.547,0 0,-10.502 -0.002,-21.006 0.001,-31.509 -2.582,-0.005 -5.162,0 -7.745,-0.002 0.001,-1.892 -0.001,-3.782 0.001,-5.673 z"
   inkscape:connector-curvature="0"
   style="fill:#cccccc;fill-opacity:1" />
	<path
   id="path10"
   d="m 292.708,35.309 c 0.533,-0.184 1.102,-0.247 1.664,-0.233 2.211,0.008 4.423,10e-4 6.632,0.003 3.724,0.068 7.278,2.378 8.889,5.73 1.115,2.176 1.231,4.706 0.949,7.093 -0.193,2.5 -1.241,4.998 -3.163,6.655 -1.016,0.904 -2.279,1.452 -3.364,2.257 -0.597,0.455 -0.626,1.337 -0.318,1.968 2.934,4.529 5.984,8.989 8.98,13.48 -2.19,0.004 -4.382,-0.005 -6.573,0.004 -2.868,-4.308 -5.706,-8.638 -8.562,-12.952 -0.84,-1.228 -1.068,-2.854 -0.566,-4.255 0.393,-1.074 1.332,-1.861 2.378,-2.268 1.997,-0.762 3.966,-1.959 5.072,-3.843 0.842,-1.417 0.798,-3.165 0.419,-4.715 -0.443,-2.013 -2.404,-3.596 -4.477,-3.526 -1.432,0.01 -2.865,-0.008 -4.295,0.007 -0.648,-0.015 -1.258,0.548 -1.25,1.204 -0.006,10.115 0.004,20.23 -0.002,30.347 -1.863,-0.004 -3.725,0 -5.588,-0.002 -0.004,-10.89 0.002,-21.78 -0.004,-32.671 0.012,-1.909 1.369,-3.704 3.179,-4.283 z"
   inkscape:connector-curvature="0"
   style="fill:#cccccc;fill-opacity:1" />
	<path
   id="path12"
   d="m 315.906,35.078 c 1.961,0 3.92,0 5.88,0 -10e-4,12.396 0.004,24.789 -0.003,37.186 -1.958,-0.005 -3.917,0 -5.877,-0.002 0,-12.396 0,-24.79 0,-37.184 z"
   inkscape:connector-curvature="0"
   style="fill:#cccccc;fill-opacity:1" />
</g><path
     id="path16"
     d="m 441.874,34.488 c 5.281,-3.112 8.575,-8.381 8.575,-14.23 0,-13.813 -14.59,-20.104 -28.146,-20.104 -13.558,0 -28.146,6.291 -28.146,20.104 0,5.851 3.293,11.118 8.573,14.23 -7.511,3.479 -11.713,9.403 -11.713,16.784 0,13.913 15.736,21.192 31.282,21.192 15.546,0 31.283,-7.279 31.283,-21.192 0.005,-7.381 -4.198,-13.308 -11.708,-16.784 z m -19.57,-8.756 c -3.458,0 -6.271,-2.23 -6.271,-4.974 0,-2.744 2.813,-4.975 6.271,-4.975 3.455,0 6.271,2.231 6.271,4.975 -0.002,2.744 -2.814,4.974 -6.271,4.974 z m 0,17.725 c 3.849,0 6.979,2.567 6.979,5.729 0,3.064 -3.131,5.561 -6.979,5.561 -3.85,0 -6.979,-2.492 -6.979,-5.561 0,-3.162 3.13,-5.729 6.979,-5.729 z"
     inkscape:connector-curvature="0"
     style="fill:#ad0e0e" /><path
     id="path18"
     d="M 508.233,11.921 C 502.459,4.223 493.976,0.152 483.704,0.152 c -10.272,0 -18.755,4.069 -24.529,11.769 -4.854,6.476 -7.528,15.181 -7.528,24.513 0,18.058 9.912,36.28 32.061,36.28 22.149,0 32.063,-18.223 32.063,-36.28 -0.006,-9.333 -2.681,-18.038 -7.538,-24.513 z M 483.704,51.23 c -7.721,0 -8.566,-10.037 -8.566,-14.881 0,-4.798 0.849,-14.714 8.566,-14.714 7.721,0 8.565,9.916 8.565,14.714 0.002,4.844 -0.844,14.881 -8.565,14.881 z"
     inkscape:connector-curvature="0"
     style="fill:#ad0e0e" /><path
     id="path20"
     d="M 572.396,11.921 C 566.624,4.223 558.139,0.152 547.869,0.152 c -10.272,0 -18.755,4.069 -24.529,11.769 -4.854,6.476 -7.529,15.181 -7.529,24.513 0,18.058 9.913,36.28 32.062,36.28 22.146,0 32.061,-18.223 32.061,-36.28 -0.005,-9.333 -2.68,-18.038 -7.538,-24.513 z M 547.869,51.23 c -7.723,0 -8.567,-10.037 -8.567,-14.881 0,-4.798 0.849,-14.714 8.567,-14.714 7.718,0 8.564,9.916 8.564,14.714 0.003,4.844 -0.844,14.881 -8.564,14.881 z"
     inkscape:connector-curvature="0"
     style="fill:#ad0e0e" /><polygon
     id="polygon22"
     points="344.172,72.386 369.636,72.386 399.876,1.165 336.516,1.165 336.516,23.181 366.663,23.181 "
     style="fill:#ad0e0e" /></g>
</svg>
