<?xml version="1.0" encoding="UTF-8" standalone="no"?>
<svg
   xmlns:dc="http://purl.org/dc/elements/1.1/"
   xmlns:cc="http://creativecommons.org/ns#"
   xmlns:rdf="http://www.w3.org/1999/02/22-rdf-syntax-ns#"
   xmlns:svg="http://www.w3.org/2000/svg"
   xmlns="http://www.w3.org/2000/svg"
   xmlns:sodipodi="http://sodipodi.sourceforge.net/DTD/sodipodi-0.dtd"
   xmlns:inkscape="http://www.inkscape.org/namespaces/inkscape"
   viewBox="0 0 601.8159 91.436668"
   version="1.1"
   id="svg36"
   sodipodi:docname="logo.svg"
   width="601.81592"
   height="91.436668"
   inkscape:version="0.92.4 (5da689c313, 2019-01-14)">
  <metadata
     id="metadata42">
    <rdf:RDF>
      <cc:Work
         rdf:about="">
        <dc:format>image/svg+xml</dc:format>
        <dc:type
           rdf:resource="http://purl.org/dc/dcmitype/StillImage" />
      </cc:Work>
    </rdf:RDF>
  </metadata>
  <defs
     id="defs40" />
  <sodipodi:namedview
     pagecolor="#ffffff"
     bordercolor="#666666"
     borderopacity="1"
     objecttolerance="10"
     gridtolerance="10"
     guidetolerance="10"
     inkscape:pageopacity="0"
     inkscape:pageshadow="2"
     inkscape:window-width="1366"
     inkscape:window-height="704"
     id="namedview38"
     showgrid="false"
     inkscape:zoom="0.93134787"
     inkscape:cx="147.06267"
     inkscape:cy="115.96635"
     inkscape:window-x="0"
     inkscape:window-y="27"
     inkscape:window-maximized="1"
     inkscape:current-layer="svg36" />
  <g
     id="g61"
     transform="matrix(3.2212648,0,0,3.2212648,-1.1502872e-4,0)">
    <g
       id="g4"
       style="fill:#1b1b1b">
      <path
         id="path2"
         d="m 64.497,11.663 c 1.282,-0.014 2.564,-0.038 3.847,-0.066 0.008,1.661 0.032,3.322 0.044,4.987 0.973,-0.005 1.945,-0.009 2.922,-0.005 -0.012,1.008 -0.024,2.02 -0.032,3.028 -0.945,-0.005 -1.889,-0.014 -2.834,-0.033 0.016,1.945 0.044,3.885 0.06,5.825 l 2.299,0.028 c 0.02,0.984 0.04,1.968 0.064,2.953 -1.612,-0.038 -3.244,0.114 -4.843,-0.199 -0.639,-0.071 -1.146,-0.729 -1.154,-1.486 -0.265,-2.347 -0.145,-4.722 -0.177,-7.084 -0.47,0.005 -0.937,0.009 -1.403,0.019 -0.056,-0.994 -0.121,-1.987 -0.185,-2.981 0.502,-0.005 1.009,-0.014 1.511,-0.019 a 304.578,304.578 0 0 1 -0.119,-4.967 z m 23.309,-0.086 c 1.298,-0.024 2.593,-0.057 3.895,-0.066 A 839.678,839.678 0 0 0 91.508,28.385 541.233,541.233 0 0 0 87.685,28.38 c 0.105,-5.598 0.105,-11.2 0.121,-16.803 z m 5.539,-0.047 c 1.294,0.009 2.589,0.028 3.887,0.052 a 540.326,540.326 0 0 0 -0.285,16.746 c -1.286,0.024 -2.572,0.033 -3.859,0.057 0.088,-5.617 0.233,-11.234 0.257,-16.855 z m 39.185,-1.333 c 1.158,-0.724 3.155,-0.028 3.019,1.784 -0.229,2.224 -2.91,2.484 -3.995,0.979 -0.41,-1.079 0.056,-2.332 0.976,-2.763 z M 28.217,15.523 c 0.374,-2.461 2.597,-3.719 4.546,-3.762 4.144,-0.151 8.292,-0.062 12.436,-0.166 0.024,1.079 0.056,2.158 0.08,3.241 -3.364,-0.066 -6.729,0.028 -10.097,0.009 -0.9,0.085 -2.667,-0.057 -3.302,0.875 -0.405,0.54 -0.46,1.562 0.299,2.319 2.652,0.885 8.405,-0.388 12.456,1.032 2.81,0.866 3.489,5.735 1.419,7.893 -1.27,1.117 -2.946,1.226 -4.474,1.282 -4.192,0.047 -8.389,-0.038 -12.585,0.137 -0.084,-1.046 -0.161,-2.091 -0.249,-3.132 3.871,-0.038 7.741,-0.057 11.612,-0.123 0.953,-0.085 2.263,-0.033 2.693,-1.282 0.506,-0.918 -0.43,-1.907 -1.113,-2.196 -3.517,-0.677 -7.159,0.402 -10.652,-0.563 -2.08,-0.543 -3.567,-3.075 -3.069,-5.564 z m 71.362,0.965 c 3.099,0.123 6.206,-0.17 9.297,0.099 1.375,0.189 3.139,0.667 3.553,2.475 0.354,1.945 0.221,3.979 -0.004,5.934 -0.173,1.926 -1.865,2.858 -3.304,3.114 -2.267,0.374 -4.562,0.265 -6.841,0.246 -1.19,-0.066 -2.597,-0.147 -3.404,-1.325 -0.699,-1.273 -0.744,-3.421 0.667,-4.041 3.051,-1.334 6.383,-1.424 9.47,-2.636 -0.732,-0.364 -1.479,-0.771 -2.291,-0.767 -2.408,-0.071 -4.819,0.043 -7.227,-0.005 l 0.084,-3.094 m 2.13,8.839 c 1.929,0.237 3.891,0.355 5.824,0.095 0.989,-0.014 1.065,-1.438 1.515,-2.181 -2.455,0.629 -5.032,0.823 -7.339,2.086 z m 10.636,-9.051 c 1.383,-0.024 2.765,-0.038 4.148,-0.038 1.503,3.095 3.103,6.123 4.61,9.218 1.692,-3.147 3.626,-6.095 5.346,-9.218 1.399,0 2.802,-0.009 4.204,-0.019 a 743.423,743.423 0 0 0 -5.326,8.957 c -0.78,1.235 -1.588,2.759 -2.982,3.043 -1.58,0.312 -3.618,0.35 -4.598,-1.438 -1.958,-3.383 -3.549,-7.041 -5.402,-10.505 z m 19.032,0.236 c 1.29,-0.052 2.581,-0.099 3.875,-0.147 -0.221,4.003 -0.414,8.011 -0.631,12.019 a 560.334,560.334 0 0 0 -3.875,-0.062 c 0.233,-3.936 0.37,-7.877 0.631,-11.81 z m 5.784,2.037 c 1.399,-2.21 4.044,-2.087 6.146,-2.153 2.179,0.147 4.514,-0.383 6.564,0.7 1.085,0.601 1.113,2.205 0.977,3.407 -0.165,1.103 -1.15,1.59 -1.961,1.855 -2.946,0.885 -5.997,1.164 -8.931,2.101 0.784,0.497 1.624,0.927 2.536,0.88 2.54,0.033 5.085,-0.17 7.629,-0.109 -0.06,1.05 -0.117,2.101 -0.173,3.151 -3.429,-0.071 -6.869,0.147 -10.286,-0.203 -1.351,-0.17 -3.139,-0.913 -3.187,-2.811 -0.038,-2.271 -0.086,-4.694 0.686,-6.818 m 2.898,3.066 c 2.48,-0.502 4.988,-0.932 7.388,-1.864 -1.869,-0.44 -3.798,-0.568 -5.692,-0.312 -1.013,0.014 -1.222,1.391 -1.696,2.176 z m 10.667,-5.601 c 1.447,0.009 2.894,0.014 4.345,0.009 1.322,3.128 2.785,6.17 4.144,9.279 1.31,-3.104 2.633,-6.199 4.032,-9.246 1.314,0.028 2.633,0.038 3.951,0.028 0.8,3.057 1.596,6.118 2.331,9.199 1.994,-3.019 3.847,-6.161 5.856,-9.161 1.427,0.009 2.858,0.024 4.289,0.024 -2.267,3.317 -4.341,6.809 -6.624,10.112 -1.407,2.172 -4.369,2.882 -6.238,1.173 -1.262,-1.916 -1.419,-4.472 -1.998,-6.724 -0.736,1.694 -1.371,3.445 -2.15,5.11 -1.21,3.256 -5.76,3.374 -7.159,0.26 -1.712,-3.277 -2.986,-6.84 -4.779,-10.063 z m -78.411,3.351 c 0.547,-2.082 2.649,-2.546 4.253,-2.655 2.552,-0.095 5.145,-0.369 7.669,0.161 2.05,0.251 2.942,4.363 0.796,5.214 -3.043,1.211 -6.311,1.344 -9.369,2.513 0.768,0.483 1.592,0.909 2.484,0.852 2.564,0.009 5.129,-0.076 7.693,-0.071 -0.012,0.998 -0.02,1.997 -0.028,2.995 -3.195,-0.052 -6.391,0.095 -9.582,-0.071 -1.527,-0.104 -3.481,-0.658 -3.923,-2.655 -0.254,-2.072 -0.286,-4.216 0.007,-6.283 m 4.273,0.312 c -0.523,0.544 -0.659,1.41 -0.957,2.125 2.436,-0.573 4.908,-1.008 7.275,-1.916 C 80.86,19.18 78.67,19.279 76.588,19.677 Z m -14.186,5.897 c -0.547,2.082 -2.649,2.546 -4.253,2.655 -2.552,0.095 -5.145,0.369 -7.669,-0.161 -2.05,-0.251 -2.942,-4.363 -0.796,-5.214 3.043,-1.211 6.311,-1.344 9.369,-2.513 -0.768,-0.483 -1.592,-0.909 -2.484,-0.852 -2.564,-0.009 -5.129,0.076 -7.693,0.071 0.012,-0.998 0.02,-1.997 0.028,-2.995 3.195,0.052 6.391,-0.095 9.582,0.071 1.527,0.104 3.481,0.658 3.923,2.655 0.254,2.072 0.286,4.216 -0.007,6.283 m -4.273,-0.312 c 0.523,-0.544 0.659,-1.41 0.957,-2.125 -2.436,0.573 -4.908,1.008 -7.275,1.916 2.045,0.706 4.236,0.607 6.318,0.209 z M 183.778,14.059 h -0.823 v 2.333 h -0.58 v -2.333 h -0.853 v -0.483 h 2.256 z m 3.048,2.333 h -0.58 v -2.287 l -0.502,2.287 h -0.58 l -0.503,-2.276 v 2.276 h -0.58 v -2.816 h 0.848 l 0.523,2.156 0.529,-2.156 h 0.843 v 2.816 z"
         inkscape:connector-curvature="0" />
    </g>
    <path
       id="path6"
       d="M 23.194,16.863 C 20.261,8.755 13.851,2.625 5.828,0 h 5.136 c 5.403,3.431 9.996,9.834 12.315,14.998 z M 19.019,0.04 c 1.912,2.145 3.246,5.071 4.259,7.881 V 0 Z M 14.803,0 h 2.381 c 2.219,3.08 4.594,6.824 6.053,10.288 v 2.328 C 21.038,8.286 18.311,2.94 14.803,0 Z M 0.61,28.344 c 4.604,-1.231 2.392,-4.769 1.253,-7.921 2.527,3.254 6.214,6.493 10.103,7.962 z"
       inkscape:connector-curvature="0"
       style="fill:#1b1b1b" />
    <path
       id="path8"
       d="m 17.607,9.275 c 5.437,5.637 7.14,13.238 3.798,16.973 C 18.066,29.985 10.948,28.443 5.509,22.806 0.072,17.167 -1.63,9.568 1.711,5.831 5.051,2.096 12.168,3.636 17.607,9.275 Z"
       inkscape:connector-curvature="0"
       style="fill:#1b1b1b" />
    <path
       id="path10"
       d="m 20.545,16.759 c -0.513,1.539 -2.573,1.845 -4.6,0.683 -2.027,-1.163 -3.251,-3.353 -2.738,-4.891 0.513,-1.538 2.573,-1.845 4.6,-0.683 2.027,1.162 3.251,3.351 2.738,4.89"
       inkscape:connector-curvature="0"
       style="fill:#e4262a" />
    <path
       id="path12"
       d="m 20.319,16.687 c -0.271,0.8 -0.988,1.22 -1.978,1.227 -0.681,0 -1.478,-0.215 -2.275,-0.673 -1.654,-0.943 -2.746,-2.62 -2.738,-3.939 0,-0.24 0.034,-0.468 0.105,-0.678 0.271,-0.801 0.988,-1.22 1.977,-1.228 0.681,0 1.478,0.215 2.276,0.673 1.654,0.942 2.746,2.618 2.737,3.937 0,0.24 -0.035,0.467 -0.105,0.679 l 0.453,0.144 c 0.087,-0.263 0.128,-0.54 0.128,-0.823 -0.008,-1.556 -1.198,-3.316 -2.973,-4.339 -0.861,-0.493 -1.734,-0.736 -2.517,-0.737 -1.126,-0.007 -2.095,0.531 -2.43,1.549 -0.088,0.262 -0.129,0.54 -0.129,0.823 0.008,1.557 1.198,3.316 2.973,4.341 0.86,0.493 1.733,0.736 2.516,0.737 1.126,0.007 2.095,-0.531 2.431,-1.549 z"
       inkscape:connector-curvature="0"
       style="fill:#e4262a" />
    <path
       id="path14"
       d="m 18.111,18.58 c 0,1.629 -1.796,2.949 -4.014,2.949 -2.218,0 -4.014,-1.319 -4.014,-2.948 -0.002,-1.629 1.796,-2.949 4.012,-2.949 2.218,-0.002 4.016,1.319 4.016,2.948"
       inkscape:connector-curvature="0"
       style="fill:#1b1b1b" />
    <path
       id="path16"
       d="m 17.894,18.58 c 0,0.735 -0.404,1.411 -1.089,1.916 -0.684,0.503 -1.644,0.822 -2.708,0.822 -1.065,0 -2.025,-0.318 -2.709,-0.821 -0.685,-0.504 -1.089,-1.18 -1.089,-1.915 0,-0.736 0.404,-1.412 1.089,-1.917 0.684,-0.503 1.643,-0.821 2.707,-0.821 1.066,0 2.026,0.318 2.71,0.821 0.685,0.504 1.089,1.18 1.089,1.915 h 0.433 c -0.014,-1.795 -1.936,-3.156 -4.232,-3.159 -2.292,0.003 -4.214,1.363 -4.228,3.161 0.014,1.796 1.936,3.156 4.23,3.159 2.295,-0.003 4.216,-1.365 4.23,-3.161 z"
       inkscape:connector-curvature="0"
       style="fill:#1b1b1b" />
    <path
       id="path18"
       d="m 20.367,20.919 c 0,1.403 -1.635,2.541 -3.652,2.541 -2.019,0 -3.654,-1.138 -3.654,-2.539 0,-1.403 1.635,-2.541 3.652,-2.541 2.017,0 3.654,1.136 3.654,2.539"
       inkscape:connector-curvature="0"
       style="fill:#f7e82a" />
    <path
       id="path20"
       d="m 20.176,20.919 c 0,0.627 -0.364,1.208 -0.989,1.644 -0.623,0.434 -1.5,0.71 -2.471,0.71 -0.973,0 -1.85,-0.275 -2.473,-0.709 -0.625,-0.436 -0.989,-1.016 -0.989,-1.642 0,-0.627 0.364,-1.208 0.989,-1.644 0.623,-0.434 1.5,-0.71 2.472,-0.71 0.972,0 1.849,0.275 2.473,0.709 0.623,0.435 0.988,1.015 0.988,1.642 h 0.383 c -0.016,-1.561 -1.767,-2.725 -3.846,-2.726 -2.079,10e-4 -3.828,1.167 -3.844,2.728 0.016,1.559 1.765,2.725 3.846,2.726 2.079,-10e-4 3.828,-1.167 3.844,-2.728 z"
       inkscape:connector-curvature="0"
       style="fill:#f7e82a" />
    <path
       id="path22"
       d="M 12.278,15.158 C 11.759,16.71 9.676,17.017 7.626,15.847 5.577,14.676 4.337,12.469 4.856,10.919 5.375,9.367 7.458,9.058 9.508,10.228 c 2.049,1.171 3.291,3.378 2.77,4.93"
       inkscape:connector-curvature="0"
       style="fill:#33a8e0" />
    <path
       id="path24"
       d="m 12.05,15.085 c -0.274,0.807 -0.999,1.23 -2,1.237 -0.689,0 -1.496,-0.217 -2.303,-0.678 -1.673,-0.949 -2.777,-2.641 -2.769,-3.969 0,-0.241 0.035,-0.47 0.106,-0.682 0.274,-0.808 1,-1.231 2.001,-1.239 0.689,0 1.494,0.217 2.301,0.678 1.672,0.949 2.778,2.64 2.769,3.968 a 2.14,2.14 0 0 1 -0.105,0.685 l 0.457,0.146 c 0.089,-0.265 0.13,-0.545 0.13,-0.831 C 12.629,12.83 11.423,11.056 9.629,10.025 8.759,9.528 7.877,9.283 7.085,9.283 5.946,9.276 4.966,9.818 4.627,10.846 c -0.089,0.264 -0.13,0.544 -0.13,0.829 0.008,1.569 1.213,3.344 3.007,4.375 0.871,0.497 1.754,0.742 2.545,0.743 1.138,0.007 2.118,-0.535 2.457,-1.561 z"
       inkscape:connector-curvature="0"
       style="fill:#33a8e0" />
    <path
       id="path26"
       d="m 10.561,17.008 c 0,1.629 -1.796,2.949 -4.014,2.949 -2.218,0 -4.014,-1.321 -4.014,-2.949 -0.002,-1.629 1.796,-2.949 4.012,-2.949 2.218,0 4.016,1.319 4.016,2.948"
       inkscape:connector-curvature="0"
       style="fill:#1b1b1b" />
    <path
       id="path28"
       d="m 10.344,17.008 c 0,0.735 -0.404,1.411 -1.089,1.916 -0.684,0.503 -1.644,0.822 -2.708,0.822 -1.065,0 -2.025,-0.318 -2.709,-0.822 -0.685,-0.505 -1.089,-1.181 -1.089,-1.916 0,-0.736 0.404,-1.412 1.089,-1.917 0.684,-0.503 1.643,-0.821 2.707,-0.821 1.065,0 2.025,0.318 2.709,0.821 0.685,0.505 1.09,1.18 1.09,1.915 h 0.433 C 10.763,15.209 8.839,13.85 6.545,13.847 4.253,13.85 2.331,15.21 2.317,17.008 c 0.014,1.796 1.935,3.158 4.23,3.161 2.295,-0.003 4.216,-1.365 4.23,-3.161 z"
       inkscape:connector-curvature="0"
       style="fill:#1b1b1b" />
    <path
       id="path30"
       d="m 12.348,19.404 c 0,1.401 -1.635,2.539 -3.654,2.539 -2.017,0 -3.652,-1.136 -3.652,-2.539 -0.002,-1.403 1.633,-2.539 3.652,-2.541 2.017,0 3.652,1.138 3.654,2.539"
       inkscape:connector-curvature="0"
       style="fill:#8fc047" />
    <path
       id="path32"
       d="m 12.156,19.404 c 0,0.626 -0.364,1.207 -0.989,1.642 -0.624,0.434 -1.501,0.71 -2.473,0.709 -0.972,0 -1.848,-0.275 -2.472,-0.709 C 5.597,20.61 5.233,20.03 5.233,19.403 c 0,-0.628 0.364,-1.208 0.989,-1.644 0.623,-0.434 1.5,-0.709 2.472,-0.71 0.972,0 1.848,0.275 2.472,0.709 0.625,0.436 0.99,1.017 0.991,1.643 h 0.383 c -0.018,-1.559 -1.766,-2.725 -3.846,-2.726 -2.08,0.003 -3.828,1.166 -3.844,2.728 0.016,1.561 1.765,2.725 3.844,2.726 2.081,-0.001 3.829,-1.167 3.846,-2.726 h -0.384 z"
       inkscape:connector-curvature="0"
       style="fill:#8fc047" />
    <path
       id="path34"
       d="M 98.255,8.655 H 96.02 V 0.194 h 8.231 c 1.422,0 2.533,1.128 2.572,2.722 v 5.74 h -2.111 v -5.26 c 0,-0.782 -0.411,-1.324 -1.104,-1.396 -0.38,-0.039 -0.765,-0.007 -1.177,-0.007 v 6.662 h -2.209 V 1.946 h -1.967 z m 33.99,0 H 130.01 V 0.194 h 8.231 c 1.423,0 2.534,1.128 2.573,2.722 v 5.74 h -2.111 v -5.26 c 0,-0.782 -0.411,-1.324 -1.104,-1.396 -0.38,-0.039 -0.765,-0.007 -1.177,-0.007 v 6.662 h -2.209 V 1.946 h -1.967 z m -61.05,-3.227 2.188,3.227 h -2.51 L 68.95,5.517 H 66.812 V 8.655 H 64.61 V 0.194 h 6.094 c 1.569,0.001 2.693,1.583 2.377,3.29 -0.174,0.943 -0.716,1.521 -1.514,1.823 -0.111,0.042 -0.224,0.074 -0.372,0.121 z M 66.816,4 h 2.905 C 69.873,3.998 70.031,3.924 70.175,3.856 70.495,3.703 70.716,3.459 70.718,3.034 70.719,2.583 70.572,2.225 70.184,2.061 A 1.9,1.9 0 0 0 69.495,1.908 H 66.816 Z M 94.769,8.652 H 89.156 A 3.984,3.984 0 0 1 87.91,8.421 C 86.875,8.057 86.334,7.143 86.394,5.96 86.456,4.751 87.139,3.823 88.164,3.577 88.403,3.52 88.652,3.491 88.897,3.489 h 3.581 c 0.098,0 -0.098,0 0,0 C 92.465,2.566 91.785,1.819 90.914,1.815 H 86.998 V 0.194 h 4.581 c 1.76,0 3.136,1.473 3.189,3.437 V 8.652 Z M 92.55,5.082 h -2.748 c -0.582,0 -0.978,0.39 -0.987,0.971 -0.008,0.565 0.373,0.938 0.965,0.939 h 2.769 C 92.55,6.993 92.55,5.762 92.55,5.082 Z M 28.591,8.652 V 6.99 h 4.944 c 0.457,0 0.735,-0.254 0.833,-0.756 C 34.44,5.864 34.233,5.486 33.835,5.32 A 1.574,1.574 0 0 0 33.26,5.2 H 30.21 C 28.966,5.179 28.239,4.351 28.127,2.878 28.04,1.731 28.795,0.422 29.817,0.193 h 6.503 v 1.705 h -0.313 c -1.451,0 -2.902,-10e-4 -4.352,0.002 -0.137,0 -0.277,0.013 -0.411,0.04 a 0.802,0.802 0 0 0 -0.657,0.675 0.986,0.986 0 0 0 0.353,0.928 0.543,0.543 0 0 0 0.329,0.105 h 3.286 c 0.815,0.026 1.58,0.26 1.994,1.156 0.722,1.565 0.166,3.813 -1.961,3.847 z M 124.3,0.194 c 0.844,0.031 1.665,0.139 2.433,0.535 1.068,0.551 1.866,1.418 2.093,2.732 0.285,1.656 0.024,3.203 -1.161,4.385 -0.672,0.671 -1.522,0.967 -2.393,1.135 -1.352,0.26 -2.646,0.015 -3.872,-0.677 -1.147,-0.647 -1.628,-1.768 -1.758,-3.126 -0.065,-0.683 -0.052,-1.367 0.138,-2.031 0.449,-1.563 1.491,-2.364 2.853,-2.707 0.544,-0.138 0.857,-0.225 1.667,-0.246 z m 2.461,4.423 c -0.007,-0.154 -0.012,-0.309 -0.02,-0.463 -0.064,-1.155 -0.67,-2.027 -1.615,-2.304 -0.554,-0.162 -1.116,-0.144 -1.67,-0.014 -0.804,0.188 -1.33,0.74 -1.56,1.618 -0.183,0.699 -0.183,1.42 -0.076,2.131 0.124,0.826 0.571,1.387 1.282,1.608 a 4.2,4.2 0 0 0 1.337,0.171 c 1.518,-0.041 2.358,-1.055 2.322,-2.747 z M 63.419,3.587 v 1.607 h -5.245 c 0.014,1.015 0.654,1.737 1.52,1.738 1.125,0.002 3.686,0 3.686,0 V 8.646 H 59.14 C 57.032,8.537 55.747,6.873 55.818,4.687 c 0.023,-0.72 0.066,-1.43 0.305,-2.109 0.518,-1.47 1.711,-2.385 3.116,-2.385 h 4.182 v 1.712 c 0,0 -2.862,-0.01 -3.553,-0.007 -0.842,0.005 -1.543,0.707 -1.654,1.688 z M 43.475,6.925 V 0.194 H 45.63 V 8.653 L 39.957,8.656 C 39.256,8.659 38.692,8.355 38.253,7.76 37.836,7.195 37.58,6.583 37.598,5.802 37.639,4.113 37.61,0.195 37.61,0.195 h 2.162 l -0.009,5.407 c -0.015,0.794 0.378,1.258 1.034,1.324 z M 49.026,5.796 V 8.654 H 46.924 V 0.195 h 5.738 C 53.677,0.164 54.697,1.012 54.999,2.269 55.44,4.106 54.295,5.787 52.586,5.795 51.5,5.8 50.414,5.796 49.328,5.796 Z m 0.071,-1.647 h 2.909 C 52.123,4.147 52.252,4.064 52.354,3.987 52.672,3.747 52.893,3.091 52.791,2.732 52.631,2.171 52.311,1.901 51.783,1.898 H 49.097 Z M 85.804,0.194 v 1.622 h -3.689 c -0.626,0.02 -1.162,0.351 -1.528,0.928 -0.125,0.198 -0.202,0.447 -0.219,0.786 h 5.343 V 5.321 H 80.348 V 8.656 H 78.169 V 3.655 c 0,-1.809 1.225,-3.401 2.845,-3.46 z m 33.169,6.801 v 1.66 h -3.987 c -1.652,0 -2.909,-1.087 -3.311,-2.887 -0.313,-1.404 -0.169,-2.824 0.541,-4.047 0.591,-1.018 1.456,-1.524 2.545,-1.527 h 4.254 v 1.673 h -3.612 c -0.708,0 -1.165,0.367 -1.4,1.116 -0.274,0.873 -0.321,1.847 -0.065,2.741 0.237,0.828 0.803,1.271 1.577,1.271 z M 108.167,0.194 h 2.332 v 8.467 h -2.332 z m 34.446,1.276 c 0,-0.799 0.59,-1.276 1.275,-1.276 0.684,0 1.274,0.48 1.274,1.276 0,0.8 -0.59,1.292 -1.274,1.292 -0.685,0 -1.275,-0.492 -1.275,-1.292 z m 2.285,0 c 0,-0.634 -0.441,-1.042 -1.011,-1.042 -0.57,0 -1.012,0.408 -1.012,1.042 0,0.635 0.441,1.057 1.012,1.057 0.57,0 1.011,-0.422 1.011,-1.057 z m -1.712,0.006 c 0,-0.455 0.357,-0.745 0.746,-0.745 0.239,0 0.39,0.104 0.514,0.228 l -0.213,0.238 c -0.082,-0.085 -0.159,-0.134 -0.264,-0.134 -0.244,0 -0.374,0.183 -0.374,0.412 0,0.262 0.137,0.427 0.353,0.427 0.13,0 0.213,-0.054 0.311,-0.131 l 0.183,0.263 a 0.79,0.79 0 0 1 -0.509,0.201 c -0.432,0.001 -0.747,-0.29 -0.747,-0.759 z"
       inkscape:connector-curvature="0"
       style="fill:#1b1b1b" />
  </g>
</svg>
